<?xml version="1.0" standalone="no"?>
<!DOCTYPE svg PUBLIC "-//W3C//DTD SVG 1.1//EN" "http://www.w3.org/Graphics/SVG/1.1/DTD/svg11.dtd">
<svg class="icon" style="width: 1em;height: 1em;vertical-align: middle;fill: currentColor;overflow: hidden;" viewBox="0 0 1024 1024" version="1.1" xmlns="http://www.w3.org/2000/svg"><path d="M282.965333 682.666667c-139.136 0-251.946667-112.32-251.946666-250.858667 0-73.877333 32.106667-140.309333 83.157333-186.218667A320.64 320.64 0 0 1 420.394667 21.333333c138.24 0 256 87.082667 301.056 209.173334 13.76-2.581333 27.946667-3.925333 42.496-3.925334 126.485333 0 229.013333 102.101333 229.013333 228.053334 0 123.797333-99.093333 224.554667-222.613333 227.946666l-6.4 0.085334H282.965333z" fill="#FFFFFF" /><path d="M992.96 454.613333c0 123.818667-99.093333 224.576-222.613333 227.968l-6.4 0.085334H282.965333c-139.136 0-251.946667-112.32-251.946666-250.858667 0-6.165333 0.234667-12.288 0.682666-18.346667 9.28 124.586667 112.085333 223.253333 238.762667 226.624l6.677333 0.085334h469.845334l6.272-0.085334c120.661333-3.306667 217.472-101.76 217.472-222.698666 0-35.776-8.469333-69.610667-23.530667-99.562667a226.389333 226.389333 0 0 1 45.76 136.789333z" fill="#D1F1FF" /><path d="M420.394667 21.333333c138.24 0 256 87.082667 301.056 209.173334 13.76-2.581333 27.946667-3.925333 42.496-3.925334 126.485333 0 229.013333 102.101333 229.013333 228.053334 0 123.797333-99.093333 224.554667-222.613333 227.946666l-6.4 0.085334H282.965333c-139.136 0-251.946667-112.32-251.946666-250.858667 0-73.877333 32.106667-140.309333 83.157333-186.218667A320.64 320.64 0 0 1 420.394667 21.333333z m0 18.24C287.082667 39.573333 170.666667 126.250667 131.669333 251.008a18.24 18.24 0 0 1-5.226666 8.106667 231.466667 231.466667 0 0 0-77.098667 172.693333c0 126.336 101.141333 229.12 227.2 232.533333l6.421333 0.085334h480.725334l6.144-0.085334c113.877333-3.114667 204.8-96.042667 204.8-209.706666 0-115.882667-94.336-209.813333-210.688-209.813334-13.269333 0-26.346667 1.216-39.082667 3.626667a18.346667 18.346667 0 0 1-20.608-11.648c-43.349333-117.504-156.053333-197.226667-283.861333-197.226667z" fill="#000000" /><path d="M348.394667 759.146667a25.6 25.6 0 0 1 48.853333 15.04l-0.810667 2.666666-73.749333 200.170667a25.6 25.6 0 0 1-48.853333-15.018667l0.810666-2.666666 73.749334-200.192z" fill="#70C5FF" /><path d="M537.557333 725.333333L426.666667 913.685333l73.642666-11.797333L473.642667 1024 597.333333 832.810667l-75.904 9.92z" fill="#FFE34F" /><path d="M700.608 759.146667a25.6 25.6 0 0 1 48.874667 15.04l-0.832 2.666666-73.749334 200.170667a25.6 25.6 0 0 1-48.853333-15.018667l0.810667-2.666666 73.749333-200.192z" fill="#70C5FF" /><path d="M183.317333 804.224c2.346667 0 4.266667 1.642667 4.736 3.84l0.085334 0.981333v6.890667l5.674666-5.034667a4.842667 4.842667 0 0 1 7.082667 6.485334l-0.64 0.725333-12.117333 10.773333v9.002667l18.901333 10.901333 7.786667-4.48 3.306666-15.872a4.842667 4.842667 0 0 1 9.557334 0.981334l-0.106667 0.981333-1.536 7.424 5.973333-3.434667a4.842667 4.842667 0 0 1 5.632 7.786667l-0.789333 0.576-5.973333 3.434667 7.189333 2.389333a4.842667 4.842667 0 0 1-2.069333 9.386667l-0.96-0.213334-15.381334-5.077333-7.786666 4.48v21.845333l7.786666 4.48 15.381334-5.056a4.842667 4.842667 0 0 1 3.925333 8.768l-0.896 0.426667-7.189333 2.346667 5.973333 3.456a4.842667 4.842667 0 0 1-3.946667 8.789333l-0.896-0.426667-5.973333-3.434666 1.536 7.424a4.842667 4.842667 0 0 1-9.173333 2.901333l-0.277334-0.938667-3.285333-15.872-7.786667-4.48-18.922666 10.88v9.024l12.096 10.773334a4.842667 4.842667 0 0 1-5.632 7.808l-0.789334-0.576-5.653333-5.056v6.890666a4.842667 4.842667 0 0 1-9.6 0.981334l-0.085333-0.981334v-6.890666l-5.653334 5.056a4.842667 4.842667 0 0 1-7.104-6.506667l0.661334-0.725333 12.096-10.773334v-8.981333l-18.901334-10.922667-7.786666 4.501334-3.285334 15.850666a4.842667 4.842667 0 0 1-9.578666-0.981333l0.106666-0.981333 1.536-7.402667-5.973333 3.413333a4.842667 4.842667 0 0 1-5.632-7.786666l0.810667-0.576 5.973333-3.413334-7.210667-2.410666a4.842667 4.842667 0 0 1 2.069334-9.386667l0.96 0.213333 15.381333 5.098667 7.786667-4.522667V857.173333l-7.786667-4.48-15.381333 5.077334a4.842667 4.842667 0 0 1-3.925334-8.789334l0.896-0.405333 7.189334-2.368-5.973334-3.456a4.842667 4.842667 0 0 1 3.946667-8.768l0.896 0.405333 5.973333 3.434667-1.536-7.424a4.842667 4.842667 0 0 1 9.173334-2.901333l0.298666 0.938666 3.264 15.872 7.808 4.48 18.901334-10.901333v-9.002667l-12.096-10.773333a4.842667 4.842667 0 0 1 5.632-7.786667l0.810666 0.576 5.653334 5.034667v-6.890667c0-2.666667 2.154667-4.821333 4.842666-4.821333z m-0.021333 45.653333l-15.786667 9.109334v18.197333l15.786667 9.109333 15.786667-9.109333v-18.197333l-15.786667-9.109334z" fill="#6BD1FF" /><path d="M842.496 804.224c2.346667 0 4.266667 1.642667 4.736 3.84l0.085333 0.981333v6.890667l5.674667-5.034667a4.842667 4.842667 0 0 1 7.082667 6.485334l-0.64 0.725333-12.117334 10.773333v9.002667l18.901334 10.901333 7.808-4.48 3.285333-15.872a4.842667 4.842667 0 0 1 9.557333 0.981334l-0.085333 0.981333-1.557333 7.424 5.973333-3.434667a4.842667 4.842667 0 0 1 5.632 7.786667l-0.789333 0.576-5.973334 3.434667 7.210667 2.389333a4.842667 4.842667 0 0 1-2.090667 9.386667l-0.96-0.213334-15.36-5.077333-7.808 4.48v21.845333l7.808 4.48 15.36-5.056a4.842667 4.842667 0 0 1 3.946667 8.768l-0.896 0.426667-7.210667 2.346667 5.973334 3.456a4.842667 4.842667 0 0 1-3.946667 8.789333l-0.896-0.426667-5.973333-3.434666 1.557333 7.424a4.842667 4.842667 0 0 1-9.173333 2.901333l-0.298667-0.938667-3.285333-15.872-7.786667-4.48-18.922667 10.88v9.024l12.096 10.773334a4.842667 4.842667 0 0 1-5.632 7.808l-0.789333-0.576-5.653333-5.056v6.890666a4.842667 4.842667 0 0 1-9.6 0.981334l-0.085334-0.981334v-6.890666l-5.653333 5.056a4.842667 4.842667 0 0 1-7.104-6.506667l0.661333-0.725333 12.117334-10.773334-0.021334-8.981333-18.901333-10.922667-7.786667 4.501334-3.285333 15.850666a4.842667 4.842667 0 0 1-9.578667-0.981333l0.106667-0.981333 1.536-7.402667-5.973333 3.413333a4.842667 4.842667 0 0 1-5.632-7.786666l0.810666-0.576 5.973334-3.413334-7.210667-2.410666a4.842667 4.842667 0 0 1 2.069333-9.386667l0.96 0.213333 15.381334 5.098667 7.786666-4.522667V857.173333l-7.786666-4.48-15.36 5.077334a4.842667 4.842667 0 0 1-3.946667-8.789334l0.896-0.405333 7.189333-2.368-5.973333-3.456a4.842667 4.842667 0 0 1 3.946667-8.768l0.896 0.405333 5.973333 3.434667-1.536-7.424a4.842667 4.842667 0 0 1 9.173333-2.901333l0.298667 0.938666 3.264 15.872 7.808 4.48 18.901333-10.901333v-9.002667l-12.096-10.773333a4.842667 4.842667 0 0 1 5.653334-7.786667l0.789333 0.576 5.653333 5.034667v-6.890667c0-2.666667 2.176-4.821333 4.842667-4.821333z m0 45.653333l-15.786667 9.109334v18.197333l15.786667 9.109333 15.765333-9.109333v-18.197333l-15.786666-9.109334z" fill="#6BD1FF" /><path d="M182.101333 422.805333a74.666667 42.666667 0 1 0 149.333334 0 74.666667 42.666667 0 1 0-149.333334 0Z" fill="#FF9DCF" /><path d="M553.514667 422.805333a74.666667 42.666667 0 1 0 149.333333 0 74.666667 42.666667 0 1 0-149.333333 0Z" fill="#FF9DCF" /><path d="M573.44 281.962667c8.533333 14.762667 16.682667 21.461333 32.853333 28.949333 3.584 1.664 9.130667 2.816 16.064 3.413333 4.864 0.426667 9.813333 0.533333 15.36 0.426667l11.776-0.362667v21.333334l-5.184 0.192c-8.810667 0.341333-16.213333 0.32-23.765333-0.341334-9.173333-0.768-16.96-2.410667-23.210667-5.312-18.346667-8.469333-29.568-17.216-39.808-33.408l-2.56-4.202666 18.474667-10.688zM302.272 281.962667c-8.533333 14.762667-16.682667 21.461333-32.853333 28.949333-3.584 1.664-9.130667 2.816-16.064 3.413333-4.864 0.426667-9.813333 0.533333-15.36 0.426667l-11.776-0.362667v21.333334l5.184 0.192c8.810667 0.341333 16.213333 0.32 23.765333-0.341334 9.173333-0.768 16.96-2.410667 23.210667-5.312 18.346667-8.469333 29.589333-17.216 39.808-33.408l2.56-4.202666-18.474667-10.688z" fill="#000000" /><path d="M374.272 490.666667c9.173333-28.906667 34.346667-50.389333 68.202667-50.389334S502.314667 461.76 510.677333 490.666667c-36.48-28.906667-112.533333-25.194667-136.405333 0z" fill="#000000" /><path d="M778.666667 136.746667a3.626667 3.626667 0 0 0 2.709333-1.173334 3.754667 3.754667 0 0 0 1.130667-2.666666V62.72a3.712 3.712 0 0 0-1.130667-2.709333 3.712 3.712 0 0 0-2.709333-1.130667h-25.493334v-9.28h29.973334a3.626667 3.626667 0 0 0 2.709333-1.173333 3.754667 3.754667 0 0 0 0-5.333334 3.626667 3.626667 0 0 0-2.709333-1.173333h-67.84a3.498667 3.498667 0 0 0-2.624 1.173333 3.754667 3.754667 0 0 0 0 5.333334 3.498667 3.498667 0 0 0 2.624 1.173333h30.293333v9.28h-25.706667a3.882667 3.882667 0 0 0-2.773333 1.130667 3.626667 3.626667 0 0 0-1.173333 2.709333v70.186667c0 1.002667 0.384 1.877333 1.173333 2.666666 0.789333 0.789333 1.706667 1.173333 2.773333 1.173334a3.498667 3.498667 0 0 0 2.624-1.173334 3.754667 3.754667 0 0 0 1.109334-2.666666V66.453333h21.973333V132.906667c0 1.002667 0.362667 1.877333 1.109333 2.666666a3.626667 3.626667 0 0 0 5.333334 0 3.754667 3.754667 0 0 0 1.130666-2.666666V66.453333h21.653334V132.906667c0 1.002667 0.384 1.877333 1.173333 2.666666a3.669333 3.669333 0 0 0 2.666667 1.173334z m-40.896-46.293334a3.541333 3.541333 0 0 0 2.709333-0.746666 3.776 3.776 0 0 0 0.64-5.333334l-7.146667-9.066666a4.202667 4.202667 0 0 0-2.624-1.386667 3.712 3.712 0 0 0-2.816 0.746667 4.181333 4.181333 0 0 0-1.386666 2.56 3.413333 3.413333 0 0 0 0.853333 2.773333l7.253333 9.066667a4.138667 4.138667 0 0 0 2.496 1.386666z m29.376 0a3.626667 3.626667 0 0 0 2.773333-0.746666 4.181333 4.181333 0 0 0 1.386667-2.56 3.626667 3.626667 0 0 0-0.746667-2.773334l-7.253333-9.066666a4.181333 4.181333 0 0 0-2.56-1.386667 3.626667 3.626667 0 0 0-2.773334 0.746667 4.181333 4.181333 0 0 0-1.386666 2.56 3.626667 3.626667 0 0 0 0.746666 2.773333l7.253334 9.066667a4.181333 4.181333 0 0 0 2.56 1.386666z m-29.376 22.293334a3.541333 3.541333 0 0 0 2.709333-0.746667 3.776 3.776 0 0 0 0.64-5.333333l-7.146667-9.066667a4.202667 4.202667 0 0 0-2.624-1.386667 3.712 3.712 0 0 0-2.816 0.746667 4.181333 4.181333 0 0 0-1.386666 2.56 3.413333 3.413333 0 0 0 0.853333 2.773333l7.253333 9.066667a4.138667 4.138667 0 0 0 2.496 1.386667z m29.376 0a3.626667 3.626667 0 0 0 2.773333-0.746667 4.181333 4.181333 0 0 0 1.386667-2.56 3.626667 3.626667 0 0 0-0.746667-2.773333l-7.253333-9.066667a4.181333 4.181333 0 0 0-2.56-1.386667 3.626667 3.626667 0 0 0-2.773334 0.746667 4.181333 4.181333 0 0 0-1.386666 2.56 3.626667 3.626667 0 0 0 0.746666 2.773333l7.253334 9.066667a4.181333 4.181333 0 0 0 2.56 1.386667z m104.64 24.042666A3.754667 3.754667 0 0 0 874.666667 136.106667a3.456 3.456 0 0 0 1.536-2.346667 3.754667 3.754667 0 0 0-0.682667-2.88L846.826667 89.6h26.026666a3.584 3.584 0 0 0 2.624-1.130667 3.712 3.712 0 0 0 1.109334-2.709333 3.52 3.52 0 0 0-1.130667-2.666667 3.669333 3.669333 0 0 0-2.602667-1.066666H843.306667V58.026667h24.96a3.626667 3.626667 0 0 0 3.733333-3.733334 3.797333 3.797333 0 0 0-1.066667-2.709333 3.52 3.52 0 0 0-2.666666-1.130667h-24.96v-8.32a3.882667 3.882667 0 0 0-1.130667-2.773333 3.626667 3.626667 0 0 0-5.333333 0 3.882667 3.882667 0 0 0-1.109334 2.773333v8.32h-24.96a3.712 3.712 0 0 0-2.730666 1.109334 3.712 3.712 0 0 0-1.109334 2.730666c0 1.066667 0.362667 1.962667 1.109334 2.666667 0.746667 0.704 1.664 1.066667 2.730666 1.066667h24.96v24H806.186667a3.797333 3.797333 0 0 0-2.709334 1.066666 3.52 3.52 0 0 0-1.130666 2.666667c0 1.066667 0.362667 1.984 1.130666 2.730667a3.712 3.712 0 0 0 2.709334 1.109333h26.026666l-28.8 41.28a3.989333 3.989333 0 0 0-0.576 2.88 3.456 3.456 0 0 0 1.536 2.346667 3.754667 3.754667 0 0 0 5.333334-0.853334l29.76-42.773333 29.866666 42.773333a3.84 3.84 0 0 0 2.453334 1.536z m-16.661334-57.514666l0.981334-0.192a4.202667 4.202667 0 0 0 2.346666-1.856l5.546667-10.56a3.904 3.904 0 0 0 0.213333-2.816 3.562667 3.562667 0 0 0-1.813333-2.197334 3.712 3.712 0 0 0-2.88-0.32 3.968 3.968 0 0 0-2.346667 1.813334l-5.44 10.56a3.882667 3.882667 0 0 0-0.32 2.922666c0.277333 0.981333 0.896 1.706667 1.813334 2.197334a3.541333 3.541333 0 0 0 2.88 0.277333l-0.981334 0.170667z m-32.298666-0.192c1.002667 0.341333 1.962667 0.234667 2.88-0.256a3.52 3.52 0 0 0 1.92-2.197334 3.882667 3.882667 0 0 0-0.32-2.922666l-5.546667-10.56a3.968 3.968 0 0 0-2.304-1.813334 3.605333 3.605333 0 0 0-2.816 0.32 3.52 3.52 0 0 0-1.92 2.197334 3.605333 3.605333 0 0 0 0.32 2.816l5.546667 10.56a3.776 3.776 0 0 0 2.24 1.856z m107.946666 7.744c1.066667 0 1.962667-0.384 2.709334-1.130667a3.712 3.712 0 0 0 1.130666-2.709333v-21.333334h23.146667v15.68c0 1.002667 0.362667 1.856 1.109333 2.624a3.584 3.584 0 0 0 2.624 1.109334c1.066667 0 1.984-0.362667 2.709334-1.109334a3.584 3.584 0 0 0 1.130666-2.624V57.813333a3.52 3.52 0 0 0-1.130666-2.666666 3.797333 3.797333 0 0 0-2.709334-1.066667h-26.88v-6.186667h26.88a3.498667 3.498667 0 0 0 2.624-1.173333 3.754667 3.754667 0 0 0 0-5.333333 3.498667 3.498667 0 0 0-2.624-1.173334h-61.76a3.626667 3.626667 0 0 0-2.709333 1.173334 3.754667 3.754667 0 0 0 0 5.333333 3.626667 3.626667 0 0 0 2.709333 1.173333h27.306667v6.186667H899.626667a3.669333 3.669333 0 0 0-2.624 1.066667 3.52 3.52 0 0 0-1.109334 2.666666v19.52c0 1.002667 0.384 1.856 1.130667 2.624a3.584 3.584 0 0 0 2.602667 1.109334c1.066667 0 1.984-0.362667 2.709333-1.109334a3.584 3.584 0 0 0 1.130667-2.624V61.653333h23.573333v21.333334c0 1.066667 0.362667 1.962667 1.130667 2.709333a3.584 3.584 0 0 0 2.602666 1.130667z m19.093334-13.12a3.754667 3.754667 0 0 0 2.666666-1.130667 3.626667 3.626667 0 0 0 1.173334-2.709333 3.456 3.456 0 0 0-1.173334-2.666667 3.84 3.84 0 0 0-2.666666-1.066667h-7.253334a3.797333 3.797333 0 0 0-2.730666 1.066667 3.52 3.52 0 0 0-1.109334 2.666667c0 1.066667 0.362667 1.984 1.109334 2.709333a3.712 3.712 0 0 0 2.730666 1.130667h7.253334z m-31.253334 0a3.584 3.584 0 0 0 2.602667-1.130667 3.712 3.712 0 0 0 1.130667-2.709333 3.52 3.52 0 0 0-1.130667-2.666667 3.669333 3.669333 0 0 0-2.602667-1.066667h-7.253333a3.989333 3.989333 0 0 0-2.773333 1.066667 3.456 3.456 0 0 0-1.173334 2.666667c0 1.066667 0.384 1.984 1.173334 2.709333 0.789333 0.746667 1.706667 1.130667 2.773333 1.130667h7.253333z m31.253334 12.16a3.754667 3.754667 0 0 0 2.666666-1.130667 3.626667 3.626667 0 0 0 0-5.333333 3.754667 3.754667 0 0 0-2.666666-1.109334h-7.253334a3.712 3.712 0 0 0-2.730666 1.130667 3.712 3.712 0 0 0-1.109334 2.709333c0 1.002667 0.362667 1.856 1.109334 2.624a3.712 3.712 0 0 0 2.730666 1.109334h7.253334z m-31.253334 0a3.584 3.584 0 0 0 2.602667-1.130667 3.584 3.584 0 0 0 1.130667-2.602667 3.712 3.712 0 0 0-1.130667-2.709333 3.584 3.584 0 0 0-2.602667-1.130667h-7.253333a3.882667 3.882667 0 0 0-2.773333 1.130667 3.626667 3.626667 0 0 0 0 5.333333c0.789333 0.746667 1.706667 1.109333 2.773333 1.109334h7.253333z m36.906667 49.173333a3.498667 3.498667 0 0 0 2.624-1.173333 3.754667 3.754667 0 0 0 1.109333-2.666667V94.72a3.584 3.584 0 0 0-1.130666-2.624 3.584 3.584 0 0 0-2.602667-1.109333h-51.306667a3.712 3.712 0 0 0-2.709333 1.130666 3.584 3.584 0 0 0-1.130667 2.602667c0 1.066667 0.362667 1.984 1.130667 2.773333a3.626667 3.626667 0 0 0 2.709333 1.173334h47.466667v8.96h-43.626667a3.712 3.712 0 0 0-2.709333 1.130666 3.712 3.712 0 0 0-1.130667 2.709334c0 1.066667 0.384 1.962667 1.130667 2.666666 0.725333 0.704 1.642667 1.066667 2.709333 1.066667h43.626667v12.16h-48.533333a3.797333 3.797333 0 0 0-2.773334 1.173333 3.669333 3.669333 0 0 0-1.173333 2.666667c0 1.002667 0.384 1.877333 1.173333 2.666667 0.789333 0.789333 1.706667 1.173333 2.773334 1.173333h52.373333z" fill="#000000" /></svg>