<?xml version="1.0" standalone="no"?>
<!DOCTYPE svg PUBLIC "-//W3C//DTD SVG 1.1//EN" "http://www.w3.org/Graphics/SVG/1.1/DTD/svg11.dtd">
<svg class="icon" style="width: 1em;height: 1em;vertical-align: middle;fill: currentColor;overflow: hidden;" viewBox="0 0 1024 1024" version="1.1" xmlns="http://www.w3.org/2000/svg"><path d="M282.965333 682.666667c-139.136 0-251.946667-112.32-251.946666-250.858667 0-73.877333 32.106667-140.309333 83.157333-186.218667A320.64 320.64 0 0 1 420.394667 21.333333c138.24 0 256 87.082667 301.056 209.173334 13.76-2.581333 27.946667-3.925333 42.496-3.925334 126.485333 0 229.013333 102.101333 229.013333 228.053334 0 123.797333-99.093333 224.554667-222.613333 227.946666l-6.4 0.085334H282.965333z" fill="#FFFFFF" /><path d="M992.96 454.613333c0 123.818667-99.093333 224.576-222.613333 227.968l-6.4 0.085334H282.965333c-139.136 0-251.946667-112.32-251.946666-250.858667 0-6.165333 0.234667-12.288 0.682666-18.346667 9.28 124.586667 112.085333 223.253333 238.762667 226.624l6.677333 0.085334h469.845334l6.272-0.085334c120.661333-3.306667 217.472-101.76 217.472-222.698666 0-35.776-8.469333-69.610667-23.530667-99.562667a226.389333 226.389333 0 0 1 45.76 136.789333z" fill="#D1F1FF" /><path d="M420.394667 21.333333c138.24 0 256 87.082667 301.056 209.173334 13.76-2.581333 27.946667-3.925333 42.496-3.925334 126.485333 0 229.013333 102.101333 229.013333 228.053334 0 123.797333-99.093333 224.554667-222.613333 227.946666l-6.4 0.085334H282.965333c-139.136 0-251.946667-112.32-251.946666-250.858667 0-73.877333 32.106667-140.309333 83.157333-186.218667A320.64 320.64 0 0 1 420.394667 21.333333z m0 18.24C287.082667 39.573333 170.666667 126.250667 131.669333 251.008a18.24 18.24 0 0 1-5.226666 8.106667 231.466667 231.466667 0 0 0-77.098667 172.693333c0 126.336 101.141333 229.12 227.2 232.533333l6.421333 0.085334h480.725334l6.144-0.085334c113.877333-3.114667 204.8-96.042667 204.8-209.706666 0-115.882667-94.336-209.813333-210.688-209.813334-13.269333 0-26.346667 1.216-39.082667 3.626667a18.346667 18.346667 0 0 1-20.608-11.648c-43.349333-117.504-156.053333-197.226667-283.861333-197.226667z" fill="#000000" /><path d="M275.157333 968.405333c34.133333 9.173333 68.501333-8.405333 76.757334-39.253333 7.616-28.373333-2.197333-74.197333-29.44-137.386667-55.232 41.301333-86.613333 76.053333-94.186667 104.277334-8.256 30.826667 12.714667 63.210667 46.869333 72.362666z" fill="#6BD1FF" /><path d="M652.096 968.405333c34.133333 9.173333 68.501333-8.405333 76.757333-39.253333 7.616-28.373333-2.197333-74.197333-29.44-137.386667-55.232 41.301333-86.613333 76.053333-94.186666 104.277334-8.256 30.826667 12.714667 63.210667 46.869333 72.362666z" fill="#6BD1FF" /><path d="M224.746667 440.128a74.666667 42.666667 0 1 0 149.333333 0 74.666667 42.666667 0 1 0-149.333333 0Z" fill="#FF9DCF" /><path d="M561.728 440.128a74.666667 42.666667 0 1 0 149.333333 0 74.666667 42.666667 0 1 0-149.333333 0Z" fill="#FF9DCF" /><path d="M604.842667 330.666667m-32 0a32 32 0 1 0 64 0 32 32 0 1 0-64 0Z" fill="#000000" /><path d="M330.944 330.666667m-32 0a32 32 0 1 0 64 0 32 32 0 1 0-64 0Z" fill="#000000" /><path d="M384.021333 505.856c10.474667-16.576 53.077333-46.122667 96.149334-46.122667 43.072 0 61.802667 16.981333 71.616 25.386667-37.866667-7.253333-119.68 0-167.765334 20.736z" fill="#000000" /><path d="M747.946667 136.746667a3.754667 3.754667 0 0 0 2.666666-1.130667 3.626667 3.626667 0 0 0 1.173334-2.709333V42.56a3.498667 3.498667 0 0 0-1.173334-2.624 3.754667 3.754667 0 0 0-2.666666-1.109333 3.712 3.712 0 0 0-2.730667 1.109333 3.584 3.584 0 0 0-1.109333 2.624V132.906667c0 1.066667 0.362667 1.962667 1.109333 2.709333a3.712 3.712 0 0 0 2.730667 1.130667z m-31.914667-30.122667l0.981333-0.170667a3.562667 3.562667 0 0 0 2.24-1.813333c3.413333-6.677333 6.144-13.824 8.213334-21.44 2.197333-8.682667 3.733333-17.216 4.586666-25.6a3.818667 3.818667 0 0 0-3.413333-4.16 3.818667 3.818667 0 0 0-4.16 3.413333c-0.789333 7.893333-2.282667 16.042667-4.48 24.426667-1.92 7.104-4.416 13.696-7.466667 19.733333a3.882667 3.882667 0 0 0-0.256 2.986667 4.224 4.224 0 0 0 1.856 2.24c0.917333 0.426667 1.877333 0.490667 2.88 0.213333l-0.981333 0.170667z m61.717333 0.021333l1.024-0.085333a3.84 3.84 0 0 0 2.88-4.586667l-10.88-45.546666a3.84 3.84 0 0 0-4.586666-2.88 3.669333 3.669333 0 0 0-2.346667 1.706666 3.989333 3.989333 0 0 0-0.426667 2.88l10.773334 45.546667a3.84 3.84 0 0 0 4.586666 2.88l-1.024 0.085333zM869.333333 136.746667a3.626667 3.626667 0 0 0 2.709334-1.173334 3.754667 3.754667 0 0 0 1.130666-2.666666V62.72a3.712 3.712 0 0 0-1.130666-2.709333 3.712 3.712 0 0 0-2.709334-1.130667h-25.493333v-9.28h29.973333a3.626667 3.626667 0 0 0 2.709334-1.173333 3.754667 3.754667 0 0 0 0-5.333334 3.626667 3.626667 0 0 0-2.709334-1.173333h-67.84a3.498667 3.498667 0 0 0-2.624 1.173333 3.754667 3.754667 0 0 0 0 5.333334 3.498667 3.498667 0 0 0 2.624 1.173333h30.293334v9.28h-25.706667a3.882667 3.882667 0 0 0-2.773333 1.130667 3.626667 3.626667 0 0 0-1.173334 2.709333v70.186667c0 1.002667 0.384 1.877333 1.173334 2.666666 0.789333 0.789333 1.706667 1.173333 2.773333 1.173334a3.498667 3.498667 0 0 0 2.624-1.173334 3.754667 3.754667 0 0 0 1.109333-2.666666V66.453333h21.973334V132.906667c0 1.002667 0.362667 1.877333 1.109333 2.666666a3.626667 3.626667 0 0 0 5.333333 0 3.754667 3.754667 0 0 0 1.130667-2.666666V66.453333h21.653333V132.906667c0 1.002667 0.384 1.877333 1.173334 2.666666a3.669333 3.669333 0 0 0 2.666666 1.173334z m-40.896-46.293334a3.541333 3.541333 0 0 0 2.709334-0.746666 3.776 3.776 0 0 0 0.64-5.333334l-7.146667-9.066666a4.202667 4.202667 0 0 0-2.624-1.386667 3.712 3.712 0 0 0-2.816 0.746667 4.181333 4.181333 0 0 0-1.386667 2.56 3.413333 3.413333 0 0 0 0.853334 2.773333l7.253333 9.066667a4.138667 4.138667 0 0 0 2.496 1.386666z m29.376 0a3.626667 3.626667 0 0 0 2.773334-0.746666 4.181333 4.181333 0 0 0 1.386666-2.56 3.626667 3.626667 0 0 0-0.746666-2.773334l-7.253334-9.066666a4.181333 4.181333 0 0 0-2.56-1.386667 3.626667 3.626667 0 0 0-2.773333 0.746667 4.181333 4.181333 0 0 0-1.386667 2.56 3.626667 3.626667 0 0 0 0.746667 2.773333l7.253333 9.066667a4.181333 4.181333 0 0 0 2.56 1.386666z m-29.376 22.293334a3.541333 3.541333 0 0 0 2.709334-0.746667 3.776 3.776 0 0 0 0.64-5.333333l-7.146667-9.066667a4.202667 4.202667 0 0 0-2.624-1.386667 3.712 3.712 0 0 0-2.816 0.746667 4.181333 4.181333 0 0 0-1.386667 2.56 3.413333 3.413333 0 0 0 0.853334 2.773333l7.253333 9.066667a4.138667 4.138667 0 0 0 2.496 1.386667z m29.376 0a3.626667 3.626667 0 0 0 2.773334-0.746667 4.181333 4.181333 0 0 0 1.386666-2.56 3.626667 3.626667 0 0 0-0.746666-2.773333l-7.253334-9.066667a4.181333 4.181333 0 0 0-2.56-1.386667 3.626667 3.626667 0 0 0-2.773333 0.746667 4.181333 4.181333 0 0 0-1.386667 2.56 3.626667 3.626667 0 0 0 0.746667 2.773333l7.253333 9.066667a4.181333 4.181333 0 0 0 2.56 1.386667z" fill="#000000" /></svg>