<?xml version="1.0" standalone="no"?>
<!DOCTYPE svg PUBLIC "-//W3C//DTD SVG 1.1//EN" "http://www.w3.org/Graphics/SVG/1.1/DTD/svg11.dtd">
<svg class="icon" style="width: 1em;height: 1em;vertical-align: middle;fill: currentColor;overflow: hidden;" viewBox="0 0 1024 1024" version="1.1" xmlns="http://www.w3.org/2000/svg"><path d="M282.965333 682.666667c-139.136 0-251.946667-112.32-251.946666-250.858667 0-73.877333 32.106667-140.309333 83.157333-186.218667A320.64 320.64 0 0 1 420.394667 21.333333c138.24 0 256 87.082667 301.056 209.173334 13.76-2.581333 27.946667-3.925333 42.496-3.925334 126.485333 0 229.013333 102.101333 229.013333 228.053334 0 123.797333-99.093333 224.554667-222.613333 227.946666l-6.4 0.085334H282.965333z" fill="#FFFFFF" /><path d="M992.96 454.613333c0 123.818667-99.093333 224.576-222.613333 227.968l-6.4 0.085334H282.965333c-139.136 0-251.946667-112.32-251.946666-250.858667 0-6.165333 0.234667-12.288 0.682666-18.346667 9.28 124.586667 112.085333 223.253333 238.762667 226.624l6.677333 0.085334h469.845334l6.272-0.085334c120.661333-3.306667 217.472-101.76 217.472-222.698666 0-35.776-8.469333-69.610667-23.530667-99.562667a226.389333 226.389333 0 0 1 45.76 136.789333z" fill="#D1F1FF" /><path d="M420.394667 21.333333c138.24 0 256 87.082667 301.056 209.173334 13.76-2.581333 27.946667-3.925333 42.496-3.925334 126.485333 0 229.013333 102.101333 229.013333 228.053334 0 123.797333-99.093333 224.554667-222.613333 227.946666l-6.4 0.085334H282.965333c-139.136 0-251.946667-112.32-251.946666-250.858667 0-73.877333 32.106667-140.309333 83.157333-186.218667A320.64 320.64 0 0 1 420.394667 21.333333z m0 18.24C287.082667 39.573333 170.666667 126.250667 131.669333 251.008a18.24 18.24 0 0 1-5.226666 8.106667 231.466667 231.466667 0 0 0-77.098667 172.693333c0 126.336 101.141333 229.12 227.2 232.533333l6.421333 0.085334h480.725334l6.144-0.085334c113.877333-3.114667 204.8-96.042667 204.8-209.706666 0-115.882667-94.336-209.813333-210.688-209.813334-13.269333 0-26.346667 1.216-39.082667 3.626667a18.346667 18.346667 0 0 1-20.608-11.648c-43.349333-117.504-156.053333-197.226667-283.861333-197.226667z" fill="#000000" /><path d="M194.133333 968.405333c34.133333 9.173333 68.522667-8.405333 76.8-39.253333 7.594667-28.373333-2.218667-74.197333-29.461333-137.386667-55.253333 41.301333-86.634667 76.053333-94.186667 104.277334-8.256 30.826667 12.714667 63.210667 46.848 72.362666z" fill="#6BD1FF" /><path d="M471.466667 968.405333c34.133333 9.173333 68.522667-8.405333 76.8-39.253333 7.594667-28.373333-2.218667-74.197333-29.461334-137.386667-55.253333 41.301333-86.634667 76.053333-94.186666 104.277334-8.256 30.826667 12.714667 63.210667 46.848 72.362666z" fill="#6BD1FF" /><path d="M748.8 968.405333c34.133333 9.173333 68.522667-8.405333 76.8-39.253333 7.594667-28.373333-2.218667-74.197333-29.461333-137.386667-55.253333 41.301333-86.634667 76.053333-94.186667 104.277334-8.256 30.826667 12.714667 63.210667 46.848 72.362666z" fill="#6BD1FF" /><path d="M229.205333 476.032a74.666667 42.666667 0 1 0 149.333334 0 74.666667 42.666667 0 1 0-149.333334 0Z" fill="#FF9DCF" /><path d="M566.186667 476.032a74.666667 42.666667 0 1 0 149.333333 0 74.666667 42.666667 0 1 0-149.333333 0Z" fill="#FF9DCF" /><path d="M609.301333 366.570667m-32 0a32 32 0 1 0 64 0 32 32 0 1 0-64 0Z" fill="#000000" /><path d="M335.402667 366.570667m-32 0a32 32 0 1 0 64 0 32 32 0 1 0-64 0Z" fill="#000000" /><path d="M523.306667 521.386667a10.666667 10.666667 0 0 1 1.92 21.141333l-1.92 0.170667H421.397333a10.666667 10.666667 0 0 1-1.92-21.162667l1.92-0.170667h101.909334z" fill="#000000" /><path d="M749.333333 136.853333c1.066667 0 1.962667-0.384 2.666667-1.130666a3.797333 3.797333 0 0 0 1.066667-2.709334v-40.106666h25.28a3.584 3.584 0 0 0 2.624-1.130667 3.584 3.584 0 0 0 1.109333-2.602667V60.8a3.584 3.584 0 0 0-1.109333-2.624 3.584 3.584 0 0 0-2.624-1.109333H753.066667V41.386667a3.84 3.84 0 0 0-1.066667-2.666667 3.456 3.456 0 0 0-2.666667-1.173333 3.456 3.456 0 0 0-2.666666 1.173333 3.84 3.84 0 0 0-1.066667 2.666667v15.68h-25.28a3.584 3.584 0 0 0-2.624 1.130666 3.584 3.584 0 0 0-1.109333 2.602667v28.373333c0 1.002667 0.362667 1.877333 1.109333 2.624a3.584 3.584 0 0 0 2.624 1.109334h25.28v40.106666c0 1.066667 0.362667 1.962667 1.066667 2.709334a3.52 3.52 0 0 0 2.666666 1.130666zM774.506667 85.333333H753.066667v-20.693333h21.44V85.333333zM745.6 85.333333h-21.44v-20.693333h21.44V85.333333z m123.733333 51.413334a3.626667 3.626667 0 0 0 2.709334-1.173334 3.754667 3.754667 0 0 0 1.130666-2.666666V62.72a3.712 3.712 0 0 0-1.130666-2.709333 3.712 3.712 0 0 0-2.709334-1.130667h-25.493333v-9.28h29.973333a3.626667 3.626667 0 0 0 2.709334-1.173333 3.754667 3.754667 0 0 0 0-5.333334 3.626667 3.626667 0 0 0-2.709334-1.173333h-67.84a3.498667 3.498667 0 0 0-2.624 1.173333 3.754667 3.754667 0 0 0 0 5.333334 3.498667 3.498667 0 0 0 2.624 1.173333h30.293334v9.28h-25.706667a3.882667 3.882667 0 0 0-2.773333 1.130667 3.626667 3.626667 0 0 0-1.173334 2.709333v70.186667c0 1.002667 0.384 1.877333 1.173334 2.666666 0.789333 0.789333 1.706667 1.173333 2.773333 1.173334a3.498667 3.498667 0 0 0 2.624-1.173334 3.754667 3.754667 0 0 0 1.109333-2.666666V66.453333h21.973334V132.906667c0 1.002667 0.362667 1.877333 1.109333 2.666666a3.626667 3.626667 0 0 0 5.333333 0 3.754667 3.754667 0 0 0 1.130667-2.666666V66.453333h21.653333V132.906667c0 1.002667 0.384 1.877333 1.173334 2.666666a3.669333 3.669333 0 0 0 2.666666 1.173334z m-40.896-46.293334a3.541333 3.541333 0 0 0 2.709334-0.746666 3.776 3.776 0 0 0 0.64-5.333334l-7.146667-9.066666a4.202667 4.202667 0 0 0-2.624-1.386667 3.712 3.712 0 0 0-2.816 0.746667 4.181333 4.181333 0 0 0-1.386667 2.56 3.413333 3.413333 0 0 0 0.853334 2.773333l7.253333 9.066667a4.138667 4.138667 0 0 0 2.496 1.386666z m29.376 0a3.626667 3.626667 0 0 0 2.773334-0.746666 4.181333 4.181333 0 0 0 1.386666-2.56 3.626667 3.626667 0 0 0-0.746666-2.773334l-7.253334-9.066666a4.181333 4.181333 0 0 0-2.56-1.386667 3.626667 3.626667 0 0 0-2.773333 0.746667 4.181333 4.181333 0 0 0-1.386667 2.56 3.626667 3.626667 0 0 0 0.746667 2.773333l7.253333 9.066667a4.181333 4.181333 0 0 0 2.56 1.386666z m-29.376 22.293334a3.541333 3.541333 0 0 0 2.709334-0.746667 3.776 3.776 0 0 0 0.64-5.333333l-7.146667-9.066667a4.202667 4.202667 0 0 0-2.624-1.386667 3.712 3.712 0 0 0-2.816 0.746667 4.181333 4.181333 0 0 0-1.386667 2.56 3.413333 3.413333 0 0 0 0.853334 2.773333l7.253333 9.066667a4.138667 4.138667 0 0 0 2.496 1.386667z m29.376 0a3.626667 3.626667 0 0 0 2.773334-0.746667 4.181333 4.181333 0 0 0 1.386666-2.56 3.626667 3.626667 0 0 0-0.746666-2.773333l-7.253334-9.066667a4.181333 4.181333 0 0 0-2.56-1.386667 3.626667 3.626667 0 0 0-2.773333 0.746667 4.181333 4.181333 0 0 0-1.386667 2.56 3.626667 3.626667 0 0 0 0.746667 2.773333l7.253333 9.066667a4.181333 4.181333 0 0 0 2.56 1.386667z" fill="#000000" /></svg>