<?xml version="1.0" standalone="no"?>
<!DOCTYPE svg PUBLIC "-//W3C//DTD SVG 1.1//EN" "http://www.w3.org/Graphics/SVG/1.1/DTD/svg11.dtd">
<svg class="icon" style="width: 1em;height: 1em;vertical-align: middle;fill: currentColor;overflow: hidden;" viewBox="0 0 1024 1024" version="1.1" xmlns="http://www.w3.org/2000/svg"><path d="M282.965333 682.666667c-139.136 0-251.946667-112.32-251.946666-250.858667 0-73.877333 32.106667-140.309333 83.157333-186.218667A320.64 320.64 0 0 1 420.394667 21.333333c138.24 0 256 87.082667 301.056 209.173334 13.76-2.581333 27.946667-3.925333 42.496-3.925334 126.485333 0 229.013333 102.101333 229.013333 228.053334 0 123.797333-99.093333 224.554667-222.613333 227.946666l-6.4 0.085334H282.965333z" fill="#FFFFFF" /><path d="M992.96 454.613333c0 123.818667-99.093333 224.576-222.613333 227.968l-6.4 0.085334H282.965333c-139.136 0-251.946667-112.32-251.946666-250.858667 0-6.165333 0.234667-12.288 0.682666-18.346667 9.28 124.586667 112.085333 223.253333 238.762667 226.624l6.677333 0.085334h469.845334l6.272-0.085334c120.661333-3.306667 217.472-101.76 217.472-222.698666 0-35.776-8.469333-69.610667-23.530667-99.562667a226.389333 226.389333 0 0 1 45.76 136.789333z" fill="#D1F1FF" /><path d="M420.394667 21.333333c138.24 0 256 87.082667 301.056 209.173334 13.76-2.581333 27.946667-3.925333 42.496-3.925334 126.485333 0 229.013333 102.101333 229.013333 228.053334 0 123.797333-99.093333 224.554667-222.613333 227.946666l-6.4 0.085334H282.965333c-139.136 0-251.946667-112.32-251.946666-250.858667 0-73.877333 32.106667-140.309333 83.157333-186.218667A320.64 320.64 0 0 1 420.394667 21.333333z m0 18.24C287.082667 39.573333 170.666667 126.250667 131.669333 251.008a18.24 18.24 0 0 1-5.226666 8.106667 231.466667 231.466667 0 0 0-77.098667 172.693333c0 126.336 101.141333 229.12 227.2 232.533333l6.421333 0.085334h480.725334l6.144-0.085334c113.877333-3.114667 204.8-96.042667 204.8-209.706666 0-115.882667-94.336-209.813333-210.688-209.813334-13.269333 0-26.346667 1.216-39.082667 3.626667a18.346667 18.346667 0 0 1-20.608-11.648c-43.349333-117.504-156.053333-197.226667-283.861333-197.226667z" fill="#000000" /><path d="M409.088 759.146667a25.6 25.6 0 0 1 48.853333 15.04l-0.810666 2.666666-73.749334 200.170667a25.6 25.6 0 0 1-48.853333-15.018667l0.810667-2.666666 73.749333-200.192zM611.413333 759.146667a25.6 25.6 0 0 1 48.853334 15.04l-0.832 2.666666-73.749334 200.170667a25.6 25.6 0 0 1-48.853333-15.018667l0.810667-2.666666 73.749333-200.192z" fill="#70C5FF" /><path d="M193.28 890.282667c-12.48 12.501333-11.946667 33.301333 1.216 46.464 12.138667 12.138667 36.864 21.781333 74.24 28.970666-7.274667-37.44-16.938667-62.186667-28.992-74.24-13.162667-13.141333-33.962667-13.696-46.442667-1.194666z" fill="#6BD1FF" /><path d="M773.717333 890.282667c12.501333 12.501333 11.946667 33.301333-1.216 46.464-12.117333 12.138667-36.864 21.781333-74.218666 28.970666 7.253333-37.44 16.917333-62.186667 28.970666-74.24 13.162667-13.141333 33.962667-13.696 46.464-1.194666z" fill="#6BD1FF" /><path d="M216.32 441.770667a74.666667 42.666667 0 1 0 149.333333 0 74.666667 42.666667 0 1 0-149.333333 0Z" fill="#FF9DCF" /><path d="M553.301333 441.770667a74.666667 42.666667 0 1 0 149.333334 0 74.666667 42.666667 0 1 0-149.333334 0Z" fill="#FF9DCF" /><path d="M596.437333 355.776m-32 0a32 32 0 1 0 64 0 32 32 0 1 0-64 0Z" fill="#000000" /><path d="M322.538667 355.776m-32 0a32 32 0 1 0 64 0 32 32 0 1 0-64 0Z" fill="#000000" /><path d="M351.658667 237.866667c-36.650667 0-60.288 8.746667-82.090667 34.602666a10.666667 10.666667 0 1 0 16.298667 13.76c17.28-20.48 34.922667-27.029333 65.792-27.029333a10.666667 10.666667 0 0 0 0-21.333333zM567.317333 240.64c36.650667 0 60.288 8.746667 82.090667 34.602667a10.666667 10.666667 0 0 1-16.32 13.76c-17.28-20.48-34.901333-27.029333-65.770667-27.029334a10.666667 10.666667 0 1 1 0-21.333333z" fill="#000000" /><path d="M459.477333 512c45.952 0 65.536 35.904 65.152 58.837333-34.410667 7.957333-92.117333 4.906667-130.282666 0 0-28.373333 19.2-58.837333 65.130666-58.837333z" fill="#FF4848" /><path d="M459.477333 501.333333c-47.189333 0-75.797333 30.293333-75.797333 69.504a10.666667 10.666667 0 0 0 9.301333 10.581334c48.64 6.272 102.357333 7.125333 134.037334-0.192a10.666667 10.666667 0 0 0 8.277333-10.197334c0.597333-35.562667-29.930667-69.696-75.818667-69.696z m3.968 21.44c27.306667 1.578667 45.802667 19.370667 49.749334 39.381334l-1.984 0.32c-25.706667 3.733333-62.890667 3.285333-98.986667-0.32l-6.442667-0.704 0.064-0.234667c4.053333-22.677333 22.72-38.549333 53.632-38.549333l3.968 0.106666z" fill="#000000" /><path d="M779.733333 114.88c1.856 1.493333 3.669333 1.536 5.44 0.106667a3.925333 3.925333 0 0 0 1.066667-2.709334 3.562667 3.562667 0 0 0-1.066667-2.624l-15.893333-15.68h11.626667c1.066667 0 1.962667-0.384 2.666666-1.130666a3.797333 3.797333 0 0 0 1.066667-2.709334 3.669333 3.669333 0 0 0-1.066667-2.602666 3.52 3.52 0 0 0-2.666666-1.130667H763.733333v-5.546667h11.52c1.066667 0 1.962667-0.384 2.666667-1.130666a3.797333 3.797333 0 0 0 1.066667-2.709334 3.626667 3.626667 0 0 0-3.733334-3.733333h-11.52v-4.48h5.546667c1.066667 0 1.984-0.384 2.773333-1.130667a3.626667 3.626667 0 0 0 1.173334-2.709333v-21.12a3.498667 3.498667 0 0 0-1.173334-2.624 3.882667 3.882667 0 0 0-2.773333-1.109333h-42.666667a3.712 3.712 0 0 0-2.730666 1.130666 3.584 3.584 0 0 0-1.109334 2.602667v21.12c0 1.066667 0.362667 1.984 1.109334 2.709333a3.712 3.712 0 0 0 2.730666 1.130667h5.653334v4.48h-11.626667a3.669333 3.669333 0 0 0-2.624 1.066667 3.52 3.52 0 0 0-1.109333 2.666666c0 1.066667 0.384 1.984 1.130666 2.709334a3.584 3.584 0 0 0 2.602667 1.130666h11.626667v5.546667h-17.173334a3.712 3.712 0 0 0-2.730666 1.130667 3.584 3.584 0 0 0-1.109334 2.602666c0 1.066667 0.362667 1.984 1.109334 2.730667a3.712 3.712 0 0 0 2.730666 1.109333h11.626667l-16 15.68a3.370667 3.370667 0 0 0-1.002667 2.624c0.021333 1.024 0.405333 1.92 1.109334 2.709334 0.789333 0.704 1.664 1.066667 2.666666 1.024a4.074667 4.074667 0 0 0 2.666667-1.130667l4.906667-4.8h13.973333c1.066667 0 1.984-0.384 2.730667-1.130667a3.712 3.712 0 0 0 1.109333-2.709333 3.712 3.712 0 0 0-1.109333-2.730667 3.712 3.712 0 0 0-2.730667-1.109333h-6.186667l8.64-8.426667h21.013334l8.533333 8.426667h-6.72a3.712 3.712 0 0 0-2.709333 1.130667 3.712 3.712 0 0 0-1.130667 2.709333c0 1.066667 0.362667 1.962667 1.130667 2.709333a3.712 3.712 0 0 0 2.709333 1.130667h14.506667l4.906666 4.8zM765.546667 51.2H730.453333v-3.52h35.093334V51.2z m0 10.026667H730.453333v-3.52h35.093334v3.52z m-9.386667 12.053333h-16.426667v-4.48h16.426667v4.48z m0 13.12h-16.426667v-5.546667h16.426667v5.546667z m-8.106667 50.773333c1.066667 0 1.984-0.362667 2.730667-1.066666a3.52 3.52 0 0 0 1.109333-2.666667V100.053333a3.712 3.712 0 0 0-1.109333-2.730666 3.712 3.712 0 0 0-2.730667-1.109334 3.52 3.52 0 0 0-2.666666 1.130667 3.797333 3.797333 0 0 0-1.066667 2.709333v33.386667a3.626667 3.626667 0 0 0 3.733333 3.733333z m27.84-0.042666a3.648 3.648 0 0 0 2.666667-1.024 3.712 3.712 0 0 0 0.32-5.333334l-15.786667-17.173333a3.882667 3.882667 0 0 0-2.666666-1.237333 3.648 3.648 0 0 0-2.666667 1.024 3.712 3.712 0 0 0-1.28 2.56 3.456 3.456 0 0 0 0.96 2.666666l15.893333 17.28a3.52 3.52 0 0 0 2.56 1.237334z m-59.2-1.024c1.92 1.344 3.733333 1.28 5.44-0.213334l15.68-17.28a3.648 3.648 0 0 0 1.002667-2.666666 3.52 3.52 0 0 0-1.216-2.56 3.712 3.712 0 0 0-2.730667-1.024 3.584 3.584 0 0 0-2.602666 1.237333l-15.68 17.173333a4.266667 4.266667 0 0 0-1.066667 2.773334c0 1.002667 0.384 1.856 1.173333 2.56z m152.64 0.64a3.626667 3.626667 0 0 0 2.709334-1.173334 3.754667 3.754667 0 0 0 1.130666-2.666666V62.72a3.712 3.712 0 0 0-1.130666-2.709333 3.712 3.712 0 0 0-2.709334-1.130667h-25.493333v-9.28h29.973333a3.626667 3.626667 0 0 0 2.709334-1.173333 3.754667 3.754667 0 0 0 0-5.333334 3.626667 3.626667 0 0 0-2.709334-1.173333h-67.84a3.498667 3.498667 0 0 0-2.624 1.173333 3.754667 3.754667 0 0 0 0 5.333334 3.498667 3.498667 0 0 0 2.624 1.173333h30.293334v9.28h-25.706667a3.882667 3.882667 0 0 0-2.773333 1.130667 3.626667 3.626667 0 0 0-1.173334 2.709333v70.186667c0 1.002667 0.384 1.877333 1.173334 2.666666 0.789333 0.789333 1.706667 1.173333 2.773333 1.173334a3.498667 3.498667 0 0 0 2.624-1.173334 3.754667 3.754667 0 0 0 1.109333-2.666666V66.453333h21.973334V132.906667c0 1.002667 0.362667 1.877333 1.109333 2.666666a3.626667 3.626667 0 0 0 5.333333 0 3.754667 3.754667 0 0 0 1.130667-2.666666V66.453333h21.653333V132.906667c0 1.002667 0.384 1.877333 1.173334 2.666666a3.669333 3.669333 0 0 0 2.666666 1.173334z m-40.896-46.293334a3.541333 3.541333 0 0 0 2.709334-0.746666 3.776 3.776 0 0 0 0.64-5.333334l-7.146667-9.066666a4.202667 4.202667 0 0 0-2.624-1.386667 3.712 3.712 0 0 0-2.816 0.746667 4.181333 4.181333 0 0 0-1.386667 2.56 3.413333 3.413333 0 0 0 0.853334 2.773333l7.253333 9.066667a4.138667 4.138667 0 0 0 2.496 1.386666z m29.376 0a3.626667 3.626667 0 0 0 2.773334-0.746666 4.181333 4.181333 0 0 0 1.386666-2.56 3.626667 3.626667 0 0 0-0.746666-2.773334l-7.253334-9.066666a4.181333 4.181333 0 0 0-2.56-1.386667 3.626667 3.626667 0 0 0-2.773333 0.746667 4.181333 4.181333 0 0 0-1.386667 2.56 3.626667 3.626667 0 0 0 0.746667 2.773333l7.253333 9.066667a4.181333 4.181333 0 0 0 2.56 1.386666z m-29.376 22.293334a3.541333 3.541333 0 0 0 2.709334-0.746667 3.776 3.776 0 0 0 0.64-5.333333l-7.146667-9.066667a4.202667 4.202667 0 0 0-2.624-1.386667 3.712 3.712 0 0 0-2.816 0.746667 4.181333 4.181333 0 0 0-1.386667 2.56 3.413333 3.413333 0 0 0 0.853334 2.773333l7.253333 9.066667a4.138667 4.138667 0 0 0 2.496 1.386667z m29.376 0a3.626667 3.626667 0 0 0 2.773334-0.746667 4.181333 4.181333 0 0 0 1.386666-2.56 3.626667 3.626667 0 0 0-0.746666-2.773333l-7.253334-9.066667a4.181333 4.181333 0 0 0-2.56-1.386667 3.626667 3.626667 0 0 0-2.773333 0.746667 4.181333 4.181333 0 0 0-1.386667 2.56 3.626667 3.626667 0 0 0 0.746667 2.773333l7.253333 9.066667a4.181333 4.181333 0 0 0 2.56 1.386667z" fill="#000000" /></svg>