<?xml version="1.0" standalone="no"?>
<!DOCTYPE svg PUBLIC "-//W3C//DTD SVG 1.1//EN" "http://www.w3.org/Graphics/SVG/1.1/DTD/svg11.dtd">
<svg class="icon" style="width: 1em;height: 1em;vertical-align: middle;fill: currentColor;overflow: hidden;" viewBox="0 0 1024 1024" version="1.1" xmlns="http://www.w3.org/2000/svg"><path d="M282.965333 682.666667c-139.136 0-251.946667-112.32-251.946666-250.858667 0-73.877333 32.106667-140.309333 83.157333-186.218667A320.64 320.64 0 0 1 420.394667 21.333333c138.24 0 256 87.082667 301.056 209.173334 13.76-2.581333 27.946667-3.925333 42.496-3.925334 126.485333 0 229.013333 102.101333 229.013333 228.053334 0 123.797333-99.093333 224.554667-222.613333 227.946666l-6.4 0.085334H282.965333z" fill="#FFFFFF" /><path d="M992.96 454.613333c0 123.818667-99.093333 224.576-222.613333 227.968l-6.4 0.085334H282.965333c-139.136 0-251.946667-112.32-251.946666-250.858667 0-6.165333 0.234667-12.288 0.682666-18.346667 9.28 124.586667 112.085333 223.253333 238.762667 226.624l6.677333 0.085334h469.845334l6.272-0.085334c120.661333-3.306667 217.472-101.76 217.472-222.698666 0-35.776-8.469333-69.610667-23.530667-99.562667a226.389333 226.389333 0 0 1 45.76 136.789333z" fill="#D1F1FF" /><path d="M420.394667 21.333333c138.24 0 256 87.082667 301.056 209.173334 13.76-2.581333 27.946667-3.925333 42.496-3.925334 126.485333 0 229.013333 102.101333 229.013333 228.053334 0 123.797333-99.093333 224.554667-222.613333 227.946666l-6.4 0.085334H282.965333c-139.136 0-251.946667-112.32-251.946666-250.858667 0-73.877333 32.106667-140.309333 83.157333-186.218667A320.64 320.64 0 0 1 420.394667 21.333333z m0 18.24C287.082667 39.573333 170.666667 126.250667 131.669333 251.008a18.24 18.24 0 0 1-5.226666 8.106667 231.466667 231.466667 0 0 0-77.098667 172.693333c0 126.336 101.141333 229.12 227.2 232.533333l6.421333 0.085334h480.725334l6.144-0.085334c113.877333-3.114667 204.8-96.042667 204.8-209.706666 0-115.882667-94.336-209.813333-210.688-209.813334-13.269333 0-26.346667 1.216-39.082667 3.626667a18.346667 18.346667 0 0 1-20.608-11.648c-43.349333-117.504-156.053333-197.226667-283.861333-197.226667z" fill="#000000" /><path d="M327.061333 759.146667a25.6 25.6 0 0 1 48.853334 15.04l-0.810667 2.666666-73.749333 200.170667a25.6 25.6 0 0 1-48.853334-15.018667l0.810667-2.666666 73.749333-200.192zM462.165333 759.146667a25.6 25.6 0 0 1 48.874667 15.04l-0.832 2.666666-73.749333 200.170667a25.6 25.6 0 0 1-48.853334-15.018667l0.810667-2.666666 73.749333-200.192zM597.290667 759.146667a25.6 25.6 0 0 1 48.853333 15.04l-0.810667 2.666666-73.749333 200.170667a25.6 25.6 0 0 1-48.853333-15.018667l0.810666-2.666666 73.749334-200.192zM732.394667 759.146667a25.6 25.6 0 0 1 48.853333 15.04l-0.810667 2.666666-73.749333 200.170667a25.6 25.6 0 0 1-48.853333-15.018667l0.810666-2.666666 73.749334-200.192z" fill="#70C5FF" /><path d="M129.28 890.282667c-12.48 12.501333-11.946667 33.301333 1.216 46.464 12.138667 12.138667 36.864 21.781333 74.24 28.970666-7.274667-37.44-16.938667-62.186667-28.992-74.24-13.162667-13.141333-33.962667-13.696-46.442667-1.194666z" fill="#6BD1FF" /><path d="M859.050667 890.282667c12.501333 12.501333 11.946667 33.301333-1.216 46.464-12.117333 12.138667-36.864 21.781333-74.218667 28.970666 7.253333-37.44 16.917333-62.186667 28.970667-74.24 13.162667-13.141333 33.962667-13.696 46.464-1.194666z" fill="#6BD1FF" /><path d="M406.122667 512a44.885333 44.288 90 1 0 88.576 0 44.885333 44.288 90 1 0-88.576 0Z" fill="#FF4848" /><path d="M450.410667 456.448c-30.378667 0-54.954667 24.917333-54.954667 55.552 0 30.634667 24.576 55.552 54.954667 55.552 30.378667 0 54.954667-24.917333 54.954666-55.552 0-30.634667-24.576-55.552-54.954666-55.552z m0 21.333333c18.538667 0 33.621333 15.296 33.621333 34.218667 0 18.922667-15.082667 34.218667-33.621333 34.218667-18.538667 0-33.621333-15.296-33.621334-34.218667 0-18.922667 15.082667-34.218667 33.621334-34.218667z" fill="#000000" /><path d="M207.253333 476.906667a74.666667 42.666667 0 1 0 149.333334 0 74.666667 42.666667 0 1 0-149.333334 0Z" fill="#FF9DCF" /><path d="M544.234667 476.906667a74.666667 42.666667 0 1 0 149.333333 0 74.666667 42.666667 0 1 0-149.333333 0Z" fill="#FF9DCF" /><path d="M321.856 234.858667C285.205333 234.858667 261.568 243.605333 239.765333 269.44a10.666667 10.666667 0 1 0 16.298667 13.76c17.28-20.48 34.922667-27.008 65.792-27.008a10.666667 10.666667 0 0 0 0-21.333333zM578.965333 237.632c36.650667 0 60.288 8.746667 82.090667 34.602667a10.666667 10.666667 0 1 1-16.298667 13.738666c-17.28-20.48-34.922667-27.008-65.792-27.008a10.666667 10.666667 0 1 1 0-21.333333zM359.296 336.192a10.666667 10.666667 0 0 1 1.237333 13.610667l-1.237333 1.472-22.613333 22.613333 22.613333 22.634667a10.666667 10.666667 0 0 1-13.610667 16.32l-1.493333-1.237334-22.613333-22.634666-22.613334 22.634666a10.666667 10.666667 0 0 1-16.32-13.610666l1.237334-1.472 22.613333-22.634667-22.613333-22.613333a10.666667 10.666667 0 0 1 13.589333-16.32l1.493333 1.237333 22.613334 22.613333 22.613333-22.613333a10.666667 10.666667 0 0 1 15.104 0zM616.938667 328.64a10.666667 10.666667 0 0 1 1.237333 13.610667l-1.237333 1.493333-22.613334 22.592 22.613334 22.656a10.666667 10.666667 0 0 1-13.589334 16.32l-1.493333-1.237333-22.613333-22.656-22.634667 22.656a10.666667 10.666667 0 0 1-16.32-13.610667l1.237333-1.493333 22.613334-22.634667-22.613334-22.613333a10.666667 10.666667 0 0 1 13.610667-16.32l1.472 1.237333 22.613333 22.613333 22.634667-22.613333a10.666667 10.666667 0 0 1 15.082667 0z" fill="#000000" /><path d="M661.12 158.4c1.066667 0 1.984-0.362667 2.730667-1.066667a3.52 3.52 0 0 0 1.109333-2.666666V112.32l8.96-5.546667a3.968 3.968 0 0 0 1.813333-2.282666 3.605333 3.605333 0 0 0-0.32-2.837334 3.84 3.84 0 0 0-2.453333-1.813333 4.096 4.096 0 0 0-2.88 0.426667l-5.12 3.2v-13.653334h6.4c1.066667 0 1.962667-0.384 2.666667-1.130666a3.797333 3.797333 0 0 0 1.066666-2.709334 3.669333 3.669333 0 0 0-1.066666-2.624 3.52 3.52 0 0 0-2.666667-1.109333h-6.4v-19.413333a3.584 3.584 0 0 0-1.130667-2.624 3.712 3.712 0 0 0-2.709333-1.109334 3.712 3.712 0 0 0-2.709333 1.109334 3.584 3.584 0 0 0-1.130667 2.624v19.413333h-5.76l1.6-8.533333a3.882667 3.882667 0 0 0-0.64-2.837334 3.754667 3.754667 0 0 0-2.453333-1.536 4.053333 4.053333 0 0 0-2.88 0.64 3.690667 3.690667 0 0 0-1.6 2.453334l-2.346667 13.013333c-0.149333 1.130667 0.170667 2.133333 0.96 3.050667a3.690667 3.690667 0 0 0 2.88 1.322666h10.24v18.24l-14.613333 8.96a3.626667 3.626667 0 0 0-1.706667 2.24 3.712 3.712 0 0 0 0.32 2.88c0.64 0.917333 1.450667 1.493333 2.410667 1.770667 0.96 0.234667 1.898667 0.106667 2.816-0.384l10.773333-6.613333v37.76c0 1.066667 0.384 1.962667 1.130667 2.666666s1.642667 1.066667 2.709333 1.066667zM721.066667 93.866667c1.066667 0 1.984-0.384 2.730666-1.130667a3.712 3.712 0 0 0 1.109334-2.709333 3.584 3.584 0 0 0-1.109334-2.602667 3.712 3.712 0 0 0-2.730666-1.130667h-16.533334v-9.386666h11.52a3.84 3.84 0 0 0 2.666667-1.066667 3.456 3.456 0 0 0 1.173333-2.666667 3.797333 3.797333 0 0 0-1.173333-2.773333 3.669333 3.669333 0 0 0-2.666667-1.173333h-11.52V63.146667a3.989333 3.989333 0 0 0-1.066666-2.773334 3.456 3.456 0 0 0-2.666667-1.173333 3.626667 3.626667 0 0 0-2.730667 1.173333 3.882667 3.882667 0 0 0-1.109333 2.773334v6.08h-11.306667a3.498667 3.498667 0 0 0-2.624 1.173333 3.882667 3.882667 0 0 0-1.109333 2.773333c0 1.066667 0.384 1.962667 1.109333 2.666667 0.746667 0.704 1.621333 1.066667 2.624 1.066667h11.306667v9.386666h-16.32a3.584 3.584 0 0 0-2.624 1.130667 3.584 3.584 0 0 0-1.109333 2.602667c0 1.066667 0.362667 1.984 1.109333 2.730666a3.584 3.584 0 0 0 2.624 1.109334H721.066667z m-11.84 64.533333c1.066667 0 1.984-0.384 2.730666-1.130667a3.712 3.712 0 0 0 1.109334-2.709333v-40.96h8a3.626667 3.626667 0 0 0 2.730666-1.173333 3.754667 3.754667 0 0 0 1.109334-2.666667 3.712 3.712 0 0 0-1.109334-2.709333 3.712 3.712 0 0 0-2.730666-1.130667h-8V99.84a3.712 3.712 0 0 0-1.109334-2.709333 3.712 3.712 0 0 0-2.730666-1.130667 3.584 3.584 0 0 0-2.602667 1.130667 3.712 3.712 0 0 0-1.130667 2.709333v6.08h-24.853333a3.584 3.584 0 0 0-2.624 1.130667 3.712 3.712 0 0 0-1.109333 2.709333c0 1.002667 0.362667 1.877333 1.109333 2.666667a3.498667 3.498667 0 0 0 2.624 1.173333h24.853333v40.96c0 1.066667 0.362667 1.984 1.130667 2.709333a3.584 3.584 0 0 0 2.602667 1.130667z m-18.346667-16.213333a3.626667 3.626667 0 0 0 2.730667-1.173334 3.754667 3.754667 0 0 0 1.109333-2.666666V123.52a3.712 3.712 0 0 0-1.109333-2.730667 3.712 3.712 0 0 0-2.730667-1.109333 3.584 3.584 0 0 0-2.602667 1.109333 3.712 3.712 0 0 0-1.130666 2.730667v14.826667c0 1.002667 0.362667 1.877333 1.130666 2.666666a3.498667 3.498667 0 0 0 2.602667 1.173334z m113.002667 16c0.96 0.362667 1.941333 0.277333 2.944-0.213334a3.776 3.776 0 0 0 1.856-2.133333 4.224 4.224 0 0 0-0.042667-2.88l-27.306667-62.826667h26.56c1.066667 0 1.984-0.384 2.730667-1.109333a3.584 3.584 0 0 0 1.109333-2.624 3.712 3.712 0 0 0-1.109333-2.709333 3.712 3.712 0 0 0-2.730667-1.130667h-28.48v-18.88a3.882667 3.882667 0 0 0-1.109333-2.773333 3.626667 3.626667 0 0 0-5.333333 0 3.882667 3.882667 0 0 0-1.130667 2.773333v18.88h-27.84a3.584 3.584 0 0 0-2.624 1.109333 3.712 3.712 0 0 0-1.109333 2.730667c0 1.002667 0.362667 1.877333 1.109333 2.624a3.584 3.584 0 0 0 2.624 1.109333h25.813333L742.613333 152.96a4.224 4.224 0 0 0-0.064 2.88 3.733333 3.733333 0 0 0 1.984 2.133333 3.434667 3.434667 0 0 0 2.88 0.213334 3.946667 3.946667 0 0 0 2.133334-2.026667l26.026666-60.266667L801.706667 156.16a3.925333 3.925333 0 0 0 2.176 2.026667z m93.184-21.973334c1.856 1.493333 3.669333 1.536 5.44 0.106667a3.925333 3.925333 0 0 0 1.066666-2.709333 3.562667 3.562667 0 0 0-1.066666-2.624l-15.893334-15.68h11.626667c1.066667 0 1.962667-0.384 2.666667-1.130667a3.797333 3.797333 0 0 0 1.066666-2.709333 3.669333 3.669333 0 0 0-1.066666-2.602667 3.52 3.52 0 0 0-2.666667-1.130667H881.066667v-5.546666h11.52c1.066667 0 1.962667-0.384 2.666666-1.130667a3.797333 3.797333 0 0 0 1.066667-2.709333 3.626667 3.626667 0 0 0-3.733333-3.733334h-11.52v-4.48h5.546666c1.066667 0 1.984-0.384 2.773334-1.109333a3.626667 3.626667 0 0 0 1.173333-2.730667v-21.12a3.498667 3.498667 0 0 0-1.173333-2.624 3.882667 3.882667 0 0 0-2.773334-1.109333h-42.666666a3.712 3.712 0 0 0-2.730667 1.130667 3.584 3.584 0 0 0-1.109333 2.602666v21.12c0 1.066667 0.362667 1.984 1.109333 2.730667a3.712 3.712 0 0 0 2.730667 1.109333h5.653333v4.48h-11.626667a3.669333 3.669333 0 0 0-2.624 1.066667 3.52 3.52 0 0 0-1.109333 2.666667c0 1.066667 0.384 1.962667 1.130667 2.709333a3.584 3.584 0 0 0 2.602666 1.130667h11.626667v5.546666h-17.173333a3.712 3.712 0 0 0-2.730667 1.130667 3.584 3.584 0 0 0-1.109333 2.602667c0 1.066667 0.362667 1.984 1.109333 2.730666a3.712 3.712 0 0 0 2.730667 1.109334h11.626666l-16 15.68a3.370667 3.370667 0 0 0-1.002666 2.624c0.021333 1.024 0.405333 1.92 1.109333 2.709333 0.789333 0.704 1.664 1.066667 2.666667 1.024a4.074667 4.074667 0 0 0 2.666666-1.130667l4.906667-4.8h13.973333c1.066667 0 1.984-0.384 2.730667-1.130666a3.712 3.712 0 0 0 1.109333-2.709334 3.712 3.712 0 0 0-1.109333-2.730666 3.712 3.712 0 0 0-2.730667-1.109334h-6.186666l8.64-8.426666h21.013333l8.533333 8.426666h-6.72a3.712 3.712 0 0 0-2.709333 1.130667 3.712 3.712 0 0 0-1.130667 2.709333c0 1.066667 0.362667 1.962667 1.130667 2.709334a3.712 3.712 0 0 0 2.709333 1.130666h14.506667l4.906667 4.8zM882.88 72.533333H847.786667v-3.52h35.093333V72.533333z m0 10.026667H847.786667v-3.52h35.093333v3.52z m-9.386667 12.053333h-16.426666v-4.48h16.426666v4.48z m0 13.12h-16.426666v-5.546666h16.426666v5.546666z m-8.106666 50.773334c1.066667 0 1.984-0.362667 2.730666-1.066667a3.52 3.52 0 0 0 1.109334-2.666667V121.386667a3.712 3.712 0 0 0-1.109334-2.730667 3.712 3.712 0 0 0-2.730666-1.109333 3.52 3.52 0 0 0-2.666667 1.130666 3.797333 3.797333 0 0 0-1.066667 2.709334v33.386666a3.626667 3.626667 0 0 0 3.733334 3.733334z m27.84-0.042667a3.648 3.648 0 0 0 2.666666-1.024 3.712 3.712 0 0 0 0.32-5.333333l-15.786666-17.173334a3.882667 3.882667 0 0 0-2.666667-1.237333 3.648 3.648 0 0 0-2.666667 1.024 3.712 3.712 0 0 0-1.28 2.56 3.456 3.456 0 0 0 0.96 2.666667l15.893334 17.28a3.52 3.52 0 0 0 2.56 1.237333z m-59.2-1.024c1.92 1.344 3.733333 1.28 5.44-0.213333l15.68-17.28a3.648 3.648 0 0 0 1.002666-2.666667 3.52 3.52 0 0 0-1.216-2.56 3.712 3.712 0 0 0-2.730666-1.024 3.584 3.584 0 0 0-2.602667 1.237333l-15.68 17.173334a4.266667 4.266667 0 0 0-1.066667 2.773333c0 1.002667 0.384 1.856 1.173334 2.56z m152.64 0.64a3.626667 3.626667 0 0 0 2.709333-1.173333 3.754667 3.754667 0 0 0 1.130667-2.666667V84.053333a3.712 3.712 0 0 0-1.130667-2.709333 3.712 3.712 0 0 0-2.709333-1.130667h-25.493334v-9.28h29.973334a3.626667 3.626667 0 0 0 2.709333-1.173333 3.754667 3.754667 0 0 0 0-5.333333 3.626667 3.626667 0 0 0-2.709333-1.173334h-67.84a3.498667 3.498667 0 0 0-2.624 1.173334 3.754667 3.754667 0 0 0 0 5.333333 3.498667 3.498667 0 0 0 2.624 1.173333h30.293333v9.28h-25.706667a3.882667 3.882667 0 0 0-2.773333 1.130667 3.626667 3.626667 0 0 0-1.173333 2.709333v70.186667c0 1.002667 0.384 1.877333 1.173333 2.666667 0.789333 0.789333 1.706667 1.173333 2.773333 1.173333a3.498667 3.498667 0 0 0 2.624-1.173333 3.754667 3.754667 0 0 0 1.109334-2.666667V87.786667h21.973333V154.24c0 1.002667 0.362667 1.877333 1.109333 2.666667a3.626667 3.626667 0 0 0 5.333334 0 3.754667 3.754667 0 0 0 1.130666-2.666667V87.786667h21.653334V154.24c0 1.002667 0.384 1.877333 1.173333 2.666667a3.669333 3.669333 0 0 0 2.666667 1.173333z m-40.896-46.293333a3.541333 3.541333 0 0 0 2.709333-0.746667 3.776 3.776 0 0 0 0.64-5.333333l-7.146667-9.066667a4.202667 4.202667 0 0 0-2.624-1.386667 3.712 3.712 0 0 0-2.816 0.746667 4.181333 4.181333 0 0 0-1.386666 2.56 3.413333 3.413333 0 0 0 0.853333 2.773333l7.253333 9.066667a4.138667 4.138667 0 0 0 2.496 1.386667z m29.376 0a3.626667 3.626667 0 0 0 2.773333-0.746667 4.181333 4.181333 0 0 0 1.386667-2.56 3.626667 3.626667 0 0 0-0.746667-2.773333l-7.253333-9.066667a4.181333 4.181333 0 0 0-2.56-1.386667 3.626667 3.626667 0 0 0-2.773334 0.746667 4.181333 4.181333 0 0 0-1.386666 2.56 3.626667 3.626667 0 0 0 0.746666 2.773333l7.253334 9.066667a4.181333 4.181333 0 0 0 2.56 1.386667z m-29.376 22.293333a3.541333 3.541333 0 0 0 2.709333-0.746667 3.776 3.776 0 0 0 0.64-5.333333l-7.146667-9.066667a4.202667 4.202667 0 0 0-2.624-1.386666 3.712 3.712 0 0 0-2.816 0.746666 4.181333 4.181333 0 0 0-1.386666 2.56 3.413333 3.413333 0 0 0 0.853333 2.773334l7.253333 9.066666a4.138667 4.138667 0 0 0 2.496 1.386667z m29.376 0a3.626667 3.626667 0 0 0 2.773333-0.746667 4.181333 4.181333 0 0 0 1.386667-2.56 3.626667 3.626667 0 0 0-0.746667-2.773333l-7.253333-9.066667a4.181333 4.181333 0 0 0-2.56-1.386666 3.626667 3.626667 0 0 0-2.773334 0.746666 4.181333 4.181333 0 0 0-1.386666 2.56 3.626667 3.626667 0 0 0 0.746666 2.773334l7.253334 9.066666a4.181333 4.181333 0 0 0 2.56 1.386667z" fill="#000000" /></svg>