<?xml version="1.0" standalone="no"?>
<!DOCTYPE svg PUBLIC "-//W3C//DTD SVG 1.1//EN" "http://www.w3.org/Graphics/SVG/1.1/DTD/svg11.dtd">
<svg class="icon" style="width: 1em;height: 1em;vertical-align: middle;fill: currentColor;overflow: hidden;" viewBox="0 0 1024 1024" version="1.1" xmlns="http://www.w3.org/2000/svg"><path d="M224 768.192a7.253333 7.253333 0 0 1 7.104 5.781333l0.149333 1.472v10.325334l8.490667-7.573334a7.253333 7.253333 0 0 1 10.645333 9.749334l-1.002666 1.066666-18.133334 16.192v13.504l28.352 16.341334 11.690667-6.741334 4.928-23.786666a7.253333 7.253333 0 0 1 14.357333 1.493333l-0.149333 1.450667-2.304 11.136 8.96-5.162667a7.253333 7.253333 0 0 1 8.426667 11.690667l-1.194667 0.853333-8.96 5.162667 10.816 3.584a7.253333 7.253333 0 0 1-3.114667 14.08l-1.450666-0.298667-23.061334-7.637333-11.690666 6.741333v32.746667l11.690666 6.741333 23.061334-7.616a7.253333 7.253333 0 0 1 5.909333 13.184l-1.344 0.597333-10.794667 3.562667 8.96 5.162667a7.253333 7.253333 0 0 1-5.930666 13.162666l-1.344-0.597333-8.938667-5.184 2.304 11.157333a7.253333 7.253333 0 0 1-13.76 4.352l-0.426667-1.408-4.949333-23.808-11.669333-6.741333-28.373334 16.362667v13.504l18.133334 16.170666a7.253333 7.253333 0 0 1-8.448 11.690667l-1.194667-0.853333-8.490667-7.573334v10.325334a7.253333 7.253333 0 0 1-14.357333 1.472l-0.149333-1.472v-10.325334l-8.490667 7.573334a7.253333 7.253333 0 0 1-10.645333-9.749334l1.002666-1.066666 18.133334-16.192v-13.482667l-28.373334-16.384-11.669333 6.762667-4.928 23.786666a7.253333 7.253333 0 0 1-14.357333-1.493333l0.149333-1.450667 2.304-11.136-8.96 5.162667a7.253333 7.253333 0 0 1-8.426667-11.690667l1.194667-0.853333 8.96-5.162667-10.816-3.584a7.253333 7.253333 0 0 1 3.114667-14.08l1.450666 0.298667 23.061334 7.637333 11.669333-6.762666v-32.746667l-11.669333-6.72-23.061334 7.616a7.253333 7.253333 0 0 1-5.909333-13.184l1.344-0.597333 10.794667-3.562667-8.96-5.162667a7.253333 7.253333 0 0 1 5.930666-13.162666l1.344 0.597333 8.938667 5.184-2.304-11.157333a7.253333 7.253333 0 0 1 13.76-4.352l0.426667 1.408 4.949333 23.808 11.690667 6.72 28.352-16.362667v-13.482667l-18.133334-16.170666a7.253333 7.253333 0 0 1 8.448-11.690667l1.194667 0.853333 8.490667 7.573334v-10.325334a7.253333 7.253333 0 0 1 7.253333-7.253333z m0 68.48l-23.68 13.674667v27.285333l23.68 13.653333 23.658667-13.653333V850.346667l-23.68-13.653334zM501.333333 768.192a7.253333 7.253333 0 0 1 7.104 5.781333l0.149334 1.472v10.325334l8.490666-7.573334a7.253333 7.253333 0 0 1 10.645334 9.749334l-1.002667 1.066666-18.133333 16.192v13.504l28.352 16.341334 11.690666-6.741334 4.928-23.786666a7.253333 7.253333 0 0 1 14.357334 1.493333l-0.149334 1.450667-2.304 11.136 8.96-5.162667a7.253333 7.253333 0 0 1 8.426667 11.690667l-1.194667 0.853333-8.96 5.162667 10.816 3.584a7.253333 7.253333 0 0 1-3.114666 14.08l-1.450667-0.298667-23.061333-7.637333-11.690667 6.741333v32.746667l11.690667 6.741333 23.061333-7.616a7.253333 7.253333 0 0 1 5.909333 13.184l-1.344 0.597333-10.794666 3.562667 8.96 5.162667a7.253333 7.253333 0 0 1-5.930667 13.162666l-1.344-0.597333-8.938667-5.184 2.304 11.157333a7.253333 7.253333 0 0 1-13.76 4.352l-0.426666-1.408-4.949334-23.808-11.669333-6.741333-28.373333 16.362667v13.504l18.133333 16.170666a7.253333 7.253333 0 0 1-8.448 11.690667l-1.194667-0.853333-8.490666-7.573334v10.325334a7.253333 7.253333 0 0 1-14.357334 1.472l-0.149333-1.472v-10.325334l-8.490667 7.573334a7.253333 7.253333 0 0 1-10.645333-9.749334l1.002667-1.066666 18.133333-16.192v-13.482667l-28.373333-16.384-11.669334 6.762667-4.928 23.786666a7.253333 7.253333 0 0 1-14.357333-1.493333l0.149333-1.450667 2.304-11.136-8.96 5.162667a7.253333 7.253333 0 0 1-8.426666-11.690667l1.194666-0.853333 8.96-5.162667-10.816-3.584a7.253333 7.253333 0 0 1 3.114667-14.08l1.450667 0.298667 23.061333 7.637333 11.669333-6.762666v-32.746667l-11.669333-6.72-23.061333 7.616a7.253333 7.253333 0 0 1-5.909334-13.184l1.344-0.597333 10.794667-3.562667-8.96-5.162667a7.253333 7.253333 0 0 1 5.930667-13.162666l1.344 0.597333 8.938666 5.184-2.304-11.157333a7.253333 7.253333 0 0 1 13.76-4.352l0.426667 1.408 4.949333 23.808 11.690667 6.72 28.352-16.362667v-13.482667l-18.133333-16.170666a7.253333 7.253333 0 0 1 8.448-11.690667l1.194666 0.853333 8.490667 7.573334v-10.325334a7.253333 7.253333 0 0 1 7.253333-7.253333z m0 68.48l-23.68 13.674667v27.285333l23.68 13.653333 23.658667-13.653333V850.346667l-23.68-13.653334zM778.666667 768.192a7.253333 7.253333 0 0 1 7.104 5.781333l0.149333 1.472v10.325334l8.490667-7.573334a7.253333 7.253333 0 0 1 10.645333 9.749334l-1.002667 1.066666-18.133333 16.192v13.504l28.352 16.341334 11.690667-6.741334 4.928-23.786666a7.253333 7.253333 0 0 1 14.357333 1.493333l-0.149333 1.450667-2.304 11.136 8.96-5.162667a7.253333 7.253333 0 0 1 8.426666 11.690667l-1.194666 0.853333-8.96 5.162667 10.816 3.584a7.253333 7.253333 0 0 1-3.114667 14.08l-1.450667-0.298667-23.061333-7.637333-11.690667 6.741333v32.746667l11.690667 6.741333 23.061333-7.616a7.253333 7.253333 0 0 1 5.909334 13.184l-1.344 0.597333-10.794667 3.562667 8.96 5.162667a7.253333 7.253333 0 0 1-5.930667 13.162666l-1.344-0.597333-8.938666-5.184 2.304 11.157333a7.253333 7.253333 0 0 1-13.76 4.352l-0.426667-1.408-4.949333-23.808-11.669334-6.741333-28.373333 16.362667v13.504l18.133333 16.170666a7.253333 7.253333 0 0 1-8.448 11.690667l-1.194666-0.853333-8.490667-7.573334v10.325334a7.253333 7.253333 0 0 1-14.357333 1.472l-0.149334-1.472v-10.325334l-8.490666 7.573334a7.253333 7.253333 0 0 1-10.645334-9.749334l1.002667-1.066666 18.133333-16.192v-13.482667l-28.373333-16.384-11.669333 6.762667-4.928 23.786666a7.253333 7.253333 0 0 1-14.357334-1.493333l0.149334-1.450667 2.304-11.136-8.96 5.162667a7.253333 7.253333 0 0 1-8.426667-11.690667l1.194667-0.853333 8.96-5.162667-10.816-3.584a7.253333 7.253333 0 0 1 3.114666-14.08l1.450667 0.298667 23.061333 7.637333 11.669334-6.762666v-32.746667l-11.669334-6.72-23.061333 7.616a7.253333 7.253333 0 0 1-5.909333-13.184l1.344-0.597333 10.794666-3.562667-8.96-5.162667a7.253333 7.253333 0 0 1 5.930667-13.162666l1.344 0.597333 8.938667 5.184-2.304-11.157333a7.253333 7.253333 0 0 1 13.76-4.352l0.426666 1.408 4.949334 23.808 11.690666 6.72 28.352-16.362667v-13.482667l-18.133333-16.170666a7.253333 7.253333 0 0 1 8.448-11.690667l1.194667 0.853333 8.490666 7.573334v-10.325334a7.253333 7.253333 0 0 1 7.253334-7.253333z m0 68.48l-23.68 13.674667v27.285333l23.68 13.653333 23.658666-13.653333V850.346667l-23.68-13.653334z" fill="#6BD1FF" /><path d="M696.896 263.104m-133.696 0a133.696 133.696 0 1 0 267.392 0 133.696 133.696 0 1 0-267.392 0Z" fill="#FFE34F" /><path d="M696.896 433.770667c7.296 0 13.312 5.482667 14.122667 12.565333l0.106666 1.664v56.874667a14.229333 14.229333 0 0 1-28.373333 1.664l-0.085333-1.664v-56.874667c0-7.872 6.378667-14.229333 14.229333-14.229333z m139.456-51.178667l1.344 1.194667 40.213333 40.213333a14.229333 14.229333 0 0 1-18.773333 21.312l-1.344-1.194667-40.213333-40.213333a14.229333 14.229333 0 0 1 18.773333-21.312z m-260.138667 1.194667c5.12 5.12 5.525333 13.184 1.194667 18.773333l-1.194667 1.344-40.213333 40.213333a14.229333 14.229333 0 0 1-21.312-18.773333l1.194667-1.344L556.096 383.786667c5.546667-5.546667 14.570667-5.546667 20.117333 0z m362.453334-134.912a14.229333 14.229333 0 0 1 1.664 28.373333l-1.664 0.085333h-56.874667a14.229333 14.229333 0 0 1-1.664-28.373333l1.664-0.085333h56.874667z m-483.541334 0h56.874667a14.229333 14.229333 0 0 1 1.664 28.373333l-1.664 0.085333H455.125333a14.229333 14.229333 0 0 1-1.664-28.373333l1.664-0.085333h56.874667H455.125333z m422.784-166.784c5.12 5.12 5.546667 13.184 1.194667 18.773333l-1.194667 1.344L837.696 142.421333a14.229333 14.229333 0 0 1-21.312-18.773333l1.194667-1.344 40.213333-40.213333c5.546667-5.546667 14.570667-5.546667 20.117333 0z m-362.026666 0c5.546667-5.546667 14.549333-5.546667 20.117333 0L576.213333 122.304a14.229333 14.229333 0 1 1-20.117333 20.117333L515.882667 102.208a14.229333 14.229333 0 0 1 0-20.117333zM696.896 7.104c7.296 0 13.312 5.482667 14.122667 12.565333l0.106666 1.664v56.874667a14.229333 14.229333 0 0 1-28.373333 1.664l-0.085333-1.664V21.333333c0-7.872 6.378667-14.229333 14.229333-14.229333z" fill="#FFE34F" /><path d="M318.976 693.333333C201.728 693.333333 106.666667 599.146667 106.666667 482.944a209.024 209.024 0 0 1 70.058666-156.202667C210.986667 217.813333 313.557333 138.666667 434.794667 138.666667c116.48 0 215.765333 73.045333 253.717333 175.424a194.816 194.816 0 0 1 35.797333-3.285334c106.602667 0 193.024 85.632 193.024 191.253334 0 103.850667-83.52 188.373333-187.605333 191.210666l-5.418667 0.064h-405.333333z" fill="#FFFFFF" /><path d="M917.333333 502.058667c0 103.850667-83.52 188.373333-187.605333 191.210666l-5.418667 0.064h-405.333333C201.728 693.333333 106.666667 599.146667 106.666667 482.944c0-5.184 0.192-10.304 0.554666-15.381333 7.829333 104.490667 94.464 187.221333 201.216 190.058666l5.632 0.064h395.968l5.290667-0.064c101.696-2.773333 183.253333-85.333333 183.253333-186.773333a184.682667 184.682667 0 0 0-19.84-83.52A189.290667 189.290667 0 0 1 917.333333 502.058667z" fill="#D1F1FF" /><path d="M434.794667 138.666667c116.48 0 215.765333 73.045333 253.717333 175.424a194.816 194.816 0 0 1 35.797333-3.285334c106.602667 0 193.024 85.632 193.024 191.253334 0 103.850667-83.52 188.373333-187.605333 191.210666l-5.418667 0.064h-405.333333C201.728 693.333333 106.666667 599.146667 106.666667 482.944a209.024 209.024 0 0 1 70.058666-156.202667C210.986667 217.813333 313.557333 138.666667 434.794667 138.666667z m0 15.296c-112.341333 0-210.453333 72.704-243.306667 177.344a15.296 15.296 0 0 1-4.394667 6.805333 193.728 193.728 0 0 0-64.981333 144.832c0 105.941333 85.226667 192.170667 191.445333 195.008l5.418667 0.085333h405.12l5.205333-0.064c95.957333-2.624 172.586667-80.554667 172.586667-175.914666 0-97.173333-79.509333-175.957333-177.578667-175.957334-11.157333 0-22.186667 1.024-32.938666 3.029334a15.466667 15.466667 0 0 1-17.344-9.749334c-36.544-98.56-131.52-165.418667-239.232-165.418666z" fill="#000000" /><path d="M256.853333 538.709333a74.666667 42.666667 0 1 0 149.333334 0 74.666667 42.666667 0 1 0-149.333334 0Z" fill="#FF9DCF" /><path d="M532.693333 538.709333a74.666667 42.666667 0 1 0 149.333334 0 74.666667 42.666667 0 1 0-149.333334 0Z" fill="#FF9DCF" /><path d="M320 405.333333m-32 0a32 32 0 1 0 64 0 32 32 0 1 0-64 0Z" fill="#000000" /><path d="M618.858667 405.333333m-32 0a32 32 0 1 0 64 0 32 32 0 1 0-64 0Z" fill="#000000" /><path d="M515.306667 426.709333a10.666667 10.666667 0 0 1 9.664 11.605334c-2.474667 26.944-26.730667 47.466667-55.530667 47.466666-28.821333 0-53.056-20.522667-55.530667-47.466666a10.666667 10.666667 0 0 1 21.248-1.962667c1.429333 15.616 16.149333 28.096 34.282667 28.096 18.112 0 32.853333-12.48 34.282667-28.096a10.666667 10.666667 0 0 1 9.664-9.642667h1.92z" fill="#000000" /><path d="M119.104 78.933333a3.584 3.584 0 0 0 2.624-1.130666 3.584 3.584 0 0 0 1.109333-2.602667 3.712 3.712 0 0 0-1.109333-2.730667 3.584 3.584 0 0 0-2.624-1.109333h-19.626667v-4.48h12.48c1.066667 0 1.984-0.384 2.730667-1.130667a3.712 3.712 0 0 0 1.109333-2.709333 3.584 3.584 0 0 0-1.109333-2.624 3.712 3.712 0 0 0-2.730667-1.109333h-12.48V55.466667h14.613334c1.066667 0 1.984-0.384 2.730666-1.130667a3.712 3.712 0 0 0 1.109334-2.709333 3.52 3.52 0 0 0-1.109334-2.666667 3.797333 3.797333 0 0 0-2.730666-1.066667h-14.613334v-5.12a3.797333 3.797333 0 0 0-1.066666-2.730666 3.52 3.52 0 0 0-2.666667-1.109334 3.712 3.712 0 0 0-2.709333 1.109334 3.712 3.712 0 0 0-1.130667 2.730666v5.12h-14.506667a3.797333 3.797333 0 0 0-2.709333 1.066667 3.52 3.52 0 0 0-1.130667 2.666667c0 1.066667 0.384 1.962667 1.130667 2.709333a3.712 3.712 0 0 0 2.709333 1.130667h14.506667v3.84h-12.373333a3.712 3.712 0 0 0-2.709334 1.109333 3.584 3.584 0 0 0-1.130666 2.624c0 1.066667 0.384 1.962667 1.130666 2.709333a3.712 3.712 0 0 0 2.709334 1.130667h12.373333v4.48h-19.306667a3.52 3.52 0 0 0-2.666666 1.109333 3.797333 3.797333 0 0 0-1.066667 2.730667c0 1.002667 0.362667 1.856 1.066667 2.602667a3.52 3.52 0 0 0 2.666666 1.130666h46.506667z m-55.466667 46.613334a3.584 3.584 0 0 0 2.624-1.130667 3.712 3.712 0 0 0 1.109334-2.709333V51.2a3.584 3.584 0 0 0-1.109334-2.624 3.584 3.584 0 0 0-2.624-1.109333h-16.853333a3.52 3.52 0 0 0-2.666667 1.109333 3.669333 3.669333 0 0 0-1.066666 2.624v70.506667c0 1.066667 0.362667 1.962667 1.066666 2.709333a3.52 3.52 0 0 0 2.666667 1.130667h16.853333zM59.690667 77.653333h-9.173334V55.04h9.173334v22.613333z m51.626666 62.293334c1.066667 0 1.984-0.362667 2.730667-1.066667a3.52 3.52 0 0 0 1.109333-2.666667V86.826667a3.584 3.584 0 0 0-1.109333-2.624 3.712 3.712 0 0 0-2.730667-1.109334h-29.866666a3.712 3.712 0 0 0-2.709334 1.109334 3.584 3.584 0 0 0-1.130666 2.624v48.853333c0 1.002667 0.384 1.856 1.130666 2.602667a3.712 3.712 0 0 0 2.709334 1.130666c1.066667 0 1.962667-0.384 2.666666-1.130666a3.669333 3.669333 0 0 0 1.066667-2.602667v-18.986667h22.4v19.52a3.626667 3.626667 0 0 0 3.733333 3.733334z m-51.626666-21.973334h-9.173334V85.226667h9.173334V117.973333z m47.893333-22.293333h-22.4V90.666667h22.4v5.013333z m0 13.333333h-22.4v-5.76h22.4v5.76z m94.08 29.802667a3.882667 3.882667 0 0 0 2.88-0.362667 3.562667 3.562667 0 0 0 1.813333-2.197333 3.605333 3.605333 0 0 0-0.32-2.816L179.477333 82.346667h25.813334a3.584 3.584 0 0 0 2.624-1.130667 3.712 3.712 0 0 0 1.109333-2.709333 3.52 3.52 0 0 0-1.109333-2.666667 3.669333 3.669333 0 0 0-2.624-1.066667H177.024V52.906667h21.76c1.066667 0 1.984-0.384 2.730667-1.130667a3.712 3.712 0 0 0 1.109333-2.709333 3.52 3.52 0 0 0-1.109333-2.666667 3.797333 3.797333 0 0 0-2.730667-1.066667h-50.346667a3.669333 3.669333 0 0 0-2.602666 1.066667 3.52 3.52 0 0 0-1.130667 2.666667c0 1.066667 0.384 1.962667 1.130667 2.709333a3.584 3.584 0 0 0 2.602666 1.130667h21.12v21.866666h-27.52a3.989333 3.989333 0 0 0-2.773333 1.066667 3.456 3.456 0 0 0-1.173333 2.666667c0 1.066667 0.405333 1.962667 1.173333 2.709333 0.789333 0.746667 1.706667 1.130667 2.773333 1.130667h25.066667L140.544 133.44a3.904 3.904 0 0 0-0.213333 2.816c0.298667 0.96 0.896 1.706667 1.813333 2.197333 0.938667 0.490667 1.898667 0.64 2.88 0.362667a3.392 3.392 0 0 0 2.24-1.749333l26.026667-50.56 26.133333 50.56c0.512 0.917333 1.258667 1.493333 2.24 1.749333z m76.693333 1.237333c1.066667 0 1.984-0.384 2.730667-1.130666a3.712 3.712 0 0 0 1.109333-2.709334V108.373333h17.493334c1.066667 0 2.005333-0.384 2.773333-1.173333a3.925333 3.925333 0 0 0 1.173333-2.88 3.669333 3.669333 0 0 0-1.173333-2.666667 3.797333 3.797333 0 0 0-2.773333-1.173333h-17.493334v-13.333333h11.52c1.066667 0 2.005333-0.384 2.773334-1.130667a3.626667 3.626667 0 0 0 1.173333-2.709333 3.626667 3.626667 0 0 0-1.173333-2.730667 3.882667 3.882667 0 0 0-2.773334-1.109333h-11.52V66.56a3.882667 3.882667 0 0 0-1.109333-2.773333 3.626667 3.626667 0 0 0-2.730667-1.173334 3.626667 3.626667 0 0 0-2.709333 1.173334 3.882667 3.882667 0 0 0-1.130667 2.773333v12.906667h-8.96l7.253334-22.293334h23.36c1.066667 0 1.984-0.384 2.730666-1.130666a3.712 3.712 0 0 0 1.109334-2.709334 3.712 3.712 0 0 0-1.109334-2.730666 3.712 3.712 0 0 0-2.730666-1.109334h-20.906667l1.92-5.866666a3.797333 3.797333 0 0 0-0.32-2.944 4.032 4.032 0 0 0-2.24-1.856 3.946667 3.946667 0 0 0-4.906667 2.56l-2.56 8.106666h-10.026666a3.754667 3.754667 0 0 0-2.666667 1.109334 3.626667 3.626667 0 0 0-1.173333 2.730666c0 1.066667 0.405333 1.962667 1.173333 2.709334a3.754667 3.754667 0 0 0 2.666667 1.130666h7.573333l-8 24.853334a4.096 4.096 0 0 0 0.533333 3.52c0.725333 1.066667 1.749333 1.6 3.093334 1.6h14.186666v13.333333h-20.16a3.626667 3.626667 0 0 0-2.709333 1.173333 4.010667 4.010667 0 0 0 0 5.546667 3.626667 3.626667 0 0 0 2.709333 1.173333h20.16v27.84c0 1.066667 0.384 1.962667 1.130667 2.709334a3.712 3.712 0 0 0 2.709333 1.130666z m-49.706666-0.96c1.066667 0 1.984-0.384 2.730666-1.130666a3.712 3.712 0 0 0 1.109334-2.709334V50.773333h9.92l-5.866667 23.36a3.712 3.712 0 0 0 0.704 3.306667 4.010667 4.010667 0 0 0 3.029333 1.493333h4.16l-7.786666 29.333334a3.989333 3.989333 0 0 0 0.426666 2.88c0.512 0.853333 1.258667 1.386667 2.24 1.6 1.066667 0.277333 2.048 0.213333 2.944-0.277334a3.434667 3.434667 0 0 0 1.749334-2.282666l8.96-33.92a3.989333 3.989333 0 0 0-0.682667-3.413334 3.498667 3.498667 0 0 0-2.944-1.493333h-4.373333l5.866666-23.253333a4.437333 4.437333 0 0 0-0.746666-3.477334 3.413333 3.413333 0 0 0-2.88-1.429333h-18.56a3.712 3.712 0 0 0-2.709334 1.109333 3.712 3.712 0 0 0-1.130666 2.730667V135.253333c0 1.066667 0.384 1.962667 1.130666 2.709334a3.712 3.712 0 0 0 2.709334 1.130666z m126.4-50.24c1.066667 0 1.984-0.384 2.730666-1.130666a3.712 3.712 0 0 0 1.109334-2.709334v-21.333333h23.146666v15.68c0 1.002667 0.384 1.856 1.130667 2.602667a3.584 3.584 0 0 0 2.602667 1.130666c1.066667 0 1.984-0.384 2.730666-1.130666a3.584 3.584 0 0 0 1.109334-2.602667v-19.52a3.52 3.52 0 0 0-1.109334-2.666667 3.797333 3.797333 0 0 0-2.730666-1.066666h-26.88v-6.186667h26.88a3.498667 3.498667 0 0 0 2.624-1.173333 3.754667 3.754667 0 0 0 0-5.333334 3.498667 3.498667 0 0 0-2.624-1.173333h-61.76a3.626667 3.626667 0 0 0-2.709334 1.173333 3.754667 3.754667 0 0 0 0 5.333334 3.626667 3.626667 0 0 0 2.709334 1.173333h27.306666v6.186667h-27.413333a3.669333 3.669333 0 0 0-2.602667 1.066666 3.52 3.52 0 0 0-1.130666 2.666667v19.52c0 1.002667 0.384 1.856 1.130666 2.602667a3.584 3.584 0 0 0 2.602667 1.130666c1.066667 0 1.984-0.384 2.730667-1.130666a3.584 3.584 0 0 0 1.109333-2.602667v-15.68h23.573333v21.333333c0 1.066667 0.384 1.962667 1.130667 2.709334a3.584 3.584 0 0 0 2.602667 1.130666z m19.093333-13.12a3.754667 3.754667 0 0 0 2.666667-1.130666 3.626667 3.626667 0 0 0 1.173333-2.709334 3.456 3.456 0 0 0-1.173333-2.666666 3.84 3.84 0 0 0-2.666667-1.066667h-7.253333a3.797333 3.797333 0 0 0-2.709334 1.066667 3.52 3.52 0 0 0-1.130666 2.666666c0 1.066667 0.384 1.962667 1.130666 2.709334a3.712 3.712 0 0 0 2.709334 1.130666h7.253333z m-31.253333 0a3.584 3.584 0 0 0 2.624-1.130666 3.712 3.712 0 0 0 1.109333-2.709334 3.52 3.52 0 0 0-1.109333-2.666666 3.669333 3.669333 0 0 0-2.624-1.066667h-7.253334a3.989333 3.989333 0 0 0-2.773333 1.066667 3.456 3.456 0 0 0-1.173333 2.666666c0 1.066667 0.405333 1.962667 1.173333 2.709334 0.789333 0.746667 1.706667 1.130667 2.773333 1.130666h7.253334z m31.253333 12.16a3.754667 3.754667 0 0 0 2.666667-1.130666 3.626667 3.626667 0 0 0 0-5.333334 3.754667 3.754667 0 0 0-2.666667-1.109333h-7.253333a3.712 3.712 0 0 0-2.709334 1.109333 3.712 3.712 0 0 0-1.130666 2.730667c0 1.002667 0.384 1.856 1.130666 2.602667a3.712 3.712 0 0 0 2.709334 1.130666h7.253333z m-31.253333 0a3.584 3.584 0 0 0 2.624-1.130666 3.584 3.584 0 0 0 1.109333-2.602667 3.712 3.712 0 0 0-1.109333-2.730667 3.584 3.584 0 0 0-2.624-1.109333h-7.253334a3.882667 3.882667 0 0 0-2.773333 1.109333 3.626667 3.626667 0 0 0 0 5.333334c0.789333 0.746667 1.706667 1.130667 2.773333 1.130666h7.253334z m36.906666 49.173334a3.498667 3.498667 0 0 0 2.624-1.173334 3.754667 3.754667 0 0 0 1.109334-2.666666v-36.48a3.584 3.584 0 0 0-1.109334-2.624 3.584 3.584 0 0 0-2.624-1.109334h-51.306666a3.712 3.712 0 0 0-2.709334 1.109334 3.584 3.584 0 0 0-1.130666 2.624c0 1.066667 0.384 1.984 1.130666 2.773333a3.626667 3.626667 0 0 0 2.709334 1.173333h47.466666v8.96h-43.626666a3.712 3.712 0 0 0-2.709334 1.109334 3.712 3.712 0 0 0-1.130666 2.730666c0 1.066667 0.384 1.962667 1.130666 2.666667s1.642667 1.066667 2.709334 1.066667h43.626666v12.16h-48.533333a3.797333 3.797333 0 0 0-2.773333 1.173333 3.669333 3.669333 0 0 0-1.173334 2.666667c0 1.002667 0.405333 1.877333 1.173334 2.666666 0.789333 0.789333 1.706667 1.173333 2.773333 1.173334h52.373333z" fill="#000000" /></svg>