<?xml version="1.0" standalone="no"?>
<!DOCTYPE svg PUBLIC "-//W3C//DTD SVG 1.1//EN" "http://www.w3.org/Graphics/SVG/1.1/DTD/svg11.dtd">
<svg class="icon" style="width: 1em;height: 1em;vertical-align: middle;fill: currentColor;overflow: hidden;" viewBox="0 0 1024 1024" version="1.1" xmlns="http://www.w3.org/2000/svg"><path d="M224 768.192a7.253333 7.253333 0 0 1 7.104 5.781333l0.149333 1.472v10.325334l8.490667-7.573334a7.253333 7.253333 0 0 1 10.645333 9.749334l-1.002666 1.066666-18.133334 16.192v13.504l28.352 16.341334 11.690667-6.741334 4.928-23.786666a7.253333 7.253333 0 0 1 14.357333 1.493333l-0.149333 1.450667-2.304 11.136 8.96-5.162667a7.253333 7.253333 0 0 1 8.426667 11.690667l-1.194667 0.853333-8.96 5.162667 10.816 3.584a7.253333 7.253333 0 0 1-3.114667 14.08l-1.450666-0.298667-23.061334-7.637333-11.690666 6.741333v32.746667l11.690666 6.741333 23.061334-7.616a7.253333 7.253333 0 0 1 5.909333 13.184l-1.344 0.597333-10.794667 3.562667 8.96 5.162667a7.253333 7.253333 0 0 1-5.930666 13.162666l-1.344-0.597333-8.938667-5.184 2.304 11.157333a7.253333 7.253333 0 0 1-13.76 4.352l-0.426667-1.408-4.949333-23.808-11.669333-6.741333-28.373334 16.362667v13.504l18.133334 16.170666a7.253333 7.253333 0 0 1-8.448 11.690667l-1.194667-0.853333-8.490667-7.573334v10.325334a7.253333 7.253333 0 0 1-14.357333 1.472l-0.149333-1.472v-10.325334l-8.490667 7.573334a7.253333 7.253333 0 0 1-10.645333-9.749334l1.002666-1.066666 18.133334-16.192v-13.482667l-28.373334-16.384-11.669333 6.762667-4.928 23.786666a7.253333 7.253333 0 0 1-14.357333-1.493333l0.149333-1.450667 2.304-11.136-8.96 5.162667a7.253333 7.253333 0 0 1-8.426667-11.690667l1.194667-0.853333 8.96-5.162667-10.816-3.584a7.253333 7.253333 0 0 1 3.114667-14.08l1.450666 0.298667 23.061334 7.637333 11.669333-6.762666v-32.746667l-11.669333-6.72-23.061334 7.616a7.253333 7.253333 0 0 1-5.909333-13.184l1.344-0.597333 10.794667-3.562667-8.96-5.162667a7.253333 7.253333 0 0 1 5.930666-13.162666l1.344 0.597333 8.938667 5.184-2.304-11.157333a7.253333 7.253333 0 0 1 13.76-4.352l0.426667 1.408 4.949333 23.808 11.690667 6.72 28.352-16.362667v-13.482667l-18.133334-16.170666a7.253333 7.253333 0 0 1 8.448-11.690667l1.194667 0.853333 8.490667 7.573334v-10.325334a7.253333 7.253333 0 0 1 7.253333-7.253333z m0 68.48l-23.68 13.674667v27.285333l23.68 13.653333 23.658667-13.653333V850.346667l-23.68-13.653334zM501.333333 768.192a7.253333 7.253333 0 0 1 7.104 5.781333l0.149334 1.472v10.325334l8.490666-7.573334a7.253333 7.253333 0 0 1 10.645334 9.749334l-1.002667 1.066666-18.133333 16.192v13.504l28.352 16.341334 11.690666-6.741334 4.928-23.786666a7.253333 7.253333 0 0 1 14.357334 1.493333l-0.149334 1.450667-2.304 11.136 8.96-5.162667a7.253333 7.253333 0 0 1 8.426667 11.690667l-1.194667 0.853333-8.96 5.162667 10.816 3.584a7.253333 7.253333 0 0 1-3.114666 14.08l-1.450667-0.298667-23.061333-7.637333-11.690667 6.741333v32.746667l11.690667 6.741333 23.061333-7.616a7.253333 7.253333 0 0 1 5.909333 13.184l-1.344 0.597333-10.794666 3.562667 8.96 5.162667a7.253333 7.253333 0 0 1-5.930667 13.162666l-1.344-0.597333-8.938667-5.184 2.304 11.157333a7.253333 7.253333 0 0 1-13.76 4.352l-0.426666-1.408-4.949334-23.808-11.669333-6.741333-28.373333 16.362667v13.504l18.133333 16.170666a7.253333 7.253333 0 0 1-8.448 11.690667l-1.194667-0.853333-8.490666-7.573334v10.325334a7.253333 7.253333 0 0 1-14.357334 1.472l-0.149333-1.472v-10.325334l-8.490667 7.573334a7.253333 7.253333 0 0 1-10.645333-9.749334l1.002667-1.066666 18.133333-16.192v-13.482667l-28.373333-16.384-11.669334 6.762667-4.928 23.786666a7.253333 7.253333 0 0 1-14.357333-1.493333l0.149333-1.450667 2.304-11.136-8.96 5.162667a7.253333 7.253333 0 0 1-8.426666-11.690667l1.194666-0.853333 8.96-5.162667-10.816-3.584a7.253333 7.253333 0 0 1 3.114667-14.08l1.450667 0.298667 23.061333 7.637333 11.669333-6.762666v-32.746667l-11.669333-6.72-23.061333 7.616a7.253333 7.253333 0 0 1-5.909334-13.184l1.344-0.597333 10.794667-3.562667-8.96-5.162667a7.253333 7.253333 0 0 1 5.930667-13.162666l1.344 0.597333 8.938666 5.184-2.304-11.157333a7.253333 7.253333 0 0 1 13.76-4.352l0.426667 1.408 4.949333 23.808 11.690667 6.72 28.352-16.362667v-13.482667l-18.133333-16.170666a7.253333 7.253333 0 0 1 8.448-11.690667l1.194666 0.853333 8.490667 7.573334v-10.325334a7.253333 7.253333 0 0 1 7.253333-7.253333z m0 68.48l-23.68 13.674667v27.285333l23.68 13.653333 23.658667-13.653333V850.346667l-23.68-13.653334zM778.666667 768.192a7.253333 7.253333 0 0 1 7.104 5.781333l0.149333 1.472v10.325334l8.490667-7.573334a7.253333 7.253333 0 0 1 10.645333 9.749334l-1.002667 1.066666-18.133333 16.192v13.504l28.352 16.341334 11.690667-6.741334 4.928-23.786666a7.253333 7.253333 0 0 1 14.357333 1.493333l-0.149333 1.450667-2.304 11.136 8.96-5.162667a7.253333 7.253333 0 0 1 8.426666 11.690667l-1.194666 0.853333-8.96 5.162667 10.816 3.584a7.253333 7.253333 0 0 1-3.114667 14.08l-1.450667-0.298667-23.061333-7.637333-11.690667 6.741333v32.746667l11.690667 6.741333 23.061333-7.616a7.253333 7.253333 0 0 1 5.909334 13.184l-1.344 0.597333-10.794667 3.562667 8.96 5.162667a7.253333 7.253333 0 0 1-5.930667 13.162666l-1.344-0.597333-8.938666-5.184 2.304 11.157333a7.253333 7.253333 0 0 1-13.76 4.352l-0.426667-1.408-4.949333-23.808-11.669334-6.741333-28.373333 16.362667v13.504l18.133333 16.170666a7.253333 7.253333 0 0 1-8.448 11.690667l-1.194666-0.853333-8.490667-7.573334v10.325334a7.253333 7.253333 0 0 1-14.357333 1.472l-0.149334-1.472v-10.325334l-8.490666 7.573334a7.253333 7.253333 0 0 1-10.645334-9.749334l1.002667-1.066666 18.133333-16.192v-13.482667l-28.373333-16.384-11.669333 6.762667-4.928 23.786666a7.253333 7.253333 0 0 1-14.357334-1.493333l0.149334-1.450667 2.304-11.136-8.96 5.162667a7.253333 7.253333 0 0 1-8.426667-11.690667l1.194667-0.853333 8.96-5.162667-10.816-3.584a7.253333 7.253333 0 0 1 3.114666-14.08l1.450667 0.298667 23.061333 7.637333 11.669334-6.762666v-32.746667l-11.669334-6.72-23.061333 7.616a7.253333 7.253333 0 0 1-5.909333-13.184l1.344-0.597333 10.794666-3.562667-8.96-5.162667a7.253333 7.253333 0 0 1 5.930667-13.162666l1.344 0.597333 8.938667 5.184-2.304-11.157333a7.253333 7.253333 0 0 1 13.76-4.352l0.426666 1.408 4.949334 23.808 11.690666 6.72 28.352-16.362667v-13.482667l-18.133333-16.170666a7.253333 7.253333 0 0 1 8.448-11.690667l1.194667 0.853333 8.490666 7.573334v-10.325334a7.253333 7.253333 0 0 1 7.253334-7.253333z m0 68.48l-23.68 13.674667v27.285333l23.68 13.653333 23.658666-13.653333V850.346667l-23.68-13.653334z" fill="#6BD1FF" /><path d="M679.36 94.549333c0 85.184 66.133333 154.24 147.669333 154.24 16.682667 0 32.704-2.88 47.637334-8.192C851.541333 299.690667 795.946667 341.333333 731.050667 341.333333 645.418667 341.333333 576 268.821333 576 179.370667 576 102.144 627.776 37.546667 697.045333 21.333333a158.954667 158.954667 0 0 0-17.685333 73.216z" fill="#FFE34F" /><path d="M697.045333 21.333333a158.954667 158.954667 0 0 0-17.685333 73.216c0 85.184 66.133333 154.24 147.669333 154.24 16.682667 0 32.704-2.88 47.637334-8.192C851.541333 299.690667 795.946667 341.333333 731.050667 341.333333 645.418667 341.333333 576 268.821333 576 179.370667 576 102.144 627.776 37.546667 697.045333 21.333333z m-30.613333 34.922667l1.386667-5.717333-0.32 0.192c-44.586667 24.32-74.432 73.237333-74.432 128.64 0 80.192 61.952 144.896 137.984 144.896 43.648 0 83.605333-21.504 109.226666-56.277334l2.005334-2.88-7.402667 0.554667-7.850667 0.192c-91.136 0-164.736-76.864-164.736-171.306667 0-13.013333 1.408-25.856 4.138667-38.293333z" fill="#000000" /><path d="M318.976 693.333333C201.728 693.333333 106.666667 599.146667 106.666667 482.944a209.024 209.024 0 0 1 70.058666-156.202667C210.986667 217.813333 313.557333 138.666667 434.794667 138.666667c116.48 0 215.765333 73.045333 253.717333 175.424a194.816 194.816 0 0 1 35.797333-3.285334c106.602667 0 193.024 85.632 193.024 191.253334 0 103.850667-83.52 188.373333-187.605333 191.210666l-5.418667 0.064h-405.333333z" fill="#FFFFFF" /><path d="M917.333333 502.058667c0 103.850667-83.52 188.373333-187.605333 191.210666l-5.418667 0.064h-405.333333C201.728 693.333333 106.666667 599.146667 106.666667 482.944c0-5.184 0.192-10.304 0.554666-15.381333 7.829333 104.490667 94.464 187.221333 201.216 190.058666l5.632 0.064h395.968l5.290667-0.064c101.696-2.773333 183.253333-85.333333 183.253333-186.773333a184.682667 184.682667 0 0 0-19.84-83.52A189.290667 189.290667 0 0 1 917.333333 502.058667z" fill="#D1F1FF" /><path d="M434.794667 138.666667c116.48 0 215.765333 73.045333 253.717333 175.424a194.816 194.816 0 0 1 35.797333-3.285334c106.602667 0 193.024 85.632 193.024 191.253334 0 103.850667-83.52 188.373333-187.605333 191.210666l-5.418667 0.064h-405.333333C201.728 693.333333 106.666667 599.146667 106.666667 482.944a209.024 209.024 0 0 1 70.058666-156.202667C210.986667 217.813333 313.557333 138.666667 434.794667 138.666667z m0 15.296c-112.341333 0-210.453333 72.704-243.306667 177.344a15.296 15.296 0 0 1-4.394667 6.805333 193.728 193.728 0 0 0-64.981333 144.832c0 105.941333 85.226667 192.170667 191.445333 195.008l5.418667 0.085333h405.12l5.205333-0.064c95.957333-2.624 172.586667-80.554667 172.586667-175.914666 0-97.173333-79.509333-175.957333-177.578667-175.957334-11.157333 0-22.186667 1.024-32.938666 3.029334a15.466667 15.466667 0 0 1-17.344-9.749334c-36.544-98.56-131.52-165.418667-239.232-165.418666z" fill="#000000" /><path d="M342.229333 368.213333a10.666667 10.666667 0 0 1 18.410667 10.794667c-9.152 15.616-29.290667 26.026667-54.101333 26.026667-23.488 0-41.706667-10.026667-53.312-24.832a10.666667 10.666667 0 0 1 16.789333-13.162667c7.786667 9.92 20.032 16.682667 36.522667 16.682667 16.213333 0 28.544-5.76 34.368-13.525334L342.229333 368.213333zM625.493333 368.213333a10.666667 10.666667 0 1 1 18.410667 10.794667c-9.152 15.616-29.290667 26.026667-54.101333 26.026667-23.488 0-41.706667-10.026667-53.333334-24.832a10.666667 10.666667 0 1 1 16.810667-13.162667c7.786667 9.92 20.010667 16.682667 36.522667 16.682667 16.213333 0 28.544-5.76 34.368-13.525334l1.322666-1.984z" fill="#000000" /><path d="M215.957333 490.666667a74.666667 42.666667 0 1 0 149.333334 0 74.666667 42.666667 0 1 0-149.333334 0Z" fill="#FF9DCF" /><path d="M531.050667 490.666667a74.666667 42.666667 0 1 0 149.333333 0 74.666667 42.666667 0 1 0-149.333333 0Z" fill="#FF9DCF" /><path d="M384.170667 551.317333a64 49.984 0 1 0 128 0 64 49.984 0 1 0-128 0Z" fill="#FA3E3E" /><path d="M448.170667 501.333333c35.349333 0 64 22.4 64 49.984 0 27.605333-28.650667 49.984-64 49.984s-64-22.378667-64-49.984S412.821333 501.333333 448.170667 501.333333z m0 21.333334c-24.554667 0-42.666667 14.144-42.666667 28.650666 0 14.506667 18.112 28.650667 42.666667 28.650667 24.533333 0 42.666667-14.144 42.666666-28.650667 0-14.506667-18.133333-28.650667-42.666666-28.650666z" fill="#000000" /><path d="M141.333333 53.76c1.066667 0 1.984-0.384 2.730667-1.130667a3.584 3.584 0 0 0 1.109333-2.602666 3.712 3.712 0 0 0-1.109333-2.730667 3.712 3.712 0 0 0-2.730667-1.109333H110.506667V42.026667a3.754667 3.754667 0 0 0-1.109334-2.666667 3.626667 3.626667 0 0 0-5.333333 0 3.754667 3.754667 0 0 0-1.130667 2.666667v4.16h-30.293333a3.712 3.712 0 0 0-2.709333 1.109333 3.712 3.712 0 0 0-1.130667 2.730667c0 1.002667 0.384 1.856 1.109333 2.602666a3.712 3.712 0 0 0 2.730667 1.130667h68.693333z m1.685334 83.072l0.981333-0.042667a4.437333 4.437333 0 0 0 2.56-1.429333 3.989333 3.989333 0 0 0 0.576-2.88 3.84 3.84 0 0 0-1.536-2.453333 135.189333 135.189333 0 0 1-21.973333-22.506667 120.704 120.704 0 0 0 16-36.586667 3.584 3.584 0 0 0-0.896-3.797333 3.712 3.712 0 0 0-2.730667-1.109333h-28.586667l1.813334-5.12a4.117333 4.117333 0 0 0-0.213334-2.944 3.605333 3.605333 0 0 0-2.133333-1.856 3.797333 3.797333 0 0 0-2.944 0.106666 3.626667 3.626667 0 0 0-1.856 2.24l-3.52 10.133334a3.968 3.968 0 0 0 0.213333 2.88c0.426667 0.853333 1.130667 1.493333 2.133334 1.92 0.490667 0.149333 0.896 0.213333 1.173333 0.213333H130.986667c-2.709333 9.450667-6.826667 18.602667-12.373334 27.413333a147.370667 147.370667 0 0 1-12.053333-20.8 3.541333 3.541333 0 0 0-2.090667-2.026666 3.562667 3.562667 0 0 0-2.816 0.106666 3.541333 3.541333 0 0 0-2.026666 2.090667 3.84 3.84 0 0 0 0.106666 2.922667c3.626667 8.170667 8.469333 16.32 14.506667 24.426666-6.4 8.96-13.610667 16.362667-21.653333 22.186667a4.053333 4.053333 0 0 0-1.6 2.389333 3.690667 3.690667 0 0 0 0.533333 2.837334c0.576 0.917333 1.344 1.493333 2.346667 1.642666 1.002667 0.192 1.962667 0 2.88-0.576 8.32-5.973333 15.744-13.376 22.293333-22.186666 7.189333 8.682667 14.549333 16.042667 22.08 22.08 0.917333 0.64 1.877333 0.853333 2.88 0.682666l-0.981333 0.042667z m-59.178667 0.021333a3.669333 3.669333 0 0 0 2.624-1.066666 3.52 3.52 0 0 0 1.109333-2.666667V76.266667c2.133333-4.544 3.946667-9.749333 5.44-15.573334a3.989333 3.989333 0 0 0-0.426666-2.88 3.328 3.328 0 0 0-2.346667-1.6 3.797333 3.797333 0 0 0-2.88 0.277334 3.157333 3.157333 0 0 0-1.6 2.282666 84.138667 84.138667 0 0 1-5.653333 15.36 9.557333 9.557333 0 0 1-0.853334 1.706667l-0.426666 0.853333c-2.837333 4.906667-6.357333 9.536-10.56 13.866667a3.797333 3.797333 0 0 0-1.066667 2.602667c0 0.96 0.362667 1.877333 1.066667 2.730666 0.789333 0.704 1.664 1.066667 2.666666 1.024a4.501333 4.501333 0 0 0 2.773334-1.130666c2.197333-2.282667 4.266667-4.629333 6.186666-7.04v44.373333c0 1.066667 0.384 1.962667 1.173334 2.666667 0.789333 0.704 1.706667 1.066667 2.773333 1.066666z m33.92-45.866666c1.066667 0 1.984-0.384 2.730667-1.109334A3.584 3.584 0 0 0 121.6 87.253333v-6.933333a3.584 3.584 0 0 0-1.130667-2.624 3.712 3.712 0 0 0-2.709333-1.109333 3.584 3.584 0 0 0-2.602667 1.130666 3.584 3.584 0 0 0-1.130666 2.602667v6.933333c0 1.002667 0.384 1.877333 1.130666 2.624a3.584 3.584 0 0 0 2.602667 1.109334z m62.08-33.706667a3.413333 3.413333 0 0 0 2.773333-0.853333 4.138667 4.138667 0 0 0 1.386667-2.517334 3.541333 3.541333 0 0 0-0.746667-2.709333l-8.426666-10.986667a3.626667 3.626667 0 0 0-2.453334-1.493333 3.733333 3.733333 0 0 0-2.88 0.853333 3.754667 3.754667 0 0 0-1.386666 2.453334 3.861333 3.861333 0 0 0 0.64 2.773333l8.533333 10.986667c0.704 0.853333 1.557333 1.344 2.56 1.493333zM230.72 136.533333c1.066667 0 1.984-0.384 2.730667-1.130666a3.584 3.584 0 0 0 1.109333-2.602667v-86.4a3.52 3.52 0 0 0-1.109333-2.666667 3.797333 3.797333 0 0 0-2.730667-1.066666H189.44a3.626667 3.626667 0 0 0-3.733333 3.733333c0 1.066667 0.362667 1.984 1.066666 2.730667a3.52 3.52 0 0 0 2.666667 1.109333h37.546667v82.56c0 1.002667 0.384 1.877333 1.130666 2.624a3.584 3.584 0 0 0 2.602667 1.109333z m-61.546667 0a3.584 3.584 0 0 0 2.624-1.130666 3.584 3.584 0 0 0 1.109334-2.602667V58.88a3.712 3.712 0 0 0-1.130667-2.709333 3.584 3.584 0 0 0-2.602667-1.130667 3.712 3.712 0 0 0-2.709333 1.109333 3.712 3.712 0 0 0-1.130667 2.730667v73.92c0 1.002667 0.384 1.877333 1.130667 2.624a3.712 3.712 0 0 0 2.709333 1.109333z m43.306667-20.48a3.584 3.584 0 0 0 2.602667-1.130666 3.584 3.584 0 0 0 1.130666-2.602667V66.133333a3.754667 3.754667 0 0 0-1.130666-2.666666 3.498667 3.498667 0 0 0-2.602667-1.173334H187.413333a3.626667 3.626667 0 0 0-2.709333 1.173334 3.754667 3.754667 0 0 0-1.130667 2.666666v46.186667c0 1.002667 0.384 1.877333 1.130667 2.624a3.712 3.712 0 0 0 2.709333 1.109333H212.48z m-3.84-32.96h-17.493333V69.973333h17.493333v13.12z m0 25.386667h-17.493333V90.666667h17.493333v17.813333z m96.106667 29.546667c1.066667 0 1.962667-0.384 2.709333-1.109334a3.712 3.712 0 0 0 1.130667-2.730666V106.346667h17.493333c1.066667 0 1.984-0.384 2.773333-1.173334a3.925333 3.925333 0 0 0 1.173334-2.88 3.669333 3.669333 0 0 0-1.173334-2.666666 3.797333 3.797333 0 0 0-2.773333-1.173334h-17.493333V85.12h11.52c1.066667 0 1.984-0.384 2.773333-1.130667a3.626667 3.626667 0 0 0 1.173333-2.709333 3.626667 3.626667 0 0 0-1.173333-2.709333 3.882667 3.882667 0 0 0-2.773333-1.130667h-11.52v-12.906667a3.882667 3.882667 0 0 0-1.130667-2.773333 3.626667 3.626667 0 0 0-2.709333-1.173333 3.626667 3.626667 0 0 0-2.709334 1.173333 3.882667 3.882667 0 0 0-1.130666 2.773333v12.906667h-8.96l7.253333-22.293333h23.36c1.066667 0 1.984-0.384 2.730667-1.109334a3.712 3.712 0 0 0 1.109333-2.730666 3.712 3.712 0 0 0-1.130667-2.709334 3.712 3.712 0 0 0-2.709333-1.130666h-20.906667l1.92-5.866667a3.797333 3.797333 0 0 0-0.32-2.922667 4.032 4.032 0 0 0-2.24-1.877333 3.946667 3.946667 0 0 0-4.906666 2.56l-2.56 8.106667h-10.026667a3.754667 3.754667 0 0 0-2.666667 1.109333 3.626667 3.626667 0 0 0-1.173333 2.730667c0 1.066667 0.384 1.984 1.173333 2.730666a3.754667 3.754667 0 0 0 2.666667 1.109334h7.573333L283.093333 80a4.096 4.096 0 0 0 0.533334 3.52c0.704 1.066667 1.749333 1.6 3.093333 1.6h14.186667v13.333333h-20.16a3.626667 3.626667 0 0 0-2.709334 1.173334 4.010667 4.010667 0 0 0 0 5.546666 3.626667 3.626667 0 0 0 2.709334 1.173334h20.16V134.186667c0 1.066667 0.384 1.984 1.130666 2.730666a3.712 3.712 0 0 0 2.709334 1.109334z m-49.706667-0.96c1.066667 0 1.962667-0.384 2.709333-1.130667a3.712 3.712 0 0 0 1.130667-2.709333v-84.48h9.92l-5.866667 23.36a3.712 3.712 0 0 0 0.704 3.306666 4.010667 4.010667 0 0 0 3.029334 1.493334h4.16L263.04 106.24a3.989333 3.989333 0 0 0 0.426667 2.88c0.490667 0.853333 1.237333 1.386667 2.24 1.6 1.066667 0.277333 2.048 0.213333 2.922666-0.277333a3.434667 3.434667 0 0 0 1.770667-2.282667l8.96-33.92a3.989333 3.989333 0 0 0-0.704-3.413333 3.498667 3.498667 0 0 0-2.922667-1.493334h-4.373333l5.866667-23.253333a4.437333 4.437333 0 0 0-0.746667-3.477333 3.413333 3.413333 0 0 0-2.88-1.429334h-18.56a3.712 3.712 0 0 0-2.709333 1.109334 3.712 3.712 0 0 0-1.130667 2.730666v88.213334c0 1.066667 0.384 1.984 1.130667 2.709333a3.712 3.712 0 0 0 2.709333 1.130667zM381.44 86.826667c1.066667 0 1.984-0.384 2.730667-1.130667a3.712 3.712 0 0 0 1.109333-2.709333v-21.333334h23.146667v15.68c0 1.002667 0.384 1.856 1.130666 2.624a3.584 3.584 0 0 0 2.602667 1.109334c1.066667 0 1.984-0.362667 2.730667-1.109334a3.584 3.584 0 0 0 1.109333-2.624V57.813333a3.52 3.52 0 0 0-1.109333-2.666666 3.797333 3.797333 0 0 0-2.730667-1.066667h-26.88v-6.186667h26.88a3.498667 3.498667 0 0 0 2.602667-1.173333 3.754667 3.754667 0 0 0 0-5.333333 3.498667 3.498667 0 0 0-2.602667-1.173334h-61.76a3.626667 3.626667 0 0 0-2.730667 1.173334 3.754667 3.754667 0 0 0 0 5.333333 3.626667 3.626667 0 0 0 2.730667 1.173333h27.306667v6.186667H350.293333a3.669333 3.669333 0 0 0-2.624 1.066667 3.52 3.52 0 0 0-1.109333 2.666666v19.52c0 1.002667 0.362667 1.856 1.109333 2.624a3.584 3.584 0 0 0 2.624 1.109334c1.066667 0 1.962667-0.362667 2.709334-1.109334a3.584 3.584 0 0 0 1.130666-2.624V61.653333h23.573334v21.333334c0 1.066667 0.384 1.962667 1.130666 2.709333a3.584 3.584 0 0 0 2.602667 1.130667z m19.093333-13.12a3.754667 3.754667 0 0 0 2.666667-1.130667 3.626667 3.626667 0 0 0 1.173333-2.709333 3.456 3.456 0 0 0-1.173333-2.666667 3.84 3.84 0 0 0-2.666667-1.066667h-7.253333a3.797333 3.797333 0 0 0-2.709333 1.066667 3.52 3.52 0 0 0-1.130667 2.666667c0 1.066667 0.384 1.984 1.130667 2.709333a3.712 3.712 0 0 0 2.709333 1.130667h7.253333z m-31.253333 0a3.584 3.584 0 0 0 2.624-1.130667 3.712 3.712 0 0 0 1.109333-2.709333 3.52 3.52 0 0 0-1.109333-2.666667 3.669333 3.669333 0 0 0-2.624-1.066667h-7.253333a3.989333 3.989333 0 0 0-2.773334 1.066667 3.456 3.456 0 0 0-1.173333 2.666667c0 1.066667 0.384 1.984 1.173333 2.709333 0.789333 0.746667 1.706667 1.130667 2.773334 1.130667h7.253333z m31.253333 12.16a3.754667 3.754667 0 0 0 2.666667-1.130667 3.626667 3.626667 0 0 0 0-5.333333 3.754667 3.754667 0 0 0-2.666667-1.109334h-7.253333a3.712 3.712 0 0 0-2.709333 1.130667 3.712 3.712 0 0 0-1.130667 2.709333c0 1.002667 0.384 1.856 1.130667 2.624a3.712 3.712 0 0 0 2.709333 1.109334h7.253333z m-31.253333 0a3.584 3.584 0 0 0 2.624-1.130667 3.584 3.584 0 0 0 1.109333-2.602667 3.712 3.712 0 0 0-1.109333-2.709333 3.584 3.584 0 0 0-2.624-1.130667h-7.253333a3.882667 3.882667 0 0 0-2.773334 1.130667 3.626667 3.626667 0 0 0 0 5.333333c0.789333 0.746667 1.706667 1.109333 2.773334 1.109334h7.253333z m36.906667 49.173333a3.498667 3.498667 0 0 0 2.624-1.173333 3.754667 3.754667 0 0 0 1.109333-2.666667V94.72a3.584 3.584 0 0 0-1.109333-2.624 3.584 3.584 0 0 0-2.624-1.109333h-51.306667a3.712 3.712 0 0 0-2.730667 1.130666 3.584 3.584 0 0 0-1.109333 2.602667c0 1.066667 0.384 1.984 1.130667 2.773333a3.626667 3.626667 0 0 0 2.709333 1.173334h47.466667v8.96h-43.626667a3.712 3.712 0 0 0-2.730667 1.130666 3.712 3.712 0 0 0-1.109333 2.709334c0 1.066667 0.362667 1.962667 1.109333 2.666666 0.746667 0.704 1.664 1.066667 2.730667 1.066667h43.626667v12.16h-48.533334a3.797333 3.797333 0 0 0-2.773333 1.173333 3.669333 3.669333 0 0 0-1.173333 2.666667c0 1.002667 0.384 1.877333 1.173333 2.666667 0.789333 0.789333 1.706667 1.173333 2.773333 1.173333h52.373334z" fill="#000000" /></svg>