<?xml version="1.0" standalone="no"?>
<!DOCTYPE svg PUBLIC "-//W3C//DTD SVG 1.1//EN" "http://www.w3.org/Graphics/SVG/1.1/DTD/svg11.dtd">
<svg class="icon" style="width: 1em;height: 1em;vertical-align: middle;fill: currentColor;overflow: hidden;" viewBox="0 0 1024 1024" version="1.1" xmlns="http://www.w3.org/2000/svg"><path d="M282.965333 682.666667c-139.136 0-251.946667-112.32-251.946666-250.858667 0-73.877333 32.106667-140.309333 83.157333-186.218667A320.64 320.64 0 0 1 420.394667 21.333333c138.24 0 256 87.082667 301.056 209.173334 13.76-2.581333 27.946667-3.925333 42.496-3.925334 126.485333 0 229.013333 102.101333 229.013333 228.053334 0 123.797333-99.093333 224.554667-222.613333 227.946666l-6.4 0.085334H282.965333z" fill="#FFFFFF" /><path d="M992.96 454.613333c0 123.818667-99.093333 224.576-222.613333 227.968l-6.4 0.085334H282.965333c-139.136 0-251.946667-112.32-251.946666-250.858667 0-6.165333 0.234667-12.288 0.682666-18.346667 9.28 124.586667 112.085333 223.253333 238.762667 226.624l6.677333 0.085334h469.845334l6.272-0.085334c120.661333-3.306667 217.472-101.76 217.472-222.698666 0-35.776-8.469333-69.610667-23.530667-99.562667a226.389333 226.389333 0 0 1 45.76 136.789333z" fill="#D1F1FF" /><path d="M420.394667 21.333333c138.24 0 256 87.082667 301.056 209.173334 13.76-2.581333 27.946667-3.925333 42.496-3.925334 126.485333 0 229.013333 102.101333 229.013333 228.053334 0 123.797333-99.093333 224.554667-222.613333 227.946666l-6.4 0.085334H282.965333c-139.136 0-251.946667-112.32-251.946666-250.858667 0-73.877333 32.106667-140.309333 83.157333-186.218667A320.64 320.64 0 0 1 420.394667 21.333333z m0 18.24C287.082667 39.573333 170.666667 126.250667 131.669333 251.008a18.24 18.24 0 0 1-5.226666 8.106667 231.466667 231.466667 0 0 0-77.098667 172.693333c0 126.336 101.141333 229.12 227.2 232.533333l6.421333 0.085334h480.725334l6.144-0.085334c113.877333-3.114667 204.8-96.042667 204.8-209.706666 0-115.882667-94.336-209.813333-210.688-209.813334-13.269333 0-26.346667 1.216-39.082667 3.626667a18.346667 18.346667 0 0 1-20.608-11.648c-43.349333-117.504-156.053333-197.226667-283.861333-197.226667z" fill="#000000" /><path d="M490.666667 746.922667c4.672 0 8.576 3.306667 9.472 7.701333l0.213333 1.962667-0.042667 13.781333 11.349334-10.090667a9.664 9.664 0 0 1 14.186666 12.992l-1.322666 1.450667-24.213334 21.546667v18.005333l37.824 21.802667 15.573334-9.002667 6.613333-31.701333a9.664 9.664 0 0 1 19.114667 1.962666l-0.213334 1.962667-3.072 14.826667 11.946667-6.869334a9.664 9.664 0 0 1 11.264 15.594667l-1.6 1.152-11.946667 6.869333 14.421334 4.778667a9.664 9.664 0 0 1-4.16 18.773333l-1.92-0.426666-30.762667-10.176-15.573333 9.002666v43.648l15.573333 9.002667 30.762667-10.154667a9.664 9.664 0 0 1 7.872 17.557334l-1.792 0.810666-14.4 4.757334 11.946666 6.890666a9.664 9.664 0 0 1-7.893333 17.557334l-1.792-0.810667-11.925333-6.912 3.072 14.869333a9.664 9.664 0 0 1-18.346667 5.802667l-0.597333-1.877333-6.549334-31.744-15.573333-8.96-37.866667 21.781333 0.042667 18.026667 24.170667 21.546666a9.664 9.664 0 0 1-11.285334 15.594667l-1.578666-1.152-11.306667-10.090667v13.781334a9.664 9.664 0 0 1-19.157333 1.962666l-0.213334-1.962666 0.042667-13.781334-11.349333 10.090667a9.664 9.664 0 0 1-14.186667-12.992l1.322667-1.450667 24.213333-21.546666-0.042667-17.984-37.802666-21.845334-15.573334 9.024-6.570666 31.701334a9.664 9.664 0 0 1-19.136-1.962667l0.213333-1.962667 3.072-14.826666-11.946667 6.869333a9.664 9.664 0 0 1-11.264-15.594667l1.6-1.152 11.946667-6.869333-14.421333-4.778667a9.664 9.664 0 0 1 4.16-18.773333l1.92 0.426667 30.762666 10.176 15.573334-9.024v-43.669334l-15.573334-8.96-30.762666 10.154667a9.664 9.664 0 0 1-7.872-17.557333l1.792-0.810667 14.4-4.757333-11.946667-6.890667a9.664 9.664 0 0 1 7.893333-17.557333l1.792 0.810666 11.925334 6.912-3.072-14.869333a9.664 9.664 0 0 1 18.346666-5.802667l0.597334 1.877334 6.549333 31.744 15.594667 8.96 37.802666-21.824v-17.984l-24.170666-21.546667a9.664 9.664 0 0 1 11.285333-15.594667l1.578667 1.152 11.306666 10.090667v-13.781333c0-5.333333 4.352-9.664 9.685334-9.664z m-0.021334 91.306666l-31.552 18.24v36.373334l31.552 18.218666 31.573334-18.218666v-36.373334l-31.573334-18.24z" fill="#6BD1FF" /><path d="M226.133333 445.461333a74.666667 42.666667 0 1 0 149.333334 0 74.666667 42.666667 0 1 0-149.333334 0Z" fill="#FF9DCF" /><path d="M501.973333 445.461333a74.666667 42.666667 0 1 0 149.333334 0 74.666667 42.666667 0 1 0-149.333334 0Z" fill="#FF9DCF" /><path d="M289.28 312.085333m-32 0a32 32 0 1 0 64 0 32 32 0 1 0-64 0Z" fill="#000000" /><path d="M588.16 312.085333m-32 0a32 32 0 1 0 64 0 32 32 0 1 0-64 0Z" fill="#000000" /><path d="M362.666667 530.56c9.344-11.328 54.144-38.485333 92.501333-38.485333 38.336 0 50.005333 15.594667 56.832 24.32-35.029333-7.381333-98.346667-17.173333-149.333333 14.165333z" fill="#000000" /><path d="M107.946667 136.746667a3.754667 3.754667 0 0 0 2.666666-1.130667 3.626667 3.626667 0 0 0 1.173334-2.709333V42.56a3.498667 3.498667 0 0 0-1.173334-2.624 3.754667 3.754667 0 0 0-2.666666-1.109333 3.712 3.712 0 0 0-2.709334 1.109333 3.584 3.584 0 0 0-1.130666 2.624V132.906667c0 1.066667 0.384 1.962667 1.130666 2.709333a3.712 3.712 0 0 0 2.709334 1.130667zM76.032 106.624l0.981333-0.170667a3.562667 3.562667 0 0 0 2.24-1.813333c3.413333-6.677333 6.144-13.824 8.213334-21.44 2.197333-8.682667 3.733333-17.216 4.586666-25.6a3.818667 3.818667 0 0 0-3.413333-4.16 3.818667 3.818667 0 0 0-4.16 3.413333c-0.789333 7.893333-2.282667 16.042667-4.48 24.426667-1.92 7.104-4.416 13.696-7.466667 19.733333a3.882667 3.882667 0 0 0-0.256 2.986667 4.224 4.224 0 0 0 1.856 2.24c0.917333 0.426667 1.877333 0.490667 2.88 0.213333l-0.981333 0.170667z m61.717333 0.021333l1.024-0.085333a3.84 3.84 0 0 0 2.88-4.586667l-10.88-45.546666a3.84 3.84 0 0 0-4.586666-2.88 3.669333 3.669333 0 0 0-2.346667 1.706666 3.989333 3.989333 0 0 0-0.426667 2.88L134.186667 103.68a3.84 3.84 0 0 0 4.586666 2.88l-1.024 0.085333zM200.106667 86.826667c1.066667 0 1.962667-0.384 2.709333-1.130667a3.712 3.712 0 0 0 1.130667-2.709333v-21.333334h23.146666v15.68c0 1.002667 0.384 1.856 1.130667 2.624a3.584 3.584 0 0 0 2.602667 1.109334c1.066667 0 1.962667-0.362667 2.709333-1.109334A3.584 3.584 0 0 0 234.666667 77.333333V57.813333a3.52 3.52 0 0 0-1.130667-2.666666 3.797333 3.797333 0 0 0-2.709333-1.066667H203.946667v-6.186667h26.88a3.498667 3.498667 0 0 0 2.624-1.173333 3.754667 3.754667 0 0 0 0-5.333333 3.498667 3.498667 0 0 0-2.624-1.173334H169.066667a3.626667 3.626667 0 0 0-2.709334 1.173334 3.754667 3.754667 0 0 0 0 5.333333 3.626667 3.626667 0 0 0 2.709334 1.173333h27.306666v6.186667H168.96a3.669333 3.669333 0 0 0-2.602667 1.066667 3.52 3.52 0 0 0-1.130666 2.666666v19.52c0 1.002667 0.384 1.856 1.130666 2.624a3.584 3.584 0 0 0 2.602667 1.109334c1.066667 0 1.962667-0.362667 2.709333-1.109334a3.584 3.584 0 0 0 1.130667-2.624V61.653333h23.573333v21.333334c0 1.066667 0.384 1.962667 1.130667 2.709333a3.584 3.584 0 0 0 2.602667 1.130667z m19.093333-13.12a3.754667 3.754667 0 0 0 2.666667-1.130667 3.626667 3.626667 0 0 0 1.173333-2.709333 3.456 3.456 0 0 0-1.173333-2.666667 3.84 3.84 0 0 0-2.666667-1.066667h-7.253333a3.797333 3.797333 0 0 0-2.730667 1.066667 3.52 3.52 0 0 0-1.109333 2.666667c0 1.066667 0.384 1.984 1.109333 2.709333a3.712 3.712 0 0 0 2.730667 1.130667h7.253333z m-31.253333 0a3.584 3.584 0 0 0 2.602666-1.130667 3.712 3.712 0 0 0 1.130667-2.709333 3.52 3.52 0 0 0-1.130667-2.666667 3.669333 3.669333 0 0 0-2.602666-1.066667h-7.253334a3.989333 3.989333 0 0 0-2.773333 1.066667 3.456 3.456 0 0 0-1.173333 2.666667c0 1.066667 0.384 1.984 1.173333 2.709333 0.789333 0.746667 1.706667 1.130667 2.773333 1.130667h7.253334z m31.253333 12.16a3.754667 3.754667 0 0 0 2.666667-1.130667 3.626667 3.626667 0 0 0 0-5.333333 3.754667 3.754667 0 0 0-2.666667-1.109334h-7.253333a3.712 3.712 0 0 0-2.730667 1.130667 3.712 3.712 0 0 0-1.109333 2.709333c0 1.002667 0.384 1.856 1.109333 2.624a3.712 3.712 0 0 0 2.730667 1.109334h7.253333z m-31.253333 0a3.584 3.584 0 0 0 2.602666-1.130667 3.584 3.584 0 0 0 1.130667-2.602667 3.712 3.712 0 0 0-1.130667-2.709333 3.584 3.584 0 0 0-2.602666-1.130667h-7.253334a3.882667 3.882667 0 0 0-2.773333 1.130667 3.626667 3.626667 0 0 0 0 5.333333c0.789333 0.746667 1.706667 1.109333 2.773333 1.109334h7.253334z m36.906666 49.173333a3.498667 3.498667 0 0 0 2.624-1.173333 3.754667 3.754667 0 0 0 1.109334-2.666667V94.72a3.584 3.584 0 0 0-1.130667-2.624 3.584 3.584 0 0 0-2.602667-1.109333H173.546667a3.712 3.712 0 0 0-2.709334 1.130666 3.584 3.584 0 0 0-1.130666 2.602667c0 1.066667 0.384 1.984 1.130666 2.773333a3.626667 3.626667 0 0 0 2.709334 1.173334h47.466666v8.96H177.386667a3.712 3.712 0 0 0-2.709334 1.130666 3.712 3.712 0 0 0-1.130666 2.709334c0 1.066667 0.384 1.962667 1.130666 2.666666 0.725333 0.704 1.642667 1.066667 2.709334 1.066667h43.626666v12.16H172.48a3.797333 3.797333 0 0 0-2.773333 1.173333 3.669333 3.669333 0 0 0-1.173334 2.666667c0 1.002667 0.384 1.877333 1.173334 2.666667 0.789333 0.789333 1.706667 1.173333 2.773333 1.173333h52.373333z" fill="#000000" /></svg>