<?xml version="1.0" standalone="no"?>
<!DOCTYPE svg PUBLIC "-//W3C//DTD SVG 1.1//EN" "http://www.w3.org/Graphics/SVG/1.1/DTD/svg11.dtd">
<svg class="icon" style="width: 1em;height: 1em;vertical-align: middle;fill: currentColor;overflow: hidden;" viewBox="0 0 1024 1024" version="1.1" xmlns="http://www.w3.org/2000/svg"><path d="M512 512m-247.338667 0a247.338667 247.338667 0 1 0 494.677334 0 247.338667 247.338667 0 1 0-494.677334 0Z" fill="#FFE34F" /><path d="M757.973333 485.632c0.896 8.661333 1.365333 17.472 1.365334 26.368 0 136.597333-110.72 247.338667-247.338667 247.338667-136.597333 0-247.338667-110.72-247.338667-247.338667 0-8.896 0.469333-17.706667 1.386667-26.368 13.162667 124.224 118.250667 221.013333 245.952 221.013333 126.976 0 231.616-95.701333 245.717333-218.922666l0.234667-2.090667z" fill="#FFD332" /><path d="M512 264.661333c136.597333 0 247.338667 110.72 247.338667 247.338667 0 136.597333-110.72 247.338667-247.338667 247.338667-136.597333 0-247.338667-110.72-247.338667-247.338667 0-136.597333 110.72-247.338667 247.338667-247.338667z m0 17.066667C384.832 281.728 281.728 384.832 281.728 512S384.832 742.272 512 742.272 742.272 639.168 742.272 512 639.168 281.728 512 281.728z" fill="#000000" /><path d="M512 796.437333c12.16 0 22.186667 9.173333 23.552 20.949334l0.149333 2.773333v94.805333a23.701333 23.701333 0 0 1-47.253333 2.773334l-0.149333-2.773334v-94.826666c0-13.077333 10.602667-23.68 23.701333-23.68z m232.426667-85.269333l2.218666 1.962667 67.050667 67.050666a23.701333 23.701333 0 0 1-31.296 35.498667l-2.218667-1.984L713.130667 746.666667a23.701333 23.701333 0 0 1 31.296-35.477334z m-433.557334 1.962667c8.533333 8.533333 9.194667 21.973333 1.962667 31.296l-1.962667 2.218666-67.050666 67.050667a23.701333 23.701333 0 0 1-35.498667-31.296l1.984-2.218667L277.333333 713.130667a23.701333 23.701333 0 0 1 33.493334 0z m604.096-224.853334a23.701333 23.701333 0 0 1 2.773334 47.274667l-2.773334 0.149333h-94.826666a23.701333 23.701333 0 0 1-2.773334-47.253333l2.773334-0.149333h94.826666z m-805.930666 0h94.826666a23.701333 23.701333 0 0 1 2.773334 47.274667l-2.773334 0.149333H109.013333a23.701333 23.701333 0 0 1-2.773333-47.253333l2.773333-0.149333z m704.661333-277.973333c8.533333 8.533333 9.194667 21.973333 1.984 31.296l-1.984 2.218667L746.666667 310.869333a23.701333 23.701333 0 0 1-35.477334-31.296l1.962667-2.218666 67.050667-67.050667a23.701333 23.701333 0 0 1 33.514666 0z m-603.392 0a23.701333 23.701333 0 0 1 33.514667 0L310.869333 277.333333A23.701333 23.701333 0 1 1 277.333333 310.826667L210.304 243.84a23.701333 23.701333 0 0 1 0-33.514667zM512 85.333333c12.16 0 22.186667 9.152 23.552 20.949334l0.149333 2.773333v94.805333a23.701333 23.701333 0 0 1-47.253333 2.773334l-0.149333-2.773334V109.013333C488.298667 95.936 498.901333 85.333333 512 85.333333z" fill="#FFE34F" /><path d="M697.301333 466.901333c2.624 27.050667-39.701333 96.789333-90.688 110.229334-40.533333 10.666667-67.818667-8.554667-77.269333-40.213334h-34.688c-9.450667 31.658667-36.714667 50.901333-77.269333 40.213334-50.986667-13.44-93.312-83.2-90.666667-110.229334 2.602667-27.050667 46.634667-24.490667 77.312-20.608l5.397333 0.746667c32.149333 4.757333 88.917333 19.477333 88.917334 63.274667v0.853333h27.306666v-0.853333c0-46.378667 63.637333-60.138667 94.314667-64l9.557333-1.109334c29.525333-2.986667 65.408-2.645333 67.776 21.696z" fill="#000000" /><path d="M431.872 531.84c16.042667 7.488 33.429333 4.202667 38.805333-7.317333s-3.285333-26.965333-19.328-34.453334c-16.064-7.466667-33.429333-4.202667-38.826666 7.338667-5.376 11.52 3.285333 26.944 19.349333 34.432zM592.128 531.84c-16.042667 7.488-33.429333 4.202667-38.805333-7.317333s3.285333-26.965333 19.328-34.453334c16.064-7.466667 33.429333-4.202667 38.826666 7.338667 5.376 11.52-3.285333 26.944-19.349333 34.432z" fill="#FFFFFF" /><path d="M345.28 479.210667c5.973333 15.722667 13.952 27.84 23.893333 36.352 9.962667 8.533333 18.858667 14.037333 26.709334 16.576l-1.216 8.682666c-10.986667-4.352-21.141333-11.605333-30.464-21.738666-9.322667-10.133333-15.637333-23.424-18.922667-39.872z m10.752-3.242667c2.474667 7.402667 5.696 13.290667 9.642667 17.642667 3.946667 4.330667 7.253333 7.253333 9.92 8.768l-1.066667 3.84a36.906667 36.906667 0 0 1-12.373333-11.349334c-3.562667-5.056-5.610667-11.349333-6.122667-18.901333zM678.72 479.210667c-5.973333 15.722667-13.952 27.84-23.893333 36.352-9.962667 8.533333-18.858667 14.037333-26.709334 16.576l1.216 8.682666c10.986667-4.352 21.141333-11.605333 30.464-21.738666 9.322667-10.133333 15.637333-23.424 18.922667-39.872z m-10.752-3.242667c-2.474667 7.402667-5.696 13.290667-9.642667 17.642667-3.946667 4.330667-7.253333 7.253333-9.92 8.768l1.066667 3.84a36.906667 36.906667 0 0 0 12.373333-11.349334c3.562667-5.056 5.610667-11.349333 6.122667-18.901333z" fill="#FFFFFF" /><path d="M113.066667 156.693333a3.584 3.584 0 0 0 2.624-1.109333 3.712 3.712 0 0 0 1.109333-2.730667v-74.666666a3.882667 3.882667 0 0 0-1.109333-2.773334 3.498667 3.498667 0 0 0-2.624-1.173333H85.546667l4.48-9.706667a3.562667 3.562667 0 0 0-1.813334-5.013333 3.989333 3.989333 0 0 0-5.12 1.813333l-5.973333 12.906667H62.933333a3.904 3.904 0 0 0-3.733333 3.946667v30.293333a2.773333 2.773333 0 0 0-0.106667 0.853333c0 0.277333 0.042667 0.597333 0.106667 0.96v42.24l-0.106667 0.149334c0 1.194667 0.384 2.133333 1.109334 2.901333a3.712 3.712 0 0 0 2.730666 1.109333H113.066667z m-3.84-51.2H66.666667V81.92H109.226667v23.573333z m0 43.626667H66.666667V113.066667H109.226667v36.053333z m97.493333 9.002667a3.882667 3.882667 0 0 0 2.88-0.362667 3.562667 3.562667 0 0 0 1.813333-2.176 3.605333 3.605333 0 0 0-0.32-2.837333L184.533333 101.653333h25.813334a3.584 3.584 0 0 0 2.624-1.109333 3.712 3.712 0 0 0 1.109333-2.730667 3.52 3.52 0 0 0-1.130667-2.666666 3.669333 3.669333 0 0 0-2.602666-1.066667H182.08V72.213333h21.76c1.066667 0 1.984-0.362667 2.709333-1.109333a3.712 3.712 0 0 0 1.130667-2.730667 3.52 3.52 0 0 0-1.130667-2.666666 3.797333 3.797333 0 0 0-2.709333-1.066667h-50.346667a3.669333 3.669333 0 0 0-2.624 1.066667 3.52 3.52 0 0 0-1.109333 2.666666c0 1.066667 0.384 1.962667 1.130667 2.709334a3.584 3.584 0 0 0 2.602666 1.130666h21.12V94.08h-27.52a3.989333 3.989333 0 0 0-2.773333 1.066667 3.456 3.456 0 0 0-1.173333 2.666666c0 1.066667 0.384 1.984 1.173333 2.730667 0.789333 0.725333 1.706667 1.109333 2.773333 1.109333H172.16L145.6 152.746667a3.904 3.904 0 0 0-0.213333 2.837333c0.277333 0.96 0.896 1.685333 1.813333 2.176 0.917333 0.490667 1.877333 0.64 2.88 0.384a3.392 3.392 0 0 0 2.24-1.770667l26.026667-50.56 26.133333 50.56c0.490667 0.917333 1.237333 1.493333 2.24 1.749334z m98.773333-59.882667a3.584 3.584 0 0 0 2.624-1.130667 3.584 3.584 0 0 0 1.109334-2.602666 3.712 3.712 0 0 0-1.109334-2.709334 3.584 3.584 0 0 0-2.624-1.130666h-19.626666v-4.48h12.48c1.066667 0 1.984-0.384 2.730666-1.130667a3.712 3.712 0 0 0 1.109334-2.709333 3.584 3.584 0 0 0-1.109334-2.624 3.712 3.712 0 0 0-2.730666-1.109334H285.866667v-3.84h14.613333c1.066667 0 1.962667-0.384 2.709333-1.109333a3.712 3.712 0 0 0 1.130667-2.730667 3.52 3.52 0 0 0-1.130667-2.666666 3.797333 3.797333 0 0 0-2.709333-1.066667H285.866667v-5.12a3.797333 3.797333 0 0 0-1.066667-2.709333 3.52 3.52 0 0 0-2.666667-1.130667 3.712 3.712 0 0 0-2.709333 1.130667 3.712 3.712 0 0 0-1.130667 2.709333v5.12h-14.506666a3.797333 3.797333 0 0 0-2.709334 1.066667 3.52 3.52 0 0 0-1.130666 2.666666c0 1.066667 0.384 1.962667 1.130666 2.709334a3.712 3.712 0 0 0 2.709334 1.130666h14.506666v3.84h-12.373333a3.712 3.712 0 0 0-2.709333 1.109334 3.584 3.584 0 0 0-1.130667 2.624c0 1.066667 0.384 1.984 1.130667 2.709333a3.712 3.712 0 0 0 2.709333 1.130667h12.373333v4.48h-19.306666a3.52 3.52 0 0 0-2.666667 1.130666 3.797333 3.797333 0 0 0-1.066667 2.709334c0 1.002667 0.362667 1.877333 1.066667 2.624a3.52 3.52 0 0 0 2.666667 1.109333h46.506666z m-55.466666 46.613333a3.584 3.584 0 0 0 2.602666-1.130666 3.712 3.712 0 0 0 1.130667-2.709334V70.506667a3.584 3.584 0 0 0-1.130667-2.624 3.584 3.584 0 0 0-2.602666-1.109334h-16.853334a3.52 3.52 0 0 0-2.666666 1.130667 3.669333 3.669333 0 0 0-1.066667 2.602667V141.013333c0 1.066667 0.362667 1.962667 1.066667 2.709334a3.52 3.52 0 0 0 2.666666 1.130666h16.853334z m-3.946667-47.893333h-9.173333v-22.613333h9.173333v22.613333z m51.626667 62.293333c1.066667 0 1.962667-0.362667 2.709333-1.066666a3.52 3.52 0 0 0 1.130667-2.666667V106.133333a3.584 3.584 0 0 0-1.130667-2.602666 3.712 3.712 0 0 0-2.709333-1.130667h-29.866667a3.712 3.712 0 0 0-2.709333 1.130667 3.584 3.584 0 0 0-1.130667 2.602666v48.853334c0 1.002667 0.384 1.877333 1.130667 2.624a3.712 3.712 0 0 0 2.709333 1.109333c1.066667 0 1.962667-0.384 2.666667-1.130667a3.669333 3.669333 0 0 0 1.066666-2.602666v-18.986667h22.4v19.52a3.626667 3.626667 0 0 0 3.733334 3.733333z m-51.626667-21.973333h-9.173333V104.533333h9.173333v32.746667zM293.973333 114.986667h-22.4v-5.013334h22.4v5.013334z m0 13.333333h-22.4v-5.76h22.4v5.76z" fill="#000000" /><path d="M661.290667 467.072l-5.290667 2.773333 1.024-5.888-4.266667-4.16 5.888-0.853333 2.645334-5.333333 2.645333 5.333333 5.909333 0.853333-4.266666 4.16 1.002666 5.888z" fill="#FFFFFF" /><path d="M448 640c19.157333 20.266667 38.314667 30.4 57.472 30.4 19.157333 0 38.314667-10.133333 57.472-30.4-19.157333 10.133333-38.314667 15.189333-57.472 15.189333-19.157333 0-38.314667-5.056-57.472-15.189333z" fill="#000000" /></svg>