<?xml version="1.0" standalone="no"?>
<!DOCTYPE svg PUBLIC "-//W3C//DTD SVG 1.1//EN" "http://www.w3.org/Graphics/SVG/1.1/DTD/svg11.dtd">
<svg class="icon" style="width: 1em;height: 1em;vertical-align: middle;fill: currentColor;overflow: hidden;" viewBox="0 0 1024 1024" version="1.1" xmlns="http://www.w3.org/2000/svg"><path d="M282.965333 682.666667c-139.136 0-251.946667-112.32-251.946666-250.858667 0-73.877333 32.106667-140.309333 83.157333-186.218667A320.64 320.64 0 0 1 420.394667 21.333333c138.24 0 256 87.082667 301.056 209.173334 13.76-2.581333 27.946667-3.925333 42.496-3.925334 126.485333 0 229.013333 102.101333 229.013333 228.053334 0 123.797333-99.093333 224.554667-222.613333 227.946666l-6.4 0.085334H282.965333z" fill="#FFFFFF" /><path d="M992.96 454.613333c0 123.818667-99.093333 224.576-222.613333 227.968l-6.4 0.085334H282.965333c-139.136 0-251.946667-112.32-251.946666-250.858667 0-6.165333 0.234667-12.288 0.682666-18.346667 9.28 124.586667 112.085333 223.253333 238.762667 226.624l6.677333 0.085334h469.845334l6.272-0.085334c120.661333-3.306667 217.472-101.76 217.472-222.698666 0-35.776-8.469333-69.610667-23.530667-99.562667a226.389333 226.389333 0 0 1 45.76 136.789333z" fill="#D1F1FF" /><path d="M420.394667 21.333333c138.24 0 256 87.082667 301.056 209.173334 13.76-2.581333 27.946667-3.925333 42.496-3.925334 126.485333 0 229.013333 102.101333 229.013333 228.053334 0 123.797333-99.093333 224.554667-222.613333 227.946666l-6.4 0.085334H282.965333c-139.136 0-251.946667-112.32-251.946666-250.858667 0-73.877333 32.106667-140.309333 83.157333-186.218667A320.64 320.64 0 0 1 420.394667 21.333333z m0 18.24C287.082667 39.573333 170.666667 126.250667 131.669333 251.008a18.24 18.24 0 0 1-5.226666 8.106667 231.466667 231.466667 0 0 0-77.098667 172.693333c0 126.336 101.141333 229.12 227.2 232.533333l6.421333 0.085334h480.725334l6.144-0.085334c113.877333-3.114667 204.8-96.042667 204.8-209.706666 0-115.882667-94.336-209.813333-210.688-209.813334-13.269333 0-26.346667 1.216-39.082667 3.626667a18.346667 18.346667 0 0 1-20.608-11.648c-43.349333-117.504-156.053333-197.226667-283.861333-197.226667z" fill="#000000" /><path d="M320 768.213333c3.882667 0 7.146667 2.773333 7.893333 6.421334l0.170667 1.621333-0.021333 11.477333 9.450666-8.384a8.064 8.064 0 0 1 11.818667 10.816l-1.109333 1.194667-20.16 17.962667v15.018666l31.509333 18.176 13.013333-7.509333 5.461334-26.432a8.064 8.064 0 0 1 15.957333 1.664l-0.170667 1.621333-2.56 12.373334 9.941334-5.76a8.064 8.064 0 0 1 9.386666 13.013333l-1.344 0.96-9.941333 5.717333 12.010667 3.989334a8.064 8.064 0 0 1-3.477334 15.658666l-1.578666-0.362666-25.642667-8.490667-12.992 7.509333v36.373334l13.013333 7.509333 25.6-8.469333a8.064 8.064 0 0 1 6.570667 14.634666l-1.493333 0.661334-11.989334 3.968 9.92 5.76a8.064 8.064 0 0 1-6.549333 14.613333l-1.493333-0.682667-9.941334-5.76 2.56 12.394667a8.064 8.064 0 0 1-15.296 4.842667l-0.490666-1.557334-5.461334-26.453333-12.992-7.488-31.530666 18.176 0.021333 15.018667 20.138667 17.962666a8.064 8.064 0 0 1-9.386667 12.970667l-1.322667-0.96-9.429333-8.384v11.477333a8.064 8.064 0 0 1-15.957333 1.621334l-0.170667-1.621334 0.021333-11.477333-9.450666 8.384a8.064 8.064 0 0 1-11.818667-10.816l1.109333-1.194667 20.16-17.962666-0.021333-14.997334-31.509333-18.197333-12.970667 7.509333-5.482667 26.432a8.064 8.064 0 0 1-15.957333-1.664l0.170667-1.621333 2.56-12.373333-9.941334 5.76a8.064 8.064 0 0 1-9.386666-13.013334l1.344-0.96 9.941333-5.717333-12.010667-3.989333a8.064 8.064 0 0 1 3.477334-15.658667l1.578666 0.362667 25.642667 8.490666 12.970667-7.509333v-36.394667l-12.970667-7.466666-25.642667 8.448a8.064 8.064 0 0 1-6.549333-14.634667l1.493333-0.661333 11.989334-3.968-9.92-5.76a8.064 8.064 0 0 1 6.549333-14.613334l1.493333 0.682667 9.941334 5.76-2.56-12.394667a8.064 8.064 0 0 1 15.296-4.842666l0.490666 1.557333 5.461334 26.453333 12.992 7.466667 31.509333-18.176v-14.997333l-20.138667-17.962667a8.064 8.064 0 0 1 9.386667-12.970667l1.322667 0.96 9.429333 8.384v-11.477333c0-4.437333 3.626667-8.042667 8.064-8.042667z m-0.021333 76.096l-26.282667 15.189334v30.314666l26.282667 15.189334 26.304-15.189334v-30.314666l-26.304-15.189334z" fill="#6BD1FF" /><path d="M704 768.213333c3.882667 0 7.146667 2.773333 7.893333 6.421334l0.170667 1.621333-0.021333 11.477333 9.450666-8.384a8.064 8.064 0 0 1 11.818667 10.816l-1.109333 1.194667-20.16 17.962667v15.018666l31.509333 18.176 13.013333-7.509333 5.461334-26.432a8.064 8.064 0 0 1 15.957333 1.664l-0.170667 1.621333-2.56 12.373334 9.941334-5.76a8.064 8.064 0 0 1 9.386666 13.013333l-1.344 0.96-9.941333 5.717333 12.010667 3.989334a8.064 8.064 0 0 1-3.477334 15.658666l-1.578666-0.362666-25.642667-8.490667-12.992 7.509333v36.373334l13.013333 7.509333 25.6-8.469333a8.064 8.064 0 0 1 6.570667 14.634666l-1.493333 0.661334-11.989334 3.968 9.92 5.76a8.064 8.064 0 0 1-6.549333 14.613333l-1.493333-0.682667-9.941334-5.76 2.56 12.394667a8.064 8.064 0 0 1-15.296 4.842667l-0.490666-1.557334-5.461334-26.453333-12.992-7.488-31.530666 18.176 0.021333 15.018667 20.138667 17.962666a8.064 8.064 0 0 1-9.386667 12.970667l-1.322667-0.96-9.429333-8.384v11.477333a8.064 8.064 0 0 1-15.957333 1.621334l-0.170667-1.621334 0.021333-11.477333-9.450666 8.384a8.064 8.064 0 0 1-11.818667-10.816l1.109333-1.194667 20.16-17.962666-0.021333-14.997334-31.509333-18.197333-12.970667 7.509333-5.482667 26.432a8.064 8.064 0 0 1-15.957333-1.664l0.170667-1.621333 2.56-12.373333-9.941334 5.76a8.064 8.064 0 0 1-9.386666-13.013334l1.344-0.96 9.941333-5.717333-12.010667-3.989333a8.064 8.064 0 0 1 3.477334-15.658667l1.578666 0.362667 25.642667 8.490666 12.970667-7.509333v-36.394667l-12.970667-7.466666-25.642667 8.448a8.064 8.064 0 0 1-6.549333-14.634667l1.493333-0.661333 11.989334-3.968-9.92-5.76a8.064 8.064 0 0 1 6.549333-14.613334l1.493333 0.682667 9.941334 5.76-2.56-12.394667a8.064 8.064 0 0 1 15.296-4.842666l0.490666 1.557333 5.461334 26.453333 12.992 7.466667 31.509333-18.176v-14.997333l-20.138667-17.962667a8.064 8.064 0 0 1 9.386667-12.970667l1.322667 0.96 9.429333 8.384v-11.477333c0-4.437333 3.626667-8.042667 8.064-8.042667z m-0.021333 76.096l-26.282667 15.189334v30.314666l26.282667 15.189334 26.304-15.189334v-30.314666l-26.304-15.189334z" fill="#6BD1FF" /><path d="M229.205333 476.032a74.666667 42.666667 0 1 0 149.333334 0 74.666667 42.666667 0 1 0-149.333334 0Z" fill="#FF9DCF" /><path d="M566.186667 476.032a74.666667 42.666667 0 1 0 149.333333 0 74.666667 42.666667 0 1 0-149.333333 0Z" fill="#FF9DCF" /><path d="M609.301333 366.570667m-32 0a32 32 0 1 0 64 0 32 32 0 1 0-64 0Z" fill="#000000" /><path d="M335.402667 366.570667m-32 0a32 32 0 1 0 64 0 32 32 0 1 0-64 0Z" fill="#000000" /><path d="M523.306667 521.386667a10.666667 10.666667 0 0 1 1.92 21.141333l-1.92 0.170667H421.397333a10.666667 10.666667 0 0 1-1.92-21.162667l1.92-0.170667h101.909334z" fill="#000000" /><path d="M109.333333 136.853333c1.066667 0 1.962667-0.384 2.666667-1.130666a3.797333 3.797333 0 0 0 1.066667-2.709334v-40.106666h25.28a3.584 3.584 0 0 0 2.602666-1.130667 3.584 3.584 0 0 0 1.130667-2.602667V60.8a3.584 3.584 0 0 0-1.130667-2.624 3.584 3.584 0 0 0-2.602666-1.109333H113.066667V41.386667a3.84 3.84 0 0 0-1.066667-2.666667 3.456 3.456 0 0 0-2.666667-1.173333 3.456 3.456 0 0 0-2.666666 1.173333 3.84 3.84 0 0 0-1.066667 2.666667v15.68H80.32a3.584 3.584 0 0 0-2.624 1.130666 3.584 3.584 0 0 0-1.109333 2.602667v28.373333c0 1.002667 0.384 1.877333 1.130666 2.624a3.584 3.584 0 0 0 2.602667 1.109334H105.6v40.106666c0 1.066667 0.362667 1.962667 1.066667 2.709334a3.52 3.52 0 0 0 2.666666 1.130666zM134.506667 85.333333H113.066667v-20.693333h21.44V85.333333zM105.6 85.333333H84.16v-20.693333H105.6V85.333333z m94.506667 1.493334c1.066667 0 1.962667-0.384 2.709333-1.130667a3.712 3.712 0 0 0 1.130667-2.709333v-21.333334h23.146666v15.68c0 1.002667 0.384 1.856 1.130667 2.624a3.584 3.584 0 0 0 2.602667 1.109334c1.066667 0 1.962667-0.362667 2.709333-1.109334A3.584 3.584 0 0 0 234.666667 77.333333V57.813333a3.52 3.52 0 0 0-1.130667-2.666666 3.797333 3.797333 0 0 0-2.709333-1.066667H203.946667v-6.186667h26.88a3.498667 3.498667 0 0 0 2.624-1.173333 3.754667 3.754667 0 0 0 0-5.333333 3.498667 3.498667 0 0 0-2.624-1.173334H169.066667a3.626667 3.626667 0 0 0-2.709334 1.173334 3.754667 3.754667 0 0 0 0 5.333333 3.626667 3.626667 0 0 0 2.709334 1.173333h27.306666v6.186667H168.96a3.669333 3.669333 0 0 0-2.602667 1.066667 3.52 3.52 0 0 0-1.130666 2.666666v19.52c0 1.002667 0.384 1.856 1.130666 2.624a3.584 3.584 0 0 0 2.602667 1.109334c1.066667 0 1.962667-0.362667 2.709333-1.109334a3.584 3.584 0 0 0 1.130667-2.624V61.653333h23.573333v21.333334c0 1.066667 0.384 1.962667 1.130667 2.709333a3.584 3.584 0 0 0 2.602667 1.130667z m19.093333-13.12a3.754667 3.754667 0 0 0 2.666667-1.130667 3.626667 3.626667 0 0 0 1.173333-2.709333 3.456 3.456 0 0 0-1.173333-2.666667 3.84 3.84 0 0 0-2.666667-1.066667h-7.253333a3.797333 3.797333 0 0 0-2.730667 1.066667 3.52 3.52 0 0 0-1.109333 2.666667c0 1.066667 0.384 1.984 1.109333 2.709333a3.712 3.712 0 0 0 2.730667 1.130667h7.253333z m-31.253333 0a3.584 3.584 0 0 0 2.602666-1.130667 3.712 3.712 0 0 0 1.130667-2.709333 3.52 3.52 0 0 0-1.130667-2.666667 3.669333 3.669333 0 0 0-2.602666-1.066667h-7.253334a3.989333 3.989333 0 0 0-2.773333 1.066667 3.456 3.456 0 0 0-1.173333 2.666667c0 1.066667 0.384 1.984 1.173333 2.709333 0.789333 0.746667 1.706667 1.130667 2.773333 1.130667h7.253334z m31.253333 12.16a3.754667 3.754667 0 0 0 2.666667-1.130667 3.626667 3.626667 0 0 0 0-5.333333 3.754667 3.754667 0 0 0-2.666667-1.109334h-7.253333a3.712 3.712 0 0 0-2.730667 1.130667 3.712 3.712 0 0 0-1.109333 2.709333c0 1.002667 0.384 1.856 1.109333 2.624a3.712 3.712 0 0 0 2.730667 1.109334h7.253333z m-31.253333 0a3.584 3.584 0 0 0 2.602666-1.130667 3.584 3.584 0 0 0 1.130667-2.602667 3.712 3.712 0 0 0-1.130667-2.709333 3.584 3.584 0 0 0-2.602666-1.130667h-7.253334a3.882667 3.882667 0 0 0-2.773333 1.130667 3.626667 3.626667 0 0 0 0 5.333333c0.789333 0.746667 1.706667 1.109333 2.773333 1.109334h7.253334z m36.906666 49.173333a3.498667 3.498667 0 0 0 2.624-1.173333 3.754667 3.754667 0 0 0 1.109334-2.666667V94.72a3.584 3.584 0 0 0-1.130667-2.624 3.584 3.584 0 0 0-2.602667-1.109333H173.546667a3.712 3.712 0 0 0-2.709334 1.130666 3.584 3.584 0 0 0-1.130666 2.602667c0 1.066667 0.384 1.984 1.130666 2.773333a3.626667 3.626667 0 0 0 2.709334 1.173334h47.466666v8.96H177.386667a3.712 3.712 0 0 0-2.709334 1.130666 3.712 3.712 0 0 0-1.130666 2.709334c0 1.066667 0.384 1.962667 1.130666 2.666666 0.725333 0.704 1.642667 1.066667 2.709334 1.066667h43.626666v12.16H172.48a3.797333 3.797333 0 0 0-2.773333 1.173333 3.669333 3.669333 0 0 0-1.173334 2.666667c0 1.002667 0.384 1.877333 1.173334 2.666667 0.789333 0.789333 1.706667 1.173333 2.773333 1.173333h52.373333z" fill="#000000" /></svg>