<?xml version="1.0" standalone="no"?>
<!DOCTYPE svg PUBLIC "-//W3C//DTD SVG 1.1//EN" "http://www.w3.org/Graphics/SVG/1.1/DTD/svg11.dtd">
<svg class="icon" style="width: 1em;height: 1em;vertical-align: middle;fill: currentColor;overflow: hidden;" viewBox="0 0 1024 1024" version="1.1" xmlns="http://www.w3.org/2000/svg"><path d="M299.690667 640C170.666667 640 66.133333 536.746667 66.133333 409.386667c0-67.946667 29.738667-129.002667 77.077334-171.221334C180.864 118.72 293.717333 32 427.072 32c128.149333 0 237.333333 80.064 279.104 192.298667a215.04 215.04 0 0 1 39.381333-3.626667c117.248 0 212.309333 93.866667 212.309334 209.664 0 113.834667-91.861333 206.485333-206.378667 209.578667l-5.930667 0.085333h-445.866666z" fill="#FFFFFF" /><path d="M957.866667 430.336c0 113.834667-91.861333 206.485333-206.378667 209.578667l-5.930667 0.085333h-445.866666C170.666667 640 66.133333 536.746667 66.133333 409.386667c0-5.674667 0.213333-11.306667 0.618667-16.874667 8.597333 114.538667 103.893333 205.226667 221.333333 208.341333l6.186667 0.064h435.562667l5.824-0.064c111.850667-3.050667 201.6-93.546667 201.6-204.736 0-32.896-7.872-64-21.824-91.541333a207.018667 207.018667 0 0 1 42.432 125.76z" fill="#D1F1FF" /><path d="M427.072 32c128.149333 0 237.333333 80.064 279.104 192.298667a215.04 215.04 0 0 1 39.381333-3.626667c117.248 0 212.309333 93.866667 212.309334 209.664 0 113.834667-91.861333 206.485333-206.378667 209.578667l-5.930667 0.085333h-445.866666C170.666667 640 66.133333 536.746667 66.133333 409.386667c0-67.946667 29.738667-129.002667 77.077334-171.221334C180.864 118.72 293.717333 32 427.072 32z m0 16.768c-123.562667 0-231.488 79.68-267.648 194.389333a16.746667 16.746667 0 0 1-4.842667 7.466667 212.053333 212.053333 0 0 0-71.466666 158.762667c0 116.138667 93.76 210.645333 210.602666 213.76l5.973334 0.085333h445.632l5.696-0.085333c105.557333-2.858667 189.866667-88.298667 189.866666-192.810667 0-106.517333-87.466667-192.874667-195.328-192.874667-12.288 0-24.426667 1.109333-36.245333 3.328a17.024 17.024 0 0 1-19.093333-10.709333c-40.192-108.032-144.64-181.312-263.146667-181.312z" fill="#000000" /><path d="M277.333333 682.794667c2.346667 0 4.266667 1.642667 4.736 3.84l0.106667 0.981333v6.890667l5.653333-5.034667a4.842667 4.842667 0 0 1 7.104 6.485333l-0.682666 0.725334-12.096 10.773333v9.002667l18.901333 10.922666 7.808-4.501333 3.285333-15.872a4.842667 4.842667 0 0 1 9.578667 1.002667l-0.106667 0.96-1.536 7.424 5.973334-3.434667a4.842667 4.842667 0 0 1 5.610666 7.808l-0.789333 0.554667-5.973333 3.434666 7.210666 2.410667a4.842667 4.842667 0 0 1-2.090666 9.386667l-0.938667-0.213334-15.402667-5.098666-7.786666 4.501333v21.824l7.808 4.501333 15.36-5.077333a4.842667 4.842667 0 0 1 3.946666 8.789333l-0.896 0.384-7.189333 2.389334 5.973333 3.456a4.842667 4.842667 0 0 1-3.968 8.746666l-0.874666-0.384-5.973334-3.456 1.536 7.445334a4.842667 4.842667 0 0 1-9.173333 2.88l-0.298667-0.917334-3.285333-15.872-7.786667-4.501333-18.922666 10.901333 0.021333 9.024 12.074667 10.773334a4.842667 4.842667 0 0 1-5.632 7.786666l-0.789334-0.576-5.653333-5.034666v6.890666a4.842667 4.842667 0 0 1-9.578667 0.96l-0.106666-0.96v-6.890666l-5.653334 5.034666a4.842667 4.842667 0 0 1-7.104-6.485333l0.682667-0.725333 12.096-10.773334v-9.002666l-18.922667-10.922667-7.786666 4.501333-3.285334 15.872a4.842667 4.842667 0 0 1-9.578666-1.002666l0.106666-0.96 1.536-7.424-5.973333 3.434666a4.842667 4.842667 0 0 1-5.610667-7.808l0.789334-0.554666 5.973333-3.434667-7.210667-2.410667a4.842667 4.842667 0 0 1 2.090667-9.386666l0.938667 0.213333 15.402666 5.098667 7.765334-4.501334v-21.845333l-7.786667-4.48-15.36 5.077333a4.842667 4.842667 0 0 1-3.946667-8.789333l0.896-0.384 7.189334-2.389333-5.973334-3.456a4.842667 4.842667 0 0 1 3.968-8.746667l0.874667 0.384 5.973333 3.456-1.536-7.445333a4.842667 4.842667 0 0 1 9.173334-2.88l0.298666 0.917333 3.285334 15.872 7.786666 4.48 18.901334-10.901333v-9.002667l-12.074667-10.773333a4.842667 4.842667 0 0 1 5.632-7.786667l0.789333 0.576 5.653334 5.034667v-6.890667c0-2.666667 2.176-4.821333 4.842666-4.821333z m0 45.653333l-15.786666 9.109333v18.197334l15.786666 9.109333 15.786667-9.109333v-18.197334l-15.786667-9.109333zM512 682.794667c2.346667 0 4.266667 1.642667 4.736 3.84l0.106667 0.981333v6.890667l5.653333-5.034667a4.842667 4.842667 0 0 1 7.104 6.485333l-0.682667 0.725334-12.096 10.773333v9.002667l18.901334 10.922666 7.808-4.501333 3.285333-15.872a4.842667 4.842667 0 0 1 9.578667 1.002667l-0.106667 0.96-1.536 7.424 5.973333-3.434667a4.842667 4.842667 0 0 1 5.610667 7.808l-0.789333 0.554667-5.973334 3.434666 7.210667 2.410667a4.842667 4.842667 0 0 1-2.090667 9.386667l-0.938666-0.213334-15.402667-5.098666-7.786667 4.501333v21.824l7.808 4.501333 15.36-5.077333a4.842667 4.842667 0 0 1 3.946667 8.789333l-0.896 0.384-7.189333 2.389334 5.973333 3.456a4.842667 4.842667 0 0 1-3.968 8.746666l-0.874667-0.384-5.973333-3.456 1.536 7.445334a4.842667 4.842667 0 0 1-9.173333 2.88l-0.298667-0.917334-3.285333-15.872-7.786667-4.501333-18.922667 10.901333 0.021334 9.024 12.074666 10.773334a4.842667 4.842667 0 0 1-5.632 7.786666l-0.789333-0.576-5.653333-5.034666v6.890666a4.842667 4.842667 0 0 1-9.578667 0.96l-0.106667-0.96v-6.890666l-5.653333 5.034666a4.842667 4.842667 0 0 1-7.104-6.485333l0.682667-0.725333 12.096-10.773334v-9.002666l-18.922667-10.922667-7.786667 4.501333-3.285333 15.872a4.842667 4.842667 0 0 1-9.578667-1.002666l0.106667-0.96 1.536-7.424-5.973333 3.434666a4.842667 4.842667 0 0 1-5.610667-7.808l0.789333-0.554666 5.973334-3.434667-7.210667-2.410667a4.842667 4.842667 0 0 1 2.090667-9.386666l0.938666 0.213333 15.402667 5.098667 7.765333-4.501334v-21.845333l-7.786666-4.48-15.36 5.077333a4.842667 4.842667 0 0 1-3.946667-8.789333l0.896-0.384 7.189333-2.389333-5.973333-3.456a4.842667 4.842667 0 0 1 3.968-8.746667l0.874667 0.384 5.973333 3.456-1.536-7.445333a4.842667 4.842667 0 0 1 9.173333-2.88l0.298667 0.917333 3.285333 15.872 7.786667 4.48 18.901333-10.901333v-9.002667l-12.074666-10.773333a4.842667 4.842667 0 0 1 5.632-7.786667l0.789333 0.576 5.653333 5.034667v-6.890667c0-2.666667 2.176-4.821333 4.842667-4.821333z m0 45.653333l-15.786667 9.109333v18.197334l15.786667 9.109333 15.786667-9.109333v-18.197334l-15.786667-9.109333zM746.666667 682.794667c2.346667 0 4.266667 1.642667 4.736 3.84l0.106666 0.981333v6.890667l5.653334-5.034667a4.842667 4.842667 0 0 1 7.104 6.485333l-0.682667 0.725334-12.096 10.773333v9.002667l18.901333 10.922666 7.808-4.501333 3.285334-15.872a4.842667 4.842667 0 0 1 9.578666 1.002667l-0.106666 0.96-1.536 7.424 5.973333-3.434667a4.842667 4.842667 0 0 1 5.610667 7.808l-0.789334 0.554667-5.973333 3.434666 7.210667 2.410667a4.842667 4.842667 0 0 1-2.090667 9.386667l-0.938667-0.213334-15.402666-5.098666-7.786667 4.501333v21.824l7.808 4.501333 15.36-5.077333a4.842667 4.842667 0 0 1 3.946667 8.789333l-0.896 0.384-7.189334 2.389334 5.973334 3.456a4.842667 4.842667 0 0 1-3.968 8.746666l-0.874667-0.384-5.973333-3.456 1.536 7.445334a4.842667 4.842667 0 0 1-9.173334 2.88l-0.298666-0.917334-3.285334-15.872-7.786666-4.501333-18.922667 10.901333 0.021333 9.024 12.074667 10.773334a4.842667 4.842667 0 0 1-5.632 7.786666l-0.789333-0.576-5.653334-5.034666v6.890666a4.842667 4.842667 0 0 1-9.578666 0.96l-0.106667-0.96v-6.890666l-5.653333 5.034666a4.842667 4.842667 0 0 1-7.104-6.485333l0.682666-0.725333 12.096-10.773334v-9.002666l-18.922666-10.922667-7.786667 4.501333-3.285333 15.872a4.842667 4.842667 0 0 1-9.578667-1.002666l0.106667-0.96 1.536-7.424-5.973334 3.434666a4.842667 4.842667 0 0 1-5.610666-7.808l0.789333-0.554666 5.973333-3.434667-7.210666-2.410667a4.842667 4.842667 0 0 1 2.090666-9.386666l0.938667 0.213333 15.402667 5.098667 7.765333-4.501334v-21.845333l-7.786667-4.48-15.36 5.077333a4.842667 4.842667 0 0 1-3.946666-8.789333l0.896-0.384 7.189333-2.389333-5.973333-3.456a4.842667 4.842667 0 0 1 3.968-8.746667l0.874666 0.384 5.973334 3.456-1.536-7.445333a4.842667 4.842667 0 0 1 9.173333-2.88l0.298667 0.917333 3.285333 15.872 7.786667 4.48 18.901333-10.901333v-9.002667l-12.074667-10.773333a4.842667 4.842667 0 0 1 5.632-7.786667l0.789334 0.576 5.653333 5.034667v-6.890667c0-2.666667 2.176-4.821333 4.842667-4.821333z m0 45.653333l-15.786667 9.109333v18.197334l15.786667 9.109333 15.786666-9.109333v-18.197334l-15.786666-9.109333zM277.333333 853.461333c2.346667 0 4.266667 1.642667 4.736 3.84l0.106667 0.981334v6.890666l5.653333-5.034666a4.842667 4.842667 0 0 1 7.104 6.485333l-0.682666 0.725333-12.096 10.773334v9.002666l18.901333 10.922667 7.808-4.501333 3.285333-15.872a4.842667 4.842667 0 0 1 9.578667 1.002666l-0.106667 0.96-1.536 7.424 5.973334-3.434666a4.842667 4.842667 0 0 1 5.610666 7.808l-0.789333 0.554666-5.973333 3.434667 7.210666 2.410667a4.842667 4.842667 0 0 1-2.090666 9.386666l-0.938667-0.213333-15.402667-5.098667-7.786666 4.501334v21.824l7.808 4.501333 15.36-5.077333a4.842667 4.842667 0 0 1 3.946666 8.789333l-0.896 0.384-7.189333 2.389333 5.973333 3.456a4.842667 4.842667 0 0 1-3.968 8.746667l-0.874666-0.384-5.973334-3.456 1.536 7.445333a4.842667 4.842667 0 0 1-9.173333 2.88l-0.298667-0.917333-3.285333-15.872-7.786667-4.501333-18.922666 10.901333 0.021333 9.024 12.074667 10.773333a4.842667 4.842667 0 0 1-5.632 7.786667l-0.789334-0.576-5.653333-5.034667v6.890667a4.842667 4.842667 0 0 1-9.578667 0.96l-0.106666-0.96v-6.890667l-5.653334 5.034667a4.842667 4.842667 0 0 1-7.104-6.485333l0.682667-0.725334 12.096-10.773333v-9.002667l-18.922667-10.922666-7.786666 4.501333-3.285334 15.872a4.842667 4.842667 0 0 1-9.578666-1.002667l0.106666-0.96 1.536-7.424-5.973333 3.434667a4.842667 4.842667 0 0 1-5.610667-7.808l0.789334-0.554667 5.973333-3.434666-7.210667-2.410667a4.842667 4.842667 0 0 1 2.090667-9.386667l0.938667 0.213334 15.402666 5.098666 7.765334-4.501333v-21.845333l-7.786667-4.48-15.36 5.077333a4.842667 4.842667 0 0 1-3.946667-8.789333l0.896-0.384 7.189334-2.389334-5.973334-3.456a4.842667 4.842667 0 0 1 3.968-8.746666l0.874667 0.384 5.973333 3.456-1.536-7.445334a4.842667 4.842667 0 0 1 9.173334-2.88l0.298666 0.917334 3.285334 15.872 7.786666 4.48 18.901334-10.901334v-9.002666l-12.074667-10.773334a4.842667 4.842667 0 0 1 5.632-7.786666l0.789333 0.576 5.653334 5.034666v-6.890666c0-2.666667 2.176-4.821333 4.842666-4.821334z m0 45.653334l-15.786666 9.109333v18.197333l15.786666 9.109334 15.786667-9.109334v-18.197333l-15.786667-9.109333zM512 853.461333c2.346667 0 4.266667 1.642667 4.736 3.84l0.106667 0.981334v6.890666l5.653333-5.034666a4.842667 4.842667 0 0 1 7.104 6.485333l-0.682667 0.725333-12.096 10.773334v9.002666l18.901334 10.922667 7.808-4.501333 3.285333-15.872a4.842667 4.842667 0 0 1 9.578667 1.002666l-0.106667 0.96-1.536 7.424 5.973333-3.434666a4.842667 4.842667 0 0 1 5.610667 7.808l-0.789333 0.554666-5.973334 3.434667 7.210667 2.410667a4.842667 4.842667 0 0 1-2.090667 9.386666l-0.938666-0.213333-15.402667-5.098667-7.786667 4.501334v21.824l7.808 4.501333 15.36-5.077333a4.842667 4.842667 0 0 1 3.946667 8.789333l-0.896 0.384-7.189333 2.389333 5.973333 3.456a4.842667 4.842667 0 0 1-3.968 8.746667l-0.874667-0.384-5.973333-3.456 1.536 7.445333a4.842667 4.842667 0 0 1-9.173333 2.88l-0.298667-0.917333-3.285333-15.872-7.786667-4.501333-18.922667 10.901333 0.021334 9.024 12.074666 10.773333a4.842667 4.842667 0 0 1-5.632 7.786667l-0.789333-0.576-5.653333-5.034667v6.890667a4.842667 4.842667 0 0 1-9.578667 0.96l-0.106667-0.96v-6.890667l-5.653333 5.034667a4.842667 4.842667 0 0 1-7.104-6.485333l0.682667-0.725334 12.096-10.773333v-9.002667l-18.922667-10.922666-7.786667 4.501333-3.285333 15.872a4.842667 4.842667 0 0 1-9.578667-1.002667l0.106667-0.96 1.536-7.424-5.973333 3.434667a4.842667 4.842667 0 0 1-5.610667-7.808l0.789333-0.554667 5.973334-3.434666-7.210667-2.410667a4.842667 4.842667 0 0 1 2.090667-9.386667l0.938666 0.213334 15.402667 5.098666 7.765333-4.501333v-21.845333l-7.786666-4.48-15.36 5.077333a4.842667 4.842667 0 0 1-3.946667-8.789333l0.896-0.384 7.189333-2.389334-5.973333-3.456a4.842667 4.842667 0 0 1 3.968-8.746666l0.874667 0.384 5.973333 3.456-1.536-7.445334a4.842667 4.842667 0 0 1 9.173333-2.88l0.298667 0.917334 3.285333 15.872 7.786667 4.48 18.901333-10.901334v-9.002666l-12.074666-10.773334a4.842667 4.842667 0 0 1 5.632-7.786666l0.789333 0.576 5.653333 5.034666v-6.890666c0-2.666667 2.176-4.821333 4.842667-4.821334z m0 45.653334l-15.786667 9.109333v18.197333l15.786667 9.109334 15.786667-9.109334v-18.197333l-15.786667-9.109333zM746.666667 853.461333c2.346667 0 4.266667 1.642667 4.736 3.84l0.106666 0.981334v6.890666l5.653334-5.034666a4.842667 4.842667 0 0 1 7.104 6.485333l-0.682667 0.725333-12.096 10.773334v9.002666l18.901333 10.922667 7.808-4.501333 3.285334-15.872a4.842667 4.842667 0 0 1 9.578666 1.002666l-0.106666 0.96-1.536 7.424 5.973333-3.434666a4.842667 4.842667 0 0 1 5.610667 7.808l-0.789334 0.554666-5.973333 3.434667 7.210667 2.410667a4.842667 4.842667 0 0 1-2.090667 9.386666l-0.938667-0.213333-15.402666-5.098667-7.786667 4.501334v21.824l7.808 4.501333 15.36-5.077333a4.842667 4.842667 0 0 1 3.946667 8.789333l-0.896 0.384-7.189334 2.389333 5.973334 3.456a4.842667 4.842667 0 0 1-3.968 8.746667l-0.874667-0.384-5.973333-3.456 1.536 7.445333a4.842667 4.842667 0 0 1-9.173334 2.88l-0.298666-0.917333-3.285334-15.872-7.786666-4.501333-18.922667 10.901333 0.021333 9.024 12.074667 10.773333a4.842667 4.842667 0 0 1-5.632 7.786667l-0.789333-0.576-5.653334-5.034667v6.890667a4.842667 4.842667 0 0 1-9.578666 0.96l-0.106667-0.96v-6.890667l-5.653333 5.034667a4.842667 4.842667 0 0 1-7.104-6.485333l0.682666-0.725334 12.096-10.773333v-9.002667l-18.922666-10.922666-7.786667 4.501333-3.285333 15.872a4.842667 4.842667 0 0 1-9.578667-1.002667l0.106667-0.96 1.536-7.424-5.973334 3.434667a4.842667 4.842667 0 0 1-5.610666-7.808l0.789333-0.554667 5.973333-3.434666-7.210666-2.410667a4.842667 4.842667 0 0 1 2.090666-9.386667l0.938667 0.213334 15.402667 5.098666 7.765333-4.501333v-21.845333l-7.786667-4.48-15.36 5.077333a4.842667 4.842667 0 0 1-3.946666-8.789333l0.896-0.384 7.189333-2.389334-5.973333-3.456a4.842667 4.842667 0 0 1 3.968-8.746666l0.874666 0.384 5.973334 3.456-1.536-7.445334a4.842667 4.842667 0 0 1 9.173333-2.88l0.298667 0.917334 3.285333 15.872 7.786667 4.48 18.901333-10.901334v-9.002666l-12.074667-10.773334a4.842667 4.842667 0 0 1 5.632-7.786666l0.789334 0.576 5.653333 5.034666v-6.890666c0-2.666667 2.176-4.821333 4.842667-4.821334z m0 45.653334l-15.786667 9.109333v18.197333l15.786667 9.109334 15.786666-9.109334v-18.197333l-15.786666-9.109333z" fill="#6BD1FF" /><path d="M466.517333 457.536m-45.482666 0a45.482667 45.482667 0 1 0 90.965333 0 45.482667 45.482667 0 1 0-90.965333 0Z" fill="#FF4848" /><path d="M466.517333 401.365333a56.149333 56.149333 0 1 0 0 112.32 56.149333 56.149333 0 0 0 0-112.32z m0 21.333334a34.816 34.816 0 1 1 0 69.653333 34.816 34.816 0 0 1 0-69.653333z" fill="#000000" /><path d="M223.36 388.565333a74.666667 42.666667 0 1 0 149.333333 0 74.666667 42.666667 0 1 0-149.333333 0Z" fill="#FF9DCF" /><path d="M560.341333 388.565333a74.666667 42.666667 0 1 0 149.333334 0 74.666667 42.666667 0 1 0-149.333334 0Z" fill="#FF9DCF" /><path d="M603.477333 279.082667m-32 0a32 32 0 1 0 64 0 32 32 0 1 0-64 0Z" fill="#000000" /><path d="M329.557333 279.082667m-32 0a32 32 0 1 0 64 0 32 32 0 1 0-64 0Z" fill="#000000" /><path d="M137.237333 136.853333c0.96 0.362667 1.92 0.277333 2.922667-0.213333a3.776 3.776 0 0 0 1.856-2.133333 4.224 4.224 0 0 0-0.042667-2.88l-27.306666-62.826667H141.226667c1.066667 0 1.984-0.384 2.709333-1.130667A3.584 3.584 0 0 0 145.066667 65.066667a3.712 3.712 0 0 0-1.130667-2.709334 3.712 3.712 0 0 0-2.709333-1.130666H112.746667v-18.88a3.882667 3.882667 0 0 0-1.130667-2.773334 3.626667 3.626667 0 0 0-5.333333 0 3.882667 3.882667 0 0 0-1.109334 2.773334v18.88H77.333333a3.584 3.584 0 0 0-2.624 1.109333 3.712 3.712 0 0 0-1.109333 2.730667c0 1.002667 0.362667 1.877333 1.109333 2.624a3.584 3.584 0 0 0 2.624 1.109333h25.813334L75.946667 131.626667a4.224 4.224 0 0 0-0.042667 2.88 3.733333 3.733333 0 0 0 1.962667 2.133333 3.434667 3.434667 0 0 0 2.88 0.213333 3.946667 3.946667 0 0 0 2.133333-2.026666l26.026667-60.266667L135.04 134.826667a3.925333 3.925333 0 0 0 2.197333 2.026666zM200.106667 86.826667c1.066667 0 1.962667-0.384 2.709333-1.130667a3.712 3.712 0 0 0 1.130667-2.709333v-21.333334h23.146666v15.68c0 1.002667 0.384 1.856 1.130667 2.624a3.584 3.584 0 0 0 2.602667 1.109334c1.066667 0 1.962667-0.362667 2.709333-1.109334A3.584 3.584 0 0 0 234.666667 77.333333V57.813333a3.52 3.52 0 0 0-1.130667-2.666666 3.797333 3.797333 0 0 0-2.709333-1.066667H203.946667v-6.186667h26.88a3.498667 3.498667 0 0 0 2.624-1.173333 3.754667 3.754667 0 0 0 0-5.333333 3.498667 3.498667 0 0 0-2.624-1.173334H169.066667a3.626667 3.626667 0 0 0-2.709334 1.173334 3.754667 3.754667 0 0 0 0 5.333333 3.626667 3.626667 0 0 0 2.709334 1.173333h27.306666v6.186667H168.96a3.669333 3.669333 0 0 0-2.602667 1.066667 3.52 3.52 0 0 0-1.130666 2.666666v19.52c0 1.002667 0.384 1.856 1.130666 2.624a3.584 3.584 0 0 0 2.602667 1.109334c1.066667 0 1.962667-0.362667 2.709333-1.109334a3.584 3.584 0 0 0 1.130667-2.624V61.653333h23.573333v21.333334c0 1.066667 0.384 1.962667 1.130667 2.709333a3.584 3.584 0 0 0 2.602667 1.130667z m19.093333-13.12a3.754667 3.754667 0 0 0 2.666667-1.130667 3.626667 3.626667 0 0 0 1.173333-2.709333 3.456 3.456 0 0 0-1.173333-2.666667 3.84 3.84 0 0 0-2.666667-1.066667h-7.253333a3.797333 3.797333 0 0 0-2.730667 1.066667 3.52 3.52 0 0 0-1.109333 2.666667c0 1.066667 0.384 1.984 1.109333 2.709333a3.712 3.712 0 0 0 2.730667 1.130667h7.253333z m-31.253333 0a3.584 3.584 0 0 0 2.602666-1.130667 3.712 3.712 0 0 0 1.130667-2.709333 3.52 3.52 0 0 0-1.130667-2.666667 3.669333 3.669333 0 0 0-2.602666-1.066667h-7.253334a3.989333 3.989333 0 0 0-2.773333 1.066667 3.456 3.456 0 0 0-1.173333 2.666667c0 1.066667 0.384 1.984 1.173333 2.709333 0.789333 0.746667 1.706667 1.130667 2.773333 1.130667h7.253334z m31.253333 12.16a3.754667 3.754667 0 0 0 2.666667-1.130667 3.626667 3.626667 0 0 0 0-5.333333 3.754667 3.754667 0 0 0-2.666667-1.109334h-7.253333a3.712 3.712 0 0 0-2.730667 1.130667 3.712 3.712 0 0 0-1.109333 2.709333c0 1.002667 0.384 1.856 1.109333 2.624a3.712 3.712 0 0 0 2.730667 1.109334h7.253333z m-31.253333 0a3.584 3.584 0 0 0 2.602666-1.130667 3.584 3.584 0 0 0 1.130667-2.602667 3.712 3.712 0 0 0-1.130667-2.709333 3.584 3.584 0 0 0-2.602666-1.130667h-7.253334a3.882667 3.882667 0 0 0-2.773333 1.130667 3.626667 3.626667 0 0 0 0 5.333333c0.789333 0.746667 1.706667 1.109333 2.773333 1.109334h7.253334z m36.906666 49.173333a3.498667 3.498667 0 0 0 2.624-1.173333 3.754667 3.754667 0 0 0 1.109334-2.666667V94.72a3.584 3.584 0 0 0-1.130667-2.624 3.584 3.584 0 0 0-2.602667-1.109333H173.546667a3.712 3.712 0 0 0-2.709334 1.130666 3.584 3.584 0 0 0-1.130666 2.602667c0 1.066667 0.384 1.984 1.130666 2.773333a3.626667 3.626667 0 0 0 2.709334 1.173334h47.466666v8.96H177.386667a3.712 3.712 0 0 0-2.709334 1.130666 3.712 3.712 0 0 0-1.130666 2.709334c0 1.066667 0.384 1.962667 1.130666 2.666666 0.725333 0.704 1.642667 1.066667 2.709334 1.066667h43.626666v12.16H172.48a3.797333 3.797333 0 0 0-2.773333 1.173333 3.669333 3.669333 0 0 0-1.173334 2.666667c0 1.002667 0.384 1.877333 1.173334 2.666667 0.789333 0.789333 1.706667 1.173333 2.773333 1.173333h52.373333z" fill="#000000" /></svg>