<?xml version="1.0" standalone="no"?>
<!DOCTYPE svg PUBLIC "-//W3C//DTD SVG 1.1//EN" "http://www.w3.org/Graphics/SVG/1.1/DTD/svg11.dtd">
<svg class="icon" style="width: 1em;height: 1em;vertical-align: middle;fill: currentColor;overflow: hidden;" viewBox="0 0 1024 1024" version="1.1" xmlns="http://www.w3.org/2000/svg"><path d="M325.857795 591.24812a225.239371 225.239371 0 0 1-227.284935-224.102946A222.057381 222.057381 0 0 1 173.804173 200.772602a288.879152 288.879152 0 0 1 545.483844-13.637096 209.329425 209.329425 0 0 1 38.183869-3.409274A204.556441 204.556441 0 0 1 763.381295 591.24812H325.857795z" fill="#FFFFFF" /><path d="M963.164753 386.691679a204.556441 204.556441 0 0 1-199.783458 204.556441H325.857795a225.239371 225.239371 0 0 1-227.284935-224.102946v-16.364515a220.466387 220.466387 0 0 0 214.329694 202.510877h435.023365a199.783458 199.783458 0 0 0 195.237759-199.101603 194.101334 194.101334 0 0 0-21.137499-88.86841A200.465313 200.465313 0 0 1 963.164753 386.691679z" fill="#D1F1FF" /><path d="M449.04623 0.307289A287.970013 287.970013 0 0 1 719.288017 187.135506a209.329425 209.329425 0 0 1 38.183869-3.409274A204.556441 204.556441 0 0 1 763.381295 591.24812H325.857795a225.239371 225.239371 0 0 1-227.284935-224.102946A222.057381 222.057381 0 0 1 173.804173 200.772602 287.515443 287.515443 0 0 1 449.04623 0.307289z m0 16.364516A271.150927 271.150927 0 0 0 189.941404 204.863731a17.04637 17.04637 0 0 1-4.772984 7.273118 207.511146 207.511146 0 0 0 134.779967 362.064901h442.978338a187.510071 187.510071 0 0 0-5.227554-374.792858 179.782384 179.782384 0 0 0-35.229165 3.181989 16.364515 16.364515 0 0 1-18.410079-10.455107A272.741922 272.741922 0 0 0 449.04623 16.671805z"  /><path d="M324.2668 680.343815a4.091129 4.091129 0 0 1 4.091129 3.181989v6.591263l4.772984-4.091129a4.091129 4.091129 0 0 1 5.682123 0 4.091129 4.091129 0 0 1 0 5.227554l-10.227822 9.091397v7.500403l15.909946 9.318682 6.591263-3.863844 2.954704-13.409811a4.091129 4.091129 0 0 1 7.954973 0l-1.36371 6.363978 5.227553-2.954704a3.863844 3.863844 0 0 1 5.454839 1.590995 3.863844 3.863844 0 0 1 0 5.000268l-5.227554 2.954704 6.136694 2.045565a4.091129 4.091129 0 0 1 2.727419 5.227553 4.318414 4.318414 0 0 1-4.545699 2.727419l-14.773521-1.590994-6.591263 3.863844v18.637364l6.818548 3.636559 12.955242-4.318413a4.318414 4.318414 0 0 1 5.227553 2.727419 4.091129 4.091129 0 0 1-2.045564 4.772984l-6.136694 2.045564 5.227554 2.727419a4.318414 4.318414 0 0 1 1.36371 5.682124 3.863844 3.863844 0 0 1-4.772984 1.818279l-5.227554-2.954704 1.36371 6.136693a4.091129 4.091129 0 0 1-3.181989 5.000269 4.091129 4.091129 0 0 1-4.545699-2.500135l-2.954704-13.409811-8.864112-4.772983-15.909946 9.318682v7.500403l10.227822 9.091397a4.318414 4.318414 0 0 1 0 5.909408 3.863844 3.863844 0 0 1-5.000268 0l-4.772984-4.318413v5.909408a4.091129 4.091129 0 0 1-4.091129 4.091129 4.091129 4.091129 0 0 1-4.091129-3.181989v-6.818548l-4.772983 4.318413a4.318414 4.318414 0 0 1-5.909409 0 4.545699 4.545699 0 0 1 0-5.227553l10.227823-9.091397v-7.500403l-16.137231-10.000537-6.591263 3.863843-2.727419 13.409812a3.863844 3.863844 0 0 1-4.772984 3.181989 4.318414 4.318414 0 0 1-3.409274-4.091129l1.36371-6.136693-5.227554 2.954704a3.863844 3.863844 0 0 1-5.454838-1.590995 3.863844 3.863844 0 0 1 0-5.000268l5.000268-2.72742-4.318413-3.863843a4.091129 4.091129 0 0 1 1.590994-7.954973l12.955241 4.318414 6.591264-3.636559v-18.637365l-6.591264-3.863844-12.955241 4.318414a4.091129 4.091129 0 0 1-3.409274-7.273118l5.909408-2.045564-5.000268-2.954705a4.091129 4.091129 0 0 1-1.36371-5.454838 3.863844 3.863844 0 0 1 6.591263-2.272849l5.000269 2.954704v-6.363978a4.091129 4.091129 0 0 1 3.181989-4.772984 4.091129 4.091129 0 0 1 4.545699 2.500134l2.727419 13.409811 6.591263 3.863844 16.13723-9.318682v-7.500403l-10.227822-9.091397a4.318414 4.318414 0 0 1 0-5.909409 4.091129 4.091129 0 0 1 5.227554 0l4.772984 4.091129v-4.318414a4.091129 4.091129 0 0 1 4.091128-4.091128z m0 38.638439L310.175134 727.619081v15.455376l13.409812 7.727687 13.409811-7.727687V727.619081z" fill="#6BD1FF" /><path d="M523.141118 626.022715a4.091129 4.091129 0 0 1 4.091129 3.409274V636.705107l4.772984-4.318414A4.091129 4.091129 0 0 1 537.460069 636.705107l-10.227822 9.091398v7.727687l15.909946 9.091398 6.591263-3.636559 2.954704-13.637096a4.091129 4.091129 0 0 1 7.954973 0l-1.36371 6.136693 5.227554-2.727419a4.091129 4.091129 0 0 1 5.454838 1.363709 4.091129 4.091129 0 0 1 0 5.227554l-5.227553 2.954704 6.136693 2.045564a3.863844 3.863844 0 0 1 2.727419 5.000269 4.091129 4.091129 0 0 1-4.545699 2.954704l-13.182526-4.318414-6.591263 3.863844v18.41008l6.818548 3.863844 12.955241-4.318414a4.318414 4.318414 0 0 1 5.227554 2.500134 4.545699 4.545699 0 0 1-2.045565 5.000269l-6.136693 2.045564 5.227554 2.954704a4.091129 4.091129 0 0 1 1.363709 5.454839 3.863844 3.863844 0 0 1-4.772983 1.818279L560.188563 704.890588l1.363709 6.363978a3.863844 3.863844 0 0 1-3.181989 4.772983 4.091129 4.091129 0 0 1-4.545698-2.272849l-2.954705-13.409811-6.591263-3.863844-15.909945 9.318682v7.500403l10.227822 9.318683A4.091129 4.091129 0 0 1 537.460069 727.619081a3.863844 3.863844 0 0 1-5.000268 0l-4.772984-4.318414v5.682124a4.091129 4.091129 0 0 1-4.091129 4.091129 4.091129 4.091129 0 0 1-4.091129-3.18199v-6.591263L514.731576 727.619081a4.318414 4.318414 0 0 1-5.909408 0 4.318414 4.318414 0 0 1 0-5.227553l10.227822-9.318683V704.890588l-16.137231-9.318683-6.591263 3.863844-2.727419 13.409811a3.863844 3.863844 0 0 1-4.772984 3.181989 4.091129 4.091129 0 0 1-3.409274-4.091128l1.36371-6.363979-5.227554 2.954705a3.863844 3.863844 0 0 1-5.454838-1.590995 3.863844 3.863844 0 0 1 0-5.000269l5.000268-2.954704-5.909408-2.045564a4.091129 4.091129 0 0 1-2.727419-5.227554 4.091129 4.091129 0 0 1 4.318414-2.727419l12.955241 4.318414 6.591263-3.863844v-18.41008l-4.318414-3.863844-12.955241 4.318414a4.091129 4.091129 0 0 1-5.227553-2.727419 4.091129 4.091129 0 0 1 1.818279-4.772984l5.909408-2.045564-3.863844-2.500134a4.318414 4.318414 0 0 1-1.363709-5.682124 4.091129 4.091129 0 0 1 4.772983-1.818279l5.000269 2.727419-1.136425-6.136693a4.091129 4.091129 0 0 1 3.181989-5.000269 4.318414 4.318414 0 0 1 4.545699 2.500134l2.727419 13.637097 6.591263 3.636559 16.137231-9.091398v-7.727688l-10.227822-9.091397a4.091129 4.091129 0 0 1 0-5.682123 4.318414 4.318414 0 0 1 5.227553 0l4.772984 4.318413v-5.909408a4.091129 4.091129 0 0 1 5.227553-4.091129z m0 38.638439l-13.409811 7.727688v15.455375l13.409811 7.727688 13.409812-7.727688v-15.455375z" fill="#6BD1FF" /><path d="M722.015437 680.343815a4.091129 4.091129 0 0 1 4.091128 3.181989v6.591263l4.772984-4.091129a4.091129 4.091129 0 0 1 5.682123 0 4.091129 4.091129 0 0 1 0 5.227554l-10.227822 9.091397v7.500403l15.909946 9.318682 6.591263-3.863844 2.954704-13.409811a4.091129 4.091129 0 0 1 7.954973 0l-1.36371 6.363978 5.227554-2.954704a3.863844 3.863844 0 0 1 5.454838 1.590995 3.863844 3.863844 0 0 1 0 5.000268l-5.227553 2.954704 6.136693 2.045565a4.091129 4.091129 0 0 1 2.727419 5.227553 4.318414 4.318414 0 0 1-4.545699 2.727419l-13.182526-4.318413-6.591263 3.863844v18.637364l6.818548 3.636559 12.955241-4.318414a4.318414 4.318414 0 0 1 5.227554 2.72742 4.091129 4.091129 0 0 1-2.045565 4.772983l-6.136693 2.045565 5.227554 2.727419a4.318414 4.318414 0 0 1 1.363709 5.682123 3.863844 3.863844 0 0 1-4.772983 1.81828l-5.227554-2.954704 1.36371 6.136693a4.091129 4.091129 0 0 1-3.181989 5.000268 4.091129 4.091129 0 0 1-4.545699-2.500134l-2.954704-13.409811L742.016511 750.347575l-15.909946 9.318682v7.500403l10.227822 9.091397a4.318414 4.318414 0 0 1 0 5.909408 3.863844 3.863844 0 0 1-5.000268 0l-4.772984-4.318413v5.909408a4.091129 4.091129 0 0 1-4.091129 4.091129 4.091129 4.091129 0 0 1-4.091128-3.181989v-6.818548l-4.772984 4.318413a4.318414 4.318414 0 0 1-5.909408 0 4.545699 4.545699 0 0 1 0-5.227553l10.227822-9.091397v-7.500403l-16.137231-10.000537-6.591263 3.863843-2.727419 13.409812a3.863844 3.863844 0 0 1-4.772984 3.181989 4.318414 4.318414 0 0 1-3.409274-4.091129l1.36371-6.136693-5.227554 2.954704a3.863844 3.863844 0 0 1-5.454838-1.590995 3.863844 3.863844 0 0 1 0-5.000268l5.000269-2.72742-4.318414-3.863843a4.091129 4.091129 0 0 1 1.590994-7.954973l12.955242 4.318414 6.591263-3.636559v-18.637365l-6.591263-3.863844-12.955242 4.318414a4.091129 4.091129 0 0 1-3.409274-7.273118l5.909409-2.045564-5.000269-2.954705a4.091129 4.091129 0 0 1-1.36371-5.454838 3.863844 3.863844 0 0 1 4.772984-1.81828l5.000269 2.954705-1.136425-6.363979a4.091129 4.091129 0 0 1 3.181989-4.772983 4.091129 4.091129 0 0 1 4.545699 2.500134l2.727419 13.409811 6.591263 3.863844 16.13723-9.318682v-7.500403l-10.227822-9.091397a4.318414 4.318414 0 0 1 0-5.909409 4.091129 4.091129 0 0 1 5.227554 0l4.772984 4.091129v-4.772984a4.091129 4.091129 0 0 1 7.045833-4.091128z m0 38.638439l-13.409812 7.727687v15.455376l13.409812 7.727688 13.409811-7.727688V727.619081z" fill="#6BD1FF" /><path d="M324.2668 824.897033a4.091129 4.091129 0 0 1 4.091129 3.409274v6.591263l4.772984-4.318413a4.091129 4.091129 0 0 1 5.909408 5.454838l-10.227822 9.091397v7.727688l15.909945 9.091398 6.591264-3.636559 2.954704-13.637096a4.091129 4.091129 0 0 1 7.954972 0l-1.363709 6.136693 5.227553-2.727419a4.091129 4.091129 0 0 1 5.454839 1.363709 4.091129 4.091129 0 0 1 0 5.227554l-5.227554 2.954704 6.136694 2.045564a3.863844 3.863844 0 0 1 2.727419 5.000269 4.091129 4.091129 0 0 1-4.545699 2.954704l-15.000806-1.590995-6.591263 3.863844v18.41008l6.818548 3.863844 12.955242-4.318414a4.318414 4.318414 0 0 1 5.227553 2.500135 4.545699 4.545699 0 0 1-2.045564 5.000268l-6.136694 2.045565 5.227554 2.954704a4.091129 4.091129 0 0 1 1.36371 5.454838 3.863844 3.863844 0 0 1-4.772984 1.81828l-5.227554-2.954705 1.36371 6.363979a3.863844 3.863844 0 0 1-3.181989 4.772983 4.091129 4.091129 0 0 1-4.545699-2.272849l-2.954704-13.409811-6.591263-3.863844-15.909945 9.318682v7.500403l10.227822 9.318682a4.091129 4.091129 0 0 1 0 5.682124 3.863844 3.863844 0 0 1-5.000269 0l-4.772984-4.318414v5.682123a4.091129 4.091129 0 0 1-4.091128 4.091129 4.091129 4.091129 0 0 1-4.091129-3.181989v-6.591263l-4.772984 4.318414a4.318414 4.318414 0 0 1-5.909408 0 4.318414 4.318414 0 0 1 0-5.227554l10.227822-9.318682v-7.500403l-16.137231-9.318682-6.591263 3.863844-2.727419 13.409811a3.863844 3.863844 0 0 1-4.772983 3.181989 4.091129 4.091129 0 0 1-4.772984-5.454839l1.363709-6.363978-5.227553 2.954704a3.863844 3.863844 0 0 1-5.454838-1.590994 3.863844 3.863844 0 0 1 0-5.000269l5.000268-2.954704-5.909408-2.045564a4.091129 4.091129 0 0 1-2.727419-5.227554 4.091129 4.091129 0 0 1 5.000268-4.772983l12.955241 4.318413 6.591264-3.863844v-18.410079l-6.591264-3.863844-12.955241 4.318414a4.091129 4.091129 0 0 1-5.227553-2.72742 4.091129 4.091129 0 0 1 2.727419-2.500134l5.909408-2.045564-5.000268-2.954704a4.318414 4.318414 0 0 1-1.36371-5.682124 4.091129 4.091129 0 0 1 4.772984-1.818279l5.000268 2.727419v-6.136693a4.091129 4.091129 0 0 1 3.181989-5.000269 4.318414 4.318414 0 0 1 4.545699 2.500134l2.727419 13.637096 6.591263 3.636559 16.137231-9.091397v-7.954973l-9.318683-9.091397a4.091129 4.091129 0 0 1 0-5.682123 4.318414 4.318414 0 0 1 5.227554 0l4.772984 4.318413v-5.909408a4.091129 4.091129 0 0 1 4.091128-4.545699z m0 38.638439l-13.409811 7.727688V886.718536l13.409811 7.727687 13.409811-7.727687v-15.455376z" fill="#6BD1FF" /><path d="M523.141118 770.575934a4.318414 4.318414 0 0 1 4.091129 3.409274v6.591263l4.772984-4.318414a4.091129 4.091129 0 0 1 5.682123 0 4.091129 4.091129 0 0 1 0 5.227554l-10.227822 9.318682v7.500403l15.909946 9.318682 6.591263-3.863844 2.954704-13.409811a4.091129 4.091129 0 0 1 7.954973 0l-1.36371 6.363978 5.227554-2.954704a3.863844 3.863844 0 0 1 5.454838 1.590995 3.863844 3.863844 0 0 1 0 5.000268l-5.227554 2.954704 6.136694 2.045565a4.091129 4.091129 0 0 1 2.727419 5.227553 4.318414 4.318414 0 0 1-4.545699 2.72742l-13.182526-4.318414-6.591263 3.863844v18.410079l6.818548 3.863844 12.955241-4.318413a4.318414 4.318414 0 0 1 5.227554 2.727419 4.091129 4.091129 0 0 1-2.045565 4.772983l-6.136693 2.045565 5.227554 2.954704a4.318414 4.318414 0 0 1 1.363709 5.682123 4.091129 4.091129 0 0 1-4.772983 1.81828L560.188563 850.352946l1.363709 6.363978a4.091129 4.091129 0 0 1-7.727687 2.500134l-2.954705-13.637096-7.727687-4.318413-15.909946 9.091397v7.727688l10.227822 9.091397a4.091129 4.091129 0 0 1 0 5.682124 3.863844 3.863844 0 0 1-5.000268 0l-4.772984-4.318414v5.909408a4.091129 4.091129 0 0 1-4.091129 4.091129 4.091129 4.091129 0 0 1-4.091129-3.409274v-6.591263l-4.772983 4.318414a4.091129 4.091129 0 0 1-6.136693-5.454839l10.227822-9.091397v-7.954973l-16.137231-9.091397-6.591263 3.636559-2.727419 13.637096a4.091129 4.091129 0 0 1-4.772984 3.181989 4.318414 4.318414 0 0 1-3.409274-4.091129l1.36371-6.136693-5.227554 2.727419a4.091129 4.091129 0 0 1-5.454838-1.36371 4.091129 4.091129 0 0 1 0-5.227553l5.000269-2.954704-4.091129-3.409274a3.863844 3.863844 0 0 1-2.72742-5.000269 4.091129 4.091129 0 0 1 4.318414-2.954704l12.955242 4.318414 6.591263-3.863844v-18.41008L492.003082 811.714507l-12.955241 4.318414a4.318414 4.318414 0 0 1-5.227553-2.500134 4.318414 4.318414 0 0 1 1.818279-5.000269l5.909408-2.045564-5.000268-2.954705a4.091129 4.091129 0 0 1-1.36371-5.454838 4.091129 4.091129 0 0 1 4.772984-2.045564l5.000268 2.954704-1.136424-6.363978a3.863844 3.863844 0 0 1 3.181989-4.772984 4.091129 4.091129 0 0 1 4.545698 2.272849l2.72742 13.409811 6.591263 3.863844 16.13723-9.318682v-7.500403l-10.227822-9.318682a4.091129 4.091129 0 0 1 0-5.682124 4.318414 4.318414 0 0 1 5.227554 0l4.772983 4.318414v-5.682123a4.318414 4.318414 0 0 1 6.363978-3.636559z m0 38.865724l-13.409811 7.727687v15.455376l13.409811 7.727688 13.409812-7.727688v-15.455376z" fill="#6BD1FF" /><path d="M722.015437 824.897033a4.091129 4.091129 0 0 1 4.091128 3.409274v6.591263l4.772984-4.318413a4.091129 4.091129 0 0 1 5.909408 5.454838l-10.227822 9.091397v7.727688l15.909946 9.091398 6.591263-3.636559 2.954704-13.637096a4.091129 4.091129 0 0 1 7.954973 0l-1.36371 6.136693 5.227554-2.727419a4.091129 4.091129 0 0 1 5.454838 1.363709 4.091129 4.091129 0 0 1 0 5.227554l-5.227554 2.954704 6.136694 2.045564a3.863844 3.863844 0 0 1 2.727419 5.000269 4.091129 4.091129 0 0 1-4.545699 2.954704l-13.182526-4.318414-6.591263 3.863844v18.41008l6.818548 3.863844 12.955241-4.318414a4.318414 4.318414 0 0 1 5.227554 2.500134 4.545699 4.545699 0 0 1-2.045565 5.000269l-6.136693 2.045564 5.227554 2.954704a4.091129 4.091129 0 0 1 1.363709 5.454839 3.863844 3.863844 0 0 1-4.772983 1.818279l-5.227554-2.954704 1.36371 6.363978a3.863844 3.863844 0 0 1-3.181989 4.772984 4.091129 4.091129 0 0 1-4.545699-2.272849l-2.954704-13.409811-10.682392-2.045565-15.909946 9.318682v7.500403l10.227822 9.318683a4.091129 4.091129 0 0 1 0 5.682123 3.863844 3.863844 0 0 1-5.000268 0l-4.772984-4.318414v5.682124a4.091129 4.091129 0 0 1-4.091129 4.091128 4.091129 4.091129 0 0 1-4.091128-3.181989v-6.591263l-4.772984 4.318414a4.318414 4.318414 0 0 1-5.909408 0 4.318414 4.318414 0 0 1 0-5.227554l10.227822-9.318682v-7.500403l-16.137231-9.318682-6.591263 3.863844-2.727419 13.409811a3.863844 3.863844 0 0 1-4.772984 3.181989 4.091129 4.091129 0 0 1-3.409274-4.091129l1.36371-6.363978-5.227554 2.954704a3.863844 3.863844 0 0 1-5.454838-1.590994 3.863844 3.863844 0 0 1 0-5.000269l5.000269-2.954704-5.909409-2.045564a4.091129 4.091129 0 0 1-2.727419-5.227554 4.091129 4.091129 0 0 1 4.318414-2.727419l12.955241 4.318414 6.591263-3.863844v-18.41008l-6.591263-3.863844-12.955241 4.318414a4.091129 4.091129 0 0 1-5.227554-2.727419A4.091129 4.091129 0 0 1 673.83103 863.990042l5.909409-2.045564-5.000269-2.954704a4.318414 4.318414 0 0 1-1.36371-5.682124 4.091129 4.091129 0 0 1 4.772984-1.818279l5.000269 2.727419-1.136425-6.136693a4.091129 4.091129 0 0 1 3.181989-5.000269 4.318414 4.318414 0 0 1 4.545699 2.500134l2.727419 13.637096 6.591263 3.636559 16.13723-9.091397v-7.954973l-10.227822-9.091397a4.091129 4.091129 0 0 1 0-5.682123 4.318414 4.318414 0 0 1 5.227554 0l4.772984 4.318413v-5.909408a4.091129 4.091129 0 0 1 7.045833-4.545699z m0 38.638439l-13.409812 7.727688V886.718536l13.409812 7.727687 13.409811-7.727687v-15.455376z" fill="#6BD1FF" /><path d="M523.141118 915.356437a4.091129 4.091129 0 0 1 4.091129 3.181989v6.818549l4.772984-4.318414a4.091129 4.091129 0 0 1 5.682123 0 4.091129 4.091129 0 0 1 0 5.227553l-10.227822 9.091398v7.500403l15.909946 9.318682 6.591263-3.863844 2.954704-13.409811a4.091129 4.091129 0 0 1 7.954973 0l-1.36371 6.136693 5.227554-2.954704a3.863844 3.863844 0 0 1 5.454838 1.590994 3.863844 3.863844 0 0 1 0 5.000269l-5.227554 2.727419 6.136694 2.045565a4.091129 4.091129 0 0 1 2.727419 5.227553 4.318414 4.318414 0 0 1-4.545699 2.727419l-13.182526-4.318413-6.591263 3.636559v18.637364l6.818548 3.636559 10.682392-1.363709a3.863844 3.863844 0 0 1 3.181989 7.273117l-6.136693 2.045565 5.227553 2.954704a4.091129 4.091129 0 0 1 1.36371 5.454838 3.863844 3.863844 0 0 1-4.772984 1.81828l-5.682123-2.045564 1.363709 6.363978a4.091129 4.091129 0 0 1-3.181989 4.772983 4.091129 4.091129 0 0 1-4.545698-2.500134l-2.954705-13.409811-6.591263-3.863844-15.909945 9.318682v7.500403l10.227822 9.091398a4.318414 4.318414 0 0 1 0 5.909408 3.863844 3.863844 0 0 1-5.000269 0l-4.772983-4.091129v5.682123a4.091129 4.091129 0 0 1-4.091129 4.091129 4.091129 4.091129 0 0 1-4.091129-3.181989v-6.591263l-4.772983 4.091129a4.318414 4.318414 0 0 1-5.909409 0 4.545699 4.545699 0 0 1 0-5.227554l10.227822-9.091397v-7.500403l-16.13723-9.318682-6.591263 3.863844-2.727419 13.409811a3.863844 3.863844 0 0 1-4.772984 3.181989 4.091129 4.091129 0 0 1-3.409274-4.091129l1.36371-6.363978-5.227554 2.954704a3.863844 3.863844 0 0 1-5.454838-1.590994 3.863844 3.863844 0 0 1 0-5.000269l5.000268-2.954704-5.909408-2.045565a4.091129 4.091129 0 0 1 2.045564-10.909676l12.955242 4.318413 6.591263-3.863844v-18.637364l-5.909409-2.954704-12.955241 4.318413a4.091129 4.091129 0 0 1-5.227553-2.727419 4.091129 4.091129 0 0 1 1.818279-4.772983l5.909408-2.045565-5.000268-2.727419a4.318414 4.318414 0 0 1-1.36371-5.682123 3.863844 3.863844 0 0 1 4.772984-1.81828l5.000268 2.954704-1.136424-6.136693a4.091129 4.091129 0 0 1 3.181989-5.000269 4.091129 4.091129 0 0 1 4.545698 2.500135l2.72742 13.409811 6.591263 3.863844 16.13723-9.318683v-7.500402l-10.227822-9.091398a4.318414 4.318414 0 0 1 0-5.909408 4.091129 4.091129 0 0 1 5.227554 0l4.772983 4.318414v-5.909409a4.091129 4.091129 0 0 1 6.363978-3.863844z m0 38.638439l-13.409811 7.727688v15.909946l13.409811 7.727687L537.460069 977.63251v-15.909946z" fill="#6BD1FF" /><path d="M260.627019 362.372191a60.230508 34.320025 0 1 0 120.461015 0 60.230508 34.320025 0 1 0-120.461015 0Z" fill="#FF9DCF" /><path d="M532.232516 362.372191a60.230508 34.320025 0 1 0 120.461015 0 60.230508 34.320025 0 1 0-120.461015 0Z" fill="#FF9DCF" /><path d="M567.007111 293.050285m-25.910483 0a25.910483 25.910483 0 1 0 51.820965 0 25.910483 25.910483 0 1 0-51.820965 0Z"  /><path d="M346.086154 293.050285m-25.910482 0a25.910483 25.910483 0 1 0 51.820965 0 25.910483 25.910483 0 1 0-51.820965 0Z"  /><path d="M369.723787 195.317763a79.095157 79.095157 0 0 0-68.18548 28.865187 11.136962 11.136962 0 0 0 1.363709 15.909946 11.591532 11.591532 0 0 0 16.137231-1.36371 57.275804 57.275804 0 0 1 50.911825-20.682929 11.591532 11.591532 0 0 0 11.364247-11.364247 11.364247 11.364247 0 0 0-11.591532-11.364247zM543.596763 197.590613a79.322442 79.322442 0 0 1 68.18548 28.865187 11.364247 11.364247 0 0 1-17.50094 14.546235 57.503089 57.503089 0 0 0-50.911825-20.682929 11.364247 11.364247 0 0 1-11.364247-11.364246 11.364247 11.364247 0 0 1 11.591532-11.364247z"  /><path d="M456.546632 419.193424a49.775401 49.775401 0 0 1 52.730105 47.275267 347.291381 347.291381 0 0 1-105.232924 0 47.275266 47.275266 0 0 1 52.502819-47.275267z" fill="#FF4848" /><path d="M456.546632 407.829178a58.639513 58.639513 0 0 0-63.867066 58.639513 11.591532 11.591532 0 0 0 10.000537 11.364247 361.610332 361.610332 0 0 0 109.096769 0 11.591532 11.591532 0 0 0 8.864112-10.909677 60.685078 60.685078 0 0 0-64.094352-59.094083z m4.091129 22.728493A39.547579 39.547579 0 0 1 495.866926 454.877159v2.045565h-5.682123a367.292455 367.292455 0 0 1-70.231045 0h-3.863844v-2.27285a37.047444 37.047444 0 0 1 39.093009-22.728493z"  /><path d="M134.711165 88.721129a4.545699 4.545699 0 0 0 5.909408 0 4.772984 4.772984 0 0 0 0-2.954704 3.863844 3.863844 0 0 0 0-2.727419l-17.04637-16.591801h12.500671a4.318414 4.318414 0 0 0 3.863844-4.318413 3.636559 3.636559 0 0 0 0-2.72742 3.863844 3.863844 0 0 0-2.727419-1.136424h-19.546505v-5.909409h12.273387a4.772984 4.772984 0 0 0 2.954704 0 4.318414 4.318414 0 0 0 0-6.591263 4.772984 4.772984 0 0 0-2.954704-1.136424h-12.273387v-5.227554h5.909409a3.409274 3.409274 0 0 0 2.954704-1.136425 3.181989 3.181989 0 0 0 1.818279-2.727419v-22.728493a4.091129 4.091129 0 0 0-1.818279-2.72742 4.318414 4.318414 0 0 0-2.954704 0h-45.456987a3.863844 3.863844 0 0 0-2.727419 0 4.091129 4.091129 0 0 0-1.36371 2.954705v22.728493a3.181989 3.181989 0 0 0 1.36371 2.727419 2.954704 2.954704 0 0 0 2.727419 1.136425h6.136693v4.772984H71.753238A4.772984 4.772984 0 0 0 69.025818 45.764276a4.318414 4.318414 0 0 0 0 5.909409 4.772984 4.772984 0 0 0 2.72742 0h12.500671v5.909408H65.843829a3.863844 3.863844 0 0 0-2.727419 1.136425 3.863844 3.863844 0 0 0-1.36371 2.727419 3.409274 3.409274 0 0 0 1.36371 2.954704 3.181989 3.181989 0 0 0 2.727419 1.36371H78.344501l-17.04637 16.5918a2.954704 2.954704 0 0 0 0 2.727419 4.772984 4.772984 0 0 0 1.136424 2.954704 4.772984 4.772984 0 0 0 2.954704 0 4.091129 4.091129 0 0 0 2.72742 0l5.227553-5.227553h15.000806a4.772984 4.772984 0 0 0 2.954704-1.136425 4.318414 4.318414 0 0 0 0-5.909408 4.772984 4.772984 0 0 0-2.954704-1.136425H80.61735l9.091397-8.864112h22.728494l9.091397 8.864112h-7.500403a3.863844 3.863844 0 0 0-2.727419 1.136425 3.863844 3.863844 0 0 0 0 5.909408 3.863844 3.863844 0 0 0 2.727419 1.136425h15.455376zM119.710359 20.762933H82.890199V16.899089h36.82016z m0 10.682392H82.890199V27.581481h36.82016z m-10.000537 12.727957h-17.50094v-4.772984h17.50094z m0 14.091666h-17.50094v-5.909409h17.50094zM101.072994 112.358762a4.772984 4.772984 0 0 0 2.954704 0A4.091129 4.091129 0 0 0 105.618693 108.494918V72.811183a4.772984 4.772984 0 0 0-1.136425-2.954704 4.318414 4.318414 0 0 0-5.909408 0 4.772984 4.772984 0 0 0 0 2.954704v35.683735a4.091129 4.091129 0 0 0 0 2.727419 4.772984 4.772984 0 0 0 2.500134 1.136425z m29.547042 0a4.772984 4.772984 0 0 0 2.954704 0 5.227554 5.227554 0 0 0 1.36371-2.727419 3.863844 3.863844 0 0 0 0-2.954704l-17.95551-19.546505a4.091129 4.091129 0 0 0-2.72742 0 3.863844 3.863844 0 0 0-2.954704 0 5.454838 5.454838 0 0 0-1.363709 2.500135 3.863844 3.863844 0 0 0 1.136424 2.954704l17.273655 18.41008a3.863844 3.863844 0 0 0 2.27285 1.363709z m-62.957927 0a4.091129 4.091129 0 0 0 5.682123 0l16.819085-18.41008a4.772984 4.772984 0 0 0 1.136425-2.954704 5.454838 5.454838 0 0 0-1.36371-2.500134 3.863844 3.863844 0 0 0-2.954704 0 3.863844 3.863844 0 0 0-2.727419 0l-16.819085 18.41008a4.772984 4.772984 0 0 0 0 2.954704 3.181989 3.181989 0 0 0 0.227285 1.363709z m131.370692-53.639244a4.318414 4.318414 0 0 0 2.954704 0 3.863844 3.863844 0 0 0 0-2.954705v-22.728493h25.910483v16.5918a4.772984 4.772984 0 0 0 0 2.954704 4.772984 4.772984 0 0 0 2.727419 0 4.318414 4.318414 0 0 0 2.954704 0 3.863844 3.863844 0 0 0 1.136425-2.954704v-21.819354a2.954704 2.954704 0 0 0-1.136425-2.727419 3.409274 3.409274 0 0 0-1.818279-2.045564H203.12393V17.126374h28.637902a3.863844 3.863844 0 0 0 2.954704-1.136424 4.772984 4.772984 0 0 0 1.136425-2.727419 4.772984 4.772984 0 0 0-1.136425-2.954705 4.091129 4.091129 0 0 0-2.954704-1.363709H166.076486a4.091129 4.091129 0 0 0-2.954705 1.363709 4.772984 4.772984 0 0 0 0 2.954705 4.772984 4.772984 0 0 0 0 2.727419 3.863844 3.863844 0 0 0 2.954705 1.136424h29.092471V23.035783H165.849201a3.636559 3.636559 0 0 0-2.72742 1.136424 3.863844 3.863844 0 0 0 0 2.72742v20.682929a4.772984 4.772984 0 0 0 0 2.954704 4.772984 4.772984 0 0 0 2.72742 0 4.318414 4.318414 0 0 0 2.954704 0 3.863844 3.863844 0 0 0 0-2.954704v-15.682661h26.365052v22.728494a4.772984 4.772984 0 0 0 0 2.954704 4.772984 4.772984 0 0 0 3.863844 1.136425zM219.26116 45.764276a3.409274 3.409274 0 0 0 2.72742-1.136424 3.181989 3.181989 0 0 0 1.363709-2.72742 3.409274 3.409274 0 0 0-1.363709-2.954704 4.091129 4.091129 0 0 0-2.72742-2.272849h-7.500402a4.772984 4.772984 0 0 0-2.954705 0 3.863844 3.863844 0 0 0 0 2.954704 3.863844 3.863844 0 0 0 2.954705 6.136693H219.26116zM186.07756 45.764276a3.863844 3.863844 0 0 0 4.091129-3.863844 3.863844 3.863844 0 0 0 0-2.954704 4.772984 4.772984 0 0 0-2.954704 0H178.349872a4.772984 4.772984 0 0 0-2.954704 0 3.863844 3.863844 0 0 0-1.590995 1.81828 3.863844 3.863844 0 0 0 4.545699 5.000268h7.727688zM219.26116 57.810378a3.636559 3.636559 0 0 0 2.72742-1.36371 3.181989 3.181989 0 0 0 1.363709-2.727419 4.091129 4.091129 0 0 0-1.363709-2.954704 4.091129 4.091129 0 0 0-2.72742-1.136425h-7.500402a4.772984 4.772984 0 0 0-2.954705 1.136425 4.772984 4.772984 0 0 0 0 2.954704 3.863844 3.863844 0 0 0 0 2.727419 4.091129 4.091129 0 0 0 2.954705 1.36371H219.26116z m-33.410885 0a4.091129 4.091129 0 0 0 2.954704-1.36371 3.863844 3.863844 0 0 0 0-2.727419 4.772984 4.772984 0 0 0 0-2.954704 4.772984 4.772984 0 0 0-2.954704-1.136425H178.349872a4.772984 4.772984 0 0 0-2.954704 1.136425 4.772984 4.772984 0 0 0-1.590995 2.954704 3.863844 3.863844 0 0 0 1.136425 2.727419 4.091129 4.091129 0 0 0 2.954704 1.36371h7.727688z m39.320294 52.275535a3.863844 3.863844 0 0 0 4.091129-4.091129V67.12906a3.863844 3.863844 0 0 0 0-2.727419 4.091129 4.091129 0 0 0-2.954705-1.36371H170.849469a4.091129 4.091129 0 0 0-2.954704 1.36371 3.863844 3.863844 0 0 0 0 2.727419 4.772984 4.772984 0 0 0 0 2.954704 3.863844 3.863844 0 0 0 2.954704 1.136425h50.457256v9.773252h-45.456987a3.863844 3.863844 0 0 0-2.954704 1.136425 4.091129 4.091129 0 0 0 0 2.727419 3.863844 3.863844 0 0 0 0 2.954704 4.772984 4.772984 0 0 0 2.954704 0h45.456987v12.955241H169.713045a3.636559 3.636559 0 0 0-2.954705 1.36371 3.181989 3.181989 0 0 0-1.363709 2.727419 4.091129 4.091129 0 0 0 1.363709 2.954704 4.318414 4.318414 0 0 0 2.954705 0h55.684809z"  /></svg>