<?xml version="1.0" standalone="no"?>
<!DOCTYPE svg PUBLIC "-//W3C//DTD SVG 1.1//EN" "http://www.w3.org/Graphics/SVG/1.1/DTD/svg11.dtd">
<svg class="icon" style="width: 1em;height: 1em;vertical-align: middle;fill: currentColor;overflow: hidden;" viewBox="0 0 1024 1024" version="1.1" xmlns="http://www.w3.org/2000/svg"><path d="M512 405.333333m-213.333333 0a213.333333 213.333333 0 1 0 426.666666 0 213.333333 213.333333 0 1 0-426.666666 0Z" fill="#FFE34F" /><path d="M512 192c117.824 0 213.333333 95.509333 213.333333 213.333333s-95.509333 213.333333-213.333333 213.333334S298.666667 523.157333 298.666667 405.333333 394.176 192 512 192z m0 17.066667a196.266667 196.266667 0 1 0 0 392.533333 196.266667 196.266667 0 0 0 0-392.533333z" fill="#000000" /><path d="M512 661.333333a21.333333 21.333333 0 0 1 21.184 18.837334L533.333333 682.666667v85.333333a21.333333 21.333333 0 0 1-42.517333 2.496L490.666667 768v-85.333333a21.333333 21.333333 0 0 1 21.333333-21.333334z m209.173333-76.757333l2.005334 1.770667 60.352 60.352a21.333333 21.333333 0 0 1-28.16 31.936l-2.005334-1.770667-60.352-60.352a21.333333 21.333333 0 0 1 28.16-31.936z m-390.186666 1.770667a21.333333 21.333333 0 0 1 1.770666 28.16l-1.770666 2.005333-60.352 60.352a21.333333 21.333333 0 0 1-31.936-28.16l1.770666-2.005333 60.352-60.352a21.333333 21.333333 0 0 1 30.165334 0zM874.666667 384a21.333333 21.333333 0 0 1 2.496 42.517333L874.666667 426.666667h-85.333334a21.333333 21.333333 0 0 1-2.496-42.517334L789.333333 384h85.333334zM149.333333 384h85.333334a21.333333 21.333333 0 0 1 2.496 42.517333L234.666667 426.666667H149.333333a21.333333 21.333333 0 0 1-2.496-42.517334L149.333333 384h85.333334-85.333334zM783.530667 133.802667a21.333333 21.333333 0 0 1 1.770666 28.16l-1.770666 2.005333-60.352 60.352a21.333333 21.333333 0 0 1-31.936-28.16l1.770666-2.005333 60.352-60.352a21.333333 21.333333 0 0 1 30.165334 0z m-543.061334 0a21.333333 21.333333 0 0 1 30.165334 0l60.352 60.352A21.333333 21.333333 0 0 1 300.8 224.32L240.469333 163.968a21.333333 21.333333 0 0 1 0-30.165333zM512 21.333333a21.333333 21.333333 0 0 1 21.184 18.837334L533.333333 42.666667v85.333333a21.333333 21.333333 0 0 1-42.517333 2.496L490.666667 128V42.666667a21.333333 21.333333 0 0 1 21.333333-21.333334z" fill="#FFE34F" /><path d="M789.333333 507.733333a14.933333 14.933333 0 0 1 2.026667 29.738667L789.333333 537.6H234.666667a14.933333 14.933333 0 0 1-2.026667-29.738667L234.666667 507.733333h554.666666zM853.333333 593.066667a14.933333 14.933333 0 0 1 2.026667 29.738666L853.333333 622.933333H170.666667a14.933333 14.933333 0 0 1-2.026667-29.738666L170.666667 593.066667h682.666666zM960 678.4a14.933333 14.933333 0 0 1 2.026667 29.738667L960 708.266667H64a14.933333 14.933333 0 0 1-2.026667-29.738667L64 678.4h896zM960 763.733333a14.933333 14.933333 0 0 1 2.026667 29.738667L960 793.6H64a14.933333 14.933333 0 0 1-2.026667-29.738667L64 763.733333h896zM896 849.066667a14.933333 14.933333 0 0 1 2.026667 29.738666L896 878.933333H128a14.933333 14.933333 0 0 1-2.026667-29.738666L128 849.066667h768zM768 934.4a14.933333 14.933333 0 0 1 2.026667 29.738667L768 964.266667H256a14.933333 14.933333 0 0 1-2.026667-29.738667L256 934.4h512z" fill="#707172" /><path d="M428.885333 373.333333m-21.333333 0a21.333333 21.333333 0 1 0 42.666667 0 21.333333 21.333333 0 1 0-42.666667 0Z" fill="#000000" /><path d="M590.869333 373.333333m-21.333333 0a21.333333 21.333333 0 1 0 42.666667 0 21.333333 21.333333 0 1 0-42.666667 0Z" fill="#000000" /><path d="M534.378667 444.224a10.666667 10.666667 0 0 1 1.92 21.162667l-1.92 0.170666H488.533333a10.666667 10.666667 0 0 1-1.92-21.162666l1.92-0.170667H534.4z" fill="#000000" /><path d="M106.666667 74.986667a3.754667 3.754667 0 0 0 2.666666-1.130667 3.498667 3.498667 0 0 0 1.173334-2.602667v-13.013333h22.506666v10.453333c0 1.066667 0.384 1.962667 1.109334 2.709334a3.584 3.584 0 0 0 2.624 1.130666c1.066667 0 1.984-0.384 2.709333-1.109333a3.712 3.712 0 0 0 1.130667-2.730667v-14.293333a3.52 3.52 0 0 0-1.130667-2.666667 3.797333 3.797333 0 0 0-2.709333-1.066666H110.506667v-2.773334h26.24a3.584 3.584 0 0 0 2.602666-1.130666 3.584 3.584 0 0 0 1.130667-2.602667 3.712 3.712 0 0 0-1.130667-2.709333 3.584 3.584 0 0 0-2.602666-1.130667H76.586667a3.712 3.712 0 0 0-2.709334 1.109333 3.712 3.712 0 0 0-1.130666 2.730667c0 1.002667 0.384 1.877333 1.109333 2.624a3.712 3.712 0 0 0 2.730667 1.109333h26.24v2.773334H76.48a3.669333 3.669333 0 0 0-2.624 1.066666 3.52 3.52 0 0 0-1.109333 2.666667v14.293333c0 1.066667 0.384 1.962667 1.109333 2.709334a3.584 3.584 0 0 0 2.624 1.130666c1.066667 0 1.984-0.384 2.709333-1.109333a3.712 3.712 0 0 0 1.130667-2.730667v-10.453333H102.826667v13.013333c0 1.002667 0.384 1.877333 1.173333 2.624A3.754667 3.754667 0 0 0 106.666667 74.965333z m-11.626667-8.533334a3.2 3.2 0 0 0 2.346667-0.96 3.2 3.2 0 0 0 0.96-2.346666 3.2 3.2 0 0 0-0.96-2.346667 3.2 3.2 0 0 0-2.346667-0.96h-7.253333a3.370667 3.370667 0 0 0-2.389334 0.96 3.114667 3.114667 0 0 0-1.024 2.346667c0 0.917333 0.341333 1.706667 1.024 2.346666 0.661333 0.64 1.472 0.96 2.389334 0.96h7.253333z m30.613333 0c0.853333 0 1.621333-0.32 2.282667-0.96a3.114667 3.114667 0 0 0 1.024-2.346666 3.114667 3.114667 0 0 0-1.024-2.346667 3.242667 3.242667 0 0 0-2.282667-0.96h-7.253333a3.370667 3.370667 0 0 0-2.389333 0.96 3.114667 3.114667 0 0 0-1.024 2.346667c0 0.917333 0.341333 1.706667 1.024 2.346666 0.661333 0.64 1.472 0.96 2.389333 0.96h7.253333z m-53.333333 41.386667a199.658667 199.658667 0 0 0 32.533333-7.36c2.709333 0.704 5.397333 1.344 8.106667 1.92 9.173333 1.984 19.306667 3.669333 30.4 5.013333a3.818667 3.818667 0 0 0 4.16-3.413333 3.946667 3.946667 0 0 0-0.789333-2.773333 3.626667 3.626667 0 0 0-2.517334-1.386667c-9.749333-1.066667-18.730667-2.453333-26.986666-4.16a75.946667 75.946667 0 0 0 15.68-9.706667 5.184 5.184 0 0 0 1.109333-1.344 3.349333 3.349333 0 0 0 0.490667-1.749333 3.52 3.52 0 0 0-1.109334-2.666667 3.797333 3.797333 0 0 0-2.730666-1.066666h-36.906667c0.789333-1.557333 0.64-2.986667-0.426667-4.266667l-0.32-0.32h2.026667a3.2 3.2 0 0 0 2.346667-0.96 3.2 3.2 0 0 0 0.96-2.346667 3.2 3.2 0 0 0-0.96-2.346666 3.2 3.2 0 0 0-2.346667-0.96h-7.253333a3.370667 3.370667 0 0 0-2.389334 0.96 3.114667 3.114667 0 0 0-1.024 2.346666c0 0.917333 0.32 1.706667 0.96 2.346667a3.2 3.2 0 0 0 2.346667 0.96l-6.506667 5.333333a3.989333 3.989333 0 0 0-1.344 2.624A3.904 3.904 0 0 0 80.64 85.333333c0.853333 0.853333 1.813333 1.28 2.88 1.28v0.106667H118.186667a92.8 92.8 0 0 1-13.546667 5.866667 146.944 146.944 0 0 1-15.36-4.693334 4.117333 4.117333 0 0 0-2.922667 0.213334 4.010667 4.010667 0 0 0-1.984 2.133333 4.117333 4.117333 0 0 0 0.213334 2.922667c0.426667 0.896 1.130667 1.557333 2.133333 1.984l4.266667 1.386666c-6.122667 1.493333-12.693333 2.730667-19.733334 3.733334a4.053333 4.053333 0 0 0-2.496 1.493333 3.584 3.584 0 0 0-0.704 2.773333c0.149333 1.066667 0.64 1.92 1.429334 2.496 0.832 0.618667 1.770667 0.874667 2.837333 0.810667z m53.333333-33.28c0.853333 0 1.621333-0.32 2.282667-0.96a3.114667 3.114667 0 0 0 1.024-2.346667 3.114667 3.114667 0 0 0-1.024-2.346666 3.242667 3.242667 0 0 0-2.282667-0.96h-7.253333a3.370667 3.370667 0 0 0-2.389333 0.96 3.114667 3.114667 0 0 0-1.024 2.346666c0 0.917333 0.341333 1.706667 1.024 2.346667 0.661333 0.64 1.472 0.96 2.389333 0.96h7.253333zM75.946667 136.32a3.690667 3.690667 0 0 0 2.88-0.106667c5.696-2.624 11.029333-6.656 16-12.053333 2.133333-2.282667 4.117333-4.842667 5.973333-7.68h26.24v16.213333c0 1.066667 0.384 1.984 1.173333 2.730667a3.754667 3.754667 0 0 0 2.666667 1.109333c1.066667 0 1.984-0.384 2.730667-1.130666a3.712 3.712 0 0 0 1.109333-2.709334v-19.946666a3.349333 3.349333 0 0 0-1.237333-2.730667 4.458667 4.458667 0 0 0-2.922667-1.002667H104.746667l0.426666-0.853333a5.845333 5.845333 0 0 1 0.32-0.746667 3.669333 3.669333 0 0 0-0.106666-2.88 3.968 3.968 0 0 0-2.133334-2.026666 4.224 4.224 0 0 0-2.88 0.170666 3.370667 3.370667 0 0 0-1.92 2.069334 38.826667 38.826667 0 0 1-1.92 4.266666H82.346667a3.84 3.84 0 0 0-2.666667 1.066667 3.456 3.456 0 0 0-1.173333 2.666667c0 1.002667 0.384 1.856 1.173333 2.602666a3.754667 3.754667 0 0 0 2.666667 1.130667h9.066666a18.304 18.304 0 0 1-1.493333 1.706667 43.456 43.456 0 0 1-14.293333 11.093333 4.010667 4.010667 0 0 0-1.92 2.133333 3.690667 3.690667 0 0 0 0.106666 2.88 3.946667 3.946667 0 0 0 2.133334 2.026667z" fill="#000000" /></svg>