<?xml version="1.0" standalone="no"?>
<!DOCTYPE svg PUBLIC "-//W3C//DTD SVG 1.1//EN" "http://www.w3.org/Graphics/SVG/1.1/DTD/svg11.dtd">
<svg class="icon" style="width: 1em;height: 1em;vertical-align: middle;fill: currentColor;overflow: hidden;" viewBox="0 0 1024 1024" version="1.1" xmlns="http://www.w3.org/2000/svg"><path d="M454.549333 186.026667c0 141.973333 113.344 257.066667 253.162667 257.066666 28.544 0 56-4.8 81.6-13.653333C749.696 527.936 654.4 597.333333 543.146667 597.333333 396.373333 597.333333 277.333333 476.48 277.333333 327.402667 277.333333 198.677333 366.08 90.986667 484.821333 64a259.114667 259.114667 0 0 0-30.293333 122.026667z" fill="#FFE34F" /><path d="M484.821333 64a259.114667 259.114667 0 0 0-30.293333 122.026667c0 141.973333 113.365333 257.066667 253.184 257.066666 28.544 0 56-4.8 81.6-13.653333C749.696 527.936 654.4 597.333333 543.146667 597.333333 396.373333 597.333333 277.333333 476.48 277.333333 327.402667 277.333333 198.677333 366.08 90.986667 484.821333 64zM452.010667 97.066667l2.090666-5.888-1.194666 0.469333c-93.802667 37.077333-158.506667 129.706667-158.506667 235.733333 0 139.712 111.424 252.864 248.746667 252.864 88.618667 0 168.597333-47.552 212.906666-121.962666l1.621334-2.858667-0.725334 0.170667a267.306667 267.306667 0 0 1-39.253333 4.352l-9.984 0.192c-149.312 0-270.229333-122.794667-270.229333-274.133334 0-30.677333 4.970667-60.629333 14.528-88.938666z" fill="#000000" /><path d="M522.944 386.816a10.666667 10.666667 0 0 1 12.096 17.472l-1.578667 1.066667-37.546666 21.290666a10.666667 10.666667 0 0 1-12.117334-17.472l1.578667-1.066666 37.546667-21.290667z" fill="#000000" /><path d="M789.333333 507.733333a14.933333 14.933333 0 0 1 2.026667 29.738667L789.333333 537.6H234.666667a14.933333 14.933333 0 0 1-2.026667-29.738667L234.666667 507.733333h554.666666zM853.333333 593.066667a14.933333 14.933333 0 0 1 2.026667 29.738666L853.333333 622.933333H170.666667a14.933333 14.933333 0 0 1-2.026667-29.738666L170.666667 593.066667h682.666666zM960 678.4a14.933333 14.933333 0 0 1 2.026667 29.738667L960 708.266667H64a14.933333 14.933333 0 0 1-2.026667-29.738667L64 678.4h896zM960 763.733333a14.933333 14.933333 0 0 1 2.026667 29.738667L960 793.6H64a14.933333 14.933333 0 0 1-2.026667-29.738667L64 763.733333h896zM896 849.066667a14.933333 14.933333 0 0 1 2.026667 29.738666L896 878.933333H128a14.933333 14.933333 0 0 1-2.026667-29.738666L128 849.066667h768zM768 934.4a14.933333 14.933333 0 0 1 2.026667 29.738667L768 964.266667H256a14.933333 14.933333 0 0 1-2.026667-29.738667L256 934.4h512z" fill="#70C5FF" /><path d="M413.738667 344.490667m-21.930667 0a21.930667 21.930667 0 1 0 43.861333 0 21.930667 21.930667 0 1 0-43.861333 0Z" fill="#000000" /><path d="M141.333333 53.76c1.066667 0 1.984-0.384 2.730667-1.130667a3.584 3.584 0 0 0 1.109333-2.602666 3.712 3.712 0 0 0-1.109333-2.730667 3.712 3.712 0 0 0-2.730667-1.109333H110.506667V42.026667a3.754667 3.754667 0 0 0-1.109334-2.666667 3.626667 3.626667 0 0 0-5.333333 0 3.754667 3.754667 0 0 0-1.130667 2.666667v4.16h-30.293333a3.712 3.712 0 0 0-2.709333 1.109333 3.712 3.712 0 0 0-1.130667 2.730667c0 1.002667 0.384 1.856 1.109333 2.602666a3.712 3.712 0 0 0 2.730667 1.130667h68.693333z m1.685334 83.072l0.981333-0.042667a4.437333 4.437333 0 0 0 2.56-1.429333 3.989333 3.989333 0 0 0 0.576-2.88 3.84 3.84 0 0 0-1.536-2.453333 135.189333 135.189333 0 0 1-21.973333-22.506667 120.704 120.704 0 0 0 16-36.586667 3.584 3.584 0 0 0-0.896-3.797333 3.712 3.712 0 0 0-2.730667-1.109333h-28.586667l1.813334-5.12a4.117333 4.117333 0 0 0-0.213334-2.944 3.605333 3.605333 0 0 0-2.133333-1.856 3.797333 3.797333 0 0 0-2.944 0.106666 3.626667 3.626667 0 0 0-1.856 2.24l-3.52 10.133334a3.968 3.968 0 0 0 0.213333 2.88c0.426667 0.853333 1.130667 1.493333 2.133334 1.92 0.490667 0.149333 0.896 0.213333 1.173333 0.213333H130.986667c-2.709333 9.450667-6.826667 18.602667-12.373334 27.413333a147.370667 147.370667 0 0 1-12.053333-20.8 3.541333 3.541333 0 0 0-2.090667-2.026666 3.562667 3.562667 0 0 0-2.816 0.106666 3.541333 3.541333 0 0 0-2.026666 2.090667 3.84 3.84 0 0 0 0.106666 2.922667c3.626667 8.170667 8.469333 16.32 14.506667 24.426666-6.4 8.96-13.610667 16.362667-21.653333 22.186667a4.053333 4.053333 0 0 0-1.6 2.389333 3.690667 3.690667 0 0 0 0.533333 2.837334c0.576 0.917333 1.344 1.493333 2.346667 1.642666 1.002667 0.192 1.962667 0 2.88-0.576 8.32-5.973333 15.744-13.376 22.293333-22.186666 7.189333 8.682667 14.549333 16.042667 22.08 22.08 0.917333 0.64 1.877333 0.853333 2.88 0.682666l-0.981333 0.042667z m-59.178667 0.021333a3.669333 3.669333 0 0 0 2.624-1.066666 3.52 3.52 0 0 0 1.109333-2.666667V76.266667c2.133333-4.544 3.946667-9.749333 5.44-15.573334a3.989333 3.989333 0 0 0-0.426666-2.88 3.328 3.328 0 0 0-2.346667-1.6 3.797333 3.797333 0 0 0-2.88 0.277334 3.157333 3.157333 0 0 0-1.6 2.282666 84.138667 84.138667 0 0 1-5.653333 15.36 9.557333 9.557333 0 0 1-0.853334 1.706667l-0.426666 0.853333c-2.837333 4.906667-6.357333 9.536-10.56 13.866667a3.797333 3.797333 0 0 0-1.066667 2.602667c0 0.96 0.362667 1.877333 1.066667 2.730666 0.789333 0.704 1.664 1.066667 2.666666 1.024a4.501333 4.501333 0 0 0 2.773334-1.130666c2.197333-2.282667 4.266667-4.629333 6.186666-7.04v44.373333c0 1.066667 0.384 1.962667 1.173334 2.666667 0.789333 0.704 1.706667 1.066667 2.773333 1.066666z m33.92-45.866666c1.066667 0 1.984-0.384 2.730667-1.109334A3.584 3.584 0 0 0 121.6 87.253333v-6.933333a3.584 3.584 0 0 0-1.130667-2.624 3.712 3.712 0 0 0-2.709333-1.109333 3.584 3.584 0 0 0-2.602667 1.130666 3.584 3.584 0 0 0-1.130666 2.602667v6.933333c0 1.002667 0.384 1.877333 1.130666 2.624a3.584 3.584 0 0 0 2.602667 1.109334z m62.08-33.706667a3.413333 3.413333 0 0 0 2.773333-0.853333 4.138667 4.138667 0 0 0 1.386667-2.517334 3.541333 3.541333 0 0 0-0.746667-2.709333l-8.426666-10.986667a3.626667 3.626667 0 0 0-2.453334-1.493333 3.733333 3.733333 0 0 0-2.88 0.853333 3.754667 3.754667 0 0 0-1.386666 2.453334 3.861333 3.861333 0 0 0 0.64 2.773333l8.533333 10.986667c0.704 0.853333 1.557333 1.344 2.56 1.493333zM230.72 136.533333c1.066667 0 1.984-0.384 2.730667-1.130666a3.584 3.584 0 0 0 1.109333-2.602667v-86.4a3.52 3.52 0 0 0-1.109333-2.666667 3.797333 3.797333 0 0 0-2.730667-1.066666H189.44a3.626667 3.626667 0 0 0-3.733333 3.733333c0 1.066667 0.362667 1.984 1.066666 2.730667a3.52 3.52 0 0 0 2.666667 1.109333h37.546667v82.56c0 1.002667 0.384 1.877333 1.130666 2.624a3.584 3.584 0 0 0 2.602667 1.109333z m-61.546667 0a3.584 3.584 0 0 0 2.624-1.130666 3.584 3.584 0 0 0 1.109334-2.602667V58.88a3.712 3.712 0 0 0-1.130667-2.709333 3.584 3.584 0 0 0-2.602667-1.130667 3.712 3.712 0 0 0-2.709333 1.109333 3.712 3.712 0 0 0-1.130667 2.730667v73.92c0 1.002667 0.384 1.877333 1.130667 2.624a3.712 3.712 0 0 0 2.709333 1.109333z m43.306667-20.48a3.584 3.584 0 0 0 2.602667-1.130666 3.584 3.584 0 0 0 1.130666-2.602667V66.133333a3.754667 3.754667 0 0 0-1.130666-2.666666 3.498667 3.498667 0 0 0-2.602667-1.173334H187.413333a3.626667 3.626667 0 0 0-2.709333 1.173334 3.754667 3.754667 0 0 0-1.130667 2.666666v46.186667c0 1.002667 0.384 1.877333 1.130667 2.624a3.712 3.712 0 0 0 2.709333 1.109333H212.48z m-3.84-32.96h-17.493333V69.973333h17.493333v13.12z m0 25.386667h-17.493333V90.666667h17.493333v17.813333z m79.36-33.493333a3.754667 3.754667 0 0 0 2.666667-1.130667 3.498667 3.498667 0 0 0 1.173333-2.602667v-13.013333h22.506667v10.453333c0 1.066667 0.384 1.962667 1.130666 2.709334a3.584 3.584 0 0 0 2.602667 1.130666c1.066667 0 1.962667-0.384 2.709333-1.109333a3.712 3.712 0 0 0 1.130667-2.730667v-14.293333a3.52 3.52 0 0 0-1.130667-2.666667 3.797333 3.797333 0 0 0-2.709333-1.066666h-26.24v-2.773334h26.24a3.584 3.584 0 0 0 2.624-1.130666 3.584 3.584 0 0 0 1.109333-2.602667 3.712 3.712 0 0 0-1.130666-2.709333 3.584 3.584 0 0 0-2.602667-1.130667h-60.16a3.712 3.712 0 0 0-2.709333 1.109333 3.712 3.712 0 0 0-1.130667 2.730667c0 1.002667 0.384 1.877333 1.130667 2.624a3.712 3.712 0 0 0 2.709333 1.109333h26.24v2.773334h-26.346667a3.669333 3.669333 0 0 0-2.624 1.066666 3.52 3.52 0 0 0-1.109333 2.666667v14.293333c0 1.066667 0.384 1.962667 1.130667 2.709334a3.584 3.584 0 0 0 2.602666 1.130666c1.066667 0 1.962667-0.384 2.709334-1.109333a3.712 3.712 0 0 0 1.130666-2.730667v-10.453333h22.506667v13.013333c0 1.002667 0.384 1.877333 1.173333 2.624a3.754667 3.754667 0 0 0 2.666667 1.109334z m-11.626667-8.533334a3.2 3.2 0 0 0 2.346667-0.96 3.2 3.2 0 0 0 0.96-2.346666 3.2 3.2 0 0 0-0.96-2.346667 3.2 3.2 0 0 0-2.346667-0.96h-7.253333a3.370667 3.370667 0 0 0-2.410667 0.96 3.114667 3.114667 0 0 0-1.002666 2.346667 3.370667 3.370667 0 0 0 3.413333 3.306666h7.253333z m30.613334 0c0.853333 0 1.621333-0.32 2.282666-0.96a3.114667 3.114667 0 0 0 1.024-2.346666 3.114667 3.114667 0 0 0-1.002666-2.346667 3.242667 3.242667 0 0 0-2.304-0.96h-7.253334a3.370667 3.370667 0 0 0-2.410666 0.96 3.114667 3.114667 0 0 0-1.002667 2.346667 3.370667 3.370667 0 0 0 3.413333 3.306666h7.253334z m-53.333334 41.386667a199.658667 199.658667 0 0 0 32.533334-7.36c2.709333 0.704 5.397333 1.344 8.106666 1.92 9.173333 1.984 19.306667 3.669333 30.4 5.013333a3.818667 3.818667 0 0 0 4.16-3.413333 3.946667 3.946667 0 0 0-0.789333-2.773333 3.626667 3.626667 0 0 0-2.517333-1.386667c-9.749333-1.066667-18.730667-2.453333-26.986667-4.16a75.946667 75.946667 0 0 0 15.68-9.706667 5.184 5.184 0 0 0 1.130667-1.344 3.349333 3.349333 0 0 0 0.469333-1.749333 3.52 3.52 0 0 0-1.130667-2.666667 3.797333 3.797333 0 0 0-2.709333-1.066666h-36.906667c0.789333-1.557333 0.64-2.986667-0.426666-4.266667l-0.32-0.32h2.026666a3.2 3.2 0 0 0 2.346667-0.96 3.2 3.2 0 0 0 0.96-2.346667 3.2 3.2 0 0 0-0.96-2.346666 3.2 3.2 0 0 0-2.346667-0.96h-7.253333a3.370667 3.370667 0 0 0-2.410667 0.96 3.114667 3.114667 0 0 0-1.002666 2.346666c0 0.917333 0.32 1.706667 0.96 2.346667a3.2 3.2 0 0 0 2.346666 0.96l-6.506666 5.333333a3.989333 3.989333 0 0 0-1.344 2.624 3.904 3.904 0 0 0 0.810666 2.816c0.853333 0.853333 1.813333 1.28 2.88 1.28v0.106667h34.666667a92.8 92.8 0 0 1-13.546667 5.866667 146.944 146.944 0 0 1-15.36-4.693334 4.117333 4.117333 0 0 0-2.944 0.213334 4.010667 4.010667 0 0 0-1.962666 2.133333 4.117333 4.117333 0 0 0 0.213333 2.922667c0.426667 0.896 1.130667 1.557333 2.133333 1.984l4.266667 1.386666c-6.122667 1.493333-12.693333 2.730667-19.733333 3.733334a4.053333 4.053333 0 0 0-2.496 1.493333 3.584 3.584 0 0 0-0.704 2.773333c0.149333 1.066667 0.64 1.92 1.450666 2.496 0.810667 0.618667 1.749333 0.874667 2.816 0.810667z m53.333334-33.28c0.853333 0 1.621333-0.32 2.282666-0.96a3.114667 3.114667 0 0 0 1.024-2.346667 3.114667 3.114667 0 0 0-1.002666-2.346666 3.242667 3.242667 0 0 0-2.304-0.96h-7.253334a3.370667 3.370667 0 0 0-2.410666 0.96 3.114667 3.114667 0 0 0-1.002667 2.346666 3.370667 3.370667 0 0 0 3.413333 3.306667h7.253334zM257.28 136.32a3.690667 3.690667 0 0 0 2.88-0.106667c5.696-2.624 11.029333-6.656 16-12.053333 2.133333-2.282667 4.117333-4.842667 5.973333-7.68h26.24v16.213333c0 1.066667 0.384 1.984 1.173334 2.730667a3.754667 3.754667 0 0 0 2.666666 1.109333c1.066667 0 1.962667-0.384 2.709334-1.130666a3.712 3.712 0 0 0 1.130666-2.709334v-19.946666a3.349333 3.349333 0 0 0-1.216-2.730667 4.458667 4.458667 0 0 0-2.944-1.002667h-25.813333l0.426667-0.853333a5.845333 5.845333 0 0 1 0.32-0.746667 3.669333 3.669333 0 0 0-0.106667-2.88 3.968 3.968 0 0 0-2.133333-2.026666 4.224 4.224 0 0 0-2.88 0.170666 3.370667 3.370667 0 0 0-1.92 2.069334 38.826667 38.826667 0 0 1-1.92 4.266666h-14.186667a3.84 3.84 0 0 0-2.666667 1.066667 3.456 3.456 0 0 0-1.173333 2.666667c0 1.002667 0.384 1.856 1.173333 2.602666a3.754667 3.754667 0 0 0 2.666667 1.130667h9.066667a18.304 18.304 0 0 1-1.493334 1.706667 43.456 43.456 0 0 1-14.293333 11.093333 4.010667 4.010667 0 0 0-1.92 2.133333 3.690667 3.690667 0 0 0 0.106667 2.88 3.946667 3.946667 0 0 0 2.133333 2.026667z" fill="#000000" /></svg>