<?xml version="1.0" standalone="no"?>
<!DOCTYPE svg PUBLIC "-//W3C//DTD SVG 1.1//EN" "http://www.w3.org/Graphics/SVG/1.1/DTD/svg11.dtd">
<svg class="icon" style="width: 1em;height: 1em;vertical-align: middle;fill: currentColor;overflow: hidden;" viewBox="0 0 1024 1024" version="1.1" xmlns="http://www.w3.org/2000/svg"><path d="M282.965333 682.666667c-139.136 0-251.946667-112.32-251.946666-250.858667 0-73.877333 32.106667-140.309333 83.157333-186.218667A320.64 320.64 0 0 1 420.394667 21.333333c138.24 0 256 87.082667 301.056 209.173334 13.76-2.581333 27.946667-3.925333 42.496-3.925334 126.485333 0 229.013333 102.101333 229.013333 228.053334 0 123.797333-99.093333 224.554667-222.613333 227.946666l-6.4 0.085334H282.965333z" fill="#FFFFFF" /><path d="M992.96 454.613333c0 123.818667-99.093333 224.576-222.613333 227.968l-6.4 0.085334H282.965333c-139.136 0-251.946667-112.32-251.946666-250.858667 0-6.165333 0.234667-12.288 0.682666-18.346667 9.28 124.586667 112.085333 223.253333 238.762667 226.624l6.677333 0.085334h469.845334l6.272-0.085334c120.661333-3.306667 217.472-101.76 217.472-222.698666 0-35.776-8.469333-69.610667-23.530667-99.562667a226.389333 226.389333 0 0 1 45.76 136.789333z" fill="#D1F1FF" /><path d="M420.394667 21.333333c138.24 0 256 87.082667 301.056 209.173334 13.76-2.581333 27.946667-3.925333 42.496-3.925334 126.485333 0 229.013333 102.101333 229.013333 228.053334 0 123.797333-99.093333 224.554667-222.613333 227.946666l-6.4 0.085334H282.965333c-139.136 0-251.946667-112.32-251.946666-250.858667 0-73.877333 32.106667-140.309333 83.157333-186.218667A320.64 320.64 0 0 1 420.394667 21.333333z m0 18.24C287.082667 39.573333 170.666667 126.250667 131.669333 251.008a18.24 18.24 0 0 1-5.226666 8.106667 231.466667 231.466667 0 0 0-77.098667 172.693333c0 126.336 101.141333 229.12 227.2 232.533333l6.421333 0.085334h480.725334l6.144-0.085334c113.877333-3.114667 204.8-96.042667 204.8-209.706666 0-115.882667-94.336-209.813333-210.688-209.813334-13.269333 0-26.346667 1.216-39.082667 3.626667a18.346667 18.346667 0 0 1-20.608-11.648c-43.349333-117.504-156.053333-197.226667-283.861333-197.226667z" fill="#000000" /><path d="M362.282667 830.549333c17.066667 4.565333 34.048-3.370667 37.888-17.770666 3.562667-13.248-1.706667-34.816-15.786667-64.64-27.157333 18.88-42.496 34.922667-46.016 48.085333-3.861333 14.378667 6.848 29.738667 23.914667 34.325333zM192.896 968.405333c34.133333 9.173333 68.522667-8.405333 76.778667-39.253333 7.616-28.373333-2.197333-74.197333-29.44-137.386667C184.96 833.066667 153.6 867.84 146.026667 896.064c-8.256 30.826667 12.736 63.210667 46.869333 72.362667zM783.786667 968.405333c34.133333 9.173333 68.48-8.405333 76.757333-39.253333 7.616-28.373333-2.197333-74.197333-29.44-137.386667-55.253333 41.301333-86.634667 76.053333-94.208 104.277334-8.256 30.826667 12.736 63.210667 46.869333 72.362666z" fill="#6BD1FF" /><path d="M549.333333 786.005333l-53.226666 198.634667H421.333333l53.226667-198.613333z" fill="#70C5FF" /><path d="M639.616 830.549333c17.066667 4.565333 34.048-3.370667 37.888-17.770666 3.562667-13.248-1.706667-34.816-15.786667-64.64-27.157333 18.88-42.496 34.922667-46.016 48.085333-3.861333 14.378667 6.848 29.738667 23.914667 34.325333z" fill="#6BD1FF" /><path d="M185.194667 450.112a74.666667 42.666667 0 1 0 149.333333 0 74.666667 42.666667 0 1 0-149.333333 0Z" fill="#FF9DCF" /><path d="M556.608 450.112a74.666667 42.666667 0 1 0 149.333333 0 74.666667 42.666667 0 1 0-149.333333 0Z" fill="#FF9DCF" /><path d="M653.930667 285.141333l12.16 17.536-55.253334 38.272 5.418667 4.266667 9.984 8.106667c10.965333 9.045333 19.605333 16.853333 25.941333 23.424l2.581334 2.752-15.744 14.378666a151.210667 151.210667 0 0 0-7.232-7.317333l-6.058667-5.589333-7.04-6.144-8.021333-6.698667-9.002667-7.253333-9.984-7.765334-17.066667-12.992L653.952 285.141333zM225.109333 285.141333l-12.16 17.536 55.253334 38.272-10.56 8.405334-9.386667 7.765333c-8.832 7.466667-15.957333 13.994667-21.397333 19.626667l-2.581334 2.752 15.744 14.378666c2.048-2.218667 4.437333-4.672 7.232-7.317333l6.058667-5.589333 7.04-6.144 3.882667-3.285334 8.533333-6.954666 9.472-7.530667 10.474667-8.042667 11.690666-8.896L225.109333 285.141333zM408.021333 544.149333a10.666667 10.666667 0 0 1-12.032 2.773334l-1.706666-0.917334-20.949334-13.504a10.666667 10.666667 0 0 1 9.856-18.816l1.706667 0.896 13.248 8.554667 14.890667-16.704a10.666667 10.666667 0 0 1 14.037333-1.664l1.536 1.28 15.936 16.213333 18.410667-16.64a10.666667 10.666667 0 0 1 13.717333-0.512l1.408 1.322667 14.869333 16.704 13.269334-8.554667a10.666667 10.666667 0 0 1 13.568 1.664l1.173333 1.493334a10.666667 10.666667 0 0 1-1.664 13.568l-1.514667 1.194666-20.949333 13.504a10.666667 10.666667 0 0 1-12.330667-0.533333l-1.408-1.322667-13.802666-15.509333-18.026667 16.32a10.666667 10.666667 0 0 1-13.141333 0.917333l-1.621334-1.344-15.125333-15.402666-13.354667 15.018666z" fill="#000000" /><path d="M118.186667 138.026667c1.066667 0 1.984-0.384 2.730666-1.109334a3.712 3.712 0 0 0 1.109334-2.730666V82.24h13.333333a3.733333 3.733333 0 0 0 2.837333-1.173333 3.882667 3.882667 0 0 0-2.837333-6.613334H122.026667v-7.893333a3.712 3.712 0 0 0-1.109334-2.709333 3.712 3.712 0 0 0-2.730666-1.130667 3.882667 3.882667 0 0 0-2.773334 1.130667 3.626667 3.626667 0 0 0-1.173333 2.709333v7.893333h-10.026667l7.573334-18.986666h26.986666c1.066667 0 1.984-0.384 2.730667-1.130667a3.712 3.712 0 0 0 1.109333-2.709333 3.84 3.84 0 0 0-3.84-3.946667h-23.893333l2.346667-5.866667a3.776 3.776 0 0 0-0.170667-2.986666 4.181333 4.181333 0 0 0-2.282667-2.026667 3.946667 3.946667 0 0 0-2.944 0.256 3.797333 3.797333 0 0 0-1.856 2.197333L106.666667 47.68h-12.586667a3.84 3.84 0 0 0-3.84 3.946667c0 1.066667 0.362667 1.984 1.109333 2.709333a3.712 3.712 0 0 0 2.730667 1.130667h9.6l-8.426667 21.653333a3.626667 3.626667 0 0 0 0.170667 2.922667 4.224 4.224 0 0 0 2.282667 1.984c0.362667 0.149333 0.746667 0.213333 1.173333 0.213333h15.36V134.186667c0 1.066667 0.384 1.984 1.173333 2.730666 0.789333 0.725333 1.706667 1.109333 2.773334 1.109334zM82.645333 66.624l0.981334-0.170667a3.669333 3.669333 0 0 0 2.24-4.8l-6.4-18.346666a4.266667 4.266667 0 0 0-1.984-2.176 3.626667 3.626667 0 0 0-2.922667-0.170667 4.010667 4.010667 0 0 0-2.133333 1.984 4.117333 4.117333 0 0 0-0.213334 2.922667l6.613334 18.24c0.362667 1.002667 1.002667 1.706667 1.92 2.133333 0.917333 0.426667 1.877333 0.490667 2.88 0.213333l-0.981334 0.170667zM75.306667 135.36a3.754667 3.754667 0 0 0 2.837333-0.682667 3.968 3.968 0 0 0 1.536-2.517333l6.4-44.373333a3.754667 3.754667 0 0 0-0.682667-2.837334 3.968 3.968 0 0 0-2.517333-1.536 3.584 3.584 0 0 0-2.773333 0.682667 4.053333 4.053333 0 0 0-1.493334 2.517333L72.106667 131.093333a3.584 3.584 0 0 0 0.704 2.773334 4.053333 4.053333 0 0 0 2.496 1.493333z m18.666666 2.56c1.066667 0.277333 2.048 0.170667 2.944-0.32a4.032 4.032 0 0 0 1.856-2.346667 174.293333 174.293333 0 0 0 4.8-19.946666c1.216-7.04 2.026667-14.677333 2.453334-22.933334a3.989333 3.989333 0 0 0-1.066667-2.773333 3.818667 3.818667 0 0 0-2.666667-1.28 3.989333 3.989333 0 0 0-2.773333 1.066667 3.818667 3.818667 0 0 0-1.28 2.666666A162.133333 162.133333 0 0 1 96 114.133333c-1.28 6.677333-2.816 12.970667-4.586667 18.88a4.096 4.096 0 0 0 0.277334 2.986667 3.776 3.776 0 0 0 2.282666 1.92z m43.989334 0.128l1.024-0.021333c1.066667-0.213333 1.92-0.725333 2.56-1.536a3.626667 3.626667 0 0 0 0.746666-2.837334l-5.76-42.026666a3.968 3.968 0 0 0-1.557333-2.496 3.754667 3.754667 0 0 0-2.816-0.704 3.754667 3.754667 0 0 0-2.56 1.450666 4.010667 4.010667 0 0 0-0.853333 2.816L134.613333 134.826667c0.213333 1.066667 0.725333 1.92 1.557334 2.496 0.810667 0.618667 1.749333 0.853333 2.816 0.704h-1.024z m91.370666-1.301333a3.626667 3.626667 0 0 0 2.709334-1.173334 3.754667 3.754667 0 0 0 1.130666-2.666666V62.72a3.712 3.712 0 0 0-1.130666-2.709333 3.712 3.712 0 0 0-2.709334-1.130667H203.84v-9.28h29.973333a3.626667 3.626667 0 0 0 2.709334-1.173333 3.754667 3.754667 0 0 0 0-5.333334 3.626667 3.626667 0 0 0-2.709334-1.173333H165.973333a3.498667 3.498667 0 0 0-2.624 1.173333 3.754667 3.754667 0 0 0 0 5.333334 3.498667 3.498667 0 0 0 2.624 1.173333H196.266667v9.28H170.56a3.882667 3.882667 0 0 0-2.773333 1.130667 3.626667 3.626667 0 0 0-1.173334 2.709333v70.186667c0 1.002667 0.384 1.877333 1.173334 2.666666 0.789333 0.789333 1.706667 1.173333 2.773333 1.173334a3.498667 3.498667 0 0 0 2.602667-1.173334 3.754667 3.754667 0 0 0 1.130666-2.666666V66.453333H196.266667V132.906667c0 1.002667 0.384 1.877333 1.130666 2.666666a3.626667 3.626667 0 0 0 5.333334 0 3.754667 3.754667 0 0 0 1.109333-2.666666V66.453333h21.653333V132.906667c0 1.002667 0.384 1.877333 1.173334 2.666666a3.669333 3.669333 0 0 0 2.666666 1.173334zM188.416 90.453333a3.541333 3.541333 0 0 0 2.730667-0.746666 3.776 3.776 0 0 0 0.64-5.333334l-7.146667-9.066666a4.202667 4.202667 0 0 0-2.602667-1.386667 3.712 3.712 0 0 0-2.837333 0.746667 4.181333 4.181333 0 0 0-1.386667 2.56 3.413333 3.413333 0 0 0 0.853334 2.773333l7.253333 9.066667a4.138667 4.138667 0 0 0 2.496 1.386666z m29.397333 0a3.626667 3.626667 0 0 0 2.773334-0.746666 4.181333 4.181333 0 0 0 1.386666-2.56 3.626667 3.626667 0 0 0-0.746666-2.773334l-7.253334-9.066666a4.181333 4.181333 0 0 0-2.56-1.386667 3.626667 3.626667 0 0 0-2.773333 0.746667 4.181333 4.181333 0 0 0-1.386667 2.56 3.626667 3.626667 0 0 0 0.746667 2.773333l7.253333 9.066667a4.181333 4.181333 0 0 0 2.56 1.386666zM188.416 112.746667a3.541333 3.541333 0 0 0 2.730667-0.746667 3.776 3.776 0 0 0 0.64-5.333333l-7.146667-9.066667a4.202667 4.202667 0 0 0-2.602667-1.386667 3.712 3.712 0 0 0-2.837333 0.746667 4.181333 4.181333 0 0 0-1.386667 2.56 3.413333 3.413333 0 0 0 0.853334 2.773333l7.253333 9.066667a4.138667 4.138667 0 0 0 2.496 1.386667z m29.397333 0a3.626667 3.626667 0 0 0 2.773334-0.746667 4.181333 4.181333 0 0 0 1.386666-2.56 3.626667 3.626667 0 0 0-0.746666-2.773333l-7.253334-9.066667a4.181333 4.181333 0 0 0-2.56-1.386667 3.626667 3.626667 0 0 0-2.773333 0.746667 4.181333 4.181333 0 0 0-1.386667 2.56 3.626667 3.626667 0 0 0 0.746667 2.773333l7.253333 9.066667a4.181333 4.181333 0 0 0 2.56 1.386667z" fill="#000000" /></svg>