<?xml version="1.0" standalone="no"?>
<!DOCTYPE svg PUBLIC "-//W3C//DTD SVG 1.1//EN" "http://www.w3.org/Graphics/SVG/1.1/DTD/svg11.dtd">
<svg class="icon" style="width: 1em;height: 1em;vertical-align: middle;fill: currentColor;overflow: hidden;" viewBox="0 0 1024 1024" version="1.1" xmlns="http://www.w3.org/2000/svg"><path d="M503.296 105.792L512 105.749333c223.850667 0 405.333333 80.426667 405.333333 179.648 0 71.466667-94.122667 133.162667-230.4 162.112 69.610667 24.597333 114.581333 63.530667 114.581334 107.370667 0 52.565333-64.704 98.133333-159.082667 120.32 26.944 15.808 43.285333 36.586667 43.285333 59.306667 0 49.621333-77.781333 89.834667-173.717333 89.834666-95.936 0-173.717333-40.213333-173.717333-89.813333 0-22.741333 16.341333-43.52 43.306666-59.349333-94.4-22.186667-159.104-67.733333-159.104-120.32 0-43.818667 44.970667-82.773333 114.602667-107.370667C200.789333 418.56 106.666667 356.842667 106.666667 285.397333 106.666667 187.477333 283.456 107.84 503.296 105.770667z" fill="#FFFFFF" /><path d="M503.296 105.792L512 105.749333c8.725333 0 17.386667 0.128 25.962667 0.362667l17.066666 0.64c67.882667 3.178667 130.773333 13.781333 184.426667 29.930667l13.226667 4.16C852.565333 173.568 917.333333 226.133333 917.333333 285.376c0 71.466667-94.122667 133.162667-230.4 162.112 69.610667 24.597333 114.581333 63.530667 114.581334 107.370667 0 52.565333-64.704 98.133333-159.082667 120.32 26.944 15.808 43.285333 36.586667 43.285333 59.306666 0 49.621333-77.781333 89.834667-173.717333 89.834667-95.936 0-173.717333-40.213333-173.717333-89.813333 0-22.741333 16.341333-43.52 43.306666-59.349334-94.4-22.186667-159.104-67.733333-159.104-120.32 0-43.818667 44.970667-82.773333 114.602667-107.370666C200.789333 418.56 106.666667 356.842667 106.666667 285.397333 106.666667 226.133333 171.434667 173.589333 271.317333 140.842667l13.226667-4.16C338.218667 120.533333 401.066667 109.930667 468.970667 106.752l17.066666-0.64c5.717333-0.170667 11.477333-0.277333 17.28-0.32z m8.853333 34.090667l-8.533333 0.042666c-76.672 0.704-147.093333 11.392-205.056 28.245334l-13.162667 3.989333C197.056 200.192 140.8 242.88 140.8 285.397333c0 48.426667 77.781333 102.037333 203.370667 128.704 33.706667 7.168 36.778667 54.101333 4.288 65.578667-59.584 21.056-91.84 50.645333-91.84 75.2 0 30.72 49.664 67.541333 132.778666 87.082667 29.973333 7.04 36.010667 47.061333 9.472 62.656-18.282667 10.730667-26.453333 21.696-26.453333 29.909333 0 24.64 60.032 55.68 139.584 55.68 79.573333 0 139.584-31.04 139.584-55.68 0-8.213333-8.170667-19.178667-26.453333-29.909333-26.538667-15.573333-20.48-55.594667 9.493333-62.656 83.093333-19.541333 132.757333-56.362667 132.757333-87.082667 0-24.554667-32.256-54.144-91.84-75.2-32.490667-11.477333-29.44-58.410667 4.266667-65.557333 125.632-26.666667 203.392-80.32 203.392-128.725334 0-56.149333-97.664-112.256-237.376-134.976l-15.701333-2.389333a818.154667 818.154667 0 0 0-57.408-6.037333l-17.045334-1.024a872.234667 872.234667 0 0 0-34.816-1.045334l-8.704-0.042666z" fill="#D0ECFF" /><path d="M503.296 105.792L512 105.749333c8.725333 0 17.386667 0.128 25.962667 0.362667l17.066666 0.64c67.882667 3.178667 130.773333 13.781333 184.426667 29.930667l13.226667 4.16C852.565333 173.568 917.333333 226.133333 917.333333 285.376c0 71.466667-94.122667 133.162667-230.4 162.112 69.610667 24.597333 114.581333 63.530667 114.581334 107.370667 0 52.565333-64.704 98.133333-159.082667 120.32 26.944 15.808 43.285333 36.586667 43.285333 59.306666 0 49.621333-77.781333 89.834667-173.717333 89.834667-95.936 0-173.717333-40.213333-173.717333-89.813333 0-22.741333 16.341333-43.52 43.306666-59.349334-94.4-22.186667-159.104-67.733333-159.104-120.32 0-43.818667 44.970667-82.773333 114.602667-107.370666C200.789333 418.56 106.666667 356.842667 106.666667 285.397333 106.666667 226.133333 171.434667 173.589333 271.317333 140.842667l13.226667-4.16C338.218667 120.533333 401.066667 109.930667 468.970667 106.752l17.066666-0.64c5.717333-0.170667 11.477333-0.277333 17.28-0.32z m8.789333 17.024L503.466667 122.858667c-23.552 0.213333-46.549333 1.344-68.821334 3.306666l-16.576 1.621334-16.298666 1.92a749.994667 749.994667 0 0 0-69.376 12.138666l-14.442667 3.413334c-4.757333 1.173333-9.450667 2.410667-14.08 3.669333l-13.653333 3.904C189.312 182.976 123.733333 232.469333 123.733333 285.376c0 59.136 84.266667 117.248 216.896 145.408 16.853333 3.562667 18.389333 27.029333 2.133334 32.789333-65.621333 23.168-103.210667 57.664-103.210667 91.285334 0 41.045333 55.978667 82.56 145.92 103.68 14.997333 3.541333 18.026667 23.552 4.757333 31.36-23.018667 13.504-34.88 29.44-34.88 44.586666 0 37.141333 68.906667 72.768 156.650667 72.768 87.744 0 156.650667-35.626667 156.650667-72.746666 0-15.189333-11.861333-31.104-34.858667-44.608-13.290667-7.808-10.24-27.818667 4.736-31.338667 89.941333-21.162667 145.92-62.656 145.92-103.701333 0-33.621333-37.589333-68.117333-103.210667-91.285334-16.256-5.738667-14.72-29.205333 2.133334-32.789333C816 402.645333 900.266667 344.533333 900.266667 285.397333c0-59.264-82.069333-114.069333-203.626667-142.4l-14.485333-3.2a726.613333 726.613333 0 0 0-22.357334-4.352l-15.338666-2.56a853.653333 853.653333 0 0 0-123.733334-10.026666L512.064 122.816z" fill="#000000" /><path d="M156.949333 127.082667m-21.333333 0a21.333333 21.333333 0 1 0 42.666667 0 21.333333 21.333333 0 1 0-42.666667 0Z" fill="#FFE34F" /><path d="M783.082667 458.922667m-21.333334 0a21.333333 21.333333 0 1 0 42.666667 0 21.333333 21.333333 0 1 0-42.666667 0Z" fill="#FFE34F" /><path d="M411.008 848.853333m-21.333333 0a21.333333 21.333333 0 1 0 42.666666 0 21.333333 21.333333 0 1 0-42.666666 0Z" fill="#FFE34F" /><path d="M275.136 789.674667m-21.333333 0a21.333333 21.333333 0 1 0 42.666666 0 21.333333 21.333333 0 1 0-42.666666 0Z" fill="#FFE34F" /><path d="M833.536 119.04m-21.333333 0a21.333333 21.333333 0 1 0 42.666666 0 21.333333 21.333333 0 1 0-42.666666 0Z" fill="#FFE34F" /><path d="M178.282667 465.045333m-21.333334 0a21.333333 21.333333 0 1 0 42.666667 0 21.333333 21.333333 0 1 0-42.666667 0Z" fill="#FFE34F" /><path d="M758.826667 698.986667m-21.333334 0a21.333333 21.333333 0 1 0 42.666667 0 21.333333 21.333333 0 1 0-42.666667 0Z" fill="#FFE34F" /><path d="M607.445333 752.341333m-21.333333 0a21.333333 21.333333 0 1 0 42.666667 0 21.333333 21.333333 0 1 0-42.666667 0Z" fill="#FFE34F" /><path d="M416.554667 906.581333a95.445333 33.216 0 1 0 190.890666 0 95.445333 33.216 0 1 0-190.890666 0Z" fill="#FFFFFF" /><path d="M512 873.365333c52.714667 0 95.445333 14.869333 95.445333 33.216S564.714667 939.776 512 939.776s-95.445333-14.848-95.445333-33.194667c0-18.346667 42.730667-33.216 95.445333-33.216z m0 17.066667c-23.850667 0-46.037333 3.264-61.866667 8.789333a93.077333 93.077333 0 0 0-8.042666 3.2l-3.797334 1.856-4.330666 2.304 6.058666 3.2 4.416 1.984c0.853333 0.362667 1.728 0.725333 2.688 1.066667l2.986667 1.109333c15.850667 5.525333 38.037333 8.768 61.888 8.768 23.850667 0 46.037333-3.242667 61.866667-8.768 2.133333-0.725333 4.010667-1.472 5.696-2.176l4.394666-2.005333 1.749334-0.874667 4.181333-2.24 0.149333-0.064-4.309333-2.304a83.669333 83.669333 0 0 0-1.749333-0.874666l-4.416-2.005334a92.757333 92.757333 0 0 0-2.688-1.066666l-2.986667-1.109334c-15.850667-5.525333-38.037333-8.789333-61.888-8.789333zM593.621333 440.874667a4.266667 4.266667 0 1 1 3.328 7.850666c-43.029333 18.24-96.170667 16.768-154.453333 3.52a4.266667 4.266667 0 0 1 1.877333-8.32c56.704 12.864 108.266667 14.293333 149.248-3.050666zM586.154667 663.658667a4.266667 4.266667 0 0 1 2.432 8.170666c-42.773333 12.714667-95.658667 11.669333-153.749334 2.432a4.266667 4.266667 0 1 1 1.344-8.426666c56.917333 9.066667 108.736 10.069333 149.973334-2.176z" fill="#000000" /><path d="M318.357333 312.96a55.530667 22.72 0 1 0 111.061334 0 55.530667 22.72 0 1 0-111.061334 0Z" fill="#FF9DCF" /><path d="M594.581333 312.96a55.530667 22.72 0 1 0 111.061334 0 55.530667 22.72 0 1 0-111.061334 0Z" fill="#FF9DCF" /><path d="M677.312 258.24m-32 0a32 32 0 1 0 64 0 32 32 0 1 0-64 0Z" fill="#000000" /><path d="M346.688 258.24m-32 0a32 32 0 1 0 64 0 32 32 0 1 0-64 0Z" fill="#000000" /><path d="M558.912 347.904a10.666667 10.666667 0 0 1 8.469333 12.48c-3.242667 17.024-27.306667 26.816-55.381333 26.816-28.053333 0-52.138667-9.813333-55.381333-26.816a10.666667 10.666667 0 0 1 20.949333-4.010667c0.128 0.64 2.645333 2.88 7.872 5.013334 6.933333 2.816 16.384 4.48 26.56 4.48 10.176 0 19.626667-1.664 26.56-4.48 5.226667-2.133333 7.744-4.352 7.872-5.013334a10.666667 10.666667 0 0 1 10.56-8.661333l1.92 0.192z" fill="#000000" /><path d="M349.333333 511.957333a19.904 19.904 0 0 1 19.242667 25.024 85.973333 85.973333 0 0 0 71.786667 19.861334 10.666667 10.666667 0 1 1 3.626666 21.034666 107.392 107.392 0 0 1-91.242666-26.410666l-1.088 0.170666-2.325334 0.128a19.904 19.904 0 0 1-14.293333-33.749333 9.536 9.536 0 0 1 2.026667-1.92l0.810666-0.512a19.818667 19.818667 0 0 1 11.456-3.626667zM667.605333 511.957333a19.904 19.904 0 0 0-19.242666 25.024 85.973333 85.973333 0 0 1-71.786667 19.861334 10.666667 10.666667 0 1 0-3.626667 21.034666 107.392 107.392 0 0 0 91.242667-26.410666l1.088 0.170666 2.325333 0.128a19.904 19.904 0 0 0 14.293334-33.749333 9.536 9.536 0 0 0-2.026667-1.92l-0.810667-0.512a19.818667 19.818667 0 0 0-11.456-3.626667z" fill="#000000" /><path d="M118.4 88c1.066667 0 1.984-0.362667 2.730667-1.066667a3.52 3.52 0 0 0 1.109333-2.666666V42.773333a3.584 3.584 0 0 0-1.130667-2.602666 3.712 3.712 0 0 0-2.709333-1.130667 3.584 3.584 0 0 0-2.602667 1.109333 3.584 3.584 0 0 0-1.130666 2.624V84.266667c0 1.066667 0.384 1.962667 1.130666 2.666666s1.6 1.066667 2.602667 1.066667zM82.346667 60.437333c1.002667 0.170667 1.962667-0.021333 2.88-0.597333a3.456 3.456 0 0 0 1.536-2.346667 3.989333 3.989333 0 0 0-0.576-2.88l-8-12.053333a3.797333 3.797333 0 0 0-2.389334-1.557333 4.202667 4.202667 0 0 0-2.837333 0.490666 3.690667 3.690667 0 0 0-1.664 2.410667c-0.170667 0.96 0.021333 1.898667 0.597333 2.816l8 12.053333c0.64 0.917333 1.450667 1.493333 2.453334 1.664z m10.986666 25.429334A3.669333 3.669333 0 0 0 98.133333 83.626667c2.986667-8.32 5.482667-17.216 7.466667-26.666667a3.669333 3.669333 0 0 0-0.469333-2.816 3.498667 3.498667 0 0 0-2.304-1.557333 3.84 3.84 0 0 0-4.586667 2.88c-1.984 9.024-4.416 17.557333-7.253333 25.6a3.626667 3.626667 0 0 0 0.170666 2.944c0.448 0.874667 1.173333 1.493333 2.176 1.856z m46.634667-4.053334l1.045333-0.106666a3.413333 3.413333 0 0 0 2.282667-1.664 4.416 4.416 0 0 0 0.597333-2.922667L137.813333 55.68a3.498667 3.498667 0 0 0-1.6-2.389333 3.84 3.84 0 0 0-2.88-0.490667 4.096 4.096 0 0 0-2.453333 1.706667 3.690667 3.690667 0 0 0-0.533333 2.88l6.08 21.546666c0.213333 1.066667 0.768 1.856 1.664 2.346667 0.874667 0.490667 1.856 0.64 2.922666 0.426667l-1.045333 0.085333z m-59.434667 1.706667a3.797333 3.797333 0 0 0 3.946667-5.866667l-8-11.946666a4.053333 4.053333 0 0 0-2.453333-1.6 3.797333 3.797333 0 0 0-2.88 0.533333 3.797333 3.797333 0 0 0-1.536 2.410667c-0.192 0.96 0 1.898667 0.576 2.816l8 12.053333a3.626667 3.626667 0 0 0 2.346666 1.6z m19.84 53.333333a3.669333 3.669333 0 0 0 2.666667-1.173333 152.106667 152.106667 0 0 0 20.202667-22.037333c6.016-8 10.666667-16.64 13.930666-25.962667a3.626667 3.626667 0 0 0-0.32-2.88 3.669333 3.669333 0 0 0-2.346666-1.706667 3.797333 3.797333 0 0 0-2.88 0.277334 3.477333 3.477333 0 0 0-1.706667 2.282666 100.949333 100.949333 0 0 1-13.333333 24 138.922667 138.922667 0 0 1-19.093334 20.8 4.266667 4.266667 0 0 0-1.066666 2.773334c0 1.002667 0.384 1.856 1.173333 2.56a4.266667 4.266667 0 0 0 2.773333 1.066666zM72.533333 135.466667c1.066667 0.213333 2.048 0.064 2.944-0.426667a3.605333 3.605333 0 0 0 1.749334-2.24l9.493333-35.093333a3.626667 3.626667 0 0 0-0.32-2.88 3.669333 3.669333 0 0 0-2.346667-1.706667 3.797333 3.797333 0 0 0-2.922666 0.32 3.605333 3.605333 0 0 0-1.770667 2.24L69.866667 130.773333a3.797333 3.797333 0 0 0 0.32 2.944 3.626667 3.626667 0 0 0 2.346666 1.749334z m127.466667-61.013334c1.066667 0 1.962667-0.362667 2.709333-1.066666a3.52 3.52 0 0 0 1.130667-2.666667V42.666667a3.712 3.712 0 0 0-1.130667-2.709334 3.712 3.712 0 0 0-2.709333-1.130666 3.712 3.712 0 0 0-2.709333 1.109333 3.712 3.712 0 0 0-1.130667 2.730667v28.053333c0 1.066667 0.384 1.962667 1.130667 2.666667s1.642667 1.066667 2.709333 1.066666z m-32 4.842667a3.776 3.776 0 0 0 2.56-1.429333 133.589333 133.589333 0 0 0 15.36-24.106667 3.712 3.712 0 0 0 0.32-2.88 3.562667 3.562667 0 0 0-1.813333-2.24 3.712 3.712 0 0 0-2.922667-0.256 4.202667 4.202667 0 0 0-2.304 1.856c-2.346667 4.544-4.736 8.746667-7.146667 12.586667-2.410667 3.690667-4.906667 7.146667-7.466666 10.346666a3.626667 3.626667 0 0 0-0.746667 2.773334 4.181333 4.181333 0 0 0 1.386667 2.56c0.853333 0.64 1.770667 0.896 2.773333 0.789333z m63.573333-0.106667c1.002667 0.192 1.962667 0.021333 2.88-0.469333a3.797333 3.797333 0 0 0 1.066667-5.226667l-14.826667-23.573333a4.053333 4.053333 0 0 0-2.453333-1.6 3.797333 3.797333 0 0 0-2.88 0.533333 3.370667 3.370667 0 0 0-1.664 2.346667 4.309333 4.309333 0 0 0 0.490667 2.88l15.04 23.466667c0.576 0.917333 1.344 1.493333 2.346666 1.664z m5.546667 55.744a3.584 3.584 0 0 0 2.624-1.130666 3.712 3.712 0 0 0 1.109333-2.709334 3.52 3.52 0 0 0-1.109333-2.666666 3.669333 3.669333 0 0 0-2.624-1.066667h-33.28V100.8h22.826667a3.584 3.584 0 0 0 2.624-1.109333 3.584 3.584 0 0 0 1.109333-2.624 3.712 3.712 0 0 0-1.130667-2.709334 3.584 3.584 0 0 0-2.602666-1.130666h-22.826667v-10.453334a3.712 3.712 0 0 0-1.130667-2.709333 3.712 3.712 0 0 0-2.709333-1.130667 3.712 3.712 0 0 0-2.709333 1.109334 3.712 3.712 0 0 0-1.130667 2.730666v10.453334H173.013333a3.584 3.584 0 0 0-2.602666 1.130666 3.712 3.712 0 0 0-1.130667 2.709334c0 1.002667 0.384 1.877333 1.130667 2.624a3.584 3.584 0 0 0 2.602666 1.109333h23.146667V127.36h-33.28a3.669333 3.669333 0 0 0-2.602667 1.066667 3.52 3.52 0 0 0-1.130666 2.666666c0 1.066667 0.384 1.984 1.130666 2.730667a3.584 3.584 0 0 0 2.602667 1.109333h74.24z m83.946667-20.053333c1.856 1.493333 3.669333 1.536 5.44 0.106667a3.925333 3.925333 0 0 0 1.066666-2.709334 3.562667 3.562667 0 0 0-1.066666-2.624l-15.893334-15.68h11.626667c1.066667 0 1.962667-0.384 2.666667-1.130666a3.797333 3.797333 0 0 0 1.066666-2.709334 3.669333 3.669333 0 0 0-1.066666-2.602666 3.52 3.52 0 0 0-2.666667-1.130667H305.066667v-5.546667h11.52c1.066667 0 1.962667-0.384 2.666666-1.130666a3.797333 3.797333 0 0 0 1.066667-2.709334 3.626667 3.626667 0 0 0-3.733333-3.733333h-11.52v-4.48h5.546666c1.066667 0 1.984-0.384 2.773334-1.130667a3.626667 3.626667 0 0 0 1.173333-2.709333v-21.12a3.498667 3.498667 0 0 0-1.173333-2.624 3.882667 3.882667 0 0 0-2.773334-1.109333h-42.666666a3.712 3.712 0 0 0-2.730667 1.130666 3.584 3.584 0 0 0-1.109333 2.602667v21.12c0 1.066667 0.384 1.984 1.109333 2.709333a3.712 3.712 0 0 0 2.730667 1.130667h5.653333v4.48h-11.626667a3.669333 3.669333 0 0 0-2.602666 1.066667 3.52 3.52 0 0 0-1.130667 2.666666c0 1.066667 0.384 1.984 1.130667 2.709334a3.584 3.584 0 0 0 2.602666 1.130666h11.626667v5.546667h-17.173333a3.712 3.712 0 0 0-2.709334 1.130667 3.584 3.584 0 0 0-1.130666 2.602666c0 1.066667 0.384 1.984 1.130666 2.730667a3.712 3.712 0 0 0 2.709334 1.109333h11.626666l-16 15.68a3.370667 3.370667 0 0 0-1.002666 2.624c0.021333 1.024 0.405333 1.92 1.109333 2.709334 0.789333 0.704 1.664 1.066667 2.666667 1.024a4.074667 4.074667 0 0 0 2.666666-1.130667l4.906667-4.8h13.973333c1.066667 0 1.962667-0.384 2.709334-1.130667a3.712 3.712 0 0 0 1.130666-2.709333 3.712 3.712 0 0 0-1.130666-2.730667 3.712 3.712 0 0 0-2.709334-1.109333h-6.186666l8.64-8.426667h21.013333l8.533333 8.426667h-6.72a3.712 3.712 0 0 0-2.730666 1.130667 3.712 3.712 0 0 0-1.109334 2.709333c0 1.066667 0.362667 1.962667 1.109334 2.709333a3.712 3.712 0 0 0 2.730666 1.130667h14.506667l4.906667 4.8zM306.88 51.2H271.786667v-3.52h35.093333V51.2z m0 10.026667H271.786667v-3.52h35.093333v3.52z m-9.386667 12.053333h-16.426666v-4.48h16.426666v4.48z m0 13.12h-16.426666v-5.546667h16.426666v5.546667z m-8.106666 50.773333c1.066667 0 1.984-0.362667 2.730666-1.066666a3.52 3.52 0 0 0 1.109334-2.666667V100.053333a3.712 3.712 0 0 0-1.109334-2.730666 3.712 3.712 0 0 0-2.730666-1.109334 3.52 3.52 0 0 0-2.666667 1.130667 3.797333 3.797333 0 0 0-1.066667 2.709333v33.386667a3.626667 3.626667 0 0 0 3.733334 3.733333z m27.84-0.042666a3.648 3.648 0 0 0 2.666666-1.024 3.712 3.712 0 0 0 0.32-5.333334l-15.786666-17.173333a3.882667 3.882667 0 0 0-2.666667-1.237333 3.648 3.648 0 0 0-2.666667 1.024 3.712 3.712 0 0 0-1.28 2.56 3.456 3.456 0 0 0 0.96 2.666666l15.893334 17.28a3.52 3.52 0 0 0 2.56 1.237334z m-59.2-1.024c1.92 1.344 3.733333 1.28 5.44-0.213334l15.68-17.28a3.648 3.648 0 0 0 1.002666-2.666666 3.52 3.52 0 0 0-1.216-2.56 3.712 3.712 0 0 0-2.709333-1.024 3.584 3.584 0 0 0-2.624 1.237333l-15.68 17.173333a4.266667 4.266667 0 0 0-1.066667 2.773334c0 1.002667 0.384 1.856 1.173334 2.56z" fill="#000000" /></svg>