<?xml version="1.0" standalone="no"?>
<!DOCTYPE svg PUBLIC "-//W3C//DTD SVG 1.1//EN" "http://www.w3.org/Graphics/SVG/1.1/DTD/svg11.dtd">
<svg class="icon" style="width: 1em;height: 1em;vertical-align: middle;fill: currentColor;overflow: hidden;" viewBox="0 0 1024 1024" version="1.1" xmlns="http://www.w3.org/2000/svg"><path d="M192 661.333333a21.333333 21.333333 0 1 1 0 42.666667 21.333333 21.333333 0 0 1 0-42.666667z m256 0a21.333333 21.333333 0 1 1 0 42.666667 21.333333 21.333333 0 0 1 0-42.666667z m256 0a21.333333 21.333333 0 1 1 0 42.666667 21.333333 21.333333 0 0 1 0-42.666667z m-384-21.333333a21.333333 21.333333 0 1 1 0 42.666667 21.333333 21.333333 0 0 1 0-42.666667z m256 0a21.333333 21.333333 0 1 1 0 42.666667 21.333333 21.333333 0 0 1 0-42.666667z m256 0a21.333333 21.333333 0 1 1 0 42.666667 21.333333 21.333333 0 0 1 0-42.666667zM192 810.666667a21.333333 21.333333 0 1 1 0 42.666666 21.333333 21.333333 0 0 1 0-42.666666z m256 0a21.333333 21.333333 0 1 1 0 42.666666 21.333333 21.333333 0 0 1 0-42.666666z m256 0a21.333333 21.333333 0 1 1 0 42.666666 21.333333 21.333333 0 0 1 0-42.666666z m-384-21.333334a21.333333 21.333333 0 1 1 0 42.666667 21.333333 21.333333 0 0 1 0-42.666667z m256 0a21.333333 21.333333 0 1 1 0 42.666667 21.333333 21.333333 0 0 1 0-42.666667z m256 0a21.333333 21.333333 0 1 1 0 42.666667 21.333333 21.333333 0 0 1 0-42.666667zM192 362.666667a21.333333 21.333333 0 1 1 0 42.666666 21.333333 21.333333 0 0 1 0-42.666666z m256 0a21.333333 21.333333 0 1 1 0 42.666666 21.333333 21.333333 0 0 1 0-42.666666z m256 0a21.333333 21.333333 0 1 1 0 42.666666 21.333333 21.333333 0 0 1 0-42.666666zM320 341.333333a21.333333 21.333333 0 1 1 0 42.666667 21.333333 21.333333 0 0 1 0-42.666667z m256 0a21.333333 21.333333 0 1 1 0 42.666667 21.333333 21.333333 0 0 1 0-42.666667z m256 0a21.333333 21.333333 0 1 1 0 42.666667 21.333333 21.333333 0 0 1 0-42.666667zM192 512a21.333333 21.333333 0 1 1 0 42.666667 21.333333 21.333333 0 0 1 0-42.666667z m256 0a21.333333 21.333333 0 1 1 0 42.666667 21.333333 21.333333 0 0 1 0-42.666667z m256 0a21.333333 21.333333 0 1 1 0 42.666667 21.333333 21.333333 0 0 1 0-42.666667z m-384-21.333333a21.333333 21.333333 0 1 1 0 42.666666 21.333333 21.333333 0 0 1 0-42.666666z m256 0a21.333333 21.333333 0 1 1 0 42.666666 21.333333 21.333333 0 0 1 0-42.666666z m256 0a21.333333 21.333333 0 1 1 0 42.666666 21.333333 21.333333 0 0 1 0-42.666666zM192 213.333333a21.333333 21.333333 0 1 1 0 42.666667 21.333333 21.333333 0 0 1 0-42.666667z m256 0a21.333333 21.333333 0 1 1 0 42.666667 21.333333 21.333333 0 0 1 0-42.666667z m256 0a21.333333 21.333333 0 1 1 0 42.666667 21.333333 21.333333 0 0 1 0-42.666667zM320 192a21.333333 21.333333 0 1 1 0 42.666667 21.333333 21.333333 0 0 1 0-42.666667z m256 0a21.333333 21.333333 0 1 1 0 42.666667 21.333333 21.333333 0 0 1 0-42.666667z m256 0a21.333333 21.333333 0 1 1 0 42.666667 21.333333 21.333333 0 0 1 0-42.666667z" fill="#FFE34F" /><path d="M64 930.602667m36.032 0l823.936 0q36.032 0 36.032 36.032l0 0q0 36.032-36.032 36.032l-823.936 0q-36.032 0-36.032-36.032l0 0q0-36.032 36.032-36.032Z" fill="#FFE34F" /><path d="M923.968 930.602667a36.032 36.032 0 1 1 0 72.064H100.053333a36.032 36.032 0 1 1 0-72.064H923.946667z m0 17.066666H100.053333a18.965333 18.965333 0 0 0-2.389333 37.781334l2.389333 0.149333H923.946667a18.965333 18.965333 0 0 0 2.389333-37.76l-2.389333-0.170667z" fill="#000000" /><path d="M522.666667 192C681.728 192 810.666667 320.938667 810.666667 480S681.728 768 522.666667 768 234.666667 639.061333 234.666667 480 363.605333 192 522.666667 192z m0 34.133333c-140.202667 0-253.866667 113.664-253.866667 253.866667s113.664 253.866667 253.866667 253.866667 253.866667-113.664 253.866666-253.866667-113.664-253.866667-253.866666-253.866667z" fill="#D0ECFF" /><path d="M522.666667 192C681.728 192 810.666667 320.938667 810.666667 480S681.728 768 522.666667 768 234.666667 639.061333 234.666667 480 363.605333 192 522.666667 192z m0 17.066667c-149.632 0-270.933333 121.301333-270.933334 270.933333 0 149.632 121.301333 270.933333 270.933334 270.933333 149.632 0 270.933333-121.301333 270.933333-270.933333 0-149.632-121.301333-270.933333-270.933333-270.933333z" fill="#000000" /><path d="M306.965333 507.221333a58.794667 30.442667 0 1 0 117.589334 0 58.794667 30.442667 0 1 0-117.589334 0Z" fill="#FF9DCF" /><path d="M599.445333 507.221333a58.794667 30.442667 0 1 0 117.589334 0 58.794667 30.442667 0 1 0-117.589334 0Z" fill="#FF9DCF" /><path d="M661.44 385.578667l12.16 17.514666-36.693333 25.429334 2.922666 2.325333c10.261333 8.234667 18.197333 15.210667 23.808 20.992l2.261334 2.410667-15.744 14.378666a117.632 117.632 0 0 0-6.826667-6.784l-5.973333-5.354666a324.48 324.48 0 0 0-3.456-2.922667l-7.722667-6.336a573.546667 573.546667 0 0 0-4.288-3.413333l-9.450667-7.296-11.690666-8.874667L661.44 385.578667zM350.485333 385.578667l-12.16 17.514666 36.693334 25.429334-2.922667 2.325333c-10.261333 8.234667-18.197333 15.210667-23.808 20.992l-2.261333 2.410667 15.744 14.378666c1.834667-2.005333 4.117333-4.266667 6.826666-6.784l5.973334-5.354666 3.456-2.922667 7.722666-6.336 4.288-3.413333 9.450667-7.296 11.690667-8.874667L350.506667 385.578667zM522.154667 564.266667a10.666667 10.666667 0 0 1 10.709333-0.405334l1.621333 1.066667 8.405334 6.634667 7.658666-3.456a10.666667 10.666667 0 0 1 13.162667 3.626666l0.938667 1.706667a10.666667 10.666667 0 0 1-3.626667 13.162667l-1.685333 0.938666-13.525334 6.122667a10.666667 10.666667 0 0 1-9.365333-0.256l-1.642667-1.066667-7.616-6.016-10.410666 6.613334a10.666667 10.666667 0 0 1-10.325334 0.64l-1.578666-0.938667-8.426667-6.037333-7.253333 5.717333a10.666667 10.666667 0 0 1-9.152 1.984l-1.856-0.64-13.525334-6.122667a10.666667 10.666667 0 0 1 6.976-20.053333l1.813334 0.618667 7.637333 3.456 8.426667-6.656a10.666667 10.666667 0 0 1 11.093333-1.301334l1.706667 1.002667 9.088 6.485333 10.752-6.826666z" fill="#000000" /><path d="M84.053333 60.373333c1.002667 0.213333 1.962667 0 2.88-0.64a3.456 3.456 0 0 0 1.536-2.346666 3.989333 3.989333 0 0 0-0.576-2.88l-8.96-11.946667a4.096 4.096 0 0 0-5.333333-1.173333 3.84 3.84 0 0 0-1.557333 2.453333 3.989333 3.989333 0 0 0 0.597333 2.88l9.066667 12.053333a3.626667 3.626667 0 0 0 2.346666 1.6z m54.933334-11.52c1.066667 0 1.984-0.384 2.730666-1.130666a3.712 3.712 0 0 0 1.109334-2.709334 3.52 3.52 0 0 0-1.130667-2.666666 3.797333 3.797333 0 0 0-2.709333-1.066667h-41.173334a3.989333 3.989333 0 0 0-2.773333 1.066667 3.456 3.456 0 0 0-1.173333 2.666666c0 1.066667 0.384 1.984 1.173333 2.709334 0.789333 0.746667 1.706667 1.130667 2.773333 1.130666h41.173334z m-18.794667 20.373334l0.981333-0.213334a3.946667 3.946667 0 0 0 2.24-2.026666 3.669333 3.669333 0 0 0 0.106667-2.88l-3.306667-9.066667a3.968 3.968 0 0 0-2.026666-2.133333 3.669333 3.669333 0 0 0-2.88-0.106667 4.053333 4.053333 0 0 0-2.133334 1.92 3.648 3.648 0 0 0-0.106666 2.88l3.2 9.066667c0.426667 1.002667 1.109333 1.706667 2.026666 2.197333a3.541333 3.541333 0 0 0 2.88 0.149333l-0.981333 0.213334z m12.074667-0.213334a3.776 3.776 0 0 0 4.8-2.346666L140.373333 57.6a4.16 4.16 0 0 0-0.170666-2.88 3.84 3.84 0 0 0-2.069334-1.92 3.669333 3.669333 0 0 0-2.88 0.106667 3.968 3.968 0 0 0-2.026666 2.133333l-3.306667 9.066667a3.541333 3.541333 0 0 0 0.170667 2.88 4.202667 4.202667 0 0 0 2.176 2.026666z m-27.712 0.213334l1.045333-0.213334a3.754667 3.754667 0 0 0 2.090667-2.026666 4.224 4.224 0 0 0 0.149333-2.88l-3.413333-9.066667a3.605333 3.605333 0 0 0-1.856-2.133333 3.797333 3.797333 0 0 0-2.944-0.106667 4.053333 4.053333 0 0 0-2.133334 1.92 3.648 3.648 0 0 0-0.106666 2.88l3.306666 9.066667a4.266667 4.266667 0 0 0 1.984 2.197333 3.626667 3.626667 0 0 0 2.922667 0.149333l-1.045333 0.213334z m-22.208 14.229333c1.002667 0.192 1.962667 0 2.88-0.576a3.456 3.456 0 0 0 1.536-2.346667 3.989333 3.989333 0 0 0-0.576-2.88l-8.96-11.946666a3.712 3.712 0 0 0-2.453334-1.664 4.309333 4.309333 0 0 0-2.88 0.490666 4.053333 4.053333 0 0 0-1.6 2.410667c-0.213333 0.96 0 1.898667 0.64 2.816l8.96 12.16a3.84 3.84 0 0 0 2.453334 1.557333z m35.093333 54.250667c1.066667 0 1.984-0.362667 2.730667-1.066667a3.52 3.52 0 0 0 1.109333-2.666667V102.613333h19.306667c1.066667 0 1.984-0.362667 2.773333-1.109333a3.626667 3.626667 0 0 0 0-5.333333 3.882667 3.882667 0 0 0-2.773333-1.130667h-19.306667V94.293333l15.146667-14.4c1.002667-1.28 1.173333-2.624 0.533333-4.010666a3.477333 3.477333 0 0 0-3.2-2.176H101.12a3.712 3.712 0 0 0-2.730667 1.109333 3.712 3.712 0 0 0-1.109333 2.730667c0 1.002667 0.384 1.877333 1.130667 2.624a3.712 3.712 0 0 0 2.709333 1.109333h23.466667l-9.813334 8.96a3.989333 3.989333 0 0 0-1.066666 2.773333v2.026667h-18.346667a3.712 3.712 0 0 0-2.709333 1.130667 3.712 3.712 0 0 0-1.130667 2.709333c0 1.002667 0.384 1.877333 1.130667 2.624a3.712 3.712 0 0 0 2.709333 1.109333h18.346667v31.36a3.626667 3.626667 0 0 0 3.733333 3.733334z m-44.16-2.346667a3.626667 3.626667 0 0 0 2.88-0.32 3.669333 3.669333 0 0 0 1.706667-2.346667l10.56-34.986666a3.626667 3.626667 0 0 0-0.32-2.88 4.096 4.096 0 0 0-2.346667-1.813334 3.626667 3.626667 0 0 0-2.88 0.32 3.669333 3.669333 0 0 0-1.706667 2.346667l-10.56 34.986667a3.797333 3.797333 0 0 0 0.32 2.944 3.626667 3.626667 0 0 0 2.346667 1.749333z m126.72-60.906667c1.066667 0 1.962667-0.362667 2.709333-1.066666a3.52 3.52 0 0 0 1.130667-2.666667V42.666667a3.712 3.712 0 0 0-1.130667-2.709334 3.712 3.712 0 0 0-2.709333-1.130666 3.712 3.712 0 0 0-2.709333 1.109333 3.712 3.712 0 0 0-1.130667 2.730667v28.053333c0 1.066667 0.384 1.962667 1.130667 2.666667s1.642667 1.066667 2.709333 1.066666z m-32 4.842667a3.776 3.776 0 0 0 2.56-1.429333 133.589333 133.589333 0 0 0 15.36-24.106667 3.712 3.712 0 0 0 0.32-2.88 3.562667 3.562667 0 0 0-1.813333-2.24 3.712 3.712 0 0 0-2.922667-0.256 4.202667 4.202667 0 0 0-2.304 1.856c-2.346667 4.544-4.736 8.746667-7.146667 12.586667-2.410667 3.690667-4.906667 7.146667-7.466666 10.346666a3.626667 3.626667 0 0 0-0.746667 2.773334 4.181333 4.181333 0 0 0 1.386667 2.56c0.853333 0.64 1.770667 0.896 2.773333 0.789333z m63.573333-0.106667c1.002667 0.192 1.962667 0.021333 2.88-0.469333a3.797333 3.797333 0 0 0 1.066667-5.226667l-14.826667-23.573333a4.053333 4.053333 0 0 0-2.453333-1.6 3.797333 3.797333 0 0 0-2.88 0.533333 3.370667 3.370667 0 0 0-1.664 2.346667 4.309333 4.309333 0 0 0 0.490667 2.88l15.04 23.466667c0.576 0.917333 1.344 1.493333 2.346666 1.664z m5.546667 55.744a3.584 3.584 0 0 0 2.624-1.130666 3.712 3.712 0 0 0 1.109333-2.709334 3.52 3.52 0 0 0-1.109333-2.666666 3.669333 3.669333 0 0 0-2.624-1.066667h-33.28V100.8h22.826667a3.584 3.584 0 0 0 2.624-1.109333 3.584 3.584 0 0 0 1.109333-2.624 3.712 3.712 0 0 0-1.130667-2.709334 3.584 3.584 0 0 0-2.602666-1.130666h-22.826667v-10.453334a3.712 3.712 0 0 0-1.130667-2.709333 3.712 3.712 0 0 0-2.709333-1.130667 3.712 3.712 0 0 0-2.709333 1.109334 3.712 3.712 0 0 0-1.130667 2.730666v10.453334H173.013333a3.584 3.584 0 0 0-2.602666 1.130666 3.712 3.712 0 0 0-1.130667 2.709334c0 1.002667 0.384 1.877333 1.130667 2.624a3.584 3.584 0 0 0 2.602666 1.109333h23.146667V127.36h-33.28a3.669333 3.669333 0 0 0-2.602667 1.066667 3.52 3.52 0 0 0-1.130666 2.666666c0 1.066667 0.384 1.984 1.130666 2.730667a3.584 3.584 0 0 0 2.602667 1.109333h74.24z" fill="#000000" /></svg>