<?xml version="1.0" standalone="no"?>
<!DOCTYPE svg PUBLIC "-//W3C//DTD SVG 1.1//EN" "http://www.w3.org/Graphics/SVG/1.1/DTD/svg11.dtd">
<svg class="icon" style="width: 1em;height: 1em;vertical-align: middle;fill: currentColor;overflow: hidden;" viewBox="0 0 1024 1024" version="1.1" xmlns="http://www.w3.org/2000/svg"><path d="M531.008 671.722667c84.032-31.978667 296.832-12.714667 216.042667 99.477333-80.768 112.213333-347.776 170.517333-449.856 163.392 94.549333-23.893333 338.773333-83.2 362.453333-171.989333 23.68-88.789333-49.493333-80.213333-128.64-90.88z" fill="#FFE34F" /><path d="M747.050667 771.2c-80.768 112.213333-347.776 170.517333-449.856 163.392l44.928-11.434667 26.794666-7.104 21.461334-5.930666 22.314666-6.421334 15.210667-4.586666 15.402667-4.778667 15.488-5.013333c5.162667-1.706667 10.346667-3.456 15.488-5.248l15.424-5.461334 15.274666-5.674666c75.84-28.906667 142.805333-65.92 154.666667-110.336 13.930667-52.330667-5.738667-70.826667-40.448-79.381334l-6.464-1.472a199.808 199.808 0 0 0-3.349333-0.64l-6.933334-1.194666-7.189333-1.045334-7.424-0.917333-44.16-4.650667-8.448-1.024a554.944 554.944 0 0 1-4.224-0.554666c1.92-0.725333 3.925333-1.429333 5.973333-2.133334l6.4-1.941333 6.72-1.792 3.477334-0.832 7.168-1.536 7.466666-1.344 7.68-1.173333 7.893334-1.002667 8.085333-0.810667 4.096-0.32 8.277333-0.533333 8.384-0.341333 8.448-0.128h4.266667l8.490667 0.170666 4.245333 0.149334 8.469333 0.469333 8.426667 0.682667c2.794667 0.256 5.568 0.554667 8.341333 0.896l8.234667 1.109333 8.064 1.301333 7.893333 1.557334 3.882667 0.853333 7.594667 1.877333c54.698667 14.592 88.917333 47.573333 48.064 104.32zM652.586667 676.266667l-3.84-0.32 0.853333 0.490666c1.770667 1.002667 3.498667 2.090667 5.205333 3.242667 25.386667 17.066667 32.341333 45.994667 21.333334 87.317333-10.730667 40.192-54.314667 74.304-124.906667 105.557334l-2.666667 1.130666 3.776-1.322666c76.458667-27.52 144.746667-65.173333 177.386667-106.517334l3.477333-4.608c28.48-39.552 14.848-63.061333-36.906666-77.397333a250.730667 250.730667 0 0 0-43.712-7.594667z" fill="#000000" /><path d="M530.986667 416.874667c107.477333-43.050667 379.690667-17.130667 276.352 133.909333C704 701.824 362.453333 780.309333 231.893333 770.730667c120.938667-32.149333 433.322667-111.978667 463.616-231.509334 30.293333-119.552-63.274667-107.989333-164.522666-122.346666z" fill="#FFE34F" /><path d="M807.338667 550.784C704 701.824 362.453333 780.309333 231.893333 770.730667l55.146667-14.762667 29.013333-8.042667 23.125334-6.613333 24.042666-7.146667 16.426667-5.034666 16.661333-5.248 16.853334-5.482667 16.938666-5.696 17.002667-5.909333 8.490667-3.050667 16.938666-6.229333 16.810667-6.464 8.341333-3.306667 16.512-6.784c90.048-37.866667 167.04-85.397333 181.312-141.738667 16.469333-65.002667-3.690667-91.242667-41.770666-103.957333l-6.528-2.005333-6.826667-1.770667-7.104-1.578667-7.402667-1.408-3.797333-0.64-7.765333-1.194666-12.074667-1.6-21.077333-2.346667-8.874667-0.96a1148.16 1148.16 0 0 1-41.301333-4.885333c2.133333-0.853333 4.352-1.706667 6.613333-2.496l7.04-2.346667 3.626667-1.088 7.509333-2.069333 7.829333-1.92 8.106667-1.706667 8.341333-1.536c1.408-0.256 2.837333-0.490667 4.266667-0.704l8.682667-1.28 8.874666-1.066667 4.48-0.469333 9.130667-0.789333 9.216-0.597334 9.322667-0.426666 4.693333-0.106667 9.429333-0.106667 9.450667 0.106667 4.736 0.128 9.450667 0.405333 4.714666 0.277334 9.386667 0.725333 9.322667 0.938667 9.237333 1.173333 4.565333 0.64 9.024 1.493333 8.874667 1.706667c7.317333 1.536 14.442667 3.285333 21.290667 5.290667l8.106666 2.517333c63.701333 21.034667 100.629333 64.704 51.029334 137.216z m-160.746667-135.530667l1.92 0.490667c16.192 4.074667 27.946667 9.386667 38.912 17.258667 29.973333 21.504 38.037333 57.429333 24.618667 110.4-14.186667 56.064-77.269333 104.128-179.264 148.309333l-16 6.762667-16.618667 6.72-17.194667 6.656-8.832 3.306666-18.069333 6.570667-18.026667 6.314667-16.938666 5.76-5.717334 1.898666 5.333334-1.152c147.498667-33.493333 307.477333-105.216 368.768-188.096l3.776-5.312c39.253333-57.408 19.349333-93.568-49.813334-113.706666-26.709333-7.786667-58.453333-11.733333-90.112-12.16l-6.741333-0.021334z" fill="#000000" /><path d="M446.997333 112.362667c137.621333-54.122667 486.208-21.546667 353.877334 168.32C668.586667 470.549333 231.189333 569.237333 64 557.162667c154.88-40.362667 554.88-140.736 593.685333-291.008 38.784-150.293333-81.024-135.744-210.688-153.813334z" fill="#FFE34F" /><path d="M800.874667 280.682667c-72.768 104.448-237.824 181.290667-399.445334 227.285333l-22.016 6.08-21.909333 5.696c-7.274667 1.834667-14.549333 3.626667-21.76 5.333333l-21.546667 4.906667c-10.730667 2.346667-21.354667 4.586667-31.850666 6.656l-20.821334 3.946667c-79.061333 14.378667-149.461333 20.053333-197.525333 16.597333l63.018667-16.512 37.162666-10.026667 31.829334-8.917333 24.810666-7.146667 16.938667-5.013333 25.813333-7.850667 26.24-8.277333 17.642667-5.738667 17.706667-5.930666 17.706666-6.101334 17.706667-6.293333 17.6-6.464 17.493333-6.656 17.344-6.826667c5.76-2.304 11.456-4.629333 17.109334-6.997333l16.853333-7.189333c11.157333-4.842667 22.101333-9.813333 32.789333-14.890667l15.808-7.701333c83.221333-41.578667 147.669333-90.581333 162.112-146.496 22.293333-86.4-7.829333-118.314667-62.08-133.269334l-7.744-1.984a263.573333 263.573333 0 0 0-3.968-0.917333l-8.170666-1.706667-8.426667-1.514666-8.682667-1.386667-13.482666-1.877333-9.237334-1.130667-53.888-5.76-9.92-1.088a1047.253333 1047.253333 0 0 1-25.088-3.157333 293.12 293.12 0 0 1 46.933334-13.568l10.517333-2.048c1.792-0.341333 3.584-0.64 5.397333-0.938667l10.986667-1.706667c1.856-0.277333 3.712-0.533333 5.589333-0.768l11.370667-1.365333 11.562667-1.109333c5.824-0.512 11.733333-0.917333 17.664-1.237334l11.946666-0.490666 12.032-0.256h12.096l12.096 0.256 12.117334 0.512c10.069333 0.533333 20.096 1.344 30.016 2.453333l11.797333 1.450667c117.418667 15.914667 211.157333 73.216 131.754667 187.136z m-80.405334-159.253334c-46.4-13.269333-104.405333-17.813333-158.208-14.442666l-8 0.554666 5.269334 0.746667c39.253333 5.674667 61.674667 12.501333 81.429333 25.472l2.944 1.984c37.056 25.770667 47.168 69.290667 30.293333 134.677333-17.536 67.968-95.808 127.082667-222.506666 181.546667l-17.557334 7.402667c-5.952 2.453333-12.010667 4.906667-18.154666 7.338666l-18.773334 7.296a1678.72 1678.72 0 0 1-9.578666 3.626667l-19.626667 7.210667-20.181333 7.189333-10.304 3.562667c-32.085333 11.029333-60.16 20.117333-90.218667 29.162666l-22.4 6.592 4.074667-0.597333c208.938667-32.277333 464.554667-133.888 553.962666-254.336l3.946667-5.482667c52.181333-74.88 24.96-123.370667-66.410667-149.504z" fill="#000000" /><path d="M414.229333 171.029333m-21.333333 0a21.333333 21.333333 0 1 0 42.666667 0 21.333333 21.333333 0 1 0-42.666667 0Z" fill="#FFE34F" /><path d="M573.696 287.381333m-21.333333 0a21.333333 21.333333 0 1 0 42.666666 0 21.333333 21.333333 0 1 0-42.666666 0Z" fill="#FFE34F" /><path d="M298.666667 348.885333m-40.170667 0a40.170667 40.170667 0 1 0 80.341333 0 40.170667 40.170667 0 1 0-80.341333 0Z" fill="#FFE34F" /><path d="M230.208 671.445333m-28.288 0a28.288 28.288 0 1 0 56.576 0 28.288 28.288 0 1 0-56.576 0Z" fill="#FFE34F" /><path d="M187.541333 917.333333m-21.333333 0a21.333333 21.333333 0 1 0 42.666667 0 21.333333 21.333333 0 1 0-42.666667 0Z" fill="#FFE34F" /><path d="M541.696 772.842667m-21.333333 0a21.333333 21.333333 0 1 0 42.666666 0 21.333333 21.333333 0 1 0-42.666666 0Z" fill="#FFE34F" /><path d="M191.253333 226.688m-21.333333 0a21.333333 21.333333 0 1 0 42.666667 0 21.333333 21.333333 0 1 0-42.666667 0Z" fill="#FFE34F" /><path d="M810.666667 367.722667m-21.333334 0a21.333333 21.333333 0 1 0 42.666667 0 21.333333 21.333333 0 1 0-42.666667 0Z" fill="#FFE34F" /><path d="M832 650.112m-21.333333 0a21.333333 21.333333 0 1 0 42.666666 0 21.333333 21.333333 0 1 0-42.666666 0Z" fill="#FFE34F" /><path d="M670.293333 896m-21.333333 0a21.333333 21.333333 0 1 0 42.666667 0 21.333333 21.333333 0 1 0-42.666667 0Z" fill="#FFE34F" /><path d="M490.666667 607.445333m-21.333334 0a21.333333 21.333333 0 1 0 42.666667 0 21.333333 21.333333 0 1 0-42.666667 0Z" fill="#FFE34F" /><path d="M699.754667 223.381333c1.834667 15.573333 24.469333 40.448 48.96 42.538667 24.512 2.090667 37.930667-14.037333 39.616-29.077333-13.568 7.594667-16.256-4.053333-33.365334-8.064-17.109333-4.032-34.048 11.264-55.210666-5.397334z" fill="#000000" /><path d="M736.029237 238.8835a21.333333 21.333333 0 1 0 42.608193 2.233 21.333333 21.333333 0 1 0-42.608193-2.233Z" fill="#FFFFFF" /><path d="M755.712 470.058667c9.856 12.032 20.8 20.906667 32.853333 26.624 18.133333 8.576 30.506667 12.288 39.04 12.288 1.792-5.482667 3.712-21.909333 2.730667-25.152-8.426667 6.144-27.349333 5.12-41.749333 1.728-9.6-2.261333-20.565333-7.424-32.874667-15.488z" fill="#000000" /><path d="M83.2 137.386667a3.626667 3.626667 0 0 0 2.709333-1.173334 3.882667 3.882667 0 0 0 1.130667-2.773333v-41.6l8.746667-4.693333a3.776 3.776 0 0 0 1.856-2.133334 3.605333 3.605333 0 0 0-0.256-2.88 3.605333 3.605333 0 0 0-1.984-1.92 3.093333 3.093333 0 0 0-2.709334 0.213334l-5.653333 2.986666v-18.773333h7.253333a3.242667 3.242667 0 0 0 2.496-1.109333 3.904 3.904 0 0 0 1.024-2.730667 3.712 3.712 0 0 0-1.024-2.666667 3.328 3.328 0 0 0-2.496-1.066666h-7.253333V42.026667a3.882667 3.882667 0 0 0-1.130667-2.773334 3.669333 3.669333 0 0 0-5.376 0 3.797333 3.797333 0 0 0-1.173333 2.773334v15.04h-7.146667a3.370667 3.370667 0 0 0-2.453333 1.066666 3.626667 3.626667 0 0 0-1.066667 2.666667c0 1.066667 0.362667 1.962667 1.066667 2.709333a3.306667 3.306667 0 0 0 2.453333 1.130667h7.146667v22.72l-8.64 4.586667a3.776 3.776 0 0 0-1.856 2.197333 3.712 3.712 0 0 0 0.149333 2.816c0.426667 1.002667 1.109333 1.642667 2.026667 1.984a3.584 3.584 0 0 0 2.773333-0.170667l5.546667-2.986666v37.653333c0 1.066667 0.384 1.984 1.173333 2.773333a3.669333 3.669333 0 0 0 2.666667 1.173334z m58.026667-0.426667c1.066667 0 1.962667-0.384 2.666666-1.130667a3.797333 3.797333 0 0 0 1.066667-2.709333V71.04a3.797333 3.797333 0 0 0-1.066667-2.709333 3.52 3.52 0 0 0-2.666666-1.130667H116.266667l24.853333-18.666667a4.138667 4.138667 0 0 0 1.386667-2.496 3.541333 3.541333 0 0 0-0.746667-2.730666 4.181333 4.181333 0 0 0-2.986667-1.386667H103.253333a3.712 3.712 0 0 0-2.709333 1.109333 3.584 3.584 0 0 0-1.130667 2.624c0 1.066667 0.384 1.962667 1.130667 2.709334a3.712 3.712 0 0 0 2.709333 1.130666H128l-24.533333 18.453334a3.584 3.584 0 0 0-1.706667 3.093333c0 1.066667 0.384 1.962667 1.130667 2.666667 0.725333 0.704 1.6 1.066667 2.602666 1.066666h14.826667l-21.333333 27.413334a3.669333 3.669333 0 0 0-0.682667 2.837333c0.170667 0.96 0.64 1.749333 1.429333 2.389333 0.853333 0.704 1.792 0.981333 2.837334 0.789334A4.266667 4.266667 0 0 0 105.173333 106.666667l24.746667-31.893334h7.466667v2.88L100.586667 129.706667a3.797333 3.797333 0 0 0-0.533334 2.88 4.053333 4.053333 0 0 0 1.6 2.453333c0.917333 0.490667 1.877333 0.64 2.88 0.469333a3.712 3.712 0 0 0 2.453334-1.642666l30.4-43.093334V133.12c0 1.066667 0.362667 1.962667 1.109333 2.709333a3.712 3.712 0 0 0 2.730667 1.130667zM209.066667 88c1.066667 0 1.962667-0.362667 2.709333-1.066667a3.52 3.52 0 0 0 1.130667-2.666666V42.773333a3.584 3.584 0 0 0-1.130667-2.602666 3.712 3.712 0 0 0-2.709333-1.130667 3.584 3.584 0 0 0-2.624 1.109333 3.584 3.584 0 0 0-1.109334 2.624V84.266667c0 1.066667 0.384 1.962667 1.130667 2.666666 0.725333 0.704 1.6 1.066667 2.602667 1.066667zM173.013333 60.437333c1.002667 0.170667 1.962667-0.021333 2.88-0.597333a3.456 3.456 0 0 0 1.557334-2.346667 3.989333 3.989333 0 0 0-0.597334-2.88l-8-12.053333a3.797333 3.797333 0 0 0-2.389333-1.557333 4.202667 4.202667 0 0 0-2.837333 0.490666 3.690667 3.690667 0 0 0-1.642667 2.410667c-0.192 0.96 0 1.898667 0.576 2.816l8 12.053333c0.64 0.917333 1.450667 1.493333 2.453333 1.664z m10.986667 25.429334a3.669333 3.669333 0 0 0 4.8-2.24c2.986667-8.32 5.482667-17.216 7.466667-26.666667a3.669333 3.669333 0 0 0-0.469334-2.816 3.498667 3.498667 0 0 0-2.304-1.557333 3.84 3.84 0 0 0-4.586666 2.88c-1.984 9.024-4.416 17.557333-7.253334 25.6a3.626667 3.626667 0 0 0 0.170667 2.944c0.448 0.874667 1.173333 1.493333 2.176 1.856z m46.634667-4.053334l1.045333-0.106666a3.413333 3.413333 0 0 0 2.282667-1.664 4.416 4.416 0 0 0 0.597333-2.922667L228.48 55.68a3.498667 3.498667 0 0 0-1.6-2.389333 3.84 3.84 0 0 0-2.88-0.490667 4.096 4.096 0 0 0-2.453333 1.706667 3.690667 3.690667 0 0 0-0.533334 2.88l6.08 21.546666c0.213333 1.066667 0.768 1.856 1.664 2.346667 0.874667 0.490667 1.856 0.64 2.922667 0.426667l-1.045333 0.085333z m-59.434667 1.706667a3.797333 3.797333 0 0 0 3.946667-5.866667l-8-11.946666a4.053333 4.053333 0 0 0-2.453334-1.6 3.797333 3.797333 0 0 0-2.88 0.533333 3.797333 3.797333 0 0 0-1.536 2.410667c-0.192 0.96 0 1.898667 0.576 2.816l8 12.053333a3.626667 3.626667 0 0 0 2.346667 1.6z m19.84 53.333333a3.669333 3.669333 0 0 0 2.666667-1.173333 152.106667 152.106667 0 0 0 20.202666-22.037333c6.016-8 10.666667-16.64 13.930667-25.962667a3.626667 3.626667 0 0 0-0.32-2.88 3.669333 3.669333 0 0 0-2.346667-1.706667 3.797333 3.797333 0 0 0-2.88 0.277334 3.477333 3.477333 0 0 0-1.706666 2.282666 100.949333 100.949333 0 0 1-13.333334 24 138.922667 138.922667 0 0 1-19.093333 20.8 4.266667 4.266667 0 0 0-1.066667 2.773334c0 1.002667 0.384 1.856 1.173334 2.56a4.266667 4.266667 0 0 0 2.773333 1.066666zM163.2 135.466667c1.066667 0.213333 2.048 0.064 2.922667-0.426667a3.605333 3.605333 0 0 0 1.770666-2.24l9.493334-35.093333a3.626667 3.626667 0 0 0-0.32-2.88 3.669333 3.669333 0 0 0-2.346667-1.706667 3.797333 3.797333 0 0 0-2.922667 0.32 3.605333 3.605333 0 0 0-1.770666 2.24L160.533333 130.773333a3.797333 3.797333 0 0 0 0.32 2.944 3.626667 3.626667 0 0 0 2.346667 1.749334z" fill="#000000" /></svg>