<?xml version="1.0" standalone="no"?>
<!DOCTYPE svg PUBLIC "-//W3C//DTD SVG 1.1//EN" "http://www.w3.org/Graphics/SVG/1.1/DTD/svg11.dtd">
<svg class="icon" style="width: 1em;height: 1em;vertical-align: middle;fill: currentColor;overflow: hidden;" viewBox="0 0 1024 1024" version="1.1" xmlns="http://www.w3.org/2000/svg"><path d="M234.666667 917.333333m-21.333334 0a21.333333 21.333333 0 1 0 42.666667 0 21.333333 21.333333 0 1 0-42.666667 0Z" fill="#FFE34F" /><path d="M512 874.666667m-21.333333 0a21.333333 21.333333 0 1 0 42.666666 0 21.333333 21.333333 0 1 0-42.666666 0Z" fill="#FFE34F" /><path d="M789.333333 917.333333m-21.333333 0a21.333333 21.333333 0 1 0 42.666667 0 21.333333 21.333333 0 1 0-42.666667 0Z" fill="#FFE34F" /><path d="M512 735.274667m-21.333333 0a21.333333 21.333333 0 1 0 42.666666 0 21.333333 21.333333 0 1 0-42.666666 0Z" fill="#FFE34F" /><path d="M512 288.725333m-21.333333 0a21.333333 21.333333 0 1 0 42.666666 0 21.333333 21.333333 0 1 0-42.666666 0Z" fill="#FFE34F" /><path d="M234.666667 106.666667m-21.333334 0a21.333333 21.333333 0 1 0 42.666667 0 21.333333 21.333333 0 1 0-42.666667 0Z" fill="#FFE34F" /><path d="M512 149.333333m-21.333333 0a21.333333 21.333333 0 1 0 42.666666 0 21.333333 21.333333 0 1 0-42.666666 0Z" fill="#FFE34F" /><path d="M789.333333 106.666667m-21.333333 0a21.333333 21.333333 0 1 0 42.666667 0 21.333333 21.333333 0 1 0-42.666667 0Z" fill="#FFE34F" /><path d="M746.666667 245.333333c147.285333 0 266.666667 119.381333 266.666666 266.666667S893.952 778.666667 746.666667 778.666667a266.624 266.624 0 0 1-234.666667-139.925334A266.56 266.56 0 0 1 277.333333 778.666667C130.048 778.666667 10.666667 659.285333 10.666667 512S130.048 245.333333 277.333333 245.333333c101.397333 0 189.568 56.597333 234.666667 139.925334A266.56 266.56 0 0 1 746.666667 245.333333z m-469.333334 64a202.666667 202.666667 0 1 0 0 405.333334 202.666667 202.666667 0 0 0 0-405.333334z m469.333334 0a202.666667 202.666667 0 1 0 0 405.333334 202.666667 202.666667 0 0 0 0-405.333334z" fill="#595959" /><path d="M322.218667 455.872m-32.96 0a32.96 32.96 0 1 0 65.92 0 32.96 32.96 0 1 0-65.92 0Z" fill="#000000" /><path d="M701.781333 455.872m-32.96 0a32.96 32.96 0 1 0 65.92 0 32.96 32.96 0 1 0-65.92 0Z" fill="#000000" /><path d="M929.450667 425.92l17.152 12.672c-6.314667 8.533333-18.88 19.541333-35.370667 31.744l-10.368 7.445333a652.8 652.8 0 0 1-11.2 7.68l-11.904 7.808-6.186667 3.968-12.8 7.957334a1051.093333 1051.093333 0 0 1-6.570666 3.968l-13.397334 7.936-6.826666 3.946666-13.781334 7.786667-6.933333 3.84-13.888 7.466667-13.845333 7.210666c-4.586667 2.346667-9.152 4.650667-13.653334 6.869334l-13.397333 6.485333-12.992 5.994667c-4.266667 1.92-8.405333 3.754667-12.48 5.482666l-11.861333 4.906667c-11.52 4.586667-21.930667 8.192-30.762667 10.56l-4.266667 1.066667c-23.808 5.568-39.36 22.997333-40.234666 40.917333-0.810667 17.002667 12.032 28.992 37.802666 28.992h9.045334l26.581333-0.234667 17.173333-0.32 24.853334-0.682666 15.872-0.64 15.317333-0.746667 14.656-0.896 13.994667-1.045333 13.269333-1.152 12.501333-1.322667 11.712-1.450667c22.549333-3.050667 40.021333-6.997333 50.837334-11.882666l2.56-1.237334 9.877333 18.901334c-11.242667 5.866667-28.757333 10.474667-51.370667 14.037333l-11.733333 1.706667-6.165333 0.768-12.928 1.450666-13.674667 1.28-14.421333 1.088-15.125334 0.96-15.786666 0.810667-16.384 0.64-17.002667 0.533333-17.557333 0.384-18.069334 0.234667-18.56 0.128h-9.472c-37.44 0-60.544-21.546667-59.093333-51.328 1.28-26.538667 21.930667-50.794667 52.437333-59.562667l4.224-1.109333c10.496-2.432 24.106667-7.253333 39.573334-13.738667l11.946666-5.162666c4.053333-1.813333 8.234667-3.712 12.501334-5.696l12.970666-6.208 13.290667-6.613334 13.546667-6.976 13.653333-7.274666 13.610667-7.488 6.762666-3.797334 13.376-7.701333c2.218667-1.28 4.394667-2.581333 6.592-3.882667l12.864-7.744 12.373334-7.701333 11.754666-7.594667 5.632-3.733333 10.624-7.317333 9.728-7.018667c12.309333-9.152 21.909333-17.386667 27.477334-23.978667l1.92-2.389333zM81.152 425.92L64 438.592c8.810667 11.946667 29.930667 28.736 56.917333 46.848l11.925334 7.829333 6.186666 3.968 12.8 7.957334 6.549334 3.968 13.418666 7.936 13.674667 7.850666 13.866667 7.701334 13.866666 7.488 13.866667 7.210666c2.282667 1.173333 4.565333 2.346667 6.848 3.477334l13.546667 6.677333 13.205333 6.250667c6.485333 3.008 12.8 5.845333 18.922667 8.426666l11.861333 4.906667c11.52 4.586667 21.930667 8.192 30.741333 10.56l4.266667 1.066667c23.829333 5.568 39.381333 22.997333 40.234667 40.917333 0.832 17.002667-12.010667 28.992-37.781334 28.992h-9.066666l-26.56-0.234667-17.173334-0.32-24.853333-0.682666-15.893333-0.64-15.296-0.746667-14.656-0.896-13.994667-1.045333-13.269333-1.152-12.501334-1.322667-11.712-1.450667a469.845333 469.845333 0 0 1-5.546666-0.789333l-10.389334-1.664c-14.933333-2.624-26.794667-5.76-34.901333-9.429333l-2.56-1.237334-9.877333 18.901334c11.221333 5.866667 28.757333 10.474667 51.370666 14.037333l11.733334 1.706667 6.144 0.768 12.928 1.450666 6.762666 0.64 14.058667 1.194667 14.762667 1.045333 15.466666 0.853334 16.085334 0.746666 16.704 0.597334 17.28 0.426666 17.813333 0.32 27.669333 0.234667h9.472c37.418667 0 60.522667-21.546667 59.093334-51.328-1.28-26.538667-21.952-50.794667-52.458667-59.562667l-4.224-1.109333c-10.474667-2.432-24.085333-7.253333-39.552-13.738667l-11.946667-5.162666a730.624 730.624 0 0 1-12.501333-5.696l-12.970667-6.208-13.312-6.613334-13.525333-6.976-13.653333-7.274666a1199.68 1199.68 0 0 1-6.826667-3.712l-13.546667-7.573334-13.397333-7.701333-13.056-7.744-12.629333-7.744-6.122667-3.84-11.776-7.594667-5.610667-3.733333-10.645333-7.317333c-16.981333-11.946667-30.208-22.741333-37.205333-30.997334l-1.898667-2.389333z" fill="#595959" /><path d="M319.530667 509.354667a1418.261333 1418.261333 0 0 1 180.736-11.178667c62.848 0 125.717333 3.776 188.586666 11.328a21.333333 21.333333 0 0 1 18.773334 21.184v209.962667a21.333333 21.333333 0 0 1-17.024 20.906666c-55.338667 11.392-114.88 17.109333-178.602667 17.109334-64.469333 0-128.981333-5.845333-193.557333-17.536a21.333333 21.333333 0 0 1-17.536-20.992v-209.621334a21.333333 21.333333 0 0 1 18.624-21.162666z" fill="#FFFFFF" /><path d="M500.266667 498.176c62.848 0 125.717333 3.776 188.586666 11.328a21.333333 21.333333 0 0 1 18.773334 21.184v209.962667a21.333333 21.333333 0 0 1-17.024 20.906666c-55.338667 11.392-114.88 17.109333-178.602667 17.109334-64.469333 0-128.981333-5.845333-193.557333-17.536a21.333333 21.333333 0 0 1-17.536-20.992v-209.621334a21.333333 21.333333 0 0 1 18.624-21.162666 1418.261333 1418.261333 0 0 1 180.736-11.178667z m0 34.133333c-54.186667 0-106.666667 2.858667-157.44 8.618667l-7.786667 0.917333v187.52l8.256 1.408c50.026667 8.149333 100.032 12.693333 149.973333 13.589334L512 744.533333c55.893333 0 108.266667-4.544 157.141333-13.568l4.352-0.853333V542.08l-11.797333-1.301333a1542.229333 1542.229333 0 0 0-138.368-8.32l-23.04-0.170667z" fill="#D0ECFF" /><path d="M500.266667 498.176c62.848 0 125.717333 3.776 188.586666 11.328a21.333333 21.333333 0 0 1 18.773334 21.184v209.962667a21.333333 21.333333 0 0 1-17.024 20.906666c-55.338667 11.392-114.88 17.109333-178.602667 17.109334-64.469333 0-128.981333-5.845333-193.557333-17.536a21.333333 21.333333 0 0 1-17.536-20.992v-209.621334a21.333333 21.333333 0 0 1 18.624-21.162666 1418.261333 1418.261333 0 0 1 180.736-11.178667z m0 17.066667c-61.696 0-121.216 3.669333-178.56 11.050666a4.266667 4.266667 0 0 0-3.541334 2.986667l-0.192 1.237333v209.621334a4.266667 4.266667 0 0 0 3.52 4.202666c63.573333 11.52 127.061333 17.258667 190.506667 17.258667 62.592 0 120.981333-5.589333 175.146667-16.768a4.266667 4.266667 0 0 0 3.264-3.008l0.149333-1.173333v-209.962667a4.266667 4.266667 0 0 0-3.754667-4.224 1559.893333 1559.893333 0 0 0-186.538666-11.221333z" fill="#000000" /><path d="M315.797333 606.250667c31.530667 30.229333 100.053333 62.912 142.336 77.653333-32.384-4.010667-120.384-26.112-147.093333-57.173333-3.242667-9.258667-1.984-15.872 4.757333-20.48zM687.68 606.250667c-31.530667 30.229333-100.053333 62.912-142.336 77.653333 32.384-4.010667 120.384-26.112 147.093333-57.173333 3.242667-9.258667 1.984-15.872-4.757333-20.48z" fill="#000000" /><path d="M106.666667 74.986667a3.754667 3.754667 0 0 0 2.666666-1.130667 3.498667 3.498667 0 0 0 1.173334-2.602667v-13.013333h22.506666v10.453333c0 1.066667 0.384 1.962667 1.109334 2.709334a3.584 3.584 0 0 0 2.624 1.130666c1.066667 0 1.984-0.384 2.709333-1.109333a3.712 3.712 0 0 0 1.130667-2.730667v-14.293333a3.52 3.52 0 0 0-1.130667-2.666667 3.797333 3.797333 0 0 0-2.709333-1.066666H110.506667v-2.773334h26.24a3.584 3.584 0 0 0 2.602666-1.130666 3.584 3.584 0 0 0 1.130667-2.602667 3.712 3.712 0 0 0-1.130667-2.709333 3.584 3.584 0 0 0-2.602666-1.130667H76.586667a3.712 3.712 0 0 0-2.709334 1.109333 3.712 3.712 0 0 0-1.130666 2.730667c0 1.002667 0.384 1.877333 1.109333 2.624a3.712 3.712 0 0 0 2.730667 1.109333h26.24v2.773334H76.48a3.669333 3.669333 0 0 0-2.624 1.066666 3.52 3.52 0 0 0-1.109333 2.666667v14.293333c0 1.066667 0.384 1.962667 1.109333 2.709334a3.584 3.584 0 0 0 2.624 1.130666c1.066667 0 1.984-0.384 2.709333-1.109333a3.712 3.712 0 0 0 1.130667-2.730667v-10.453333H102.826667v13.013333c0 1.002667 0.384 1.877333 1.173333 2.624A3.754667 3.754667 0 0 0 106.666667 74.965333z m-11.626667-8.533334a3.2 3.2 0 0 0 2.346667-0.96 3.2 3.2 0 0 0 0.96-2.346666 3.2 3.2 0 0 0-0.96-2.346667 3.2 3.2 0 0 0-2.346667-0.96h-7.253333a3.370667 3.370667 0 0 0-2.389334 0.96 3.114667 3.114667 0 0 0-1.024 2.346667c0 0.917333 0.341333 1.706667 1.024 2.346666 0.661333 0.64 1.472 0.96 2.389334 0.96h7.253333z m30.613333 0c0.853333 0 1.621333-0.32 2.282667-0.96a3.114667 3.114667 0 0 0 1.024-2.346666 3.114667 3.114667 0 0 0-1.024-2.346667 3.242667 3.242667 0 0 0-2.282667-0.96h-7.253333a3.370667 3.370667 0 0 0-2.389333 0.96 3.114667 3.114667 0 0 0-1.024 2.346667c0 0.917333 0.341333 1.706667 1.024 2.346666 0.661333 0.64 1.472 0.96 2.389333 0.96h7.253333z m-53.333333 41.386667a199.658667 199.658667 0 0 0 32.533333-7.36c2.709333 0.704 5.397333 1.344 8.106667 1.92 9.173333 1.984 19.306667 3.669333 30.4 5.013333a3.818667 3.818667 0 0 0 4.16-3.413333 3.946667 3.946667 0 0 0-0.789333-2.773333 3.626667 3.626667 0 0 0-2.517334-1.386667c-9.749333-1.066667-18.730667-2.453333-26.986666-4.16a75.946667 75.946667 0 0 0 15.68-9.706667 5.184 5.184 0 0 0 1.109333-1.344 3.349333 3.349333 0 0 0 0.490667-1.749333 3.52 3.52 0 0 0-1.109334-2.666667 3.797333 3.797333 0 0 0-2.730666-1.066666h-36.906667c0.789333-1.557333 0.64-2.986667-0.426667-4.266667l-0.32-0.32h2.026667a3.2 3.2 0 0 0 2.346667-0.96 3.2 3.2 0 0 0 0.96-2.346667 3.2 3.2 0 0 0-0.96-2.346666 3.2 3.2 0 0 0-2.346667-0.96h-7.253333a3.370667 3.370667 0 0 0-2.389334 0.96 3.114667 3.114667 0 0 0-1.024 2.346666c0 0.917333 0.32 1.706667 0.96 2.346667a3.2 3.2 0 0 0 2.346667 0.96l-6.506667 5.333333a3.989333 3.989333 0 0 0-1.344 2.624A3.904 3.904 0 0 0 80.64 85.333333c0.853333 0.853333 1.813333 1.28 2.88 1.28v0.106667H118.186667a92.8 92.8 0 0 1-13.546667 5.866667 146.944 146.944 0 0 1-15.36-4.693334 4.117333 4.117333 0 0 0-2.922667 0.213334 4.010667 4.010667 0 0 0-1.984 2.133333 4.117333 4.117333 0 0 0 0.213334 2.922667c0.426667 0.896 1.130667 1.557333 2.133333 1.984l4.266667 1.386666c-6.122667 1.493333-12.693333 2.730667-19.733334 3.733334a4.053333 4.053333 0 0 0-2.496 1.493333 3.584 3.584 0 0 0-0.704 2.773333c0.149333 1.066667 0.64 1.92 1.429334 2.496 0.832 0.618667 1.770667 0.874667 2.837333 0.810667z m53.333333-33.28c0.853333 0 1.621333-0.32 2.282667-0.96a3.114667 3.114667 0 0 0 1.024-2.346667 3.114667 3.114667 0 0 0-1.024-2.346666 3.242667 3.242667 0 0 0-2.282667-0.96h-7.253333a3.370667 3.370667 0 0 0-2.389333 0.96 3.114667 3.114667 0 0 0-1.024 2.346666c0 0.917333 0.341333 1.706667 1.024 2.346667 0.661333 0.64 1.472 0.96 2.389333 0.96h7.253333zM75.946667 136.32a3.690667 3.690667 0 0 0 2.88-0.106667c5.696-2.624 11.029333-6.656 16-12.053333 2.133333-2.282667 4.117333-4.842667 5.973333-7.68h26.24v16.213333c0 1.066667 0.384 1.984 1.173333 2.730667a3.754667 3.754667 0 0 0 2.666667 1.109333c1.066667 0 1.984-0.384 2.730667-1.130666a3.712 3.712 0 0 0 1.109333-2.709334v-19.946666a3.349333 3.349333 0 0 0-1.237333-2.730667 4.458667 4.458667 0 0 0-2.922667-1.002667H104.746667l0.426666-0.853333a5.845333 5.845333 0 0 1 0.32-0.746667 3.669333 3.669333 0 0 0-0.106666-2.88 3.968 3.968 0 0 0-2.133334-2.026666 4.224 4.224 0 0 0-2.88 0.170666 3.370667 3.370667 0 0 0-1.92 2.069334 38.826667 38.826667 0 0 1-1.92 4.266666H82.346667a3.84 3.84 0 0 0-2.666667 1.066667 3.456 3.456 0 0 0-1.173333 2.666667c0 1.002667 0.384 1.856 1.173333 2.602666a3.754667 3.754667 0 0 0 2.666667 1.130667h9.066666a18.304 18.304 0 0 1-1.493333 1.706667 43.456 43.456 0 0 1-14.293333 11.093333 4.010667 4.010667 0 0 0-1.92 2.133333 3.690667 3.690667 0 0 0 0.106666 2.88 3.946667 3.946667 0 0 0 2.133334 2.026667z m120.853333-60.373333c1.066667 0 1.984-0.384 2.709333-1.130667a3.712 3.712 0 0 0 1.130667-2.709333v-12.693334h23.573333v8.32c0 1.066667 0.384 1.984 1.130667 2.730667a3.584 3.584 0 0 0 2.602667 1.109333c1.066667 0 1.962667-0.384 2.709333-1.109333a3.712 3.712 0 0 0 1.130667-2.730667v-12.16a3.712 3.712 0 0 0-1.130667-2.709333 3.712 3.712 0 0 0-2.709333-1.130667h-27.306667v-3.413333h27.306667a3.584 3.584 0 0 0 2.602666-1.130667 3.712 3.712 0 0 0 1.130667-2.709333 3.52 3.52 0 0 0-1.130667-2.666667 3.669333 3.669333 0 0 0-2.602666-1.066666h-62.08a3.989333 3.989333 0 0 0-2.773334 1.066666 3.456 3.456 0 0 0-1.173333 2.666667c0 1.066667 0.384 1.984 1.173333 2.709333 0.789333 0.746667 1.706667 1.130667 2.773334 1.130667H193.066667v3.413333H165.76a3.754667 3.754667 0 0 0-2.666667 1.130667 3.626667 3.626667 0 0 0-1.173333 2.709333v12.16c0 1.066667 0.384 1.984 1.173333 2.730667a3.754667 3.754667 0 0 0 2.666667 1.109333c1.066667 0 1.984-0.384 2.730667-1.109333a3.712 3.712 0 0 0 1.109333-2.730667v-8.32h23.466667v12.693334c0 1.066667 0.384 1.984 1.109333 2.709333a3.584 3.584 0 0 0 2.624 1.130667z m-12.16-8.32a3.370667 3.370667 0 0 0 3.306667-3.413334 3.029333 3.029333 0 0 0-0.96-2.304 3.285333 3.285333 0 0 0-2.346667-0.896h-7.253333a3.477333 3.477333 0 0 0-2.389334 0.896 2.944 2.944 0 0 0-1.024 2.304c0 0.917333 0.341333 1.706667 1.024 2.410667 0.661333 0.661333 1.472 1.002667 2.389334 1.002667h7.253333z m31.786667 0a2.986667 2.986667 0 0 0 2.24-1.002667 3.370667 3.370667 0 0 0 0.96-2.410667 3.029333 3.029333 0 0 0-0.96-2.282666 3.157333 3.157333 0 0 0-2.24-0.917334H209.066667a3.285333 3.285333 0 0 0-2.346667 0.896 3.029333 3.029333 0 0 0-0.96 2.304c0 0.917333 0.32 1.706667 0.96 2.410667 0.64 0.661333 1.429333 1.002667 2.346667 1.002667h7.36z m-31.786667 8.213333c0.917333 0 1.706667-0.341333 2.346667-1.024a3.370667 3.370667 0 0 0 0.96-2.389333 3.029333 3.029333 0 0 0-0.96-2.282667 3.285333 3.285333 0 0 0-2.346667-0.917333h-7.253333a3.477333 3.477333 0 0 0-2.389334 0.896 2.944 2.944 0 0 0-1.024 2.304c0 0.917333 0.341333 1.706667 1.024 2.389333 0.661333 0.682667 1.472 1.024 2.389334 1.024h7.253333z m31.786667 0a2.986667 2.986667 0 0 0 2.24-1.024 3.370667 3.370667 0 0 0 0.96-2.389333 3.029333 3.029333 0 0 0-0.96-2.282667 3.157333 3.157333 0 0 0-2.24-0.917333H209.066667a3.285333 3.285333 0 0 0-2.346667 0.896 3.029333 3.029333 0 0 0-0.96 2.304c0 0.917333 0.32 1.706667 0.96 2.389333s1.429333 1.024 2.346667 1.024h7.36z m-52.992 15.466667l1.045333-0.213334 20.8-6.826666a3.797333 3.797333 0 0 0 2.176-1.877334 3.946667 3.946667 0 0 0 0.277333-2.922666 3.797333 3.797333 0 0 0-1.877333-2.197334 3.626667 3.626667 0 0 0-2.922667-0.149333l-20.8 6.826667a3.797333 3.797333 0 0 0-2.197333 1.856 3.413333 3.413333 0 0 0-0.149333 2.837333c0.277333 1.066667 0.853333 1.834667 1.749333 2.282667a3.626667 3.626667 0 0 0 2.944 0.170666l-1.045333 0.213334z m68.458666 43.52a3.584 3.584 0 0 0 2.624-1.130667 3.712 3.712 0 0 0 1.109334-2.709333 3.584 3.584 0 0 0-1.130667-2.602667 3.584 3.584 0 0 0-2.602667-1.130667h-15.36v-6.826666h12.16a3.584 3.584 0 0 0 2.602667-1.109334 3.712 3.712 0 0 0 1.130667-2.730666 3.712 3.712 0 0 0-1.130667-2.709334 3.584 3.584 0 0 0-2.602667-1.130666h-12.16v-4.266667h10.88c1.066667 0 1.962667-0.384 2.709334-1.130667a3.584 3.584 0 0 0 1.130666-2.602666V82.986667a3.712 3.712 0 0 0-1.130666-2.709334 3.712 3.712 0 0 0-2.709334-1.130666H198.08a3.712 3.712 0 0 0-2.709333 1.130666 3.712 3.712 0 0 0-1.130667 2.709334v21.76c0 1.002667 0.384 1.856 1.130667 2.602666a3.712 3.712 0 0 0 2.709333 1.130667h10.773333v4.266667h-12.053333a3.712 3.712 0 0 0-2.709333 1.130666 3.712 3.712 0 0 0-1.130667 2.709334c0 1.066667 0.384 1.984 1.130667 2.730666a3.712 3.712 0 0 0 2.709333 1.109334h12.053333v6.826666h-15.253333a3.52 3.52 0 0 0-2.666667 1.130667 3.669333 3.669333 0 0 0-1.066666 2.602667c0 1.066667 0.362667 1.984 1.066666 2.730666a3.52 3.52 0 0 0 2.666667 1.109334h38.293333z m-53.162666 2.026666a3.797333 3.797333 0 0 0 2.602666-1.066666c1.706667-1.706667 3.157333-3.626667 4.373334-5.76 2.709333-4.906667 3.904-10.133333 3.626666-15.68a23.402667 23.402667 0 0 0-6.826666-15.04l7.573333-2.666667a3.050667 3.050667 0 0 0 2.090667-1.813333 4.224 4.224 0 0 0 0.149333-2.88 3.584 3.584 0 0 0-1.92-2.24 3.669333 3.669333 0 0 0-2.88-0.106667l-3.306667 1.066667-1.066666-1.6a3.690667 3.690667 0 0 0-2.410667-1.642667 3.904 3.904 0 0 0-4.48 2.986667c-0.170667 0.938667 0.021333 1.898667 0.597333 2.816v0.106666l-3.2 1.066667-1.28-1.813333a3.797333 3.797333 0 0 0-2.389333-1.536 3.669333 3.669333 0 0 0-2.837333 0.682666 3.797333 3.797333 0 0 0-1.536 2.389334c-0.192 0.96 0 1.92 0.576 2.837333v0.106667l-4.16 1.386666a4.010667 4.010667 0 0 0-2.133334 1.962667 3.541333 3.541333 0 0 0-0.106666 2.837333c0.362667 1.002667 0.981333 1.706667 1.856 2.133334 0.896 0.426667 1.877333 0.490667 2.944 0.213333l9.6-3.413333c0.917333 0.64 1.706667 1.237333 2.346666 1.813333A1.92 1.92 0 0 0 177.066667 104.533333l0.533333 0.64-12.586667 4.8a3.605333 3.605333 0 0 0-2.133333 1.856 3.797333 3.797333 0 0 0 1.92 5.077334c0.917333 0.426667 1.877333 0.469333 2.88 0.106666l13.653333-5.12 0.533334 2.773334-18.453334 7.786666a3.733333 3.733333 0 0 0-2.026666 5.013334c0.426667 1.002667 1.109333 1.706667 2.026666 2.090666a3.541333 3.541333 0 0 0 2.88-0.064l13.973334-5.866666a9.557333 9.557333 0 0 1-1.173334 2.666666 30.08 30.08 0 0 1-3.093333 4.16 3.626667 3.626667 0 0 0-1.173333 2.602667c0 0.96 0.384 1.877333 1.173333 2.730667 0.853333 0.704 1.749333 1.066667 2.709333 1.066666z" fill="#000000" /></svg>