<?xml version="1.0" standalone="no"?>
<!DOCTYPE svg PUBLIC "-//W3C//DTD SVG 1.1//EN" "http://www.w3.org/Graphics/SVG/1.1/DTD/svg11.dtd">
<svg class="icon" style="width: 1em;height: 1em;vertical-align: middle;fill: currentColor;overflow: hidden;" viewBox="0 0 1024 1024" version="1.1" xmlns="http://www.w3.org/2000/svg"><path d="M415.146667 292.138667c0 215.808 170.026667 390.741333 379.754666 390.741333 42.837333 0 84.010667-7.296 122.432-20.736C857.898667 811.84 714.965333 917.333333 548.053333 917.333333 327.872 917.333333 149.333333 733.653333 149.333333 507.050667 149.333333 311.381333 282.453333 147.712 460.565333 106.666667a398.122667 398.122667 0 0 0-45.397333 185.472z" fill="#FFE34F" /><path d="M349.44 151.210667A388.394667 388.394667 0 0 0 204.394667 454.4c0 214.677333 173.525333 388.693333 387.562666 388.693333 133.866667 0 251.882667-68.053333 321.493334-171.584C851.882667 816.234667 711.466667 917.333333 548.074667 917.333333 327.850667 917.333333 149.333333 733.653333 149.333333 507.050667c0-150.101333 78.336-281.386667 195.221334-352.896l4.864-2.944z" fill="#FFD332" /><path d="M460.565333 106.666667a398.122667 398.122667 0 0 0-45.397333 185.472c0 215.808 170.026667 390.741333 379.733333 390.741333 42.837333 0 84.010667-7.296 122.432-20.736C857.898667 811.84 714.965333 917.333333 548.053333 917.333333 327.872 917.333333 149.333333 733.653333 149.333333 507.050667 149.333333 311.381333 282.453333 147.712 460.565333 106.666667z m-32.704 30.208l1.514667-3.690667-1.28 0.426667C274.304 185.984 166.4 335.189333 166.4 507.072 166.4 724.330667 337.386667 900.266667 548.053333 900.266667c143.104 0 271.530667-81.898667 336.917334-208.213334l1.536-3.072-5.12 1.258667a387.306667 387.306667 0 0 1-75.477334 9.557333l-11.008 0.149334c-219.264 0-396.8-182.698667-396.8-407.808 0-54.016 10.24-106.538667 29.76-155.264z" fill="#000000" /><path d="M764.16 366.357333l-56.64 28.458667a8.533333 8.533333 0 0 1-12.266667-8.917333l9.536-62.677334a8.533333 8.533333 0 0 0-2.346666-7.274666l-44.586667-45.098667a8.533333 8.533333 0 0 1 4.693333-14.421333l62.570667-10.282667a8.533333 8.533333 0 0 0 6.186667-4.48l29.12-56.32a8.533333 8.533333 0 0 1 15.146666 0l29.12 56.32a8.533333 8.533333 0 0 0 6.186667 4.48l62.570667 10.282667a8.533333 8.533333 0 0 1 4.693333 14.421333l-44.586667 45.098667a8.533333 8.533333 0 0 0-2.346666 7.274666l9.536 62.677334a8.533333 8.533333 0 0 1-12.266667 8.917333l-56.64-28.458667a8.533333 8.533333 0 0 0-7.68 0z" fill="#FFE34F" /><path d="M771.925333 181.674667a8.533333 8.533333 0 0 1 3.648 3.648l29.12 56.32a8.533333 8.533333 0 0 0 6.186667 4.501333l62.570667 10.282667a8.533333 8.533333 0 0 1 4.693333 14.421333l-44.586667 45.098667a8.533333 8.533333 0 0 0-2.346666 7.274666l9.536 62.677334a8.533333 8.533333 0 0 1-12.266667 8.917333l-56.64-28.458667a8.533333 8.533333 0 0 0-7.68 0l-56.64 28.458667a8.533333 8.533333 0 0 1-12.266667-8.917333l9.536-62.677334a8.533333 8.533333 0 0 0-2.346666-7.274666l-44.586667-45.098667a8.533333 8.533333 0 0 1 4.693333-14.421333l62.570667-10.282667a8.533333 8.533333 0 0 0 6.186667-4.48l29.12-56.32a8.533333 8.533333 0 0 1 11.498666-3.669333zM768 207.829333l-21.546667 41.664a25.6 25.6 0 0 1-15.637333 12.842667l-2.944 0.64-46.272 7.594667 32.981333 33.386666a25.6 25.6 0 0 1 7.36 18.837334l-0.277333 2.986666-7.061333 46.357334 41.898666-21.034667a25.6 25.6 0 0 1 20.224-1.173333l2.773334 1.173333 41.877333 21.034667-7.04-46.336a25.6 25.6 0 0 1 5.12-19.584l1.962667-2.261334 32.96-33.386666-46.250667-7.573334a25.6 25.6 0 0 1-17.066667-10.922666l-1.536-2.581334L768 207.829333zM286.762667 460.010667a10.666667 10.666667 0 0 1 14.592 3.84c9.258667 15.808 37.013333 22.826667 55.146666 14.912a10.666667 10.666667 0 0 1 8.533334 19.562666c-27.52 11.989333-67.029333 2.005333-82.090667-23.722666a10.666667 10.666667 0 0 1 3.84-14.592zM477.013333 536.149333a10.666667 10.666667 0 0 1 15.466667 14.72c-9.6 10.069333-25.685333 17.578667-40.661333 19.2a10.666667 10.666667 0 0 1-2.304-21.205333c10.112-1.088 21.525333-6.4 27.498666-12.714667zM549.034667 661.610667a10.666667 10.666667 0 0 1 16.981333 12.906666c-31.445333 41.386667-79.808 67.584-131.861333 67.584a10.666667 10.666667 0 0 1 0-21.333333c45.077333 0 87.317333-22.890667 114.88-59.157333z" fill="#000000" /><path d="M443.136 732.928m-21.333333 0a21.333333 21.333333 0 1 0 42.666666 0 21.333333 21.333333 0 1 0-42.666666 0Z" fill="#000000" /><path d="M162.666667 96.426667c1.066667 0 1.984-0.362667 2.730666-1.109334a3.584 3.584 0 0 0 1.109334-2.624 3.712 3.712 0 0 0-1.109334-2.709333 3.712 3.712 0 0 0-2.730666-1.130667H131.84V84.693333a3.754667 3.754667 0 0 0-1.109333-2.666666 3.626667 3.626667 0 0 0-5.333334 0 3.754667 3.754667 0 0 0-1.130666 2.666666v4.16h-30.293334a3.712 3.712 0 0 0-2.730666 1.130667 3.712 3.712 0 0 0-1.109334 2.709333c0 1.002667 0.384 1.877333 1.130667 2.624a3.712 3.712 0 0 0 2.709333 1.109334h68.693334z m1.685333 83.072l0.981333-0.042667a4.437333 4.437333 0 0 0 2.56-1.429333 3.989333 3.989333 0 0 0 0.576-2.88 3.84 3.84 0 0 0-1.536-2.453334 135.189333 135.189333 0 0 1-21.973333-22.506666 120.704 120.704 0 0 0 16-36.586667 3.584 3.584 0 0 0-0.896-3.797333 3.712 3.712 0 0 0-2.730667-1.109334h-28.586666l1.813333-5.12a4.117333 4.117333 0 0 0-0.213333-2.944 3.605333 3.605333 0 0 0-2.133334-1.856 3.797333 3.797333 0 0 0-2.944 0.106667 3.626667 3.626667 0 0 0-1.856 2.24l-3.52 10.133333a3.968 3.968 0 0 0 0.213334 2.88c0.426667 0.853333 1.130667 1.493333 2.133333 1.92 0.490667 0.149333 0.896 0.213333 1.173333 0.213334H152.32c-2.709333 9.450667-6.826667 18.602667-12.373333 27.413333a147.370667 147.370667 0 0 1-12.053334-20.8 3.541333 3.541333 0 0 0-2.090666-2.026667 3.562667 3.562667 0 0 0-2.816 0.106667 3.541333 3.541333 0 0 0-2.026667 2.090667 3.84 3.84 0 0 0 0.106667 2.922666c3.626667 8.170667 8.469333 16.32 14.506666 24.426667-6.4 8.96-13.610667 16.362667-21.653333 22.186667a4.053333 4.053333 0 0 0-1.6 2.410666 3.690667 3.690667 0 0 0 0.533333 2.816c0.576 0.917333 1.344 1.493333 2.346667 1.642667 1.002667 0.192 1.962667 0 2.88-0.576 8.32-5.973333 15.744-13.376 22.293333-22.186667 7.189333 8.682667 14.549333 16.042667 22.08 22.08 0.917333 0.64 1.877333 0.853333 2.88 0.682667l-0.981333 0.042667z m-59.178667 0.021333a3.669333 3.669333 0 0 0 2.624-1.066667 3.52 3.52 0 0 0 1.109334-2.666666V118.933333c2.133333-4.544 3.946667-9.749333 5.44-15.573333a3.989333 3.989333 0 0 0-0.426667-2.88 3.328 3.328 0 0 0-2.346667-1.6 3.797333 3.797333 0 0 0-2.88 0.277333 3.157333 3.157333 0 0 0-1.6 2.282667 84.138667 84.138667 0 0 1-5.653333 15.36 9.557333 9.557333 0 0 1-0.853333 1.706667l-0.426667 0.853333c-2.837333 4.906667-6.357333 9.536-10.56 13.866667a3.797333 3.797333 0 0 0-1.066667 2.602666c0 0.96 0.362667 1.877333 1.066667 2.730667 0.789333 0.704 1.664 1.066667 2.666667 1.024a4.501333 4.501333 0 0 0 2.773333-1.130667c2.197333-2.282667 4.266667-4.629333 6.186667-7.04v44.373334c0 1.066667 0.384 1.962667 1.173333 2.666666 0.789333 0.704 1.706667 1.066667 2.773333 1.066667z m33.92-45.866667c1.066667 0 1.984-0.384 2.730667-1.109333A3.584 3.584 0 0 0 142.933333 129.92v-6.933333a3.584 3.584 0 0 0-1.130666-2.602667 3.712 3.712 0 0 0-2.709334-1.130667 3.584 3.584 0 0 0-2.602666 1.130667 3.584 3.584 0 0 0-1.130667 2.602667v6.933333c0 1.002667 0.384 1.877333 1.130667 2.624a3.584 3.584 0 0 0 2.602666 1.109333z m62.08-33.706666a3.413333 3.413333 0 0 0 2.773334-0.853334 4.138667 4.138667 0 0 0 1.386666-2.496 3.541333 3.541333 0 0 0-0.746666-2.730666l-8.426667-10.986667a3.626667 3.626667 0 0 0-2.453333-1.493333 3.733333 3.733333 0 0 0-2.88 0.853333 3.754667 3.754667 0 0 0-1.386667 2.453333 3.861333 3.861333 0 0 0 0.64 2.773334l8.533333 10.986666c0.704 0.853333 1.557333 1.344 2.56 1.493334zM252.053333 179.2c1.066667 0 1.984-0.384 2.730667-1.130667a3.584 3.584 0 0 0 1.109333-2.602666v-86.4a3.52 3.52 0 0 0-1.109333-2.666667 3.797333 3.797333 0 0 0-2.730667-1.066667H210.773333a3.626667 3.626667 0 0 0-3.733333 3.733334c0 1.066667 0.362667 1.984 1.066667 2.730666a3.52 3.52 0 0 0 2.666666 1.109334h37.546667v82.56c0 1.002667 0.384 1.877333 1.130667 2.624a3.584 3.584 0 0 0 2.602666 1.109333z m-61.546666 0a3.584 3.584 0 0 0 2.624-1.130667 3.584 3.584 0 0 0 1.109333-2.602666V101.546667a3.712 3.712 0 0 0-1.130667-2.709334 3.584 3.584 0 0 0-2.602666-1.130666 3.712 3.712 0 0 0-2.709334 1.130666 3.712 3.712 0 0 0-1.130666 2.709334v73.92c0 1.002667 0.384 1.877333 1.130666 2.624a3.712 3.712 0 0 0 2.709334 1.109333z m43.306666-20.48a3.584 3.584 0 0 0 2.602667-1.130667 3.584 3.584 0 0 0 1.130667-2.602666V108.8a3.754667 3.754667 0 0 0-1.130667-2.666667 3.498667 3.498667 0 0 0-2.602667-1.173333H208.746667a3.626667 3.626667 0 0 0-2.709334 1.173333 3.754667 3.754667 0 0 0-1.130666 2.666667v46.186667c0 1.002667 0.384 1.877333 1.130666 2.624a3.712 3.712 0 0 0 2.709334 1.109333h25.066666z m-3.84-32.96h-17.493333V112.64h17.493333v13.12z m0 25.386667h-17.493333V133.333333h17.493333v17.813334z m118.186667-31.573334a3.584 3.584 0 0 0 2.602667-1.130666 3.584 3.584 0 0 0 1.130666-2.602667 3.712 3.712 0 0 0-1.130666-2.709333 3.584 3.584 0 0 0-2.602667-1.130667h-19.626667v-4.48h12.48c1.066667 0 1.984-0.384 2.730667-1.130667a3.712 3.712 0 0 0 1.109333-2.709333 3.584 3.584 0 0 0-1.109333-2.624 3.712 3.712 0 0 0-2.730667-1.109333H328.533333v-3.84h14.613334c1.066667 0 1.962667-0.384 2.709333-1.130667a3.712 3.712 0 0 0 1.130667-2.709333 3.52 3.52 0 0 0-1.130667-2.666667 3.797333 3.797333 0 0 0-2.709333-1.066667H328.533333v-5.12a3.797333 3.797333 0 0 0-1.066666-2.709333 3.52 3.52 0 0 0-2.666667-1.130667 3.712 3.712 0 0 0-2.709333 1.130667 3.712 3.712 0 0 0-1.130667 2.709333v5.12h-14.506667a3.797333 3.797333 0 0 0-2.709333 1.066667 3.52 3.52 0 0 0-1.130667 2.666667c0 1.066667 0.384 1.984 1.130667 2.709333a3.712 3.712 0 0 0 2.709333 1.130667h14.506667v3.84h-12.373333a3.712 3.712 0 0 0-2.709334 1.130666 3.584 3.584 0 0 0-1.130666 2.602667c0 1.066667 0.384 1.962667 1.130666 2.709333a3.712 3.712 0 0 0 2.709334 1.130667h12.373333v4.48h-19.306667a3.52 3.52 0 0 0-2.666666 1.130667 3.797333 3.797333 0 0 0-1.066667 2.709333c0 1.002667 0.362667 1.877333 1.066667 2.624a3.52 3.52 0 0 0 2.666666 1.109333h46.506667z m-55.466667 46.613334a3.584 3.584 0 0 0 2.602667-1.130667 3.712 3.712 0 0 0 1.130667-2.709333V91.84a3.584 3.584 0 0 0-1.130667-2.602667 3.584 3.584 0 0 0-2.602667-1.130666h-16.853333a3.52 3.52 0 0 0-2.666667 1.130666 3.669333 3.669333 0 0 0-1.066666 2.602667V162.346667c0 1.066667 0.362667 1.962667 1.066666 2.709333a3.52 3.52 0 0 0 2.666667 1.130667h16.853333z m-3.946666-47.893334h-9.173334v-22.613333h9.173334v22.613333z m51.626666 62.293334c1.066667 0 1.962667-0.362667 2.709334-1.066667a3.52 3.52 0 0 0 1.130666-2.666667V127.466667a3.584 3.584 0 0 0-1.130666-2.602667 3.712 3.712 0 0 0-2.709334-1.130667h-29.866666a3.712 3.712 0 0 0-2.709334 1.130667 3.584 3.584 0 0 0-1.130666 2.602667v48.853333c0 1.002667 0.384 1.856 1.130666 2.602667a3.712 3.712 0 0 0 2.709334 1.130666c1.066667 0 1.962667-0.384 2.666666-1.130666a3.669333 3.669333 0 0 0 1.066667-2.602667v-18.986667h22.4v19.52a3.626667 3.626667 0 0 0 3.733333 3.733334z m-51.626666-21.973334h-9.173334V125.866667h9.173334v32.746666zM336.64 136.32h-22.4v-5.013333h22.4v5.013333z m0 13.333333h-22.4v-5.76h22.4v5.76z" fill="#000000" /></svg>