<?xml version="1.0" standalone="no"?>
<!DOCTYPE svg PUBLIC "-//W3C//DTD SVG 1.1//EN" "http://www.w3.org/Graphics/SVG/1.1/DTD/svg11.dtd">
<svg class="icon" style="width: 1em;height: 1em;vertical-align: middle;fill: currentColor;overflow: hidden;" viewBox="0 0 1024 1024" version="1.1" xmlns="http://www.w3.org/2000/svg"><path d="M528.512 108.629333c-49.578667 31.488-86.4 69.12-110.378667 112.896l1.770667-1.557333c72.384-64.064 181.952-80.234667 328.661333-48.554667-57.898667-0.576-108.608 10.602667-152.149333 33.557334 94.762667-15.018667 195.562667 29.44 302.442667 133.333333-50.304-32.149333-100.757333-49.642667-151.36-52.48l-2.048-0.853333c91.946667 36.906667 154.944 130.218667 188.992 279.893333-24.448-53.824-56.853333-95.68-97.216-125.589333l1.770666 2.645333c53.333333 80.597333 54.122667 191.36 2.325334 332.224 8.682667-57.6 4.565333-109.696-12.373334-156.224 2.026667 96.213333-56.021333 190.122667-174.08 281.749333 39.04-45.610667 63.445333-93.44 73.173334-143.488l-2.624 4.437334c-50.517333 82.410667-150.549333 129.92-300.117334 142.506666 57.066667-16.810667 103.253333-43.306667 138.581334-79.466666l2.325333-1.173334c-88.192 45.184-199.936 31.509333-335.232-41.002666 56.490667 16.810667 109.205333 19.861333 158.122667 9.130666l3.776 0.426667c-98.56-10.154667-184.832-82.474667-258.816-216.96 37.653333 44.181333 79.488 75.178667 125.546666 92.949333-73.685333-61.653333-106.389333-166.954667-98.069333-315.946666 8.746667 59.2 28.757333 108.885333 59.968 149.013333l-1.493333-4.544c-29.056-92.181333 0.725333-198.848 89.344-320-24.661333 53.952-34.986667 106.026667-30.976 156.245333l0.938666-3.456c25.813333-93.141333 108.906667-166.4 249.194667-219.733333z m5.738667 269.248a128 128 0 1 0 0 256 128 128 0 0 0 0-256z" fill="#70C5FF" /><path d="M531.605333 509.354667m-232.021333 0a232.021333 232.021333 0 1 0 464.042667 0 232.021333 232.021333 0 1 0-464.042667 0Z" fill="#E0F7FF" /><path d="M531.605333 277.333333c128.128 0 232.021333 103.893333 232.021334 232.021334 0 128.128-103.893333 232.021333-232.021334 232.021333C403.456 741.376 299.584 637.482667 299.584 509.354667 299.584 381.205333 403.477333 277.333333 531.605333 277.333333z m0 21.333334C415.253333 298.666667 320.917333 393.002667 320.917333 509.354667s94.336 210.688 210.688 210.688 210.688-94.336 210.688-210.688S647.957333 298.666667 531.605333 298.666667z" fill="#000000" /><path d="M612.992 361.173333a103.466667 103.466667 0 1 1-81.408 167.274667 103.466667 103.466667 0 1 1 0-127.701333 103.210667 103.210667 0 0 1 81.408-39.594667z m0 21.333334a81.813333 81.813333 0 0 0-61.610667 27.818666l-2.986666 3.605334-16.768 21.376-16.789334-21.376a82.133333 82.133333 0 1 0-3.029333 104.96l2.986667-3.605334 16.789333-21.376 16.789333 21.376a82.133333 82.133333 0 1 0 64.64-132.778666z" fill="#000000" /><path d="M475.072 458.56m-26.666667 0a26.666667 26.666667 0 1 0 53.333334 0 26.666667 26.666667 0 1 0-53.333334 0Z" fill="#000000" /><path d="M588.138667 458.56m-26.666667 0a26.666667 26.666667 0 1 0 53.333333 0 26.666667 26.666667 0 1 0-53.333333 0Z" fill="#000000" /><path d="M647.232 665.173333c23.594667 0 36.906667-15.530667 43.648-38.506666 6.72-22.976-3.2-82.858667-28.757333-117.333334-9.109333 28.117333-55.317333 89.344-55.317334 115.413334 0 26.090667 16.832 40.448 40.426667 40.448z" fill="#80F3FF" /><path d="M662.122667 509.354667c25.536 34.453333 35.477333 94.336 28.757333 117.312-6.72 22.976-20.053333 38.528-43.648 38.528-23.594667 0-40.426667-14.357333-40.426667-40.426667 0-10.218667 7.061333-25.813333 16.213334-42.666667l6.378666-11.413333 16.426667-28.394667 5.952-10.624c4.629333-8.533333 8.362667-16.213333 10.346667-22.314666z m1.173333 51.050666l-1.216-3.626666-14.186667 24.533333-4.949333 8.896-4.245333 7.914667-1.834667 3.626666-3.157333 6.485334-2.453334 5.546666c-2.090667 5.077333-3.114667 8.725333-3.114666 10.986667 0 13.205333 6.144 19.093333 19.093333 19.093333 11.434667 0 18.282667-6.506667 23.168-23.189333 3.498667-11.946667 0.405333-36.821333-7.104-60.266667z" fill="#000000" /><path d="M138.986667 77.12c0.853333 0 1.6-0.213333 2.24-0.64a3.882667 3.882667 0 0 0 1.6-2.56 3.861333 3.861333 0 0 0-0.64-2.773333l-16.426667-22.72a3.349333 3.349333 0 0 0-2.453333-1.557334 4.074667 4.074667 0 0 0-2.773334 0.704 3.498667 3.498667 0 0 0-1.6 2.389334 4.117333 4.117333 0 0 0 0.64 2.837333l12.053334 16.746667H86.72l17.386667-25.493334a3.797333 3.797333 0 0 0 0.533333-2.88 4.053333 4.053333 0 0 0-1.6-2.453333 4.202667 4.202667 0 0 0-2.837333-0.469333 3.797333 3.797333 0 0 0-2.389334 1.536l-21.226666 31.146666a4.501333 4.501333 0 0 0-0.746667 2.453334c0 1.066667 0.362667 1.962667 1.109333 2.666666 0.746667 0.704 1.621333 1.066667 2.624 1.066667h59.413334z m-4.906667 57.066667c1.066667 0 1.962667-0.384 2.666667-1.130667a3.797333 3.797333 0 0 0 1.066666-2.709333V90.346667a3.626667 3.626667 0 0 0-3.733333-3.733334h-49.493333a3.797333 3.797333 0 0 0-2.709334 1.066667 3.52 3.52 0 0 0-1.130666 2.666667V130.346667c0 1.066667 0.384 1.962667 1.109333 2.709333a3.712 3.712 0 0 0 2.730667 1.130667h49.493333z m-3.84-7.573334H88.32V94.08h41.92v32.533333z m103.978667 9.728l0.981333-0.234666a4.181333 4.181333 0 0 0 2.090667-2.133334 3.84 3.84 0 0 0 0.042666-2.88 165.653333 165.653333 0 0 1-9.813333-40.32 451.754667 451.754667 0 0 1-2.773333-44.906666 4.010667 4.010667 0 0 0-1.130667-2.88 3.626667 3.626667 0 0 0-2.709333-1.173334h-46.08a4.010667 4.010667 0 0 0-2.624 1.237334 3.584 3.584 0 0 0-1.109334 2.602666 457.984 457.984 0 0 1-3.306666 46.4A147.626667 147.626667 0 0 1 157.653333 130.986667a3.968 3.968 0 0 0-0.106666 2.986666 3.584 3.584 0 0 0 1.92 2.026667 3.84 3.84 0 0 0 2.944 0.106667 3.541333 3.541333 0 0 0 2.069333-2.026667 152.832 152.832 0 0 0 10.773333-41.066667c1.770667-13.930667 2.837333-28.437333 3.2-43.52h38.826667c0.277333 14.656 1.216 28.736 2.773333 42.24 1.642667 14.869333 5.056 28.949333 10.24 42.24 0.426667 1.002667 1.109333 1.706667 2.026667 2.090667a3.84 3.84 0 0 0 2.88 0.042667l-0.981333 0.213333z m-21.568-12.074666c0.938667 0.277333 1.92 0.213333 2.922666-0.213334a3.776 3.776 0 0 0 1.6-5.12L201.6 86.613333l10.133333-20.906666a4.202667 4.202667 0 0 0 0.213334-2.944 3.562667 3.562667 0 0 0-1.813334-2.176 3.882667 3.882667 0 0 0-2.922666-0.32 3.882667 3.882667 0 0 0-2.304 1.92l-7.573334 15.786666-7.466666-15.786666a3.52 3.52 0 0 0-2.24-1.92 3.712 3.712 0 0 0-2.88 0.32 3.776 3.776 0 0 0-1.6 5.12l10.026666 20.906666-15.466666 32.32a3.776 3.776 0 0 0 1.6 5.12c0.917333 0.426667 1.877333 0.490667 2.837333 0.213334a3.562667 3.562667 0 0 0 2.176-1.813334l13.013333-27.093333 13.12 27.093333a3.562667 3.562667 0 0 0 2.176 1.813334z" fill="#000000" /></svg>