<?xml version="1.0" standalone="no"?>
<!DOCTYPE svg PUBLIC "-//W3C//DTD SVG 1.1//EN" "http://www.w3.org/Graphics/SVG/1.1/DTD/svg11.dtd">
<svg class="icon" style="width: 1em;height: 1em;vertical-align: middle;fill: currentColor;overflow: hidden;" viewBox="0 0 1024 1024" version="1.1" xmlns="http://www.w3.org/2000/svg"><path d="M613.333333 437.333333m-204.437333 0a204.437333 204.437333 0 1 0 408.874667 0 204.437333 204.437333 0 1 0-408.874667 0Z" fill="#FFE34F" /><path d="M613.333333 232.896a204.437333 204.437333 0 1 1 0 408.874667 204.437333 204.437333 0 0 1 0-408.874667z m0 17.066667a187.370667 187.370667 0 1 0 0 374.741333 187.370667 187.370667 0 0 0 0-374.741333z" fill="#000000" /><path d="M613.333333 682.666667c10.474667 0 19.136 7.893333 20.309334 18.069333l0.128 2.368v81.792a20.437333 20.437333 0 0 1-40.746667 2.368l-0.128-2.368v-81.792c0-11.285333 9.152-20.437333 20.437333-20.437333z m200.469334-73.557334l1.92 1.706667 57.813333 57.813333a20.437333 20.437333 0 0 1-26.965333 30.613334l-1.92-1.706667-57.834667-57.813333a20.437333 20.437333 0 0 1 26.986667-30.613334z m-373.952 1.706667c7.381333 7.36 7.936 18.965333 1.706666 26.986667l-1.706666 1.92-57.813334 57.813333a20.437333 20.437333 0 0 1-30.613333-26.965333l1.706667-1.92 57.813333-57.834667a20.437333 20.437333 0 0 1 28.906667 0z m521.045333-193.92a20.437333 20.437333 0 0 1 2.368 40.746667l-2.368 0.128h-81.792a20.437333 20.437333 0 0 1-2.368-40.746667l2.368-0.128h81.792z m-695.125333 0h81.792a20.437333 20.437333 0 0 1 2.368 40.746667l-2.368 0.128H265.770667a20.437333 20.437333 0 0 1-2.368-40.746667l2.368-0.128h81.792H265.770667z m607.786666-239.786667c7.36 7.381333 7.936 18.986667 1.706667 26.986667l-1.706667 1.92-57.834666 57.834667a20.437333 20.437333 0 0 1-30.613334-26.986667l1.706667-1.92 57.813333-57.813333a20.437333 20.437333 0 0 1 28.928 0z m-520.448 0a20.437333 20.437333 0 0 1 28.928 0l57.813334 57.834667a20.437333 20.437333 0 0 1-28.906667 28.906667l-57.813333-57.813334a20.437333 20.437333 0 0 1 0-28.928zM613.333333 69.333333c10.474667 0 19.136 7.893333 20.309334 18.069334l0.128 2.368v81.792a20.437333 20.437333 0 0 1-40.746667 2.368l-0.128-2.368V89.770667c0-11.285333 9.152-20.437333 20.437333-20.437334z" fill="#FFE34F" /><path d="M266.666667 954.666667c-129.6 0-234.666667-105.066667-234.666667-234.666667 0-69.12 29.866667-131.264 77.44-174.208 37.845333-121.536 151.232-209.792 285.226667-209.792 128.746667 0 238.485333 81.472 280.426666 195.669333 12.8-2.410667 26.026667-3.669333 39.573334-3.669333 117.824 0 213.333333 95.509333 213.333333 213.333333 0 115.84-92.309333 210.090667-207.36 213.248l-5.973333 0.085334h-448z" fill="#FFFFFF" /><path d="M928 741.333333c0 115.84-92.309333 210.090667-207.36 213.248l-5.973333 0.085334h-448c-129.6 0-234.666667-105.066667-234.666667-234.666667 0-5.76 0.213333-11.498667 0.618667-17.173333 8.64 116.565333 104.405333 208.853333 222.4 211.989333l6.229333 0.085333H698.88l5.845333-0.085333c112.405333-3.072 202.56-95.146667 202.56-208.32 0-33.472-7.893333-65.109333-21.930666-93.141333A212.394667 212.394667 0 0 1 928 741.333333z" fill="#D1F1FF" /><path d="M394.666667 336c128.746667 0 238.485333 81.472 280.426666 195.669333 12.8-2.410667 26.026667-3.669333 39.573334-3.669333 117.824 0 213.333333 95.509333 213.333333 213.333333 0 115.84-92.309333 210.090667-207.36 213.248l-5.973333 0.085334h-448c-129.6 0-234.666667-105.066667-234.666667-234.666667 0-69.12 29.866667-131.264 77.44-174.208 37.845333-121.536 151.232-209.792 285.226667-209.792z m0 17.066667c-124.16 0-232.597333 81.066667-268.928 197.802666a17.066667 17.066667 0 0 1-4.864 7.594667A216.96 216.96 0 0 0 49.066667 720c0 118.186667 94.208 214.336 211.626666 217.514667l5.973334 0.085333h447.765333l5.738667-0.085333c106.048-2.901333 190.762667-89.834667 190.762666-196.181334a196.266667 196.266667 0 0 0-232.661333-192.896 17.066667 17.066667 0 0 1-19.2-10.88A281.685333 281.685333 0 0 0 394.666667 353.066667z" fill="#000000" /><path d="M185.962667 762.709333a74.666667 42.666667 0 1 0 149.333333 0 74.666667 42.666667 0 1 0-149.333333 0Z" fill="#FF9DCF" /><path d="M461.802667 762.709333a74.666667 42.666667 0 1 0 149.333333 0 74.666667 42.666667 0 1 0-149.333333 0Z" fill="#FF9DCF" /><path d="M249.109333 629.333333m-32 0a32 32 0 1 0 64 0 32 32 0 1 0-64 0Z" fill="#000000" /><path d="M547.968 629.333333m-32 0a32 32 0 1 0 64 0 32 32 0 1 0-64 0Z" fill="#000000" /><path d="M444.416 650.709333a10.666667 10.666667 0 0 1 9.664 11.605334c-2.474667 26.944-26.730667 47.466667-55.530667 47.466666-28.821333 0-53.056-20.522667-55.530666-47.466666a10.666667 10.666667 0 0 1 21.248-1.962667c1.429333 15.616 16.149333 28.096 34.282666 28.096 18.112 0 32.853333-12.48 34.282667-28.096a10.666667 10.666667 0 0 1 9.664-9.642667h1.92z" fill="#000000" /><path d="M145.493333 98.24a3.584 3.584 0 0 0 2.602667-1.130667 3.584 3.584 0 0 0 1.130667-2.602666 3.712 3.712 0 0 0-1.130667-2.709334 3.584 3.584 0 0 0-2.602667-1.130666H125.866667v-4.48h12.48c1.066667 0 1.962667-0.384 2.709333-1.130667a3.712 3.712 0 0 0 1.130667-2.709333 3.584 3.584 0 0 0-1.130667-2.624 3.712 3.712 0 0 0-2.709333-1.109334H125.866667v-3.84h14.613333c1.066667 0 1.984-0.384 2.730667-1.109333a3.712 3.712 0 0 0 1.109333-2.730667 3.52 3.52 0 0 0-1.109333-2.666666 3.797333 3.797333 0 0 0-2.730667-1.066667H125.866667v-5.12a3.797333 3.797333 0 0 0-1.066667-2.709333 3.52 3.52 0 0 0-2.666667-1.130667 3.712 3.712 0 0 0-2.709333 1.130667 3.712 3.712 0 0 0-1.130667 2.709333v5.12h-14.506666a3.797333 3.797333 0 0 0-2.730667 1.066667 3.52 3.52 0 0 0-1.109333 2.666666c0 1.066667 0.384 1.962667 1.130666 2.709334a3.712 3.712 0 0 0 2.709334 1.130666h14.506666v3.84h-12.373333a3.712 3.712 0 0 0-2.709333 1.109334 3.584 3.584 0 0 0-1.130667 2.624c0 1.066667 0.384 1.984 1.130667 2.709333a3.712 3.712 0 0 0 2.709333 1.130667h12.373333v4.48H98.986667a3.52 3.52 0 0 0-2.666667 1.130666 3.797333 3.797333 0 0 0-1.066667 2.709334c0 1.002667 0.362667 1.877333 1.066667 2.624a3.52 3.52 0 0 0 2.666667 1.109333h46.506666zM90.026667 144.853333a3.584 3.584 0 0 0 2.624-1.130666 3.712 3.712 0 0 0 1.109333-2.709334V70.506667a3.584 3.584 0 0 0-1.109333-2.624 3.584 3.584 0 0 0-2.624-1.109334h-16.853334a3.52 3.52 0 0 0-2.666666 1.130667 3.669333 3.669333 0 0 0-1.066667 2.602667V141.013333c0 1.066667 0.362667 1.962667 1.066667 2.709334a3.52 3.52 0 0 0 2.666666 1.130666h16.853334z m-3.946667-47.893333h-9.173333v-22.613333h9.173333v22.613333z m51.626667 62.293333c1.066667 0 1.984-0.362667 2.709333-1.066666a3.52 3.52 0 0 0 1.130667-2.666667V106.133333a3.584 3.584 0 0 0-1.130667-2.602666 3.712 3.712 0 0 0-2.709333-1.130667h-29.866667a3.712 3.712 0 0 0-2.709333 1.130667 3.584 3.584 0 0 0-1.130667 2.602666v48.853334c0 1.002667 0.384 1.877333 1.130667 2.624a3.712 3.712 0 0 0 2.709333 1.109333c1.066667 0 1.962667-0.384 2.666667-1.130667a3.669333 3.669333 0 0 0 1.066666-2.602666v-18.986667h22.4v19.52a3.626667 3.626667 0 0 0 3.733334 3.733333z m-51.626667-21.973333h-9.173333V104.533333h9.173333v32.746667zM133.973333 114.986667H111.573333v-5.013334h22.4v5.013334z m0 13.333333H111.573333v-5.76h22.4v5.76z m94.08 29.802667a3.882667 3.882667 0 0 0 2.88-0.362667 3.562667 3.562667 0 0 0 1.813334-2.176 3.605333 3.605333 0 0 0-0.32-2.837333L205.866667 101.653333h25.813333a3.584 3.584 0 0 0 2.624-1.109333 3.712 3.712 0 0 0 1.109333-2.730667 3.52 3.52 0 0 0-1.130666-2.666666 3.669333 3.669333 0 0 0-2.602667-1.066667H203.413333V72.213333h21.76c1.066667 0 1.984-0.362667 2.709334-1.109333a3.712 3.712 0 0 0 1.130666-2.730667 3.52 3.52 0 0 0-1.130666-2.666666 3.797333 3.797333 0 0 0-2.709334-1.066667h-50.346666a3.669333 3.669333 0 0 0-2.624 1.066667 3.52 3.52 0 0 0-1.109334 2.666666c0 1.066667 0.384 1.962667 1.130667 2.709334a3.584 3.584 0 0 0 2.602667 1.130666h21.12V94.08h-27.52a3.989333 3.989333 0 0 0-2.773334 1.066667 3.456 3.456 0 0 0-1.173333 2.666666c0 1.066667 0.384 1.984 1.173333 2.730667 0.789333 0.725333 1.706667 1.109333 2.773334 1.109333H193.493333L166.933333 152.746667a3.904 3.904 0 0 0-0.213333 2.837333c0.277333 0.96 0.896 1.685333 1.813333 2.176 0.917333 0.490667 1.877333 0.64 2.88 0.384a3.392 3.392 0 0 0 2.24-1.770667l26.026667-50.56 26.133333 50.56c0.490667 0.917333 1.237333 1.493333 2.24 1.749334z m32.896-50.624l1.024-0.085334a109.098667 109.098667 0 0 0 30.933334-11.626666 117.845333 117.845333 0 0 0 25.92-21.226667 3.712 3.712 0 0 0 1.002666-2.709333 3.754667 3.754667 0 0 0-1.109333-2.624 3.669333 3.669333 0 0 0-2.666667-1.173334H275.626667l2.24-2.666666a3.818667 3.818667 0 0 0 0.789333-2.773334 3.946667 3.946667 0 0 0-1.322667-2.56 3.733333 3.733333 0 0 0-5.226666 0.533334l-7.466667 8.746666a3.690667 3.690667 0 0 0-0.96 2.56c0 1.066667 0.384 1.962667 1.130667 2.666667 0.725333 0.704 1.642667 1.066667 2.709333 1.066667h39.253333a100.48 100.48 0 0 1-21.44 15.466666 105.450667 105.450667 0 0 1-25.066666 8.853334 3.84 3.84 0 1 0 1.706666 7.466666l-1.024 0.085334z m21.397334-18.432a3.584 3.584 0 0 0 2.624-1.130667A3.584 3.584 0 0 0 286.08 85.333333a3.712 3.712 0 0 0-1.130667-2.709333 3.584 3.584 0 0 0-2.602666-1.130667h-14.933334a3.584 3.584 0 0 0-2.624 1.130667 3.712 3.712 0 0 0-1.109333 2.709333c0 1.002667 0.384 1.877333 1.130667 2.602667a3.584 3.584 0 0 0 2.602666 1.130667h14.933334z m-23.018667 69.333333l1.045333-0.106667a110.229333 110.229333 0 0 0 59.093334-38.4 3.498667 3.498667 0 0 0 0.853333-2.837333 4.202667 4.202667 0 0 0-1.386667-2.602667 4.352 4.352 0 0 0-2.346666-0.746666h-42.026667l1.28-1.493334a3.712 3.712 0 0 0-0.32-5.333333 3.712 3.712 0 0 0-2.709333-1.002667 3.584 3.584 0 0 0-2.624 1.216l-6.826667 7.573334c-0.789333 0.64-1.173333 1.557333-1.173333 2.773333 0 1.066667 0.384 1.984 1.130666 2.730667a3.712 3.712 0 0 0 2.709334 1.109333h42.133333a102.058667 102.058667 0 0 1-49.706667 29.653333 3.626667 3.626667 0 0 0-2.346666 1.749334 4.16 4.16 0 0 0-0.426667 2.944c0.277333 1.002667 0.853333 1.749333 1.770667 2.24 0.874667 0.490667 1.856 0.64 2.922666 0.426666l-1.045333 0.085334zM282.24 135.68c1.066667 0 1.962667-0.384 2.666667-1.130667a3.669333 3.669333 0 0 0 1.066666-2.602666 3.797333 3.797333 0 0 0-1.066666-2.709334 3.52 3.52 0 0 0-2.666667-1.130666h-16.853333a3.584 3.584 0 0 0-2.602667 1.130666 3.712 3.712 0 0 0-1.130667 2.709334c0 1.002667 0.384 1.877333 1.130667 2.624a3.584 3.584 0 0 0 2.602667 1.109333h16.853333z m122.346667-62.72c1.066667 0 1.984-0.384 2.773333-1.173333a3.669333 3.669333 0 0 0 1.173333-2.666667 3.669333 3.669333 0 0 0-1.173333-2.666667 3.797333 3.797333 0 0 0-2.773333-1.173333h-46.72a3.797333 3.797333 0 0 0-2.773334 1.173333 3.669333 3.669333 0 0 0-1.173333 2.666667c0 1.002667 0.384 1.877333 1.173333 2.666667 0.789333 0.789333 1.706667 1.173333 2.773334 1.173333h46.72z m1.173333 83.093333c0.576 0 1.066667-0.106667 1.493333-0.32a4.266667 4.266667 0 0 0 1.984-2.133333 3.541333 3.541333 0 0 0-0.064-2.88l-13.226666-30.506667a3.541333 3.541333 0 0 0-2.090667-2.026666 4.16 4.16 0 0 0-2.922667 0 3.925333 3.925333 0 0 0-2.026666 2.197333 4.16 4.16 0 0 0 0 2.922667l11.093333 25.066666h-37.546667l18.133334-46.08h34.773333a3.584 3.584 0 0 0 2.624-1.130666 3.584 3.584 0 0 0 1.109333-2.602667 3.712 3.712 0 0 0-1.109333-2.730667 3.584 3.584 0 0 0-2.624-1.109333h-68.053333a3.584 3.584 0 0 0-2.624 1.109333 3.712 3.712 0 0 0-1.109334 2.730667c0 1.002667 0.362667 1.856 1.109334 2.602667a3.584 3.584 0 0 0 2.624 1.130666h25.066666l-18.88 48.426667a3.754667 3.754667 0 0 0 0.810667 4.16 3.498667 3.498667 0 0 0 2.602667 1.173333h48.853333z" fill="#000000" /></svg>