<?xml version="1.0" standalone="no"?>
<!DOCTYPE svg PUBLIC "-//W3C//DTD SVG 1.1//EN" "http://www.w3.org/Graphics/SVG/1.1/DTD/svg11.dtd">
<svg class="icon" style="width: 1em;height: 1em;vertical-align: middle;fill: currentColor;overflow: hidden;" viewBox="0 0 1024 1024" version="1.1" xmlns="http://www.w3.org/2000/svg"><path d="M282.965333 842.666667c-139.136 0-251.946667-112.32-251.946666-250.858667 0-73.877333 32.106667-140.309333 83.157333-186.218667A320.64 320.64 0 0 1 420.394667 181.333333c138.24 0 256 87.082667 301.056 209.173334 13.76-2.581333 27.946667-3.925333 42.496-3.925334 126.485333 0 229.013333 102.101333 229.013333 228.053334 0 123.797333-99.093333 224.554667-222.613333 227.946666l-6.4 0.085334H282.965333z" fill="#FFFFFF" /><path d="M992.96 614.613333c0 123.818667-99.093333 224.576-222.613333 227.968l-6.4 0.085334H282.965333c-139.136 0-251.946667-112.32-251.946666-250.858667 0-6.165333 0.234667-12.288 0.682666-18.346667 9.28 124.586667 112.085333 223.253333 238.762667 226.624l6.677333 0.085334h469.845334l6.272-0.085334c120.661333-3.306667 217.472-101.76 217.472-222.698666 0-35.776-8.469333-69.610667-23.530667-99.562667a226.389333 226.389333 0 0 1 45.76 136.789333z" fill="#D1F1FF" /><path d="M420.394667 181.333333c138.24 0 256 87.082667 301.056 209.173334 13.76-2.581333 27.946667-3.925333 42.496-3.925334 126.485333 0 229.013333 102.101333 229.013333 228.053334 0 123.797333-99.093333 224.554667-222.613333 227.946666l-6.4 0.085334H282.965333c-139.136 0-251.946667-112.32-251.946666-250.858667 0-73.877333 32.106667-140.309333 83.157333-186.218667A320.64 320.64 0 0 1 420.394667 181.333333z m0 18.24c-133.312 0-249.728 86.677333-288.725334 211.434667a18.24 18.24 0 0 1-5.226666 8.106667 231.466667 231.466667 0 0 0-77.098667 172.693333c0 126.336 101.141333 229.12 227.2 232.533333l6.421333 0.085334h480.725334l6.144-0.085334c113.877333-3.114667 204.8-96.042667 204.8-209.706666 0-115.882667-94.336-209.813333-210.688-209.813334-13.269333 0-26.346667 1.216-39.082667 3.626667a18.346667 18.346667 0 0 1-20.608-11.648c-43.349333-117.504-156.053333-197.226667-283.861333-197.226667z" fill="#000000" /><path d="M207.488 610.176a70.144 40.085333 0 1 0 140.288 0 70.144 40.085333 0 1 0-140.288 0Z" fill="#FF9DCF" /><path d="M545.536 610.176a70.144 40.085333 0 1 0 140.288 0 70.144 40.085333 0 1 0-140.288 0Z" fill="#FF9DCF" /><path d="M282.837333 481.962667m-40.085333 0a40.085333 40.085333 0 1 0 80.170667 0 40.085333 40.085333 0 1 0-80.170667 0Z" fill="#000000" /><path d="M298.901333 492.074667m-21.333333 0a21.333333 21.333333 0 1 0 42.666667 0 21.333333 21.333333 0 1 0-42.666667 0Z" fill="#FFFFFF" /><path d="M269.354667 496.490667m-21.333334 0a21.333333 21.333333 0 1 0 42.666667 0 21.333333 21.333333 0 1 0-42.666667 0Z" fill="#FFFFFF" /><path d="M282.602667 473.642667m-21.333334 0a21.333333 21.333333 0 1 0 42.666667 0 21.333333 21.333333 0 1 0-42.666667 0Z" fill="#FFFFFF" /><path d="M610.496 481.962667m-40.085333 0a40.085333 40.085333 0 1 0 80.170666 0 40.085333 40.085333 0 1 0-80.170666 0Z" fill="#000000" /><path d="M626.56 492.074667m-21.333333 0a21.333333 21.333333 0 1 0 42.666666 0 21.333333 21.333333 0 1 0-42.666666 0Z" fill="#FFFFFF" /><path d="M597.013333 496.490667m-21.333333 0a21.333333 21.333333 0 1 0 42.666667 0 21.333333 21.333333 0 1 0-42.666667 0Z" fill="#FFFFFF" /><path d="M610.261333 473.642667m-21.333333 0a21.333333 21.333333 0 1 0 42.666667 0 21.333333 21.333333 0 1 0-42.666667 0Z" fill="#FFFFFF" /><path d="M393.429333 680.917333c9.578667-11.626667 17.92-12.352 35.477334-7.594666l3.626666 1.002666c6.762667 1.962667 10.368 2.709333 14.122667 2.709334 3.136 0 6.165333-0.512 10.986667-1.813334l3.114666-0.896c20.053333-5.802667 28.885333-5.802667 39.125334 6.570667a10.666667 10.666667 0 0 1-15.082667 14.976l-1.365333-1.365333c-1.770667-2.133333-3.2-2.858667-7.552-2.048l-3.882667 0.896-5.290667 1.472c-8.576 2.474667-13.717333 3.541333-20.053333 3.541333-5.290667 0-9.728-0.725333-16.042667-2.410667l-9.322666-2.602666-3.861334-0.896c-4.373333-0.810667-5.781333-0.106667-7.552 2.026666a10.666667 10.666667 0 0 1-16.448-13.568z" fill="#000000" /><path d="M781.973333 137.173333c1.066667 0 1.984-0.384 2.773334-1.109333a3.626667 3.626667 0 0 0 1.173333-2.730667V48.533333h11.2L790.186667 71.893333a3.84 3.84 0 0 0 0.682666 3.349334c0.746667 0.96 1.728 1.450667 2.944 1.450666h5.333334l-8.853334 29.653334a3.989333 3.989333 0 0 0 0.426667 2.88c0.490667 0.853333 1.28 1.386667 2.346667 1.6 1.066667 0.277333 2.026667 0.213333 2.88-0.277334a3.84 3.84 0 0 0 1.813333-2.282666l9.92-34.24a4.096 4.096 0 0 0-0.64-3.413334 3.370667 3.370667 0 0 0-2.88-1.493333h-5.44l6.826667-23.253333a4.096 4.096 0 0 0-0.64-3.413334 3.370667 3.370667 0 0 0-2.88-1.493333h-20.053334a3.52 3.52 0 0 0-2.666666 1.109333 3.797333 3.797333 0 0 0-1.066667 2.730667v88.533333c0 1.066667 0.362667 1.984 1.066667 2.730667a3.52 3.52 0 0 0 2.666666 1.109333z m62.506667-0.426666c1.066667 0 1.984-0.362667 2.709333-1.066667a3.52 3.52 0 0 0 1.130667-2.666667v-87.893333a3.712 3.712 0 0 0-1.130667-2.730667 3.712 3.712 0 0 0-2.709333-1.109333H817.706667a3.648 3.648 0 0 0-2.773334 1.109333 3.669333 3.669333 0 0 0-1.066666 2.624c-0.213333 15.786667-1.386667 30.677333-3.52 44.693334-2.133333 13.930667-5.376 27.626667-9.706667 41.066666a3.946667 3.946667 0 0 0 0.256 2.944c0.469333 0.874667 1.194667 1.493333 2.197333 1.856a3.413333 3.413333 0 0 0 2.837334-0.170666 4.224 4.224 0 0 0 1.962666-2.282667c4.416-13.802667 7.722667-27.776 9.92-41.92h22.826667v41.813333c0 1.066667 0.362667 1.962667 1.130667 2.666667 0.746667 0.704 1.642667 1.066667 2.709333 1.066667z m-3.84-74.88h-19.84c0.213333-4.202667 0.384-8.533333 0.533333-13.013334h19.306667v13.013334z m0 21.76h-21.76c0.576-4.48 1.066667-9.002667 1.493333-13.546667V69.546667h20.266667v14.08z" fill="#000000" /></svg>