<?xml version="1.0" standalone="no"?>
<!DOCTYPE svg PUBLIC "-//W3C//DTD SVG 1.1//EN" "http://www.w3.org/Graphics/SVG/1.1/DTD/svg11.dtd">
<svg class="icon" style="width: 1em;height: 1em;vertical-align: middle;fill: currentColor;overflow: hidden;" viewBox="0 0 1024 1024" version="1.1" xmlns="http://www.w3.org/2000/svg"><path d="M348.394667 759.146667a25.6 25.6 0 0 1 48.853333 15.04l-0.810667 2.666666-73.749333 200.170667a25.6 25.6 0 0 1-48.853333-15.018667l0.810666-2.666666 73.749334-200.192zM497.728 759.146667a25.6 25.6 0 0 1 48.853333 15.04l-0.810666 2.666666-73.749334 200.170667a25.6 25.6 0 0 1-48.853333-15.018667l0.810667-2.666666 73.749333-200.192zM647.061333 759.146667a25.6 25.6 0 0 1 48.853334 15.04l-0.810667 2.666666-73.749333 200.170667a25.6 25.6 0 0 1-48.853334-15.018667l0.810667-2.666666 73.749333-200.192z" fill="#6BD1FF" /><path d="M143.616 890.282667c-12.501333 12.501333-11.946667 33.301333 1.216 46.464 12.117333 12.138667 36.864 21.781333 74.218667 28.970666-7.253333-37.44-16.917333-62.186667-28.970667-74.24-13.162667-13.141333-33.962667-13.696-46.464-1.194666zM773.717333 890.282667c12.501333 12.501333 11.946667 33.301333-1.216 46.464-12.117333 12.138667-36.864 21.781333-74.218666 28.970666 7.253333-37.44 16.917333-62.186667 28.970666-74.24 13.162667-13.141333 33.962667-13.696 46.464-1.194666z" fill="#6BD1FF" /><path d="M696.896 263.104m-142.229333 0a142.229333 142.229333 0 1 0 284.458666 0 142.229333 142.229333 0 1 0-284.458666 0Z" fill="#FFE34F" /><path d="M696.896 120.874667a142.229333 142.229333 0 1 1 0 284.458666 142.229333 142.229333 0 0 1 0-284.458666z m0 17.066666a125.162667 125.162667 0 1 0 0 250.325334 125.162667 125.162667 0 0 0 0-250.325334z" fill="#000000" /><path d="M696.896 433.770667c7.296 0 13.312 5.482667 14.122667 12.565333l0.106666 1.664v56.874667a14.229333 14.229333 0 0 1-28.373333 1.664l-0.085333-1.664v-56.874667c0-7.872 6.378667-14.229333 14.229333-14.229333z m139.456-51.178667l1.344 1.194667 40.213333 40.213333a14.229333 14.229333 0 0 1-18.773333 21.312l-1.344-1.194667-40.213333-40.213333a14.229333 14.229333 0 0 1 18.773333-21.312z m-260.138667 1.194667c5.12 5.12 5.525333 13.184 1.194667 18.773333l-1.194667 1.344-40.213333 40.213333a14.229333 14.229333 0 0 1-21.312-18.773333l1.194667-1.344L556.096 383.786667c5.546667-5.546667 14.570667-5.546667 20.117333 0z m362.453334-134.912a14.229333 14.229333 0 0 1 1.664 28.373333l-1.664 0.085333h-56.874667a14.229333 14.229333 0 0 1-1.664-28.373333l1.664-0.085333h56.874667z m-483.541334 0h56.874667a14.229333 14.229333 0 0 1 1.664 28.373333l-1.664 0.085333H455.125333a14.229333 14.229333 0 0 1-1.664-28.373333l1.664-0.085333z m422.784-166.784c5.12 5.12 5.546667 13.184 1.194667 18.773333l-1.194667 1.344L837.696 142.421333a14.229333 14.229333 0 0 1-21.312-18.773333l1.194667-1.344 40.213333-40.213333c5.546667-5.546667 14.570667-5.546667 20.117333 0z m-362.026666 0c5.546667-5.546667 14.549333-5.546667 20.117333 0L576.213333 122.304a14.229333 14.229333 0 1 1-20.117333 20.117333L515.882667 102.208a14.229333 14.229333 0 0 1 0-20.117333zM696.896 7.104c7.296 0 13.312 5.482667 14.122667 12.565333l0.106666 1.664v56.874667a14.229333 14.229333 0 0 1-28.373333 1.664l-0.085333-1.664V21.333333c0-7.872 6.378667-14.229333 14.229333-14.229333z" fill="#FFE34F" /><path d="M318.976 693.333333C201.728 693.333333 106.666667 599.146667 106.666667 482.944a209.024 209.024 0 0 1 70.058666-156.202667C210.986667 217.813333 313.557333 138.666667 434.794667 138.666667c116.48 0 215.765333 73.045333 253.717333 175.424a194.816 194.816 0 0 1 35.797333-3.285334c106.602667 0 193.024 85.632 193.024 191.253334 0 103.850667-83.52 188.373333-187.605333 191.210666l-5.418667 0.064h-405.333333z" fill="#FFFFFF" /><path d="M917.333333 502.058667c0 103.850667-83.52 188.373333-187.605333 191.210666l-5.418667 0.064h-405.333333C201.728 693.333333 106.666667 599.146667 106.666667 482.944c0-5.184 0.192-10.304 0.554666-15.381333 7.829333 104.490667 94.464 187.221333 201.216 190.058666l5.632 0.064h395.968l5.290667-0.064c101.696-2.773333 183.253333-85.333333 183.253333-186.773333a184.682667 184.682667 0 0 0-19.84-83.52A189.290667 189.290667 0 0 1 917.333333 502.058667z" fill="#D1F1FF" /><path d="M434.794667 138.666667c116.48 0 215.765333 73.045333 253.717333 175.424a194.816 194.816 0 0 1 35.797333-3.285334c106.602667 0 193.024 85.632 193.024 191.253334 0 103.850667-83.52 188.373333-187.605333 191.210666l-5.418667 0.064h-405.333333C201.728 693.333333 106.666667 599.146667 106.666667 482.944a209.024 209.024 0 0 1 70.058666-156.202667C210.986667 217.813333 313.557333 138.666667 434.794667 138.666667z m0 15.296c-112.341333 0-210.453333 72.704-243.306667 177.344a15.296 15.296 0 0 1-4.394667 6.805333 193.728 193.728 0 0 0-64.981333 144.832c0 105.941333 85.226667 192.170667 191.445333 195.008l5.418667 0.085333h405.12l5.205333-0.064c95.957333-2.624 172.586667-80.554667 172.586667-175.914666 0-97.173333-79.509333-175.957333-177.578667-175.957334-11.157333 0-22.186667 1.024-32.938666 3.029334a15.466667 15.466667 0 0 1-17.344-9.749334c-36.544-98.56-131.52-165.418667-239.232-165.418666z" fill="#000000" /><path d="M224.661333 480.661333a74.666667 42.666667 0 1 0 149.333334 0 74.666667 42.666667 0 1 0-149.333334 0Z" fill="#FF9DCF" /><path d="M549.696 480.661333a74.666667 42.666667 0 1 0 149.333333 0 74.666667 42.666667 0 1 0-149.333333 0Z" fill="#FF9DCF" /><path d="M282.026667 353.045333l71.786666 42.624-68.629333 42.325334 37.098667-42.325334zM641.664 353.045333L569.877333 395.669333l68.629334 42.325334-37.098667-42.325334zM404.373333 523.328l2.901334 6.4c7.317333 15.424 18.090667 30.336 56.021333 30.336 43.178667 0 56.021333-29.653333 56.021333-36.736-37.44 21.205333-81.578667 25.6-114.944 0z" fill="#000000" /><path d="M113.066667 135.36a3.584 3.584 0 0 0 2.624-1.109333 3.712 3.712 0 0 0 1.109333-2.730667v-74.666667a3.882667 3.882667 0 0 0-1.109333-2.773333 3.498667 3.498667 0 0 0-2.624-1.173333H85.546667l4.48-9.706667a3.562667 3.562667 0 0 0-1.813334-5.013333 3.989333 3.989333 0 0 0-5.12 1.813333l-5.973333 12.906667H62.933333a3.904 3.904 0 0 0-3.733333 3.946666v30.293334a2.773333 2.773333 0 0 0-0.106667 0.853333c0 0.277333 0.042667 0.597333 0.106667 0.96v42.24l-0.106667 0.149333c0 1.194667 0.384 2.133333 1.109334 2.901334a3.712 3.712 0 0 0 2.730666 1.109333H113.066667z m-3.84-51.2H66.666667V60.586667H109.226667v23.573333z m0 43.626667H66.666667V91.733333H109.226667v36.053334z m97.493333 9.002666a3.882667 3.882667 0 0 0 2.88-0.362666 3.562667 3.562667 0 0 0 1.813333-2.176 3.605333 3.605333 0 0 0-0.32-2.837334L184.533333 80.32h25.813334a3.584 3.584 0 0 0 2.624-1.130667 3.712 3.712 0 0 0 1.109333-2.709333 3.52 3.52 0 0 0-1.130667-2.666667 3.669333 3.669333 0 0 0-2.602666-1.066666H182.08V50.88h21.76c1.066667 0 1.984-0.362667 2.709333-1.109333a3.712 3.712 0 0 0 1.130667-2.730667 3.52 3.52 0 0 0-1.130667-2.666667 3.797333 3.797333 0 0 0-2.709333-1.066666h-50.346667a3.669333 3.669333 0 0 0-2.624 1.066666 3.52 3.52 0 0 0-1.109333 2.666667c0 1.066667 0.384 1.962667 1.130667 2.709333a3.584 3.584 0 0 0 2.602666 1.130667h21.12V72.746667h-27.52a3.989333 3.989333 0 0 0-2.773333 1.066666 3.456 3.456 0 0 0-1.173333 2.666667c0 1.066667 0.384 1.984 1.173333 2.709333 0.789333 0.746667 1.706667 1.130667 2.773333 1.130667H172.16L145.6 131.413333a3.904 3.904 0 0 0-0.213333 2.837334c0.277333 0.96 0.896 1.685333 1.813333 2.176 0.917333 0.490667 1.877333 0.64 2.88 0.384a3.392 3.392 0 0 0 2.24-1.770667l26.026667-50.56 26.133333 50.56c0.490667 0.917333 1.237333 1.493333 2.24 1.749333z m76.693333 1.237334c1.066667 0 1.962667-0.384 2.709334-1.109334a3.712 3.712 0 0 0 1.130666-2.730666V106.346667h17.493334c1.066667 0 1.984-0.384 2.773333-1.173334a3.925333 3.925333 0 0 0 1.173333-2.88 3.669333 3.669333 0 0 0-1.173333-2.666666 3.797333 3.797333 0 0 0-2.773333-1.173334h-17.493334V85.12h11.52c1.066667 0 1.984-0.384 2.773334-1.130667a3.626667 3.626667 0 0 0 1.173333-2.709333 3.626667 3.626667 0 0 0-1.173333-2.709333 3.882667 3.882667 0 0 0-2.773334-1.130667h-11.52v-12.906667a3.882667 3.882667 0 0 0-1.130666-2.773333 3.626667 3.626667 0 0 0-2.709334-1.173333 3.626667 3.626667 0 0 0-2.709333 1.173333 3.882667 3.882667 0 0 0-1.130667 2.773333v12.906667h-8.96l7.253334-22.293333h23.36c1.066667 0 1.984-0.384 2.730666-1.109334a3.712 3.712 0 0 0 1.109334-2.730666 3.712 3.712 0 0 0-1.130667-2.709334 3.712 3.712 0 0 0-2.709333-1.130666h-20.906667l1.92-5.866667a3.797333 3.797333 0 0 0-0.32-2.922667 4.032 4.032 0 0 0-2.24-1.877333 3.946667 3.946667 0 0 0-4.906667 2.56l-2.56 8.106667h-10.026666a3.754667 3.754667 0 0 0-2.666667 1.109333 3.626667 3.626667 0 0 0-1.173333 2.730667c0 1.066667 0.384 1.984 1.173333 2.730666a3.754667 3.754667 0 0 0 2.666667 1.109334h7.573333L261.76 80a4.096 4.096 0 0 0 0.533333 3.52c0.704 1.066667 1.749333 1.6 3.093334 1.6h14.186666v13.333333h-20.16a3.626667 3.626667 0 0 0-2.709333 1.173334 4.010667 4.010667 0 0 0 0 5.546666 3.626667 3.626667 0 0 0 2.709333 1.173334h20.16V134.186667c0 1.066667 0.384 1.984 1.130667 2.730666a3.712 3.712 0 0 0 2.709333 1.109334z m-49.706666-0.96c1.066667 0 1.962667-0.384 2.709333-1.130667a3.712 3.712 0 0 0 1.130667-2.709333v-84.48h9.92l-5.866667 23.36a3.712 3.712 0 0 0 0.704 3.306666 4.010667 4.010667 0 0 0 3.029333 1.493334h4.16L241.706667 106.24a3.989333 3.989333 0 0 0 0.426666 2.88c0.490667 0.853333 1.237333 1.386667 2.24 1.6 1.066667 0.277333 2.048 0.213333 2.922667-0.277333a3.434667 3.434667 0 0 0 1.770667-2.282667l8.96-33.92a3.989333 3.989333 0 0 0-0.704-3.413333 3.498667 3.498667 0 0 0-2.922667-1.493334h-4.373333l5.866666-23.253333a4.437333 4.437333 0 0 0-0.746666-3.477333 3.413333 3.413333 0 0 0-2.88-1.429334h-18.56a3.712 3.712 0 0 0-2.709334 1.109334 3.712 3.712 0 0 0-1.130666 2.730666v88.213334c0 1.066667 0.384 1.984 1.130666 2.709333a3.712 3.712 0 0 0 2.709334 1.130667z m155.626666-0.32a3.626667 3.626667 0 0 0 2.730667-1.173334 3.754667 3.754667 0 0 0 1.109333-2.666666V62.72a3.712 3.712 0 0 0-1.109333-2.709333 3.712 3.712 0 0 0-2.730667-1.130667h-25.493333v-9.28h29.973333a3.626667 3.626667 0 0 0 2.709334-1.173333 3.754667 3.754667 0 0 0 0-5.333334 3.626667 3.626667 0 0 0-2.709334-1.173333h-67.84a3.498667 3.498667 0 0 0-2.602666 1.173333 3.754667 3.754667 0 0 0 0 5.333334 3.498667 3.498667 0 0 0 2.602666 1.173333h30.293334v9.28h-25.706667a3.882667 3.882667 0 0 0-2.773333 1.130667 3.626667 3.626667 0 0 0-1.173334 2.709333v70.186667c0 1.002667 0.384 1.877333 1.173334 2.666666 0.789333 0.789333 1.706667 1.173333 2.773333 1.173334a3.498667 3.498667 0 0 0 2.624-1.173334 3.754667 3.754667 0 0 0 1.109333-2.666666V66.453333h21.973334V132.906667c0 1.002667 0.384 1.877333 1.130666 2.666666a3.626667 3.626667 0 0 0 5.333334 0 3.754667 3.754667 0 0 0 1.109333-2.666666V66.453333h21.653333V132.906667c0 1.002667 0.384 1.877333 1.173334 2.666666a3.669333 3.669333 0 0 0 2.666666 1.173334z m-40.917333-46.293334a3.541333 3.541333 0 0 0 2.730667-0.746666 3.776 3.776 0 0 0 0.64-5.333334l-7.146667-9.066666a4.202667 4.202667 0 0 0-2.624-1.386667 3.712 3.712 0 0 0-2.816 0.746667 4.181333 4.181333 0 0 0-1.386667 2.56 3.413333 3.413333 0 0 0 0.853334 2.773333l7.253333 9.066667a4.138667 4.138667 0 0 0 2.496 1.386666z m29.397333 0a3.626667 3.626667 0 0 0 2.773334-0.746666 4.181333 4.181333 0 0 0 1.386666-2.56 3.626667 3.626667 0 0 0-0.746666-2.773334l-7.253334-9.066666a4.181333 4.181333 0 0 0-2.56-1.386667 3.626667 3.626667 0 0 0-2.773333 0.746667 4.181333 4.181333 0 0 0-1.386667 2.56 3.626667 3.626667 0 0 0 0.746667 2.773333l7.253333 9.066667a4.181333 4.181333 0 0 0 2.56 1.386666z m-29.397333 22.293334a3.541333 3.541333 0 0 0 2.730667-0.746667 3.776 3.776 0 0 0 0.64-5.333333l-7.146667-9.066667a4.202667 4.202667 0 0 0-2.624-1.386667 3.712 3.712 0 0 0-2.816 0.746667 4.181333 4.181333 0 0 0-1.386667 2.56 3.413333 3.413333 0 0 0 0.853334 2.773333l7.253333 9.066667a4.138667 4.138667 0 0 0 2.496 1.386667z m29.397333 0a3.626667 3.626667 0 0 0 2.773334-0.746667 4.181333 4.181333 0 0 0 1.386666-2.56 3.626667 3.626667 0 0 0-0.746666-2.773333l-7.253334-9.066667a4.181333 4.181333 0 0 0-2.56-1.386667 3.626667 3.626667 0 0 0-2.773333 0.746667 4.181333 4.181333 0 0 0-1.386667 2.56 3.626667 3.626667 0 0 0 0.746667 2.773333l7.253333 9.066667a4.181333 4.181333 0 0 0 2.56 1.386667z" fill="#000000" /></svg>