<?xml version="1.0" standalone="no"?>
<!DOCTYPE svg PUBLIC "-//W3C//DTD SVG 1.1//EN" "http://www.w3.org/Graphics/SVG/1.1/DTD/svg11.dtd">
<svg class="icon" style="width: 1em;height: 1em;vertical-align: middle;fill: currentColor;overflow: hidden;" viewBox="0 0 1024 1024" version="1.1" xmlns="http://www.w3.org/2000/svg"><path d="M348.394667 759.146667a25.6 25.6 0 0 1 48.853333 15.04l-0.810667 2.666666-73.749333 200.170667a25.6 25.6 0 0 1-48.853333-15.018667l0.810666-2.666666 73.749334-200.192zM497.728 759.146667a25.6 25.6 0 0 1 48.853333 15.04l-0.810666 2.666666-73.749334 200.170667a25.6 25.6 0 0 1-48.853333-15.018667l0.810667-2.666666 73.749333-200.192zM647.061333 759.146667a25.6 25.6 0 0 1 48.853334 15.04l-0.810667 2.666666-73.749333 200.170667a25.6 25.6 0 0 1-48.853334-15.018667l0.810667-2.666666 73.749333-200.192z" fill="#70C5FF" /><path d="M143.616 890.282667c-12.501333 12.501333-11.946667 33.301333 1.216 46.464 12.117333 12.138667 36.864 21.781333 74.218667 28.970666-7.253333-37.44-16.917333-62.186667-28.970667-74.24-13.162667-13.141333-33.962667-13.696-46.464-1.194666zM773.717333 890.282667c12.501333 12.501333 11.946667 33.301333-1.216 46.464-12.117333 12.138667-36.864 21.781333-74.218666 28.970666 7.253333-37.44 16.917333-62.186667 28.970666-74.24 13.162667-13.141333 33.962667-13.696 46.464-1.194666z" fill="#6BD1FF" /><path d="M711.68 94.549333c0 85.184 66.112 154.24 147.648 154.24 16.682667 0 32.704-2.88 47.637333-8.192C883.84 299.690667 828.245333 341.333333 763.349333 341.333333c-85.632 0-155.050667-72.512-155.050666-161.962666 0-77.226667 51.776-141.845333 121.045333-158.037334a158.954667 158.954667 0 0 0-17.685333 73.216z" fill="#FFE34F" /><path d="M729.344 21.333333a158.954667 158.954667 0 0 0-17.685333 73.216c0 85.184 66.133333 154.24 147.669333 154.24 16.682667 0 32.704-2.88 47.637333-8.192C883.84 299.690667 828.245333 341.333333 763.349333 341.333333c-85.632 0-155.050667-72.512-155.050666-161.962666 0-77.226667 51.776-141.845333 121.045333-158.037334z m-30.613333 34.922667l1.386666-5.717333-0.32 0.192c-44.586667 24.32-74.432 73.237333-74.432 128.64 0 80.192 61.952 144.896 137.984 144.896 43.648 0 83.605333-21.504 109.226667-56.277334l2.005333-2.88-7.402666 0.554667-7.850667 0.192c-91.136 0-164.736-76.864-164.736-171.306667 0-13.013333 1.408-25.856 4.138667-38.293333z" fill="#000000" /><path d="M318.976 693.333333C201.728 693.333333 106.666667 599.146667 106.666667 482.944a209.024 209.024 0 0 1 70.058666-156.202667C210.986667 217.813333 313.557333 138.666667 434.794667 138.666667c116.48 0 215.765333 73.045333 253.717333 175.424a194.816 194.816 0 0 1 35.797333-3.285334c106.602667 0 193.024 85.632 193.024 191.253334 0 103.850667-83.52 188.373333-187.605333 191.210666l-5.418667 0.064h-405.333333z" fill="#FFFFFF" /><path d="M917.333333 502.058667c0 103.850667-83.52 188.373333-187.605333 191.210666l-5.418667 0.064h-405.333333C201.728 693.333333 106.666667 599.146667 106.666667 482.944c0-5.184 0.192-10.304 0.554666-15.381333 7.829333 104.490667 94.464 187.221333 201.216 190.058666l5.632 0.064h395.968l5.290667-0.064c101.696-2.773333 183.253333-85.333333 183.253333-186.773333a184.682667 184.682667 0 0 0-19.84-83.52A189.290667 189.290667 0 0 1 917.333333 502.058667z" fill="#D1F1FF" /><path d="M434.794667 138.666667c116.48 0 215.765333 73.045333 253.717333 175.424a194.816 194.816 0 0 1 35.797333-3.285334c106.602667 0 193.024 85.632 193.024 191.253334 0 103.850667-83.52 188.373333-187.605333 191.210666l-5.418667 0.064h-405.333333C201.728 693.333333 106.666667 599.146667 106.666667 482.944a209.024 209.024 0 0 1 70.058666-156.202667C210.986667 217.813333 313.557333 138.666667 434.794667 138.666667z m0 15.296c-112.341333 0-210.453333 72.704-243.306667 177.344a15.296 15.296 0 0 1-4.394667 6.805333 193.728 193.728 0 0 0-64.981333 144.832c0 105.941333 85.226667 192.170667 191.445333 195.008l5.418667 0.085333h405.12l5.205333-0.064c95.957333-2.624 172.586667-80.554667 172.586667-175.914666 0-97.173333-79.509333-175.957333-177.578667-175.957334-11.157333 0-22.186667 1.024-32.938666 3.029334a15.466667 15.466667 0 0 1-17.344-9.749334c-36.544-98.56-131.52-165.418667-239.232-165.418666z" fill="#000000" /><path d="M224.661333 461.461333a74.666667 42.666667 0 1 0 149.333334 0 74.666667 42.666667 0 1 0-149.333334 0Z" fill="#FF9DCF" /><path d="M549.674667 461.461333a74.666667 42.666667 0 1 0 149.333333 0 74.666667 42.666667 0 1 0-149.333333 0Z" fill="#FF9DCF" /><path d="M299.328 355.605333c29.226667 12.885333 80.064 12.885333 107.968 0-6.997333 21.952-27.093333 37.973333-53.973333 37.973334-26.88 0-46.570667-25.088-53.973334-37.973334zM531.52 355.605333c29.226667 12.885333 80.064 12.885333 107.968 0-6.997333 21.952-27.093333 37.973333-53.973333 37.973334-26.88 0-46.570667-25.088-53.994667-37.973334z" fill="#000000" /><path d="M427.968 545.237333a33.237333 32.810667 90 1 0 65.621333 0 33.237333 32.810667 90 1 0-65.621333 0Z" fill="#FF4848" /><path d="M460.8 501.333333A43.690667 43.690667 0 0 0 417.28 545.237333c0 24.234667 19.434667 43.925333 43.477333 43.925334a43.690667 43.690667 0 0 0 43.477334-43.925334A43.690667 43.690667 0 0 0 460.8 501.333333z m0 21.333334c12.181333 0 22.122667 10.069333 22.122667 22.570666 0 12.501333-9.941333 22.592-22.144 22.592a22.357333 22.357333 0 0 1-22.144-22.592c0-12.501333 9.962667-22.570667 22.144-22.570666z" fill="#000000" /><path d="M98.666667 32.426667c1.066667 0 1.984-0.384 2.730666-1.109334a3.584 3.584 0 0 0 1.109334-2.624 3.712 3.712 0 0 0-1.109334-2.709333 3.712 3.712 0 0 0-2.730666-1.130667H67.84V20.693333a3.754667 3.754667 0 0 0-1.130667-2.666666 3.626667 3.626667 0 0 0-5.333333 0 3.754667 3.754667 0 0 0-1.109333 2.666666v4.16h-30.293334a3.712 3.712 0 0 0-2.709333 1.109334 3.712 3.712 0 0 0-1.130667 2.730666c0 1.002667 0.362667 1.877333 1.109334 2.624a3.712 3.712 0 0 0 2.730666 1.109334h68.693334z m1.685333 83.072l0.981333-0.042667a4.437333 4.437333 0 0 0 2.56-1.429333 3.989333 3.989333 0 0 0 0.576-2.88 3.84 3.84 0 0 0-1.536-2.453334 135.189333 135.189333 0 0 1-21.973333-22.506666 120.704 120.704 0 0 0 16-36.586667 3.584 3.584 0 0 0-0.896-3.797333 3.712 3.712 0 0 0-2.730667-1.109334h-28.586666l1.813333-5.12a4.117333 4.117333 0 0 0-0.213333-2.922666 3.605333 3.605333 0 0 0-2.133334-1.877334 3.797333 3.797333 0 0 0-2.922666 0.106667 3.626667 3.626667 0 0 0-1.877334 2.24l-3.52 10.133333a3.968 3.968 0 0 0 0.213334 2.88c0.426667 0.853333 1.130667 1.493333 2.133333 1.92 0.490667 0.149333 0.896 0.213333 1.173333 0.213334H88.32c-2.709333 9.450667-6.826667 18.602667-12.373333 27.413333a147.370667 147.370667 0 0 1-12.053334-20.8 3.541333 3.541333 0 0 0-2.090666-2.026667 3.562667 3.562667 0 0 0-2.816 0.106667 3.541333 3.541333 0 0 0-2.026667 2.090667 3.84 3.84 0 0 0 0.106667 2.922666c3.626667 8.170667 8.469333 16.32 14.506666 24.426667-6.4 8.96-13.610667 16.362667-21.653333 22.186667a4.053333 4.053333 0 0 0-1.6 2.389333 3.690667 3.690667 0 0 0 0.533333 2.837333c0.576 0.917333 1.344 1.493333 2.346667 1.642667 1.002667 0.192 1.962667 0 2.88-0.576 8.32-5.973333 15.744-13.376 22.293333-22.186667 7.189333 8.682667 14.549333 16.042667 22.08 22.08 0.917333 0.64 1.877333 0.853333 2.88 0.682667l-0.981333 0.042667z m-59.178667 0.021333a3.669333 3.669333 0 0 0 2.624-1.066667 3.52 3.52 0 0 0 1.109334-2.666666V54.933333c2.133333-4.544 3.946667-9.749333 5.44-15.573333a3.989333 3.989333 0 0 0-0.426667-2.88 3.328 3.328 0 0 0-2.346667-1.6 3.797333 3.797333 0 0 0-2.88 0.256 3.157333 3.157333 0 0 0-1.6 2.304 84.138667 84.138667 0 0 1-5.653333 15.36 9.557333 9.557333 0 0 1-0.853333 1.706667l-0.426667 0.853333c-2.837333 4.906667-6.357333 9.536-10.56 13.866667a3.797333 3.797333 0 0 0-1.066667 2.624c0 0.96 0.362667 1.856 1.066667 2.709333 0.789333 0.704 1.664 1.066667 2.666667 1.002667a4.501333 4.501333 0 0 0 2.773333-1.109334c2.197333-2.282667 4.266667-4.629333 6.186667-7.04v44.373334c0 1.066667 0.384 1.962667 1.173333 2.666666 0.789333 0.704 1.706667 1.066667 2.773333 1.066667z m33.92-45.866667c1.066667 0 1.962667-0.384 2.709334-1.130666A3.584 3.584 0 0 0 78.933333 65.92v-6.933333a3.584 3.584 0 0 0-1.130666-2.624 3.712 3.712 0 0 0-2.709334-1.109334 3.584 3.584 0 0 0-2.624 1.130667 3.584 3.584 0 0 0-1.109333 2.602667v6.933333c0 1.002667 0.362667 1.877333 1.109333 2.624a3.584 3.584 0 0 0 2.624 1.109333z m74.624 46.165334l0.96-0.085334a3.541333 3.541333 0 0 0 2.282667-1.706666c5.269333-8.32 9.856-19.157333 13.76-32.533334 1.216-4.117333 2.24-8.32 3.093333-12.586666h17.706667a3.626667 3.626667 0 0 0 2.730667-1.173334 3.754667 3.754667 0 0 0 1.109333-2.666666v-19.52a3.712 3.712 0 0 0-1.130667-2.709334 3.712 3.712 0 0 0-2.709333-1.130666h-6.4l3.413333-10.666667a3.904 3.904 0 0 0-0.64-3.306667 3.456 3.456 0 0 0-2.986666-1.493333H156.8l2.026667-4.8A3.669333 3.669333 0 0 0 158.72 18.56a3.968 3.968 0 0 0-2.133333-2.026667 4.330667 4.330667 0 0 0-2.944 0.149334 3.413333 3.413333 0 0 0-1.856 2.090666l-3.84 9.6a4.330667 4.330667 0 0 0 0.384 3.669334c0.661333 1.194667 1.685333 1.770667 3.029333 1.770666H175.786667l-2.56 7.893334H151.04a3.712 3.712 0 0 0-2.730667 1.109333 3.712 3.712 0 0 0-1.109333 2.730667v19.52c0 1.002667 0.384 1.877333 1.109333 2.666666a3.626667 3.626667 0 0 0 2.730667 1.173334h10.986667a145.706667 145.706667 0 0 1-1.92 8l-0.64 2.56c-3.690667 12.650667-8 22.869333-12.906667 30.613333a3.968 3.968 0 0 0-0.426667 2.837333c0.213333 0.96 0.789333 1.749333 1.706667 2.389334 0.917333 0.490667 1.877333 0.64 2.837333 0.426666l-0.96 0.085334z m-11.370666-11.392a3.584 3.584 0 0 0 2.602666-1.109334 3.712 3.712 0 0 0 1.130667-2.730666V30.08a3.584 3.584 0 0 0-1.130667-2.602667 3.584 3.584 0 0 0-2.602666-1.130666H121.6a3.712 3.712 0 0 0-2.730667 1.109333 3.584 3.584 0 0 0-1.109333 2.624v70.506667c0 1.066667 0.384 1.984 1.130667 2.730666a3.712 3.712 0 0 0 2.709333 1.109334h16.746667z m-3.84-47.893334h-9.173334V33.92h9.173334v22.613333z m49.28 4.693334H171.093333c0.64-3.989333 1.066667-7.957333 1.28-11.946667h11.413334v11.946667z m-20.373334 0h-8.64v-11.946667h9.92v0.32c-0.277333 3.84-0.704 7.722667-1.28 11.626667zM134.506667 96.853333h-9.173334V64.106667h9.173334V96.853333z m49.664 18.496a11.413333 11.413333 0 0 0 7.936-2.773333c2.346667-1.941333 3.733333-4.992 4.16-9.109333l0.426666-5.76a4.096 4.096 0 0 0-1.024-2.773334 3.626667 3.626667 0 0 0-2.602666-1.28 3.605333 3.605333 0 0 0-2.773334 0.96 3.818667 3.818667 0 0 0-1.28 2.666667l-0.32 5.76c-0.213333 1.856-0.981333 3.136-2.282666 3.84a4.096 4.096 0 0 1-3.904 0.170667c-1.28-0.618667-1.92-1.877333-1.92-3.797334V77.546667a3.584 3.584 0 0 0-1.130667-2.602667 3.712 3.712 0 0 0-2.709333-1.130667 3.52 3.52 0 0 0-2.666667 1.130667 3.669333 3.669333 0 0 0-1.066667 2.602667V103.253333c0 3.84 1.130667 6.784 3.370667 8.853334a11.818667 11.818667 0 0 0 7.765333 3.242666z m77.909333 1.344c1.066667 0 1.962667-0.384 2.709333-1.109333a3.712 3.712 0 0 0 1.130667-2.730667V85.013333h17.493333c1.066667 0 1.984-0.384 2.773334-1.173333a3.925333 3.925333 0 0 0 1.173333-2.88 3.669333 3.669333 0 0 0-1.173333-2.666667 3.797333 3.797333 0 0 0-2.773334-1.173333h-17.493333V63.786667h11.52c1.066667 0 1.984-0.384 2.773333-1.130667a3.626667 3.626667 0 0 0 1.173334-2.709333 3.626667 3.626667 0 0 0-1.173334-2.709334 3.882667 3.882667 0 0 0-2.773333-1.130666h-11.52v-12.906667a3.882667 3.882667 0 0 0-1.130667-2.773333 3.626667 3.626667 0 0 0-2.709333-1.173334 3.626667 3.626667 0 0 0-2.709333 1.173334 3.882667 3.882667 0 0 0-1.130667 2.773333v12.906667h-8.96l7.253333-22.293334h23.36c1.066667 0 1.984-0.384 2.730667-1.109333a3.712 3.712 0 0 0 1.109333-2.730667 3.712 3.712 0 0 0-1.130666-2.709333 3.712 3.712 0 0 0-2.709334-1.130667h-20.906666l1.92-5.866666a3.797333 3.797333 0 0 0-0.32-2.922667 4.032 4.032 0 0 0-2.24-1.877333 3.946667 3.946667 0 0 0-4.906667 2.56l-2.56 8.106666h-10.026667a3.754667 3.754667 0 0 0-2.666666 1.109334 3.626667 3.626667 0 0 0-1.173334 2.730666c0 1.066667 0.384 1.984 1.173334 2.709334a3.754667 3.754667 0 0 0 2.666666 1.130666h7.573334L240.426667 58.666667a4.096 4.096 0 0 0 0.533333 3.52c0.704 1.066667 1.749333 1.6 3.093333 1.6h14.186667v13.333333h-20.16a3.626667 3.626667 0 0 0-2.709333 1.173333 4.010667 4.010667 0 0 0 0 5.546667 3.626667 3.626667 0 0 0 2.709333 1.173333h20.16V112.853333c0 1.066667 0.384 1.984 1.130667 2.730667a3.712 3.712 0 0 0 2.709333 1.109333z m-49.706667-0.96c1.066667 0 1.962667-0.384 2.709334-1.130666a3.712 3.712 0 0 0 1.130666-2.709334v-84.48h9.92l-5.866666 23.36a3.712 3.712 0 0 0 0.704 3.306667 4.010667 4.010667 0 0 0 3.029333 1.493333h4.16L220.373333 84.906667a3.989333 3.989333 0 0 0 0.426667 2.88c0.490667 0.853333 1.237333 1.386667 2.24 1.6 1.066667 0.277333 2.048 0.213333 2.922667-0.277334a3.434667 3.434667 0 0 0 1.770666-2.282666l8.96-33.92a3.989333 3.989333 0 0 0-0.704-3.413334 3.498667 3.498667 0 0 0-2.922666-1.493333h-4.373334l5.866667-23.253333a4.437333 4.437333 0 0 0-0.746667-3.456 3.413333 3.413333 0 0 0-2.88-1.450667h-18.56a3.712 3.712 0 0 0-2.709333 1.109333 3.712 3.712 0 0 0-1.130667 2.730667v88.213333c0 1.066667 0.384 1.984 1.130667 2.709334a3.712 3.712 0 0 0 2.709333 1.130666z m155.626667-0.32a3.626667 3.626667 0 0 0 2.730667-1.173333 3.754667 3.754667 0 0 0 1.109333-2.666667V41.386667a3.712 3.712 0 0 0-1.109333-2.709334 3.712 3.712 0 0 0-2.730667-1.130666h-25.493333v-9.28h29.973333a3.626667 3.626667 0 0 0 2.709333-1.173334 3.754667 3.754667 0 0 0 0-5.333333 3.626667 3.626667 0 0 0-2.709333-1.173333h-67.84a3.498667 3.498667 0 0 0-2.602667 1.173333 3.754667 3.754667 0 0 0 0 5.333333 3.498667 3.498667 0 0 0 2.602667 1.173334h30.293333v9.28h-25.706666a3.882667 3.882667 0 0 0-2.773334 1.109333 3.626667 3.626667 0 0 0-1.173333 2.730667v70.186666c0 1.002667 0.384 1.877333 1.173333 2.666667 0.789333 0.789333 1.706667 1.173333 2.773334 1.173333a3.498667 3.498667 0 0 0 2.624-1.173333 3.754667 3.754667 0 0 0 1.109333-2.666667V45.12h21.973333V111.573333c0 1.002667 0.384 1.877333 1.130667 2.666667a3.626667 3.626667 0 0 0 5.333333 0 3.754667 3.754667 0 0 0 1.109334-2.666667V45.12h21.653333V111.573333c0 1.002667 0.384 1.877333 1.173333 2.666667a3.669333 3.669333 0 0 0 2.666667 1.173333z m-40.917333-46.293333a3.541333 3.541333 0 0 0 2.730666-0.746667 3.776 3.776 0 0 0 0.64-5.333333l-7.146666-9.066667a4.202667 4.202667 0 0 0-2.602667-1.386666 3.712 3.712 0 0 0-2.837333 0.746666 4.181333 4.181333 0 0 0-1.386667 2.56 3.413333 3.413333 0 0 0 0.853333 2.773334l7.253334 9.066666a4.138667 4.138667 0 0 0 2.496 1.386667z m29.397333 0a3.626667 3.626667 0 0 0 2.773333-0.746667 4.181333 4.181333 0 0 0 1.386667-2.56 3.626667 3.626667 0 0 0-0.746667-2.773333l-7.253333-9.066667a4.181333 4.181333 0 0 0-2.56-1.386666 3.626667 3.626667 0 0 0-2.773333 0.746666 4.181333 4.181333 0 0 0-1.386667 2.56 3.626667 3.626667 0 0 0 0.746667 2.773334l7.253333 9.066666a4.181333 4.181333 0 0 0 2.56 1.386667z m-29.397333 22.293333a3.541333 3.541333 0 0 0 2.730666-0.746666 3.776 3.776 0 0 0 0.64-5.333334l-7.146666-9.066666a4.202667 4.202667 0 0 0-2.602667-1.386667 3.712 3.712 0 0 0-2.837333 0.746667 4.181333 4.181333 0 0 0-1.386667 2.56 3.413333 3.413333 0 0 0 0.853333 2.773333l7.253334 9.066667a4.138667 4.138667 0 0 0 2.496 1.386666z m29.397333 0a3.626667 3.626667 0 0 0 2.773333-0.746666 4.181333 4.181333 0 0 0 1.386667-2.56 3.626667 3.626667 0 0 0-0.746667-2.773334l-7.253333-9.066666a4.181333 4.181333 0 0 0-2.56-1.386667 3.626667 3.626667 0 0 0-2.773333 0.746667 4.181333 4.181333 0 0 0-1.386667 2.56 3.626667 3.626667 0 0 0 0.746667 2.773333l7.253333 9.066667a4.181333 4.181333 0 0 0 2.56 1.386666z" fill="#000000" /></svg>