<?xml version="1.0" standalone="no"?>
<!DOCTYPE svg PUBLIC "-//W3C//DTD SVG 1.1//EN" "http://www.w3.org/Graphics/SVG/1.1/DTD/svg11.dtd">
<svg class="icon" style="width: 1em;height: 1em;vertical-align: middle;fill: currentColor;overflow: hidden;" viewBox="0 0 1024 1024" version="1.1" xmlns="http://www.w3.org/2000/svg"><path d="M293.589333 661.333333C160.896 661.333333 53.333333 556.266667 53.333333 426.666667c0-69.12 30.592-131.264 79.296-174.208C171.349333 130.922667 287.445333 42.666667 424.64 42.666667c131.818667 0 244.16 81.472 287.104 195.669333 13.098667-2.410667 26.666667-3.669333 40.512-3.669333C872.874667 234.666667 970.666667 330.176 970.666667 448c0 115.84-94.506667 210.090667-212.309334 213.248l-6.101333 0.085333h-458.666667z" fill="#FFFFFF" /><path d="M970.666667 448c0 115.84-94.506667 210.090667-212.309334 213.248l-6.101333 0.085333h-458.666667C160.896 661.333333 53.333333 556.266667 53.333333 426.666667c0-5.76 0.213333-11.498667 0.64-17.173334 8.853333 116.565333 106.88 208.853333 227.690667 211.989334l6.378667 0.085333h448.064l5.973333-0.085333c115.072-3.072 207.381333-95.146667 207.381333-208.32 0-33.472-8.085333-65.109333-22.442666-93.141334A209.173333 209.173333 0 0 1 970.666667 448z" fill="#D1F1FF" /><path d="M424.64 42.666667c131.818667 0 244.16 81.472 287.104 195.669333 13.098667-2.410667 26.666667-3.669333 40.512-3.669333C872.874667 234.666667 970.666667 330.176 970.666667 448c0 115.84-94.506667 210.090667-212.309334 213.248l-6.101333 0.085333h-458.666667C160.896 661.333333 53.333333 556.266667 53.333333 426.666667c0-69.12 30.592-131.264 79.296-174.208C171.349333 130.922667 287.445333 42.666667 424.64 42.666667z m0 17.066666c-127.125333 0-238.144 81.066667-275.328 197.802667a17.024 17.024 0 0 1-4.970667 7.594667C97.834667 306.133333 70.805333 364.266667 70.805333 426.666667c0 118.186667 96.426667 214.336 216.64 217.514666l6.144 0.085334H752l5.866667-0.085334c108.586667-2.901333 195.306667-89.834667 195.306666-196.181333 0-108.394667-89.962667-196.266667-200.96-196.266667-12.629333 0-25.088 1.130667-37.248 3.370667a17.536 17.536 0 0 1-19.626666-10.88C653.973333 134.293333 546.496 59.733333 424.618667 59.733333z" fill="#000000" /><path d="M177.728 759.146667a25.6 25.6 0 0 1 48.853333 15.04l-0.810666 2.666666-73.749334 200.170667a25.6 25.6 0 0 1-48.853333-15.018667l0.810667-2.666666 73.749333-200.192zM305.728 759.146667a25.6 25.6 0 0 1 48.853333 15.04l-0.810666 2.666666-73.749334 200.170667a25.6 25.6 0 0 1-48.853333-15.018667l0.810667-2.666666 73.749333-200.192zM689.728 759.146667a25.6 25.6 0 0 1 48.853333 15.04l-0.810666 2.666666-73.749334 200.170667a25.6 25.6 0 0 1-48.853333-15.018667l0.810667-2.666666 73.749333-200.192zM817.728 759.146667a25.6 25.6 0 0 1 48.853333 15.04l-0.810666 2.666666-73.749334 200.170667a25.6 25.6 0 0 1-48.853333-15.018667l0.810667-2.666666 73.749333-200.192z" fill="#70C5FF" /><path d="M516.224 725.333333L405.333333 913.685333l73.642667-11.797333L452.309333 1024 576 832.810667l-75.904 9.92z" fill="#FFE34F" /><path d="M198.485333 463.872a68.928 39.381333 0 1 0 137.856 0 68.928 39.381333 0 1 0-137.856 0Z" fill="#FF9DCF" /><path d="M567.936 463.872a68.928 39.381333 0 1 0 137.856 0 68.928 39.381333 0 1 0-137.856 0Z" fill="#FF9DCF" /><path d="M343.829333 381.952m-29.546666 0a29.546667 29.546667 0 1 0 59.093333 0 29.546667 29.546667 0 1 0-59.093333 0Z" fill="#000000" /><path d="M559.701333 381.952m-29.546666 0a29.546667 29.546667 0 1 0 59.093333 0 29.546667 29.546667 0 1 0-59.093333 0Z" fill="#000000" /><path d="M353.28 274.005333c-22.037333 0-39.381333 4.266667-54.762667 13.888-12.842667 8.021333-24.682667 21.888-32.298666 34.432a10.666667 10.666667 0 1 0 18.218666 11.093334c6.037333-9.941333 15.936-21.546667 25.386667-27.434667 11.733333-7.338667 25.173333-10.666667 43.456-10.666667a10.666667 10.666667 0 1 0 0-21.333333zM551.018667 274.005333c22.016 0 39.36 4.266667 54.762666 13.888 12.821333 8.021333 24.661333 21.888 32.298667 34.432a10.666667 10.666667 0 0 1-18.218667 11.093334c-6.058667-9.941333-15.936-21.546667-25.386666-27.434667-11.733333-7.338667-25.216-10.666667-43.456-10.666667a10.666667 10.666667 0 1 1 0-21.333333z" fill="#000000" /><path d="M387.114667 522.410667c8.746667-18.133333 27.392-38.314667 66.666666-38.314667 39.253333 0 63.36 30.933333 63.36 38.314667-29.546667-18.133333-96.277333-19.157333-130.026666 0z" fill="#000000" /><path d="M749.226667 86.613333c1.066667 0 1.984-0.362667 2.730666-1.066666a3.52 3.52 0 0 0 1.109334-2.666667v-21.546667h23.573333v15.573334c0 1.002667 0.362667 1.877333 1.130667 2.666666a3.626667 3.626667 0 0 0 5.333333 0 3.754667 3.754667 0 0 0 1.109333-2.666666v-19.413334a3.584 3.584 0 0 0-1.109333-2.624 3.712 3.712 0 0 0-2.730667-1.109333H753.066667v-5.866667h27.306666a3.584 3.584 0 0 0 2.624-1.130666 3.584 3.584 0 0 0 1.109334-2.602667 3.712 3.712 0 0 0-1.130667-2.709333 3.584 3.584 0 0 0-2.602667-1.130667h-62.186666a3.712 3.712 0 0 0-2.709334 1.109333 3.712 3.712 0 0 0-1.130666 2.730667c0 1.002667 0.362667 1.877333 1.130666 2.624a3.712 3.712 0 0 0 2.709334 1.109333h27.306666v5.866667H718.08a3.584 3.584 0 0 0-2.602667 1.109333 3.584 3.584 0 0 0-1.130666 2.624v19.413334c0 1.002667 0.362667 1.877333 1.130666 2.666666a3.626667 3.626667 0 0 0 5.333334 0 3.754667 3.754667 0 0 0 1.109333-2.666666v-15.573334h23.573333v21.546667c0 1.066667 0.362667 1.962667 1.130667 2.666667 0.746667 0.704 1.6 1.066667 2.602667 1.066666z m19.52-13.333333a3.754667 3.754667 0 0 0 2.666666-1.130667 3.626667 3.626667 0 0 0 0-5.333333 3.754667 3.754667 0 0 0-2.666666-1.109333h-7.253334a3.712 3.712 0 0 0-2.709333 1.109333 3.712 3.712 0 0 0-1.130667 2.730667c0 1.002667 0.362667 1.877333 1.130667 2.624a3.712 3.712 0 0 0 2.709333 1.109333h7.253334z m-31.68 0a3.584 3.584 0 0 0 2.624-1.130667 3.584 3.584 0 0 0 1.109333-2.602666 3.712 3.712 0 0 0-1.130667-2.709334 3.584 3.584 0 0 0-2.602666-1.130666h-7.253334a3.712 3.712 0 0 0-2.709333 1.109333 3.712 3.712 0 0 0-1.130667 2.730667c0 1.002667 0.362667 1.877333 1.130667 2.624a3.712 3.712 0 0 0 2.709333 1.109333h7.253334z m31.68 12.16a3.754667 3.754667 0 0 0 2.666666-1.109333 3.626667 3.626667 0 0 0 0-5.333334 3.754667 3.754667 0 0 0-2.666666-1.130666h-7.253334a3.712 3.712 0 0 0-2.709333 1.130666 3.712 3.712 0 0 0-1.130667 2.709334c0 1.002667 0.362667 1.856 1.130667 2.624a3.712 3.712 0 0 0 2.709333 1.109333h7.253334z m-31.68 0a3.584 3.584 0 0 0 2.624-1.109333 3.584 3.584 0 0 0 1.109333-2.624 3.712 3.712 0 0 0-1.130667-2.709334 3.584 3.584 0 0 0-2.602666-1.130666h-7.253334a3.712 3.712 0 0 0-2.709333 1.130666 3.712 3.712 0 0 0-1.130667 2.709334c0 1.002667 0.362667 1.856 1.130667 2.624a3.712 3.712 0 0 0 2.709333 1.109333h7.253334z m37.546666 50.346667a3.584 3.584 0 0 0 2.602667-1.130667 3.584 3.584 0 0 0 1.130667-2.602667V94.826667a3.52 3.52 0 0 0-1.130667-2.666667 3.669333 3.669333 0 0 0-2.602667-1.066667h-50.666666a3.84 3.84 0 0 0-2.666667 1.066667 3.456 3.456 0 0 0-1.173333 2.666667V132.053333c0 1.002667 0.384 1.856 1.173333 2.602667a3.754667 3.754667 0 0 0 2.666667 1.130667h50.666666z m-29.12-26.24h-17.706666V98.56h17.706666v10.986667z m25.173334 0H753.066667V98.56h17.6v10.986667z m-25.173334 18.666666h-17.706666v-10.986666h17.706666v10.986666z m25.173334 0H753.066667v-10.986666h17.6v10.986666z m83.413333 9.813334c1.066667 0 1.984-0.384 2.730667-1.109334a3.712 3.712 0 0 0 1.109333-2.730666V106.346667h17.493333c1.066667 0 1.984-0.384 2.773334-1.173334a3.925333 3.925333 0 0 0 1.173333-2.88 3.669333 3.669333 0 0 0-1.173333-2.666666 3.797333 3.797333 0 0 0-2.773334-1.173334h-17.493333V85.12h11.52c1.066667 0 1.984-0.384 2.773333-1.130667a3.626667 3.626667 0 0 0 1.173334-2.709333 3.626667 3.626667 0 0 0-1.173334-2.709333 3.882667 3.882667 0 0 0-2.773333-1.130667h-11.52v-12.906667a3.882667 3.882667 0 0 0-1.130667-2.773333 3.626667 3.626667 0 0 0-2.709333-1.173333 3.626667 3.626667 0 0 0-2.709333 1.173333 3.882667 3.882667 0 0 0-1.130667 2.773333v12.906667h-8.96l7.253333-22.293333h23.36c1.066667 0 1.984-0.384 2.730667-1.109334a3.712 3.712 0 0 0 1.109333-2.730666 3.712 3.712 0 0 0-1.109333-2.709334 3.712 3.712 0 0 0-2.730667-1.130666h-20.906666l1.92-5.866667a3.797333 3.797333 0 0 0-0.32-2.922667 4.032 4.032 0 0 0-2.24-1.877333 3.946667 3.946667 0 0 0-4.906667 2.56l-2.56 8.106667h-10.026667a3.754667 3.754667 0 0 0-2.666666 1.109333 3.626667 3.626667 0 0 0-1.173334 2.730667c0 1.066667 0.384 1.984 1.173334 2.730666a3.754667 3.754667 0 0 0 2.666666 1.109334h7.573334L832.426667 80a4.096 4.096 0 0 0 0.533333 3.52c0.704 1.066667 1.749333 1.6 3.093333 1.6h14.186667v13.333333h-20.16a3.626667 3.626667 0 0 0-2.709333 1.173334 4.010667 4.010667 0 0 0 0 5.546666 3.626667 3.626667 0 0 0 2.709333 1.173334h20.16V134.186667c0 1.066667 0.384 1.984 1.130667 2.730666a3.712 3.712 0 0 0 2.709333 1.109334z m-49.706667-0.96c1.066667 0 1.984-0.384 2.730667-1.130667a3.712 3.712 0 0 0 1.109333-2.709333v-84.48h9.92l-5.866666 23.36a3.712 3.712 0 0 0 0.682666 3.306666 4.010667 4.010667 0 0 0 3.050667 1.493334h4.16L812.373333 106.24a3.989333 3.989333 0 0 0 0.426667 2.88c0.490667 0.853333 1.237333 1.386667 2.24 1.6 1.066667 0.277333 2.048 0.213333 2.944-0.277333a3.434667 3.434667 0 0 0 1.749333-2.282667l8.96-33.92a3.989333 3.989333 0 0 0-0.682666-3.413333 3.498667 3.498667 0 0 0-2.944-1.493334h-4.373334l5.866667-23.253333a4.437333 4.437333 0 0 0-0.746667-3.477333 3.413333 3.413333 0 0 0-2.88-1.429334h-18.56a3.712 3.712 0 0 0-2.709333 1.109334 3.712 3.712 0 0 0-1.130667 2.730666v88.213334c0 1.066667 0.362667 1.984 1.130667 2.709333a3.712 3.712 0 0 0 2.709333 1.130667zM960 136.746667a3.626667 3.626667 0 0 0 2.709333-1.173334 3.754667 3.754667 0 0 0 1.130667-2.666666V62.72a3.712 3.712 0 0 0-1.130667-2.709333A3.712 3.712 0 0 0 960 58.88h-25.493333v-9.28h29.973333a3.626667 3.626667 0 0 0 2.709333-1.173333 3.754667 3.754667 0 0 0 0-5.333334 3.626667 3.626667 0 0 0-2.709333-1.173333h-67.84a3.498667 3.498667 0 0 0-2.624 1.173333 3.754667 3.754667 0 0 0 0 5.333334 3.498667 3.498667 0 0 0 2.624 1.173333h30.293333v9.28h-25.706666a3.882667 3.882667 0 0 0-2.773334 1.130667 3.626667 3.626667 0 0 0-1.173333 2.709333v70.186667c0 1.002667 0.384 1.877333 1.173333 2.666666 0.789333 0.789333 1.706667 1.173333 2.773334 1.173334a3.498667 3.498667 0 0 0 2.624-1.173334 3.754667 3.754667 0 0 0 1.109333-2.666666V66.453333h21.973333V132.906667c0 1.002667 0.362667 1.877333 1.109334 2.666666a3.626667 3.626667 0 0 0 5.333333 0 3.754667 3.754667 0 0 0 1.130667-2.666666V66.453333h21.653333V132.906667c0 1.002667 0.384 1.877333 1.173333 2.666666A3.669333 3.669333 0 0 0 960 136.746667z m-40.896-46.293334a3.541333 3.541333 0 0 0 2.709333-0.746666 3.776 3.776 0 0 0 0.64-5.333334l-7.146666-9.066666a4.202667 4.202667 0 0 0-2.624-1.386667 3.712 3.712 0 0 0-2.816 0.746667 4.181333 4.181333 0 0 0-1.386667 2.56 3.413333 3.413333 0 0 0 0.853333 2.773333l7.253334 9.066667a4.138667 4.138667 0 0 0 2.496 1.386666z m29.376 0a3.626667 3.626667 0 0 0 2.773333-0.746666 4.181333 4.181333 0 0 0 1.386667-2.56 3.626667 3.626667 0 0 0-0.746667-2.773334l-7.253333-9.066666a4.181333 4.181333 0 0 0-2.56-1.386667 3.626667 3.626667 0 0 0-2.773333 0.746667 4.181333 4.181333 0 0 0-1.386667 2.56 3.626667 3.626667 0 0 0 0.746667 2.773333l7.253333 9.066667a4.181333 4.181333 0 0 0 2.56 1.386666z m-29.376 22.293334a3.541333 3.541333 0 0 0 2.709333-0.746667 3.776 3.776 0 0 0 0.64-5.333333l-7.146666-9.066667a4.202667 4.202667 0 0 0-2.624-1.386667 3.712 3.712 0 0 0-2.816 0.746667 4.181333 4.181333 0 0 0-1.386667 2.56 3.413333 3.413333 0 0 0 0.853333 2.773333l7.253334 9.066667a4.138667 4.138667 0 0 0 2.496 1.386667z m29.376 0a3.626667 3.626667 0 0 0 2.773333-0.746667 4.181333 4.181333 0 0 0 1.386667-2.56 3.626667 3.626667 0 0 0-0.746667-2.773333l-7.253333-9.066667a4.181333 4.181333 0 0 0-2.56-1.386667 3.626667 3.626667 0 0 0-2.773333 0.746667 4.181333 4.181333 0 0 0-1.386667 2.56 3.626667 3.626667 0 0 0 0.746667 2.773333l7.253333 9.066667a4.181333 4.181333 0 0 0 2.56 1.386667z" fill="#000000" /></svg>