<?xml version="1.0" standalone="no"?>
<!DOCTYPE svg PUBLIC "-//W3C//DTD SVG 1.1//EN" "http://www.w3.org/Graphics/SVG/1.1/DTD/svg11.dtd">
<svg class="icon" style="width: 1em;height: 1em;vertical-align: middle;fill: currentColor;overflow: hidden;" viewBox="0 0 1024 1024" version="1.1" xmlns="http://www.w3.org/2000/svg"><path d="M290.346667 672C155.733333 672 46.549333 563.306667 46.549333 429.226667c0-71.488 31.04-135.786667 80.448-180.202667A310.293333 310.293333 0 0 1 423.338667 32c133.76 0 247.765333 84.266667 291.370666 202.410667a222.677333 222.677333 0 0 1 41.109334-3.797334c122.410667 0 221.653333 98.816 221.653333 220.693334 0 119.829333-95.914667 217.344-215.466667 220.608l-6.186666 0.085333H290.346667z" fill="#FFFFFF" /><path d="M977.450667 451.306667c0 119.829333-95.893333 217.344-215.445334 220.608l-6.186666 0.085333H290.346667C155.733333 672 46.549333 563.306667 46.549333 429.226667c0-5.973333 0.213333-11.882667 0.64-17.749334 8.981333 120.576 108.48 216.042667 231.04 219.306667l6.485334 0.085333H739.413333l6.058667-0.085333c116.778667-3.2 210.474667-98.453333 210.474667-215.509333 0-34.624-8.213333-67.349333-22.784-96.362667a219.093333 219.093333 0 0 1 44.288 132.394667z" fill="#D1F1FF" /><path d="M423.338667 32c133.76 0 247.765333 84.266667 291.370666 202.410667a222.677333 222.677333 0 0 1 41.109334-3.797334c122.410667 0 221.653333 98.816 221.653333 220.693334 0 119.829333-95.914667 217.344-215.466667 220.608l-6.186666 0.085333H290.346667C155.733333 672 46.549333 563.306667 46.549333 429.226667c0-71.488 31.04-135.786667 80.448-180.202667A310.293333 310.293333 0 0 1 423.338667 32z m0 17.664c-128.981333 0-241.664 83.861333-279.402667 204.586667a17.642667 17.642667 0 0 1-5.056 7.893333 224 224 0 0 0-74.602667 167.104c0 122.24 97.877333 221.738667 219.861334 225.002667l6.208 0.085333h465.216l5.973333-0.064c110.186667-3.029333 198.186667-92.949333 198.186667-202.965333 0-112.128-91.306667-203.029333-203.904-203.029334-12.842667 0-25.493333 1.173333-37.824 3.498667a17.749333 17.749333 0 0 1-19.946667-11.264c-41.941333-113.706667-151.018667-190.848-274.709333-190.848z" fill="#000000" /><path d="M359.402667 759.146667a25.6 25.6 0 0 1 48.874666 15.04l-0.832 2.666666-73.749333 200.170667a25.6 25.6 0 0 1-48.853333-15.018667l0.810666-2.666666 73.749334-200.192zM524.864 759.146667a25.6 25.6 0 0 1 48.853333 15.04l-0.810666 2.666666-73.770667 200.170667a25.6 25.6 0 0 1-48.853333-15.018667l0.810666-2.666666 73.770667-200.192zM690.304 759.146667a25.6 25.6 0 0 1 48.853333 15.04l-0.810666 2.666666-73.749334 200.170667a25.6 25.6 0 0 1-48.874666-15.018667l0.832-2.666666 73.749333-200.192z" fill="#70C5FF" /><path d="M183.317333 804.224c2.346667 0 4.266667 1.642667 4.736 3.84l0.085334 0.981333v6.890667l5.674666-5.034667a4.842667 4.842667 0 0 1 7.082667 6.485334l-0.64 0.725333-12.117333 10.773333v9.002667l18.901333 10.901333 7.786667-4.48 3.306666-15.872a4.842667 4.842667 0 0 1 9.557334 0.981334l-0.106667 0.981333-1.536 7.424 5.973333-3.434667a4.842667 4.842667 0 0 1 5.632 7.786667l-0.789333 0.576-5.973333 3.434667 7.189333 2.389333a4.842667 4.842667 0 0 1-2.069333 9.386667l-0.96-0.213334-15.381334-5.077333-7.786666 4.48v21.845333l7.786666 4.48 15.381334-5.056a4.842667 4.842667 0 0 1 3.925333 8.768l-0.896 0.426667-7.189333 2.346667 5.973333 3.456a4.842667 4.842667 0 0 1-3.946667 8.789333l-0.896-0.426667-5.973333-3.434666 1.536 7.424a4.842667 4.842667 0 0 1-9.173333 2.901333l-0.277334-0.938667-3.285333-15.872-7.786667-4.48-18.922666 10.88v9.024l12.096 10.773334a4.842667 4.842667 0 0 1-5.632 7.808l-0.789334-0.576-5.653333-5.056v6.890666a4.842667 4.842667 0 0 1-9.6 0.981334l-0.085333-0.981334v-6.890666l-5.653334 5.056a4.842667 4.842667 0 0 1-7.104-6.506667l0.661334-0.725333 12.096-10.773334v-8.981333l-18.901334-10.922667-7.786666 4.501334-3.285334 15.850666a4.842667 4.842667 0 0 1-9.578666-0.981333l0.106666-0.981333 1.536-7.402667-5.973333 3.413333a4.842667 4.842667 0 0 1-5.632-7.786666l0.810667-0.576 5.973333-3.413334-7.210667-2.410666a4.842667 4.842667 0 0 1 2.069334-9.386667l0.96 0.213333 15.381333 5.098667 7.786667-4.522667V857.173333l-7.786667-4.48-15.381333 5.077334a4.842667 4.842667 0 0 1-3.925334-8.789334l0.896-0.405333 7.189334-2.368-5.973334-3.456a4.842667 4.842667 0 0 1 3.946667-8.768l0.896 0.405333 5.973333 3.434667-1.536-7.424a4.842667 4.842667 0 0 1 9.173334-2.901333l0.298666 0.938666 3.264 15.872 7.808 4.48 18.901334-10.901333v-9.002667l-12.096-10.773333a4.842667 4.842667 0 0 1 5.632-7.786667l0.810666 0.576 5.653334 5.034667v-6.890667c0-2.666667 2.154667-4.821333 4.842666-4.821333z m-0.021333 45.653333l-15.786667 9.109334v18.197333l15.786667 9.109333 15.786667-9.109333v-18.197333l-15.786667-9.109334z" fill="#6BD1FF" /><path d="M842.496 804.224c2.346667 0 4.266667 1.642667 4.736 3.84l0.085333 0.981333v6.890667l5.674667-5.034667a4.842667 4.842667 0 0 1 7.082667 6.485334l-0.64 0.725333-12.117334 10.773333v9.002667l18.901334 10.901333 7.808-4.48 3.285333-15.872a4.842667 4.842667 0 0 1 9.557333 0.981334l-0.085333 0.981333-1.557333 7.424 5.973333-3.434667a4.842667 4.842667 0 0 1 5.632 7.786667l-0.789333 0.576-5.973334 3.434667 7.210667 2.389333a4.842667 4.842667 0 0 1-2.090667 9.386667l-0.96-0.213334-15.36-5.077333-7.808 4.48v21.845333l7.808 4.48 15.36-5.056a4.842667 4.842667 0 0 1 3.946667 8.768l-0.896 0.426667-7.210667 2.346667 5.973334 3.456a4.842667 4.842667 0 0 1-3.946667 8.789333l-0.896-0.426667-5.973333-3.434666 1.557333 7.424a4.842667 4.842667 0 0 1-9.173333 2.901333l-0.298667-0.938667-3.285333-15.872-7.786667-4.48-18.922667 10.88v9.024l12.096 10.773334a4.842667 4.842667 0 0 1-5.632 7.808l-0.789333-0.576-5.653333-5.056v6.890666a4.842667 4.842667 0 0 1-9.6 0.981334l-0.085334-0.981334v-6.890666l-5.653333 5.056a4.842667 4.842667 0 0 1-7.104-6.506667l0.661333-0.725333 12.117334-10.773334-0.021334-8.981333-18.901333-10.922667-7.786667 4.501334-3.285333 15.850666a4.842667 4.842667 0 0 1-9.578667-0.981333l0.106667-0.981333 1.536-7.402667-5.973333 3.413333a4.842667 4.842667 0 0 1-5.632-7.786666l0.810666-0.576 5.973334-3.413334-7.210667-2.410666a4.842667 4.842667 0 0 1 2.069333-9.386667l0.96 0.213333 15.381334 5.098667 7.786666-4.522667V857.173333l-7.786666-4.48-15.36 5.077334a4.842667 4.842667 0 0 1-3.946667-8.789334l0.896-0.405333 7.189333-2.368-5.973333-3.456a4.842667 4.842667 0 0 1 3.946667-8.768l0.896 0.405333 5.973333 3.434667-1.536-7.424a4.842667 4.842667 0 0 1 9.173333-2.901333l0.298667 0.938666 3.264 15.872 7.808 4.48 18.901333-10.901333v-9.002667l-12.096-10.773333a4.842667 4.842667 0 0 1 5.653334-7.786667l0.789333 0.576 5.653333 5.034667v-6.890667c0-2.666667 2.176-4.821333 4.842667-4.821333z m0 45.653333l-15.786667 9.109334v18.197333l15.786667 9.109333 15.765333-9.109333v-18.197333l-15.786666-9.109334z" fill="#6BD1FF" /><path d="M162.346667 440.128a74.666667 42.666667 0 1 0 149.333333 0 74.666667 42.666667 0 1 0-149.333333 0Z" fill="#FF9DCF" /><path d="M533.76 440.128a74.666667 42.666667 0 1 0 149.333333 0 74.666667 42.666667 0 1 0-149.333333 0Z" fill="#FF9DCF" /><path d="M588.032 330.666667m-32 0a32 32 0 1 0 64 0 32 32 0 1 0-64 0Z" fill="#000000" /><path d="M257.408 330.666667m-32 0a32 32 0 1 0 64 0 32 32 0 1 0-64 0Z" fill="#000000" /><path d="M376.853333 357.034667a10.666667 10.666667 0 0 1 11.584 9.664c1.429333 15.616 16.170667 28.074667 34.282667 28.074666 18.133333 0 32.853333-12.458667 34.282667-28.074666a10.666667 10.666667 0 1 1 21.248 1.92c-2.474667 26.965333-26.709333 47.488-55.530667 47.488-28.8 0-53.056-20.522667-55.530667-47.466667a10.666667 10.666667 0 0 1 9.642667-11.605333z" fill="#000000" /><path d="M720.746667 116.693333c1.066667 0 1.984-0.384 2.730666-1.109333a3.712 3.712 0 0 0 1.109334-2.730667V85.013333h17.493333c1.066667 0 1.984-0.384 2.773333-1.173333a3.925333 3.925333 0 0 0 1.173334-2.88 3.669333 3.669333 0 0 0-1.173334-2.666667 3.797333 3.797333 0 0 0-2.773333-1.173333h-17.493333V63.786667h11.52c1.066667 0 1.984-0.384 2.773333-1.130667a3.626667 3.626667 0 0 0 1.173333-2.709333 3.626667 3.626667 0 0 0-1.173333-2.709334 3.882667 3.882667 0 0 0-2.773333-1.130666h-11.52v-12.906667a3.882667 3.882667 0 0 0-1.130667-2.773333 3.626667 3.626667 0 0 0-2.709333-1.173334 3.626667 3.626667 0 0 0-2.709334 1.173334 3.882667 3.882667 0 0 0-1.130666 2.773333v12.906667h-8.96l7.253333-22.293334h23.36c1.066667 0 1.984-0.384 2.730667-1.109333a3.712 3.712 0 0 0 1.109333-2.730667 3.712 3.712 0 0 0-1.109333-2.709333 3.712 3.712 0 0 0-2.730667-1.130667h-20.906667l1.92-5.866666a3.797333 3.797333 0 0 0-0.32-2.922667 4.032 4.032 0 0 0-2.24-1.877333 3.946667 3.946667 0 0 0-4.906666 2.56l-2.56 8.106666h-10.026667a3.754667 3.754667 0 0 0-2.666667 1.109334 3.626667 3.626667 0 0 0-1.173333 2.730666c0 1.066667 0.384 1.984 1.173333 2.709334a3.754667 3.754667 0 0 0 2.666667 1.130666h7.573333L699.093333 58.666667a4.096 4.096 0 0 0 0.533334 3.52c0.704 1.066667 1.749333 1.6 3.093333 1.6h14.186667v13.333333h-20.16a3.626667 3.626667 0 0 0-2.709334 1.173333 4.010667 4.010667 0 0 0 0 5.546667 3.626667 3.626667 0 0 0 2.709334 1.173333h20.16V112.853333c0 1.066667 0.384 1.984 1.130666 2.730667a3.712 3.712 0 0 0 2.709334 1.109333z m-49.706667-0.96c1.066667 0 1.984-0.384 2.730667-1.130666a3.712 3.712 0 0 0 1.109333-2.709334v-84.48h9.92l-5.866667 23.36a3.712 3.712 0 0 0 0.704 3.306667 4.010667 4.010667 0 0 0 3.029334 1.493333h4.16L679.04 84.906667a3.989333 3.989333 0 0 0 0.426667 2.88c0.490667 0.853333 1.237333 1.386667 2.24 1.6 1.066667 0.277333 2.048 0.213333 2.944-0.277334a3.434667 3.434667 0 0 0 1.749333-2.282666l8.96-33.92a3.989333 3.989333 0 0 0-0.682667-3.413334 3.498667 3.498667 0 0 0-2.944-1.493333h-4.373333l5.866667-23.253333a4.437333 4.437333 0 0 0-0.746667-3.456 3.413333 3.413333 0 0 0-2.88-1.450667h-18.56a3.712 3.712 0 0 0-2.709333 1.109333 3.712 3.712 0 0 0-1.130667 2.730667v88.213333c0 1.066667 0.384 1.984 1.130667 2.709334a3.712 3.712 0 0 0 2.709333 1.130666z m155.626667-0.32a3.626667 3.626667 0 0 0 2.709333-1.173333 3.754667 3.754667 0 0 0 1.130667-2.666667V41.386667a3.712 3.712 0 0 0-1.130667-2.709334 3.712 3.712 0 0 0-2.709333-1.130666h-25.493334v-9.28h29.973334a3.626667 3.626667 0 0 0 2.709333-1.173334 3.754667 3.754667 0 0 0 0-5.333333 3.626667 3.626667 0 0 0-2.709333-1.173333h-67.84a3.498667 3.498667 0 0 0-2.624 1.173333 3.754667 3.754667 0 0 0 0 5.333333 3.498667 3.498667 0 0 0 2.624 1.173334h30.293333v9.28h-25.706667a3.882667 3.882667 0 0 0-2.773333 1.109333 3.626667 3.626667 0 0 0-1.173333 2.730667v70.186666c0 1.002667 0.384 1.877333 1.173333 2.666667 0.789333 0.789333 1.706667 1.173333 2.773333 1.173333a3.498667 3.498667 0 0 0 2.624-1.173333 3.754667 3.754667 0 0 0 1.109334-2.666667V45.12h21.973333V111.573333c0 1.002667 0.362667 1.877333 1.109333 2.666667a3.626667 3.626667 0 0 0 5.333334 0 3.754667 3.754667 0 0 0 1.130666-2.666667V45.12h21.653334V111.573333c0 1.002667 0.384 1.877333 1.173333 2.666667a3.669333 3.669333 0 0 0 2.666667 1.173333z m-40.896-46.293333a3.541333 3.541333 0 0 0 2.709333-0.746667 3.776 3.776 0 0 0 0.64-5.333333l-7.146667-9.066667a4.202667 4.202667 0 0 0-2.624-1.386666 3.712 3.712 0 0 0-2.816 0.746666 4.181333 4.181333 0 0 0-1.386666 2.56 3.413333 3.413333 0 0 0 0.853333 2.773334l7.253333 9.066666a4.138667 4.138667 0 0 0 2.496 1.386667z m29.376 0a3.626667 3.626667 0 0 0 2.773333-0.746667 4.181333 4.181333 0 0 0 1.386667-2.56 3.626667 3.626667 0 0 0-0.746667-2.773333l-7.253333-9.066667a4.181333 4.181333 0 0 0-2.56-1.386666 3.626667 3.626667 0 0 0-2.773334 0.746666 4.181333 4.181333 0 0 0-1.386666 2.56 3.626667 3.626667 0 0 0 0.746666 2.773334l7.253334 9.066666a4.181333 4.181333 0 0 0 2.56 1.386667z m-29.376 22.293333a3.541333 3.541333 0 0 0 2.709333-0.746666 3.776 3.776 0 0 0 0.64-5.333334l-7.146667-9.066666a4.202667 4.202667 0 0 0-2.624-1.386667 3.712 3.712 0 0 0-2.816 0.746667 4.181333 4.181333 0 0 0-1.386666 2.56 3.413333 3.413333 0 0 0 0.853333 2.773333l7.253333 9.066667a4.138667 4.138667 0 0 0 2.496 1.386666z m29.376 0a3.626667 3.626667 0 0 0 2.773333-0.746666 4.181333 4.181333 0 0 0 1.386667-2.56 3.626667 3.626667 0 0 0-0.746667-2.773334l-7.253333-9.066666a4.181333 4.181333 0 0 0-2.56-1.386667 3.626667 3.626667 0 0 0-2.773334 0.746667 4.181333 4.181333 0 0 0-1.386666 2.56 3.626667 3.626667 0 0 0 0.746666 2.773333l7.253334 9.066667a4.181333 4.181333 0 0 0 2.56 1.386666z m104.64 24.042667a3.754667 3.754667 0 0 0 2.88-0.682667 3.456 3.456 0 0 0 1.536-2.346666 3.754667 3.754667 0 0 0-0.682667-2.88L894.826667 68.266667h26.026666a3.584 3.584 0 0 0 2.624-1.130667 3.712 3.712 0 0 0 1.109334-2.709333 3.52 3.52 0 0 0-1.130667-2.666667 3.669333 3.669333 0 0 0-2.602667-1.066667H891.306667V36.693333h24.96a3.626667 3.626667 0 0 0 3.733333-3.733333 3.797333 3.797333 0 0 0-1.066667-2.709333 3.52 3.52 0 0 0-2.666666-1.130667h-24.96v-8.32a3.882667 3.882667 0 0 0-1.130667-2.773333 3.626667 3.626667 0 0 0-5.333333 0 3.882667 3.882667 0 0 0-1.109334 2.773333v8.32h-24.96a3.712 3.712 0 0 0-2.730666 1.109333 3.712 3.712 0 0 0-1.109334 2.730667c0 1.066667 0.362667 1.962667 1.109334 2.666667 0.746667 0.704 1.664 1.066667 2.730666 1.066666h24.96v24H854.186667a3.797333 3.797333 0 0 0-2.709334 1.066667 3.52 3.52 0 0 0-1.130666 2.666667c0 1.066667 0.362667 1.962667 1.130666 2.709333a3.712 3.712 0 0 0 2.709334 1.130667h26.026666l-28.8 41.28a3.989333 3.989333 0 0 0-0.576 2.88 3.456 3.456 0 0 0 1.536 2.346666 3.754667 3.754667 0 0 0 5.333334-0.853333L887.466667 71.146667 917.333333 113.92a3.84 3.84 0 0 0 2.453334 1.536z m-16.661334-57.514667l0.981334-0.192a4.202667 4.202667 0 0 0 2.346666-1.856l5.546667-10.56a3.904 3.904 0 0 0 0.213333-2.837333 3.562667 3.562667 0 0 0-1.813333-2.176 3.712 3.712 0 0 0-2.88-0.32 3.968 3.968 0 0 0-2.346667 1.813333l-5.44 10.56a3.882667 3.882667 0 0 0-0.32 2.922667c0.277333 0.981333 0.896 1.706667 1.813334 2.197333a3.541333 3.541333 0 0 0 2.88 0.277334l-0.981334 0.170666z m-32.298666-0.192c1.002667 0.341333 1.962667 0.234667 2.88-0.256a3.52 3.52 0 0 0 1.92-2.197333 3.882667 3.882667 0 0 0-0.32-2.922667l-5.546667-10.56a3.968 3.968 0 0 0-2.304-1.813333 3.605333 3.605333 0 0 0-2.816 0.32 3.52 3.52 0 0 0-1.92 2.197333 3.605333 3.605333 0 0 0 0.32 2.816l5.546667 10.56a3.776 3.776 0 0 0 2.24 1.856z m107.946666 7.744c1.066667 0 1.962667-0.362667 2.709334-1.109333a3.712 3.712 0 0 0 1.130666-2.730667v-21.333333h23.146667v15.68c0 1.002667 0.362667 1.856 1.109333 2.624a3.584 3.584 0 0 0 2.624 1.109333c1.066667 0 1.984-0.362667 2.709334-1.109333a3.584 3.584 0 0 0 1.130666-2.624V36.48a3.52 3.52 0 0 0-1.130666-2.666667 3.797333 3.797333 0 0 0-2.709334-1.066666h-26.88v-6.186667h26.88a3.498667 3.498667 0 0 0 2.624-1.173333 3.754667 3.754667 0 0 0 0-5.333334 3.498667 3.498667 0 0 0-2.624-1.173333h-61.76a3.626667 3.626667 0 0 0-2.709333 1.173333 3.754667 3.754667 0 0 0 0 5.333334 3.626667 3.626667 0 0 0 2.709333 1.173333h27.306667v6.186667H947.626667a3.669333 3.669333 0 0 0-2.624 1.066666 3.52 3.52 0 0 0-1.109334 2.666667v19.52c0 1.002667 0.384 1.856 1.130667 2.624a3.584 3.584 0 0 0 2.602667 1.109333c1.066667 0 1.984-0.362667 2.709333-1.109333a3.584 3.584 0 0 0 1.130667-2.624V40.32h23.573333v21.333333c0 1.066667 0.362667 1.962667 1.130667 2.709334a3.584 3.584 0 0 0 2.602666 1.130666z m19.093334-13.12a3.754667 3.754667 0 0 0 2.666666-1.130666 3.626667 3.626667 0 0 0 1.173334-2.709334 3.456 3.456 0 0 0-1.173334-2.666666 3.84 3.84 0 0 0-2.666666-1.066667h-7.253334a3.797333 3.797333 0 0 0-2.730666 1.066667 3.52 3.52 0 0 0-1.109334 2.666666c0 1.066667 0.362667 1.984 1.109334 2.709334a3.712 3.712 0 0 0 2.730666 1.130666h7.253334z m-31.253334 0a3.584 3.584 0 0 0 2.602667-1.130666 3.712 3.712 0 0 0 1.130667-2.709334 3.52 3.52 0 0 0-1.130667-2.666666 3.669333 3.669333 0 0 0-2.602667-1.066667h-7.253333a3.989333 3.989333 0 0 0-2.773333 1.066667 3.456 3.456 0 0 0-1.173334 2.666666c0 1.066667 0.384 1.984 1.173334 2.709334 0.789333 0.746667 1.706667 1.130667 2.773333 1.130666h7.253333z m31.253334 12.16a3.754667 3.754667 0 0 0 2.666666-1.109333 3.626667 3.626667 0 0 0 0-5.333333 3.754667 3.754667 0 0 0-2.666666-1.130667h-7.253334a3.712 3.712 0 0 0-2.730666 1.130667 3.712 3.712 0 0 0-1.109334 2.709333c0 1.002667 0.362667 1.856 1.109334 2.624a3.712 3.712 0 0 0 2.730666 1.109333h7.253334z m-31.253334 0a3.584 3.584 0 0 0 2.602667-1.109333 3.584 3.584 0 0 0 1.130667-2.624 3.712 3.712 0 0 0-1.130667-2.709333 3.584 3.584 0 0 0-2.602667-1.130667h-7.253333a3.882667 3.882667 0 0 0-2.773333 1.130667 3.626667 3.626667 0 0 0 0 5.333333c0.789333 0.725333 1.706667 1.109333 2.773333 1.109333h7.253333z m36.906667 49.173334a3.498667 3.498667 0 0 0 2.624-1.173334 3.754667 3.754667 0 0 0 1.109333-2.666666V73.386667a3.584 3.584 0 0 0-1.130666-2.624 3.584 3.584 0 0 0-2.602667-1.109334h-51.306667a3.712 3.712 0 0 0-2.709333 1.109334 3.584 3.584 0 0 0-1.130667 2.624c0 1.066667 0.362667 1.984 1.130667 2.773333a3.626667 3.626667 0 0 0 2.709333 1.173333h47.466667v8.96h-43.626667a3.712 3.712 0 0 0-2.709333 1.130667 3.712 3.712 0 0 0-1.130667 2.709333c0 1.066667 0.384 1.962667 1.130667 2.666667 0.725333 0.704 1.642667 1.066667 2.709333 1.066667h43.626667v12.16h-48.533333a3.797333 3.797333 0 0 0-2.773334 1.173333 3.669333 3.669333 0 0 0-1.173333 2.666667c0 1.002667 0.384 1.877333 1.173333 2.666666 0.789333 0.789333 1.706667 1.173333 2.773334 1.173334h52.373333z" fill="#000000" /></svg>